<svg width="30" height="32" viewBox="0 0 30 32" fill="none" xmlns="http://www.w3.org/2000/svg">
<path d="M9.80844 24.6702L8.39677 26.2006C8.10365 25.5991 7.64525 25.1129 7.08594 24.8102L8.13094 23.6599C8.62778 24.1074 9.19664 24.45 9.80844 24.6702Z" fill="#02478D" fill-opacity="0.5"/>
<path d="M9.71656 9.19054L9.38656 9.28057C9.17268 9.34455 8.96416 9.4282 8.76323 9.53063C8.61894 9.58774 8.48065 9.66151 8.35073 9.75069C8.1958 9.84113 8.04582 9.94132 7.90156 10.0508L6.66406 8.70041C7.24273 8.40848 7.70737 7.90147 7.9749 7.27002L9.67073 9.14053L9.71656 9.19054Z" fill="#02478D" fill-opacity="0.5"/>
<path d="M22.9168 23.5699C22.3633 23.9065 21.9039 24.4008 21.5877 24.9999L17.646 20.7099C18.1893 20.277 18.8166 19.9862 19.4793 19.8599L22.9168 23.5699Z" fill="#02478D" fill-opacity="0.5"/>
<path d="M22.6602 8.70018L22.0918 9.32035C21.548 9.10662 20.9741 8.9983 20.396 9.00027H19.791L21.3585 7.2998C21.6334 7.9149 22.0927 8.409 22.6602 8.70018Z" fill="#02478D" fill-opacity="0.5"/>
<path d="M5.7475 31C7.40297 31 8.745 29.5359 8.745 27.73C8.745 25.924 7.40297 24.46 5.7475 24.46C4.09203 24.46 2.75 25.924 2.75 27.73C2.75 29.5359 4.09203 31 5.7475 31Z" fill="#02478D"/>
<path d="M5.50011 8.98073C7.01383 8.98073 8.24094 7.64206 8.24094 5.99073C8.24094 4.3394 7.01383 3.00073 5.50011 3.00073C3.98639 3.00073 2.75928 4.3394 2.75928 5.99073C2.75928 7.64206 3.98639 8.98073 5.50011 8.98073Z" fill="#02478D"/>
<path d="M23.8331 8.98073C25.3468 8.98073 26.574 7.64206 26.574 5.99073C26.574 4.3394 25.3468 3.00073 23.8331 3.00073C22.3194 3.00073 21.0923 4.3394 21.0923 5.99073C21.0923 7.64206 22.3194 8.98073 23.8331 8.98073Z" fill="#02478D"/>
<path d="M24.7502 31C26.7752 31 28.4168 29.2091 28.4168 27C28.4168 24.7909 26.7752 23 24.7502 23C22.7251 23 21.0835 24.7909 21.0835 27C21.0835 29.2091 22.7251 31 24.7502 31Z" fill="#02478D"/>
<path d="M25.3273 14.36C25.3264 15.4805 25.0055 16.5728 24.4091 17.4851C23.8128 18.3973 22.9706 19.0841 21.9998 19.45V17C21.9998 16.2707 21.7342 15.5712 21.2615 15.0555C20.7887 14.5397 20.1475 14.25 19.479 14.25C19.2359 14.25 19.0027 14.3554 18.8308 14.5429C18.6589 14.7304 18.5623 14.9848 18.5623 15.25C18.5623 15.5152 18.6589 15.7696 18.8308 15.9571C19.0027 16.1446 19.2359 16.25 19.479 16.25C19.6606 16.2526 19.8341 16.3324 19.9625 16.4725C20.0909 16.6126 20.1641 16.8019 20.1665 17V19.76C19.4102 19.7958 18.6729 20.0299 18.0171 20.4424C17.3613 20.855 16.8062 21.4338 16.399 22.13C15.8825 23.0132 15.1695 23.7396 14.3264 24.2414C13.4834 24.7432 12.5377 25.0042 11.5773 25H11.4031C10.0835 24.9262 8.82589 24.3655 7.8366 23.4098C6.8473 22.4541 6.18496 21.1602 5.95814 19.74H9.97315C10.1547 19.7426 10.3282 19.8224 10.4567 19.9625C10.5851 20.1026 10.6583 20.2919 10.6606 20.49C10.6606 20.7552 10.7572 21.0096 10.9291 21.1971C11.101 21.3846 11.3342 21.49 11.5773 21.49C11.8204 21.49 12.0536 21.3846 12.2255 21.1971C12.3974 21.0096 12.494 20.7552 12.494 20.49C12.494 19.7607 12.2284 19.0612 11.7556 18.5455C11.2829 18.0297 10.6417 17.74 9.97315 17.74H5.84814V16.24H9.97315C10.6417 16.24 11.2829 15.9503 11.7556 15.4345C12.2284 14.9188 12.494 14.2193 12.494 13.49C12.494 13.2248 12.3974 12.9704 12.2255 12.7829C12.0536 12.5954 11.8204 12.49 11.5773 12.49C11.3342 12.49 11.101 12.5954 10.9291 12.7829C10.7572 12.9704 10.6606 13.2248 10.6606 13.49C10.6583 13.6881 10.5851 13.8774 10.4567 14.0175C10.3282 14.1576 10.1547 14.2374 9.97315 14.24H5.85731C5.88842 12.8384 6.42074 11.5057 7.34054 10.5266C8.26034 9.54748 9.49467 8.99959 10.7798 9H13.0715V10.87C13.0739 11.5959 13.3393 12.2913 13.8098 12.8046C14.2803 13.3178 14.9178 13.6074 15.5831 13.61C15.8263 13.61 16.0594 13.5046 16.2313 13.3171C16.4032 13.1296 16.4998 12.8752 16.4998 12.61C16.4998 12.3448 16.4032 12.0904 16.2313 11.9029C16.0594 11.7154 15.8263 11.61 15.5831 11.61C15.4925 11.6113 15.4026 11.5929 15.3186 11.5556C15.2346 11.5184 15.1583 11.4632 15.0943 11.3933C15.0302 11.3234 14.9796 11.2402 14.9455 11.1486C14.9114 11.057 14.8944 10.9589 14.8956 10.86V9H20.3956C21.7004 8.99999 22.9521 9.56406 23.8764 10.5687C24.8007 11.5733 25.3225 12.9366 25.3273 14.36Z" fill="#02478D"/>
</svg>
