<svg width="24" height="24" viewBox="0 0 24 24" fill="none" xmlns="http://www.w3.org/2000/svg">
<g clip-path="url(#clip0_2025_192147)">
<path fill-rule="evenodd" clip-rule="evenodd" d="M8.2541 8.74549L6.64306 8.31381L7.41952 5.41603L9.03056 5.84771C9.3801 5.18428 9.84269 4.5742 10.4098 4.04936L9.57614 2.60547L12.1742 1.10547L13.0078 2.54936C13.7459 2.32067 14.5056 2.2251 15.2549 2.2541L15.6865 0.643062L18.5843 1.41952L18.1526 3.03056C18.8161 3.3801 19.4262 3.84269 19.951 4.40977L21.3949 3.57614L22.8949 6.17422L21.451 7.00785C21.6797 7.74592 21.7753 8.50556 21.7463 9.25487L23.3573 9.68655L22.5808 12.5843L20.9698 12.1526C20.6203 12.8161 20.1577 13.4262 19.5906 13.951L20.4242 15.3949L17.8261 16.8949L16.9925 15.451C16.2544 15.6797 15.4948 15.7753 14.7455 15.7463L14.3138 17.3573L11.416 16.5808L11.8477 14.9698C11.1843 14.6203 10.5742 14.1577 10.0494 13.5906L8.60547 14.4242L7.10547 11.8261L8.54936 10.9925C8.32067 10.2544 8.2251 9.4948 8.2541 8.74549ZM16.1252 10.9487C17.2013 10.3274 17.5701 8.95134 16.9487 7.87518C16.3274 6.79902 14.9513 6.4303 13.8752 7.05162C12.799 7.67294 12.4303 9.04902 13.0516 10.1252C13.6729 11.2013 15.049 11.5701 16.1252 10.9487Z" fill="#FFAF40"/>
<path fill-rule="evenodd" clip-rule="evenodd" d="M0.375 20.6255C0.375 19.7966 1.04519 19.0475 1.86161 18.9535L6.75 18.3906L11.6384 18.9535C12.4594 19.048 13.125 19.7966 13.125 20.6255V23.2497H0.375V20.6255Z" fill="#BD7575"/>
<path fill-rule="evenodd" clip-rule="evenodd" d="M4.5 16.6187C3.37117 15.5514 2.625 13.8231 2.625 12.375C2.625 10.0968 4.47183 8.25 6.75 8.25C9.02817 8.25 10.875 10.0968 10.875 12.375C10.875 13.8231 10.1288 15.5514 9 16.6187V19.125C9 19.125 7.47472 19.6682 6.75 19.6682C6.02528 19.6682 4.5 19.125 4.5 19.125V16.6187Z" fill="#FFDD95"/>
<path d="M3.375 15.375C3.99632 15.375 4.5 14.8713 4.5 14.25C4.5 13.6287 3.99632 13.125 3.375 13.125C2.75368 13.125 2.25 13.6287 2.25 14.25C2.25 14.8713 2.75368 15.375 3.375 15.375Z" fill="#FFDD95"/>
<path d="M10.125 15.375C10.7463 15.375 11.25 14.8713 11.25 14.25C11.25 13.6287 10.7463 13.125 10.125 13.125C9.50368 13.125 9 13.6287 9 14.25C9 14.8713 9.50368 15.375 10.125 15.375Z" fill="#FFDD95"/>
</g>
<defs>
<clipPath id="clip0_2025_192147">
<rect width="24" height="24" fill="white"/>
</clipPath>
</defs>
</svg>
