<svg width="24" height="24" viewBox="0 0 24 24" fill="none" xmlns="http://www.w3.org/2000/svg">
<g clip-path="url(#clip0_2070_26699)">
<path d="M7.756 9.28772C7.72567 9.23253 7.68108 9.1865 7.62688 9.15444C7.57268 9.12238 7.51086 9.10547 7.44789 9.10547H5.83984L5.13672 9.80859H7.23991L9.0738 13.1463L9.748 12.9131L7.756 9.28772Z" fill="#B3DAFE"/>
<path d="M14.3565 12.2438V11.6272C14.3565 11.3353 14.5932 11.0987 14.885 11.0987H16.6152C17.6932 11.0987 18.5671 10.2248 18.5671 9.14682V8.22287C18.5671 8.16327 18.5788 8.10426 18.6016 8.0492C18.6244 7.99414 18.6578 7.94411 18.7 7.90197C18.7421 7.85983 18.7921 7.82641 18.8472 7.8036C18.9023 7.7808 18.9613 7.76907 19.0209 7.76907H19.2935C19.3822 7.76909 19.4689 7.74314 19.543 7.69442C19.6171 7.6457 19.6752 7.57635 19.7103 7.49493C19.7454 7.41352 19.7559 7.32361 19.7405 7.2363C19.725 7.149 19.6843 7.06814 19.6235 7.0037L18.7114 6.03793C18.6187 5.93982 18.5671 5.80998 18.5671 5.67502V5.14435C18.5671 3.36985 17.6724 1.69895 16.1629 0.766181C15.336 0.255243 14.3539 -0.028444 13.3036 0.00225908C10.5224 0.0836341 8.3285 2.32679 8.3053 5.10901C8.29156 6.75732 9.05197 8.22845 10.2447 9.18109C10.3715 9.28238 10.4476 9.43407 10.4476 9.59645V12.2438C10.4476 12.4691 10.3048 12.6696 10.0918 12.7433L5.79153 14.2304C4.2447 14.7654 3.20703 16.2221 3.20703 17.8589V23.4059C3.20703 23.734 3.47305 24.0001 3.80122 24.0001H21.0029C21.3311 24.0001 21.5971 23.734 21.5971 23.4059V17.8588C21.5971 16.2221 20.5595 14.7653 19.0126 14.2304L14.7123 12.7432C14.6084 12.7073 14.5183 12.6399 14.4545 12.5504C14.3908 12.4608 14.3565 12.3537 14.3565 12.2438Z" fill="#FFBD86"/>
<path d="M18.9901 17.1752H16.3867C16.1925 17.1752 16.0352 17.0178 16.0352 16.8236C16.0352 16.6295 16.1925 16.4721 16.3867 16.4721H18.8036L21.7936 12.0583C21.8462 11.9819 21.9269 11.9295 22.0181 11.9123C22.1092 11.8952 22.2035 11.9147 22.2802 11.9668C22.357 12.0188 22.4102 12.099 22.428 12.19C22.4459 12.2811 22.4271 12.3754 22.3757 12.4526L19.2811 17.0208C19.2489 17.0684 19.2055 17.1073 19.1548 17.1342C19.104 17.1611 19.0475 17.1752 18.9901 17.1752Z" fill="#B3DAFE"/>
<path d="M5.26264 18.4213C5.26264 16.7846 6.30027 15.3278 7.84714 14.7929L12.1475 13.3057C12.2513 13.2698 12.3414 13.2024 12.4052 13.1128C12.469 13.0233 12.5032 12.9161 12.5032 12.8062V10.1589C12.5032 9.99657 12.4271 9.84488 12.3003 9.74354C11.1076 8.79085 10.2036 7.31977 10.2174 5.67146C10.2389 3.08902 11.6648 0.837664 14.7174 0.515633C15.0455 0.468758 15.2799 0.468758 15.568 0.45118C14.88 0.141899 14.1122 -0.0214138 13.3036 0.00225812C10.5224 0.0836331 8.3285 2.32674 8.3053 5.10901C8.29156 6.75732 9.05197 8.22845 10.2447 9.18109C10.3715 9.28238 10.4476 9.43407 10.4476 9.59645V12.2438C10.4476 12.4691 10.3048 12.6696 10.0918 12.7433L5.79153 14.2304C4.2447 14.7654 3.20703 16.2221 3.20703 17.8589V23.4059C3.20703 23.734 3.47305 24.0001 3.80122 24.0001H5.26264V18.4213Z" fill="#F6A96C"/>
<path d="M10.6296 16.3597V21.54C10.6296 22.0956 10.1792 22.5461 9.62362 22.5461H6.77188C6.19045 22.5461 5.73018 22.0551 5.76777 21.4749C5.85871 20.0721 6.41545 17.5569 9.0104 15.5617C9.67181 15.0531 10.6296 15.5254 10.6296 16.3597Z" fill="#FE653B"/>
<path d="M6.97973 21.4747C7.07072 20.072 7.6274 17.5568 10.2224 15.5616C10.2247 15.5597 10.2272 15.5582 10.2296 15.5564C9.89067 15.3029 9.39937 15.2625 9.0104 15.5616C6.41545 17.5568 5.85872 20.072 5.76778 21.4747C5.73014 22.055 6.19045 22.5459 6.77189 22.5459H7.98384C7.4024 22.5459 6.94214 22.055 6.97973 21.4747Z" fill="#EF4424"/>
<path d="M14.1758 16.3597V21.54C14.1758 22.0956 14.6262 22.5461 15.1818 22.5461H18.0335C18.615 22.5461 19.0753 22.0551 19.0377 21.4749C18.9467 20.0721 18.39 17.5569 15.795 15.5617C15.1336 15.0531 14.1758 15.5254 14.1758 16.3597Z" fill="#FE653B"/>
<path d="M15.3924 17.9079V16.3596C15.3924 16.017 15.554 15.7357 15.7901 15.558C15.1289 15.0555 14.1758 15.5273 14.1758 16.3596V17.0241L15.3924 17.9079ZM15.3924 21.5398V19.4523L14.1758 18.5683V21.5398C14.1758 22.0954 14.6262 22.5458 15.1818 22.5458H16.3984C15.8428 22.5459 15.3924 22.0955 15.3924 21.5398Z" fill="#EF4424"/>
<path d="M12.7481 15.0369C12.8503 15.0369 12.9458 15.0651 13.0282 15.1133V13.7733C12.9433 13.8233 12.8466 13.8497 12.7481 13.8498H12.0591C11.9569 13.8498 11.8613 13.8216 11.7789 13.7733V15.1133C11.8638 15.0633 11.9606 15.0369 12.0591 15.0369H12.7481ZM12.0591 12.7363H12.7481C12.8503 12.7363 12.9458 12.7644 13.0282 12.8127V11.4727C12.9433 11.5227 12.8466 11.5491 12.7481 11.5491H12.0591C11.9569 11.5491 11.8613 11.5209 11.7789 11.4727V12.8127C11.8638 12.7627 11.9606 12.7363 12.0591 12.7363ZM16.1711 18.4711L13.0282 16.1877V16.0739C12.9433 16.1239 12.8466 16.1503 12.7481 16.1504H12.0591C11.9569 16.1504 11.8613 16.1222 11.7789 16.0739V16.1877L8.62082 18.4822C8.34173 18.685 8.27981 19.0756 8.48268 19.3548C8.68542 19.6339 9.07607 19.6958 9.35526 19.493L12.2617 17.3813C12.3029 17.3514 12.3526 17.3352 12.4036 17.3352C12.4546 17.3352 12.5043 17.3514 12.5455 17.3813L15.452 19.493C15.5585 19.5706 15.6868 19.6124 15.8186 19.6124C16.0224 19.6124 16.2233 19.5129 16.3441 19.3262C16.526 19.045 16.442 18.668 16.1711 18.4711Z" fill="#FFF3DE"/>
<path d="M12.0591 13.9011C11.9579 13.9011 11.8627 13.8759 11.7789 13.8319V15.0637C11.8653 15.0182 11.9615 14.9945 12.0591 14.9945H12.2601V13.9012H12.0591V13.9011ZM12.0591 16.2017C11.9579 16.2017 11.8627 16.1765 11.7789 16.1325V16.1922L8.62082 18.4867C8.34173 18.6895 8.27981 19.0801 8.48268 19.3593C8.63699 19.5717 8.9001 19.6579 9.14015 19.5977C9.04492 19.5388 8.9673 19.4554 8.91543 19.3561C8.76974 19.0791 8.86251 18.7355 9.11573 18.5515L12.0668 16.4074C12.1383 16.3553 12.1936 16.284 12.2262 16.2017H12.0591ZM12.0591 12.6938H12.2601V11.6005H12.0591C11.9579 11.6005 11.8627 11.5753 11.7789 11.5312V12.7631C11.8653 12.7176 11.9615 12.6938 12.0591 12.6938Z" fill="#FFE5C2"/>
<path d="M12.1895 7.69908H11.9527C11.1323 7.69908 10.4648 7.03163 10.4648 6.21122C10.4648 5.39081 11.1323 4.72336 11.9527 4.72336H12.1895C12.3837 4.72336 12.541 4.88077 12.541 5.07492C12.541 5.26908 12.3837 5.42648 12.1895 5.42648H11.9527C11.52 5.42648 11.168 5.77852 11.168 6.21122C11.168 6.64392 11.52 6.99595 11.9527 6.99595H12.1895C12.3837 6.99595 12.541 7.15336 12.541 7.34752C12.541 7.54167 12.3837 7.69908 12.1895 7.69908ZM16.7875 9.28458H18.5616C18.5647 9.23939 18.5669 9.19397 18.5669 9.14803V8.58145H16.7875C16.5933 8.58145 16.436 8.73886 16.436 8.93302C16.436 9.12717 16.5933 9.28458 16.7875 9.28458ZM16.4704 5.63789C16.4242 5.63789 16.3785 5.6288 16.3358 5.61113C16.2932 5.59346 16.2544 5.56757 16.2218 5.53492C16.1891 5.50227 16.1632 5.46352 16.1456 5.42087C16.1279 5.37821 16.1188 5.3325 16.1188 5.28633V4.75781C16.1188 4.56366 16.2762 4.40625 16.4704 4.40625C16.6646 4.40625 16.8219 4.56366 16.8219 4.75781V5.28633C16.8219 5.3325 16.8128 5.37821 16.7952 5.42087C16.7775 5.46352 16.7516 5.50227 16.719 5.53492C16.6863 5.56757 16.6476 5.59346 16.6049 5.61113C16.5623 5.6288 16.5165 5.63789 16.4704 5.63789Z" fill="#FE8A56"/>
<path d="M20.9961 3.60156H23.2713V4.30469H20.9961V3.60156ZM20.9961 5.64461C20.9961 5.6935 20.9992 5.74211 21.0052 5.79016H23.2623C23.2682 5.74206 23.2714 5.6935 23.2714 5.64461V5.08703H20.9961L20.9961 5.64461ZM23.2713 9.31928C23.2713 9.25473 23.2656 9.19075 23.2554 9.1278H21.012C21.0016 9.19109 20.9963 9.25513 20.9961 9.31928V9.83092H23.2714V9.31928H23.2713ZM20.9961 10.6133H23.2713V11.3164H20.9961V10.6133Z" fill="#463B84"/>
<path d="M23.576 12.0699C23.4827 12.0699 23.3933 12.0329 23.3274 11.967C23.2614 11.901 23.2244 11.8116 23.2244 11.7184V9.31805C23.2244 8.955 23.051 8.60817 22.7605 8.3903L21.085 7.13363C20.6184 6.78366 20.3398 6.22655 20.3398 5.64337V3.22266C20.3398 3.0285 20.4972 2.87109 20.6914 2.87109C20.8856 2.87109 21.043 3.0285 21.043 3.22266V5.64342C21.043 6.00647 21.2164 6.3533 21.5068 6.57117L23.1824 7.82784C23.649 8.17781 23.9276 8.73492 23.9276 9.31809V11.7184C23.9276 11.7646 23.9185 11.8103 23.9008 11.853C23.8831 11.8956 23.8572 11.9344 23.8246 11.967C23.7919 11.9996 23.7532 12.0255 23.7105 12.0432C23.6678 12.0609 23.6221 12.0699 23.576 12.0699Z" fill="#FE653B"/>
<path d="M20.6914 12.0699C20.5982 12.0699 20.5087 12.0329 20.4428 11.967C20.3769 11.901 20.3398 11.8116 20.3398 11.7184V9.31805C20.3398 8.73488 20.6184 8.17777 21.085 7.8278L22.7606 6.57113C23.051 6.35325 23.2244 6.00642 23.2244 5.64337V3.22266C23.2244 3.0285 23.3818 2.87109 23.576 2.87109C23.7702 2.87109 23.9276 3.0285 23.9276 3.22266V5.64342C23.9276 6.22659 23.649 6.7837 23.1824 7.13367L21.5068 8.39039C21.2164 8.60827 21.043 8.95509 21.043 9.31814V11.7185C21.0429 11.8117 21.0059 11.9011 20.94 11.967C20.874 12.0329 20.7846 12.0699 20.6914 12.0699Z" fill="#6E61B6"/>
<path d="M12.7457 11.5978H12.0567C11.7234 11.5978 11.4531 11.3276 11.4531 10.9942C11.4531 10.6609 11.7234 10.3906 12.0567 10.3906H12.7457C13.0791 10.3906 13.3493 10.6609 13.3493 10.9942C13.3493 11.3276 13.079 11.5978 12.7457 11.5978Z" fill="#FFE5C2"/>
<path d="M12.2321 10.9943C12.2321 10.6761 12.4785 10.416 12.7907 10.3929C12.7758 10.3918 12.7609 10.3906 12.7457 10.3906H12.0567C11.7234 10.3906 11.4531 10.6609 11.4531 10.9942C11.4531 11.3276 11.7234 11.5978 12.0567 11.5978H12.7457C12.7609 11.5978 12.7758 11.5967 12.7907 11.5955C12.4785 11.5725 12.2321 11.3125 12.2321 10.9943Z" fill="#FED2A4"/>
<path d="M12.7457 13.8986H12.0567C11.7234 13.8986 11.4531 13.6284 11.4531 13.295C11.4531 12.9616 11.7234 12.6914 12.0567 12.6914H12.7457C13.0791 12.6914 13.3493 12.9616 13.3493 13.295C13.3493 13.6284 13.079 13.8986 12.7457 13.8986Z" fill="#FFE5C2"/>
<path d="M12.2321 13.2951C12.2321 12.9769 12.4785 12.7168 12.7907 12.6937C12.7758 12.6926 12.7609 12.6914 12.7457 12.6914H12.0567C11.7234 12.6914 11.4531 12.9616 11.4531 13.295C11.4531 13.6284 11.7234 13.8986 12.0567 13.8986H12.7457C12.7609 13.8986 12.7758 13.8975 12.7907 13.8963C12.4785 13.8733 12.2321 13.6132 12.2321 13.2951Z" fill="#FED2A4"/>
<path d="M12.7457 16.1994H12.0567C11.7234 16.1994 11.4531 15.9292 11.4531 15.5958C11.4531 15.2624 11.7234 14.9922 12.0567 14.9922H12.7457C13.0791 14.9922 13.3493 15.2624 13.3493 15.5958C13.3493 15.9292 13.079 16.1994 12.7457 16.1994Z" fill="#FFE5C2"/>
<path d="M12.2321 15.5958C12.2321 15.2777 12.4785 15.0176 12.7907 14.9945C12.7758 14.9934 12.7609 14.9922 12.7457 14.9922H12.0567C11.7234 14.9922 11.4531 15.2624 11.4531 15.5958C11.4531 15.9292 11.7234 16.1994 12.0567 16.1994H12.7457C12.7609 16.1994 12.7758 16.1982 12.7907 16.1971C12.4785 16.1741 12.2321 15.914 12.2321 15.5958Z" fill="#FED2A4"/>
<path d="M13.3829 1.72266C12.1533 1.72266 11.1436 2.44566 11.0342 3.36858C11.0237 3.45727 11.0942 3.53498 11.1835 3.53498H15.5823C15.6716 3.53498 15.7421 3.45727 15.7316 3.36858C15.6223 2.44566 14.6124 1.72266 13.3829 1.72266Z" fill="#FE653B"/>
<path d="M12.6608 3.36858C12.7447 2.66025 13.3592 2.07014 14.1962 1.8338C13.9426 1.76217 13.6688 1.72266 13.3829 1.72266C12.1533 1.72266 11.1436 2.44566 11.0342 3.36858C11.0237 3.45727 11.0942 3.53498 11.1835 3.53498H12.8101C12.7208 3.53498 12.6503 3.45727 12.6608 3.36858Z" fill="#EF4424"/>
<path d="M6.74953 6.07725C6.14653 5.47425 5.16886 5.47425 4.56586 6.07725L3.82355 6.81956L3.08123 6.07725C2.47823 5.47425 1.50056 5.47425 0.897563 6.07725C0.294563 6.68025 0.294563 7.65792 0.897563 8.26092L3.72037 11.0837C3.73392 11.0973 3.75001 11.108 3.76771 11.1154C3.78541 11.1227 3.80438 11.1265 3.82355 11.1265C3.84271 11.1265 3.86168 11.1227 3.87939 11.1154C3.89709 11.108 3.91317 11.0973 3.92672 11.0837L6.74953 8.26092C7.35248 7.65788 7.35248 6.68025 6.74953 6.07725Z" fill="#FE653B"/>
<path d="M2.50683 8.2607C1.90383 7.6577 1.90383 6.68003 2.50683 6.07703C2.5933 5.99062 2.68971 5.91477 2.79403 5.85105C2.19942 5.48734 1.41216 5.56244 0.897563 6.07703C0.294563 6.68003 0.294563 7.6577 0.897563 8.2607L3.72037 11.0835C3.73392 11.0971 3.75001 11.1078 3.76771 11.1152C3.78541 11.1225 3.80438 11.1263 3.82355 11.1263C3.84271 11.1263 3.86168 11.1225 3.87939 11.1152C3.89709 11.1078 3.91317 11.0971 3.92672 11.0835L4.62816 10.3821L2.50683 8.2607Z" fill="#EF4424"/>
<path d="M3.93984 9.63781C3.86784 9.63781 3.79758 9.6157 3.73856 9.57447C3.67953 9.53324 3.63458 9.47488 3.6098 9.40728L3.25097 8.42872L3.05719 8.93623C3.03108 9.00414 2.98461 9.06232 2.92415 9.10278C2.86368 9.14325 2.79219 9.16403 2.71945 9.16227C2.64669 9.16035 2.57632 9.13588 2.51805 9.09225C2.45979 9.04863 2.41651 8.98798 2.39419 8.9187L2.25811 8.49673H0.421875C0.227672 8.49673 0.0703125 8.33933 0.0703125 8.14517C0.0703125 7.95102 0.227672 7.79361 0.421875 7.79361H2.51414C2.58844 7.79361 2.65861 7.81695 2.71645 7.85764L2.92922 7.30034C2.95463 7.23382 2.99963 7.17659 3.05828 7.13621C3.11694 7.09583 3.18646 7.07421 3.25767 7.07422H3.26002C3.33162 7.0747 3.40136 7.09703 3.45993 7.13822C3.51849 7.17942 3.56308 7.23752 3.58772 7.30475L3.91861 8.20695L3.981 8.0135C4.00383 7.94272 4.04852 7.88099 4.10864 7.83721C4.16876 7.79343 4.24122 7.76984 4.31559 7.76984H4.92117C5.11537 7.76984 5.27273 7.92725 5.27273 8.12141C5.27273 8.31556 5.11537 8.47297 4.92117 8.47297H4.57162L4.27453 9.3942C4.25207 9.46386 4.20844 9.52476 4.14971 9.56843C4.09098 9.6121 4.02009 9.63636 3.94692 9.63781H3.93984Z" fill="#F6A96C"/>
<path d="M6.51541 11.3984H5.58212C5.38792 11.3984 5.23056 11.241 5.23056 11.0469C5.23056 10.8527 5.38792 10.6953 5.58212 10.6953H6.51541C6.60865 10.6953 6.69807 10.7324 6.764 10.7983C6.82993 10.8642 6.86697 10.9536 6.86697 11.0469C6.86697 11.1401 6.82993 11.2295 6.764 11.2955C6.69807 11.3614 6.60865 11.3984 6.51541 11.3984ZM1.89808 11.3984H0.964844C0.770641 11.3984 0.613281 11.241 0.613281 11.0469C0.613281 10.8527 0.770641 10.6953 0.964844 10.6953H1.89808C1.99132 10.6953 2.08074 10.7324 2.14667 10.7983C2.2126 10.8642 2.24964 10.9536 2.24964 11.0469C2.24964 11.1401 2.2126 11.2295 2.14667 11.2955C2.08074 11.3614 1.99132 11.3984 1.89808 11.3984ZM6.51541 12.5682H0.964844C0.770641 12.5682 0.613281 12.4108 0.613281 12.2167C0.613281 12.0225 0.770641 11.8651 0.964844 11.8651H6.51541C6.60865 11.8651 6.69807 11.9022 6.764 11.9681C6.82993 12.034 6.86697 12.1234 6.86697 12.2167C6.86697 12.3099 6.82993 12.3993 6.764 12.4653C6.69807 12.5312 6.60865 12.5682 6.51541 12.5682ZM4.64884 13.738H0.964844C0.770641 13.738 0.613281 13.5806 0.613281 13.3865C0.613281 13.1923 0.770641 13.0349 0.964844 13.0349H4.64884C4.74208 13.0349 4.83151 13.0719 4.89744 13.1379C4.96337 13.2038 5.00041 13.2932 5.00041 13.3865C5.00041 13.4797 4.96337 13.5691 4.89744 13.635C4.83151 13.701 4.74208 13.738 4.64884 13.738Z" fill="#B3DAFE"/>
</g>
<defs>
<clipPath id="clip0_2070_26699">
<rect width="24" height="24" fill="white"/>
</clipPath>
</defs>
</svg>
