<svg width="24" height="24" viewBox="0 0 24 24" fill="none" xmlns="http://www.w3.org/2000/svg">
<path d="M3.66287 21.271H20.3144C21.2483 21.271 21.9772 20.5193 21.9772 19.6081V5.41678C21.9772 4.48284 21.2255 3.75391 20.3144 3.75391H3.66287C2.72893 3.75391 2 4.50561 2 5.41678V19.5853C2 20.5193 2.75171 21.271 3.66287 21.271Z" fill="#FFF2F2"/>
<path d="M22 5.34896V8.7886H2V5.34896C2 4.46058 2.72893 3.75443 3.59453 3.75443H20.3827C21.2711 3.73165 22 4.46058 22 5.34896Z" fill="#F47C7C"/>
<path d="M7.19358 7.07954C7.64648 7.07954 8.01363 6.7124 8.01363 6.2595C8.01363 5.8066 7.64648 5.43945 7.19358 5.43945C6.74068 5.43945 6.37354 5.8066 6.37354 6.2595C6.37354 6.7124 6.74068 7.07954 7.19358 7.07954Z" fill="#D66767"/>
<path d="M11.9997 7.07954C12.4526 7.07954 12.8198 6.7124 12.8198 6.2595C12.8198 5.8066 12.4526 5.43945 11.9997 5.43945C11.5468 5.43945 11.1797 5.8066 11.1797 6.2595C11.1797 6.7124 11.5468 7.07954 11.9997 7.07954Z" fill="#D66767"/>
<path d="M16.8059 7.07954C17.2588 7.07954 17.6259 6.7124 17.6259 6.2595C17.6259 5.8066 17.2588 5.43945 16.8059 5.43945C16.353 5.43945 15.9858 5.8066 15.9858 6.2595C15.9858 6.7124 16.353 7.07954 16.8059 7.07954Z" fill="#D66767"/>
<path d="M7.42099 2.72852H6.96541C6.82874 2.72852 6.71484 2.84241 6.71484 2.97909V6.14537C6.71484 6.28205 6.82874 6.39594 6.96541 6.39594H7.42099C7.55767 6.39594 7.67156 6.28205 7.67156 6.14537V3.00186C7.69434 2.84241 7.55767 2.72852 7.42099 2.72852Z" fill="#FFF2F2"/>
<path d="M12.2271 2.72852H11.7716C11.6349 2.72852 11.521 2.84241 11.521 2.97909V6.14537C11.521 6.28205 11.6349 6.39594 11.7716 6.39594H12.2271C12.3638 6.39594 12.4777 6.28205 12.4777 6.14537V3.00186C12.4777 2.84241 12.3638 2.72852 12.2271 2.72852Z" fill="#FFF2F2"/>
<path d="M17.0338 2.72852H16.5782C16.4415 2.72852 16.3276 2.84241 16.3276 2.97909V6.14537C16.3276 6.28205 16.4415 6.39594 16.5782 6.39594H17.0338C17.1705 6.39594 17.2844 6.28205 17.2844 6.14537V3.00186C17.2844 2.84241 17.1705 2.72852 17.0338 2.72852Z" fill="#FFF2F2"/>
<path d="M7.64929 11.0879H5.6903C5.46251 11.0879 5.28027 11.2701 5.28027 11.4979V13.4569C5.28027 13.6847 5.46251 13.8669 5.6903 13.8669H7.64929C7.87708 13.8669 8.05932 13.6847 8.05932 13.4569V11.4979C8.0821 11.2929 7.89986 11.0879 7.64929 11.0879Z" fill="#87A9FF"/>
<path d="M12.9794 11.0879H11.0204C10.7926 11.0879 10.6104 11.2701 10.6104 11.4979V13.4569C10.6104 13.6847 10.7926 13.8669 11.0204 13.8669H12.9794C13.2072 13.8669 13.3894 13.6847 13.3894 13.4569V11.4979C13.4122 11.2929 13.2072 11.0879 12.9794 11.0879Z" fill="#87A9FF"/>
<path d="M18.3099 11.0879H16.3509C16.1231 11.0879 15.9409 11.2701 15.9409 11.4979V13.4569C15.9409 13.6847 16.1231 13.8669 16.3509 13.8669H18.3099C18.5377 13.8669 18.72 13.6847 18.72 13.4569V11.4979C18.72 11.2929 18.5377 11.0879 18.3099 11.0879Z" fill="#87A9FF"/>
<path d="M7.64929 16.2598H5.6903C5.46251 16.2598 5.28027 16.442 5.28027 16.6698V18.6288C5.28027 18.8566 5.46251 19.0388 5.6903 19.0388H7.64929C7.87708 19.0388 8.05932 18.8566 8.05932 18.6288V16.6698C8.0821 16.442 7.89986 16.2598 7.64929 16.2598Z" fill="#87A9FF"/>
<path d="M12.9794 16.2598H11.0204C10.7926 16.2598 10.6104 16.442 10.6104 16.6698V18.6288C10.6104 18.8566 10.7926 19.0388 11.0204 19.0388H12.9794C13.2072 19.0388 13.3894 18.8566 13.3894 18.6288V16.6698C13.4122 16.442 13.2072 16.2598 12.9794 16.2598Z" fill="#87A9FF"/>
<path d="M18.3099 16.2598H16.3509C16.1231 16.2598 15.9409 16.442 15.9409 16.6698V18.6288C15.9409 18.8566 16.1231 19.0388 16.3509 19.0388H18.3099C18.5377 19.0388 18.72 18.8566 18.72 18.6288V16.6698C18.72 16.442 18.5377 16.2598 18.3099 16.2598Z" fill="#87A9FF"/>
</svg>
