<svg width="20" height="20" viewBox="0 0 20 20" fill="none" xmlns="http://www.w3.org/2000/svg">
<g clip-path="url(#clip0_2122_26620)">
<path d="M18.7539 11.0625H15.9017C15.8631 11.0625 15.8249 11.0701 15.7893 11.0849C15.7536 11.0996 15.7212 11.1213 15.694 11.1485C15.6667 11.1758 15.645 11.2082 15.6303 11.2439C15.6155 11.2795 15.6079 11.3177 15.6079 11.3563V19.6961C15.6079 19.7347 15.6155 19.7729 15.6303 19.8086C15.645 19.8442 15.6667 19.8766 15.694 19.9039C15.7212 19.9312 15.7536 19.9528 15.7893 19.9676C15.8249 19.9823 15.8631 19.9899 15.9017 19.9899H18.7539C18.8318 19.9899 18.9066 19.959 18.9617 19.9039C19.0168 19.8488 19.0477 19.7741 19.0477 19.6961V11.3563C19.0477 11.2784 19.0167 11.2037 18.9617 11.1486C18.9066 11.0935 18.8318 11.0625 18.7539 11.0625Z" fill="#A0A0A0"/>
<path d="M17.0768 11.0625H15.9017C15.8631 11.0625 15.8249 11.0701 15.7893 11.0849C15.7536 11.0996 15.7212 11.1213 15.694 11.1485C15.6667 11.1758 15.645 11.2082 15.6303 11.2439C15.6155 11.2795 15.6079 11.3177 15.6079 11.3563V19.6961C15.6079 19.7347 15.6155 19.7729 15.6303 19.8086C15.645 19.8442 15.6667 19.8766 15.694 19.9039C15.7212 19.9312 15.7536 19.9528 15.7893 19.9676C15.8249 19.9823 15.8631 19.9899 15.9017 19.9899H17.0768V11.0625Z" fill="#878787"/>
<path d="M19.706 9.48438H15.9012C15.8233 9.48438 15.7486 9.51533 15.6935 9.57042C15.6384 9.62552 15.6074 9.70025 15.6074 9.77816V11.3557C15.6074 11.4336 15.6384 11.5083 15.6935 11.5634C15.7486 11.6185 15.8233 11.6495 15.9012 11.6495H19.706C19.7839 11.6495 19.8587 11.6185 19.9138 11.5634C19.9689 11.5083 19.9998 11.4336 19.9998 11.3557V9.77816C19.9998 9.70025 19.9689 9.62552 19.9138 9.57042C19.8587 9.51533 19.7839 9.48438 19.706 9.48438Z" fill="#565656"/>
<path d="M17.0768 9.48438H15.9017C15.8631 9.48437 15.8249 9.49197 15.7893 9.50674C15.7536 9.5215 15.7212 9.54314 15.694 9.57042C15.6667 9.5977 15.645 9.63009 15.6303 9.66574C15.6155 9.70138 15.6079 9.73958 15.6079 9.77816V11.3557C15.6079 11.3943 15.6155 11.4325 15.6303 11.4681C15.645 11.5038 15.6667 11.5362 15.694 11.5634C15.7212 11.5907 15.7536 11.6124 15.7893 11.6271C15.8249 11.6419 15.8631 11.6495 15.9017 11.6495H17.0768V9.48438Z" fill="#494949"/>
<path d="M4.09873 11.0625H1.24643C1.16851 11.0625 1.09378 11.0935 1.03869 11.1485C0.983589 11.2036 0.952637 11.2784 0.952637 11.3563V19.6961C0.952637 19.7741 0.983589 19.8488 1.03869 19.9039C1.09378 19.959 1.16851 19.9899 1.24643 19.9899H4.09865C4.17657 19.9899 4.2513 19.959 4.30639 19.9039C4.36149 19.8488 4.39244 19.7741 4.39244 19.6961V11.3563C4.39245 11.3177 4.38486 11.2795 4.37011 11.2439C4.35535 11.2082 4.33372 11.1758 4.30644 11.1486C4.27917 11.1213 4.24679 11.0996 4.21115 11.0849C4.17551 11.0701 4.13731 11.0625 4.09873 11.0625Z" fill="#A0A0A0"/>
<path d="M4.09846 11.0625H2.92334V19.9899H4.09842C4.17634 19.9899 4.25106 19.9589 4.30616 19.9038C4.36125 19.8487 4.39221 19.774 4.39221 19.6961V11.3562C4.39221 11.2783 4.36126 11.2036 4.30617 11.1485C4.25108 11.0934 4.17636 11.0625 4.09846 11.0625Z" fill="#878787"/>
<path d="M4.09859 9.48438H0.293789C0.215871 9.48438 0.141145 9.51533 0.0860488 9.57042C0.0309527 9.62552 0 9.70025 0 9.77816L0 11.3557C0 11.4336 0.0309527 11.5083 0.0860488 11.5634C0.141145 11.6185 0.215871 11.6495 0.293789 11.6495H4.09859C4.17651 11.6495 4.25124 11.6185 4.30633 11.5634C4.36143 11.5083 4.39238 11.4336 4.39238 11.3557V9.77816C4.39236 9.70025 4.3614 9.62554 4.30631 9.57045C4.25122 9.51536 4.17651 9.4844 4.09859 9.48438Z" fill="#565656"/>
<path d="M4.09846 9.48438H2.92334V11.6495H4.09842C4.17634 11.6495 4.25106 11.6185 4.30616 11.5634C4.36125 11.5083 4.39221 11.4336 4.39221 11.3557V9.77813C4.39221 9.70022 4.36126 9.6255 4.30617 9.57041C4.25108 9.51532 4.17636 9.48438 4.09846 9.48438Z" fill="#494949"/>
<path d="M15.9013 5.17773H12.5691C12.5236 5.17773 12.4787 5.18829 12.438 5.20858C12.3973 5.22886 12.3619 5.25833 12.3345 5.29465C11.774 6.0382 10.9195 6.46465 9.99004 6.46465C9.06059 6.46465 8.20605 6.0382 7.64559 5.29465C7.61821 5.25833 7.58277 5.22887 7.54206 5.20858C7.50136 5.18829 7.4565 5.17773 7.41102 5.17773H4.09848C4.02056 5.17773 3.94583 5.20869 3.89074 5.26378C3.83564 5.31888 3.80469 5.39361 3.80469 5.47152V19.6945C3.80469 19.7724 3.83564 19.8472 3.89074 19.9023C3.94583 19.9574 4.02056 19.9883 4.09848 19.9883H15.9014C15.9793 19.9883 16.054 19.9574 16.1091 19.9023C16.1642 19.8472 16.1952 19.7724 16.1952 19.6945V5.47152C16.1951 5.3936 16.1642 5.31888 16.109 5.26379C16.0539 5.2087 15.9792 5.17774 15.9013 5.17773Z" fill="#F9F1EF"/>
<path d="M15.9016 5.17773H14.7656V19.9883H15.9016C15.9401 19.9883 15.9783 19.9807 16.014 19.9659C16.0496 19.9512 16.082 19.9295 16.1093 19.9022C16.1366 19.875 16.1582 19.8426 16.173 19.8069C16.1878 19.7713 16.1954 19.7331 16.1954 19.6945V5.47152C16.1954 5.43294 16.1878 5.39474 16.173 5.3591C16.1582 5.32345 16.1366 5.29106 16.1093 5.26378C16.082 5.2365 16.0496 5.21486 16.014 5.2001C15.9783 5.18533 15.9401 5.17773 15.9016 5.17773Z" fill="#DDDBDB"/>
<path d="M7.07492 3.86262C7.06688 3.79082 7.03266 3.72451 6.97881 3.67635C6.92496 3.62819 6.85525 3.60157 6.78301 3.60156H3.0184C2.94048 3.60156 2.86575 3.63251 2.81066 3.68761C2.75556 3.74271 2.72461 3.81743 2.72461 3.89535V5.47289C2.72461 5.55081 2.75556 5.62553 2.81066 5.68063C2.86575 5.73573 2.94048 5.76668 3.0184 5.76668H7.41098C7.46559 5.76666 7.51911 5.75142 7.56554 5.72267C7.61197 5.69392 7.64947 5.6528 7.67383 5.60392C7.69819 5.55505 7.70845 5.50035 7.70346 5.44597C7.69846 5.39159 7.67841 5.33967 7.64555 5.29605C7.33047 4.87793 7.1334 4.38289 7.07492 3.86262ZM16.9813 3.60156H13.197C13.1248 3.60157 13.0551 3.62819 13.0012 3.67635C12.9474 3.72451 12.9132 3.79082 12.9051 3.86262C12.8467 4.38289 12.6496 4.87793 12.3345 5.29605C12.3017 5.33967 12.2816 5.39159 12.2766 5.44597C12.2716 5.50035 12.2819 5.55505 12.3062 5.60392C12.3306 5.6528 12.3681 5.69392 12.4145 5.72267C12.461 5.75142 12.5145 5.76666 12.5691 5.76668H16.9814C17.0593 5.76668 17.134 5.73573 17.1891 5.68063C17.2442 5.62553 17.2752 5.55081 17.2752 5.47289V3.89531C17.2751 3.8174 17.2442 3.74268 17.1891 3.68759C17.134 3.63251 17.0592 3.60156 16.9813 3.60156Z" fill="#565656"/>
<path d="M7.81195 11.0126H6.16977C6.09185 11.0126 6.01712 11.0436 5.96203 11.0987C5.90693 11.1538 5.87598 11.2285 5.87598 11.3064V12.9486C5.87598 12.9872 5.88358 13.0254 5.89834 13.061C5.9131 13.0967 5.93474 13.1291 5.96203 13.1563C5.98931 13.1836 6.02169 13.2053 6.05734 13.22C6.09298 13.2348 6.13118 13.2424 6.16977 13.2424H7.81195C7.85053 13.2424 7.88874 13.2348 7.92438 13.22C7.96003 13.2053 7.99241 13.1836 8.01969 13.1563C8.04697 13.1291 8.06861 13.0967 8.08338 13.061C8.09814 13.0254 8.10574 12.9872 8.10574 12.9486V11.3064C8.10574 11.2285 8.07479 11.1538 8.01969 11.0987C7.9646 11.0436 7.88987 11.0126 7.81195 11.0126ZM10.8211 11.0126H9.17891C9.10099 11.0126 9.02626 11.0436 8.97117 11.0987C8.91607 11.1538 8.88512 11.2285 8.88512 11.3064V12.9486C8.88512 12.9872 8.89272 13.0254 8.90748 13.061C8.92225 13.0967 8.94389 13.1291 8.97117 13.1563C8.99845 13.1836 9.03083 13.2053 9.06648 13.22C9.10212 13.2348 9.14033 13.2424 9.17891 13.2424H10.8211C10.8597 13.2424 10.8979 13.2348 10.9335 13.22C10.9692 13.2053 11.0016 13.1836 11.0288 13.1563C11.0561 13.1291 11.0778 13.0967 11.0925 13.061C11.1073 13.0254 11.1149 12.9872 11.1149 12.9486V11.3064C11.1149 11.2285 11.0839 11.1538 11.0288 11.0987C10.9737 11.0436 10.899 11.0126 10.8211 11.0126ZM13.8303 11.0126H12.1881C12.1495 11.0126 12.1113 11.0202 12.0757 11.035C12.04 11.0497 12.0076 11.0714 11.9803 11.0987C11.9531 11.1259 11.9314 11.1583 11.9167 11.194C11.9019 11.2296 11.8943 11.2678 11.8943 11.3064V12.9486C11.8943 12.9872 11.9019 13.0254 11.9167 13.061C11.9314 13.0967 11.9531 13.1291 11.9803 13.1563C12.0076 13.1836 12.04 13.2053 12.0757 13.22C12.1113 13.2348 12.1495 13.2424 12.1881 13.2424H13.8303C13.8689 13.2424 13.9071 13.2348 13.9427 13.22C13.9783 13.2053 14.0107 13.1836 14.038 13.1563C14.0653 13.1291 14.0869 13.0967 14.1017 13.061C14.1165 13.0254 14.1241 12.9872 14.1241 12.9486V11.3064C14.1241 11.2678 14.1165 11.2296 14.1017 11.194C14.0869 11.1583 14.0653 11.1259 14.038 11.0987C14.0107 11.0714 13.9784 11.0497 13.9427 11.035C13.9071 11.0202 13.8689 11.0126 13.8303 11.0126ZM7.81195 8.16992H6.16977C6.09185 8.16992 6.01712 8.20087 5.96203 8.25597C5.90693 8.31107 5.87598 8.38579 5.87598 8.46371V10.1059C5.87598 10.1838 5.90693 10.2585 5.96203 10.3136C6.01712 10.3687 6.09185 10.3997 6.16977 10.3997H7.81195C7.88987 10.3997 7.9646 10.3687 8.01969 10.3136C8.07479 10.2585 8.10574 10.1838 8.10574 10.1059V8.46371C8.10574 8.38579 8.07479 8.31107 8.01969 8.25597C7.9646 8.20087 7.88987 8.16992 7.81195 8.16992ZM10.8211 8.16992H9.17891C9.10099 8.16992 9.02626 8.20087 8.97117 8.25597C8.91607 8.31107 8.88512 8.38579 8.88512 8.46371V10.1059C8.88512 10.1838 8.91607 10.2585 8.97117 10.3136C9.02626 10.3687 9.10099 10.3997 9.17891 10.3997H10.8211C10.899 10.3997 10.9737 10.3687 11.0288 10.3136C11.0839 10.2585 11.1149 10.1838 11.1149 10.1059V8.46371C11.1149 8.38579 11.0839 8.31107 11.0288 8.25597C10.9737 8.20087 10.899 8.16992 10.8211 8.16992ZM13.8303 8.16992H12.1881C12.1495 8.16992 12.1113 8.17752 12.0757 8.19228C12.04 8.20705 12.0076 8.22869 11.9803 8.25597C11.9531 8.28325 11.9314 8.31564 11.9167 8.35128C11.9019 8.38693 11.8943 8.42513 11.8943 8.46371V10.1059C11.8943 10.1445 11.9019 10.1827 11.9167 10.2183C11.9314 10.254 11.9531 10.2864 11.9803 10.3136C12.0076 10.3409 12.04 10.3626 12.0757 10.3773C12.1113 10.3921 12.1495 10.3997 12.1881 10.3997H13.8303C13.9082 10.3997 13.9829 10.3687 14.038 10.3136C14.0931 10.2585 14.1241 10.1838 14.1241 10.1059V8.46371C14.1241 8.42513 14.1165 8.38692 14.1017 8.35128C14.0869 8.31563 14.0653 8.28324 14.038 8.25596C14.0107 8.22868 13.9784 8.20704 13.9427 8.19227C13.9071 8.17751 13.8689 8.16992 13.8303 8.16992ZM13.4083 15.7876H10C9.96142 15.7876 9.92322 15.7952 9.88757 15.8099C9.85193 15.8247 9.81954 15.8463 9.79226 15.8736C9.76498 15.9009 9.74334 15.9333 9.72857 15.9689C9.71381 16.0046 9.70621 16.0428 9.70621 16.0814V19.6948C9.70621 19.7727 9.73716 19.8475 9.79226 19.9025C9.84736 19.9576 9.92208 19.9886 10 19.9886H13.4083C13.4862 19.9886 13.5609 19.9576 13.616 19.9025C13.6711 19.8475 13.7021 19.7727 13.7021 19.6948V16.0814C13.7021 16.0428 13.6945 16.0046 13.6797 15.9689C13.6649 15.9333 13.6433 15.9009 13.616 15.8736C13.5887 15.8463 13.5564 15.8247 13.5207 15.8099C13.4851 15.7952 13.4469 15.7876 13.4083 15.7876Z" fill="#00C1EC"/>
<path d="M13.4082 15.7891H12.3506V19.9901H13.4082C13.4467 19.9901 13.4849 19.9825 13.5206 19.9677C13.5562 19.9529 13.5886 19.9313 13.6159 19.904C13.6432 19.8767 13.6648 19.8444 13.6796 19.8087C13.6944 19.7731 13.702 19.7349 13.702 19.6963V16.0829C13.702 16.0049 13.671 15.9302 13.6159 15.8751C13.5608 15.82 13.4861 15.7891 13.4082 15.7891Z" fill="#00AADE"/>
<path d="M9.99992 15.7891H6.59164C6.55306 15.7891 6.51486 15.7967 6.47921 15.8114C6.44357 15.8262 6.41118 15.8478 6.3839 15.8751C6.35662 15.9024 6.33498 15.9348 6.32021 15.9704C6.30545 16.0061 6.29785 16.0443 6.29785 16.0829V19.6963C6.29785 19.7742 6.3288 19.8489 6.3839 19.904C6.439 19.9591 6.51372 19.9901 6.59164 19.9901H9.99992C10.0778 19.9901 10.1526 19.9591 10.2077 19.904C10.2628 19.8489 10.2937 19.7742 10.2937 19.6963V16.0829C10.2937 16.0443 10.2861 16.0061 10.2714 15.9704C10.2566 15.9348 10.235 15.9024 10.2077 15.8751C10.1804 15.8478 10.148 15.8262 10.1124 15.8114C10.0767 15.7967 10.0385 15.7891 9.99992 15.7891Z" fill="#00C1EC"/>
<path d="M8.94238 15.7871H10.2937V19.9881H8.94238V15.7871Z" fill="#00AADE"/>
<path d="M9.98994 0.00976562C8.04811 0.00976562 6.46826 1.58961 6.46826 3.53145C6.46826 5.47328 8.04811 7.05312 9.98994 7.05312C11.9318 7.05312 13.5116 5.47332 13.5116 3.53145C13.5116 1.58957 11.9318 0.00976562 9.98994 0.00976562Z" fill="#EF3A47"/>
<path d="M9.99035 0.00976562C9.73816 0.00976562 9.49219 0.0366406 9.25488 0.0872266C10.8449 0.426406 12.0411 1.84172 12.0411 3.53145C12.0411 5.22117 10.8448 6.63648 9.25488 6.97566C9.49664 7.02723 9.74316 7.05319 9.99035 7.05312C11.9322 7.05312 13.512 5.47332 13.512 3.53145C13.512 1.58957 11.9322 0.00976562 9.99035 0.00976562Z" fill="#CE3043"/>
<path d="M11.2616 2.97605H10.5454V2.2598C10.5454 2.23364 10.5403 2.20772 10.5303 2.18355C10.5202 2.15937 10.5056 2.1374 10.4871 2.1189C10.4686 2.10039 10.4466 2.08572 10.4224 2.0757C10.3982 2.06569 10.3723 2.06054 10.3462 2.06055H9.63377C9.6076 2.06054 9.58169 2.06569 9.55751 2.0757C9.53333 2.08572 9.51137 2.10039 9.49286 2.1189C9.47436 2.1374 9.45968 2.15937 9.44967 2.18355C9.43966 2.20772 9.43451 2.23364 9.43451 2.2598V2.97602H8.7183C8.69213 2.97601 8.66622 2.98116 8.64204 2.99117C8.61786 3.00118 8.5959 3.01586 8.57739 3.03437C8.55889 3.05287 8.54421 3.07484 8.5342 3.09901C8.52419 3.12319 8.51904 3.14911 8.51904 3.17527V3.88766C8.51904 3.91382 8.52419 3.93974 8.5342 3.96392C8.54421 3.98809 8.55889 4.01006 8.57739 4.02856C8.5959 4.04707 8.61786 4.06175 8.64204 4.07176C8.66622 4.08177 8.69213 4.08692 8.7183 4.08691H9.43451V4.80312C9.43451 4.82929 9.43966 4.85521 9.44967 4.87938C9.45968 4.90356 9.47436 4.92553 9.49286 4.94403C9.51137 4.96254 9.53333 4.97721 9.55751 4.98723C9.58169 4.99724 9.6076 5.00239 9.63377 5.00238H10.3462C10.3723 5.00239 10.3982 4.99724 10.4224 4.98723C10.4466 4.97721 10.4686 4.96254 10.4871 4.94403C10.5056 4.92553 10.5202 4.90356 10.5303 4.87938C10.5403 4.85521 10.5454 4.82929 10.5454 4.80312V4.08691H11.2616C11.2878 4.08691 11.3137 4.08176 11.3379 4.07175C11.362 4.06173 11.384 4.04705 11.4025 4.02855C11.421 4.01005 11.4357 3.98808 11.4457 3.96391C11.4557 3.93973 11.4608 3.91382 11.4608 3.88766V3.17527C11.4608 3.12244 11.4399 3.07177 11.4025 3.0344C11.3651 2.99704 11.3145 2.97605 11.2616 2.97605Z" fill="#F9F1EF"/>
<path d="M14.0959 14.5098H5.90414C5.82622 14.5098 5.7515 14.5407 5.6964 14.5958C5.6413 14.6509 5.61035 14.7256 5.61035 14.8036V16.0792C5.61035 16.1571 5.6413 16.2319 5.6964 16.287C5.7515 16.3421 5.82622 16.373 5.90414 16.373H14.0959C14.1345 16.373 14.1727 16.3654 14.2083 16.3506C14.244 16.3359 14.2764 16.3142 14.3036 16.287C14.3309 16.2597 14.3526 16.2273 14.3673 16.1916C14.3821 16.156 14.3897 16.1178 14.3897 16.0792V14.8036C14.3897 14.7256 14.3587 14.6509 14.3036 14.5958C14.2485 14.5407 14.1738 14.5098 14.0959 14.5098Z" fill="#565656"/>
</g>
<defs>
<clipPath id="clip0_2122_26620">
<rect width="20" height="20" fill="white"/>
</clipPath>
</defs>
</svg>
