<svg width="20" height="20" viewBox="0 0 20 20" fill="none" xmlns="http://www.w3.org/2000/svg">
<g clip-path="url(#clip0_2122_26972)">
<path d="M10.0001 14.5909C13.8734 14.5909 17.0133 11.451 17.0133 7.57769C17.0133 3.70439 13.8734 0.564453 10.0001 0.564453C6.12675 0.564453 2.98682 3.70439 2.98682 7.57769C2.98682 11.451 6.12675 14.5909 10.0001 14.5909Z" fill="#FBAD3E"/>
<path d="M15.4961 7.58005C15.4961 7.66535 15.4902 7.75358 15.4872 7.84182C15.4872 7.86535 15.4843 7.89182 15.4814 7.91535C15.4105 9.16498 14.9096 10.3517 14.0637 11.2742C13.9461 11.4065 13.8225 11.5271 13.6931 11.6448C13.6755 11.6624 13.6578 11.6771 13.6372 11.6918C12.7223 12.5058 11.5597 12.9876 10.3372 13.0595C10.3137 13.0624 10.2872 13.0653 10.2637 13.0653C10.1755 13.0683 10.0902 13.0712 9.999 13.0712C9.91076 13.0712 9.82547 13.0683 9.73429 13.0653C9.71077 13.0653 9.6843 13.0624 9.66077 13.0595C8.399 12.983 7.25194 12.483 6.36077 11.6948C6.34018 11.6771 6.32253 11.6624 6.30488 11.6448C6.17841 11.5271 6.05488 11.4065 5.93724 11.2742C5.91959 11.2565 5.90194 11.2359 5.88724 11.2153C5.09312 10.3271 4.59018 9.17711 4.51665 7.91535C4.51371 7.89182 4.51077 7.86535 4.51077 7.84182C4.50782 7.75358 4.50488 7.66535 4.50488 7.58005C4.50488 7.49182 4.50782 7.40358 4.51077 7.31535C4.51077 7.29182 4.51371 7.26535 4.51665 7.24182C4.59312 5.97711 5.09606 4.83005 5.88724 3.94182C5.90194 3.92123 5.91959 3.90358 5.93724 3.883C6.05488 3.75358 6.17841 3.62711 6.30488 3.51241C6.32253 3.49476 6.34018 3.48005 6.36077 3.46241C7.25194 2.67417 8.399 2.16829 9.66371 2.0977C9.69018 2.09476 9.71371 2.09182 9.74018 2.09182C9.82547 2.08888 9.91371 2.08594 9.999 2.08594C10.0872 2.08594 10.1755 2.08888 10.2608 2.09182C10.2872 2.09182 10.3108 2.09476 10.3372 2.0977C11.599 2.16829 12.749 2.67417 13.6372 3.46241C13.6578 3.48005 13.6755 3.49476 13.6931 3.51241C13.8225 3.62711 13.9461 3.75358 14.0637 3.883C14.0814 3.90064 14.0961 3.92123 14.1137 3.93888C14.9282 4.8535 15.4101 6.01626 15.4814 7.23888C15.4843 7.26535 15.4872 7.28888 15.4872 7.31535C15.4902 7.40358 15.4961 7.49182 15.4961 7.58005Z" fill="white"/>
<path d="M10.3461 2.21535C10.3461 2.34476 10.3196 2.47123 10.2725 2.60064C10.2166 2.72711 10.1461 2.85358 9.999 2.983C9.85488 2.85358 9.78135 2.72711 9.72841 2.60064C9.67841 2.47123 9.65488 2.34476 9.65488 2.21535C9.65488 2.17417 9.65782 2.13594 9.66371 2.0977C9.69018 2.09476 9.71371 2.09182 9.74018 2.09182C9.82547 2.08888 9.91371 2.08594 9.999 2.08594C10.0872 2.08594 10.1755 2.08888 10.2608 2.09182C10.2872 2.09182 10.3108 2.09476 10.3372 2.0977C10.3431 2.13594 10.3461 2.17417 10.3461 2.21535ZM10.3461 12.9389C10.3461 12.9801 10.3431 13.0212 10.3372 13.0595C10.3137 13.0624 10.2872 13.0653 10.2637 13.0653C10.1755 13.0683 10.0902 13.0712 9.999 13.0712C9.91076 13.0712 9.82547 13.0683 9.73429 13.0653C9.71077 13.0653 9.6843 13.0624 9.66077 13.0595C9.65782 13.0212 9.65488 12.9801 9.65488 12.9389C9.65488 12.8124 9.67841 12.6859 9.73135 12.5565C9.78724 12.4301 9.85488 12.3006 9.999 12.1742C10.1461 12.3006 10.2137 12.4301 10.2696 12.5565C10.3196 12.6859 10.3461 12.8124 10.3461 12.9389ZM6.749 4.32711C6.55782 4.33888 6.41665 4.30064 6.28724 4.2477C6.16077 4.19476 6.05488 4.12123 5.96665 4.033C5.93724 4.00358 5.91077 3.97417 5.88724 3.94182C5.90194 3.92123 5.91959 3.90358 5.93724 3.883C6.05488 3.75358 6.17841 3.62711 6.30488 3.51241C6.32253 3.49476 6.34018 3.48005 6.36077 3.46241C6.39312 3.48594 6.42253 3.51241 6.45194 3.54182C6.54018 3.63006 6.61665 3.73888 6.66959 3.86535C6.72253 3.99476 6.76371 4.13594 6.749 4.32711ZM14.1169 11.2153C14.0993 11.2359 14.0816 11.2565 14.064 11.2742C13.9464 11.4065 13.8228 11.5271 13.6934 11.6448C13.6758 11.6624 13.6581 11.6771 13.6375 11.6918C13.6052 11.6683 13.5758 11.6418 13.5493 11.6153C13.4581 11.5212 13.3816 11.4153 13.3316 11.2889C13.2787 11.1595 13.2375 11.0212 13.2522 10.8271C13.4405 10.8183 13.5816 10.8565 13.7111 10.9065C13.8694 10.9749 14.0088 11.0809 14.1169 11.2153ZM5.40194 7.57711C5.27547 7.72123 5.14606 7.79476 5.01959 7.8477C4.89312 7.90064 4.76371 7.92417 4.63724 7.92123C4.59606 7.92123 4.55488 7.91829 4.51665 7.91535C4.51371 7.89182 4.51077 7.86535 4.51077 7.84182C4.50782 7.75358 4.50488 7.66535 4.50488 7.58005C4.50488 7.49182 4.50782 7.40358 4.51077 7.31535C4.51077 7.29182 4.51371 7.26535 4.51665 7.24182C4.55488 7.23888 4.59606 7.23594 4.63724 7.23594C4.76371 7.23005 4.89312 7.25653 5.01959 7.30653C5.14606 7.36241 5.27547 7.43594 5.40194 7.57711ZM15.4961 7.58005C15.4961 7.66535 15.4902 7.75358 15.4872 7.84182C15.4872 7.86535 15.4843 7.89182 15.4814 7.91535C15.4402 7.91829 15.4019 7.92123 15.3608 7.92123C15.2314 7.92123 15.1049 7.8977 14.9784 7.8477C14.849 7.79476 14.7225 7.72123 14.5931 7.57711C14.7225 7.43594 14.849 7.36241 14.9784 7.30653C15.1049 7.25653 15.2314 7.23005 15.3608 7.23005C15.4019 7.23005 15.4402 7.233 15.4814 7.23888C15.4843 7.26535 15.4872 7.28888 15.4872 7.31535C15.4902 7.40358 15.4961 7.49182 15.4961 7.58005ZM6.66959 11.2889C6.61665 11.4183 6.54018 11.5242 6.45194 11.6153C6.42253 11.6448 6.39312 11.6712 6.36077 11.6948C6.34018 11.6771 6.32253 11.6624 6.30488 11.6448C6.17841 11.5271 6.05488 11.4065 5.93724 11.2742C5.91959 11.2565 5.90194 11.2359 5.88724 11.2153C5.91077 11.183 5.93724 11.1536 5.96665 11.1242C6.05488 11.0359 6.16077 10.9624 6.28724 10.9065C6.41371 10.8565 6.55488 10.8183 6.749 10.8271C6.76371 11.0212 6.72253 11.1624 6.66959 11.2889ZM14.114 3.93888C14.0905 3.97123 14.064 4.00064 14.0346 4.02711C13.9434 4.12123 13.8375 4.19476 13.7111 4.2477C13.5816 4.30064 13.4405 4.33888 13.2493 4.32711C13.2375 4.13594 13.2758 3.99476 13.3287 3.86535C13.3816 3.73888 13.4552 3.63006 13.5464 3.54182C13.5758 3.51241 13.6052 3.48594 13.6375 3.46241C13.6581 3.48005 13.6758 3.49476 13.6934 3.51241C13.8228 3.62711 13.9464 3.75358 14.064 3.883C14.0816 3.90064 14.0964 3.92123 14.114 3.93888Z" fill="#51504F"/>
<path d="M10.0002 3.42773C10.1602 4.11891 10.2267 4.81068 10.2808 5.50215C10.3235 6.19362 10.3426 6.88509 10.3232 7.57685L10.2285 7.34862C10.4023 7.52773 10.567 7.71568 10.7349 7.90097C10.9049 8.08391 11.0614 8.28038 11.2238 8.47097C11.5391 8.86156 11.8473 9.2592 12.1179 9.6945C11.6826 9.42391 11.2849 9.11568 10.8944 8.80038C10.7041 8.63773 10.5073 8.48156 10.3244 8.31126C10.1391 8.14362 9.95083 7.97891 9.77201 7.80538C9.71171 7.74656 9.68024 7.6695 9.67789 7.59156L9.6773 7.57685C9.66042 6.885 9.67455 6.19274 9.71965 5.50215C9.77348 4.81097 9.84024 4.1192 10.0002 3.42773Z" fill="#3A3A3A"/>
<path d="M10.0002 7.57617C9.38045 8.02705 8.71604 8.38764 8.04133 8.72676C7.36192 9.05617 6.67133 9.36411 5.93604 9.58088C6.55545 9.12941 7.21986 8.76911 7.89486 8.43029C8.57486 8.10117 9.26515 7.79352 10.0002 7.57617Z" fill="#8A9BEA"/>
<path d="M10.0004 8.38562C10.4478 8.38562 10.8104 8.02298 10.8104 7.57562C10.8104 7.12827 10.4478 6.76562 10.0004 6.76562C9.55308 6.76562 9.19043 7.12827 9.19043 7.57562C9.19043 8.02298 9.55308 8.38562 10.0004 8.38562Z" fill="#FBAD3E"/>
<path d="M11.8736 12.4164C11.9941 11.7582 12.25 10.0782 11.8212 9.64934C11.1221 8.95022 8.56532 8.95022 7.86621 9.64934C7.43709 10.0782 7.69356 11.7582 7.81385 12.4164H11.8736Z" fill="#B53016"/>
<path d="M8.24861 13.2903C8.49898 13.2502 8.65028 12.8951 8.58654 12.4972C8.5228 12.0992 8.26816 11.8092 8.01779 11.8493C7.76742 11.8894 7.61612 12.2445 7.67986 12.6424C7.7436 13.0403 7.99824 13.3304 8.24861 13.2903Z" fill="#FEA9AD"/>
<path d="M12.0113 12.661C12.0751 12.2631 11.9238 11.908 11.6734 11.8679C11.423 11.8278 11.1684 12.1179 11.1047 12.5158C11.0409 12.9137 11.1922 13.2688 11.4426 13.3089C11.693 13.349 11.9476 13.059 12.0113 12.661Z" fill="#FEA9AD"/>
<path d="M13.7254 18.3106C13.7027 18.3929 13.6617 18.4689 13.6054 18.5331C13.5491 18.5973 13.479 18.6479 13.4004 18.6812C10.9684 19.6835 8.69455 19.6859 6.57897 18.6856C6.50817 18.6524 6.44534 18.6043 6.39474 18.5447C6.34415 18.4851 6.30697 18.4153 6.28573 18.34C6.06426 17.5676 5.90838 16.7482 6.07985 16.3553C6.2472 15.985 6.98102 15.6012 7.75779 15.2829C7.77132 15.2782 7.78485 15.2715 7.79838 15.2671C8.18936 15.1108 8.58547 14.9677 8.98602 14.8379H8.98838C9.48514 14.6756 9.84191 14.5762 9.84191 14.5762C9.84191 14.5762 10.1963 14.6665 10.6954 14.8132L10.7178 14.82C11.0746 14.9238 11.5013 15.0591 11.926 15.2106C11.9372 15.215 11.9463 15.2173 11.9575 15.2218C12.8604 15.5515 13.7457 15.9623 13.9196 16.3553C14.0913 16.7435 13.9401 17.5476 13.7254 18.3106Z" fill="#4269C4"/>
<path d="M10.6988 15.2089L9.82819 15.9221L8.9873 15.2092V13.4062H10.6991L10.6988 15.2089Z" fill="#FEA9AD"/>
<path d="M11.5209 11.5504V12.7754C11.5209 13.6283 10.9092 14.3889 10.063 14.4968C9.82612 14.5279 9.58536 14.5081 9.35677 14.4387C9.12817 14.3694 8.91701 14.252 8.73737 14.0945C8.55774 13.9371 8.41377 13.7431 8.31507 13.5255C8.21637 13.308 8.16523 13.0719 8.16504 12.833V11.6509C8.16504 11.5077 8.19445 11.3665 8.25533 11.2365C8.34504 11.0451 8.46239 10.8321 8.60269 10.6642C8.70563 10.5406 8.82327 10.4377 8.94975 10.3848C8.94975 10.3848 9.01739 10.5054 9.14651 10.6642C9.39651 10.9701 9.87827 11.4165 10.5777 11.4254C10.5777 11.4254 10.1545 11.0195 10.1103 10.6642C10.1015 10.6142 10.1015 10.5642 10.1133 10.5171C10.1133 10.5171 10.5689 10.4789 10.9715 10.6642L10.9786 10.6674C11.3168 10.8245 11.5209 11.1774 11.5209 11.5504Z" fill="#FFCECF"/>
<path d="M11.0699 15.2166L10.9164 16.5013L9.75818 19.1837L8.38965 15.1602L8.98818 15.1737V15.2075L9.82818 15.921L10.6973 15.2099L11.0699 15.2166Z" fill="#D1DAFE"/>
<path d="M11.2435 16.3478L11.6206 17.364L9.91821 19.3396L9.83674 19.4322L9.76468 19.3531L8.06438 17.3796L8.44144 16.3637L7.75732 15.2822C7.77085 15.2775 7.78438 15.2707 7.79791 15.2663C8.1889 15.1101 8.585 14.967 8.98556 14.8372H8.98791L9.84144 18.9804L10.695 14.8125L10.7173 14.8193C11.0741 14.9231 11.5009 15.0584 11.9256 15.2099C11.9367 15.2143 11.9459 15.2166 11.957 15.221L11.2435 16.3478Z" fill="#255299"/>
<path d="M6.99882 17.429H0.801758L1.62823 11.8114C1.70847 11.2659 1.98235 10.7675 2.3998 10.4073C2.81725 10.0471 3.35038 9.84911 3.90176 9.84961C4.4694 9.84961 4.99882 10.0584 5.40176 10.4084C5.81918 10.768 6.09281 11.2662 6.17235 11.8114L6.99882 17.429Z" fill="#51504F"/>
<path d="M2.95117 15.6114L3.90088 16.5181L4.85058 15.6114V14.502H2.95117V15.6114Z" fill="#FEA9AD"/>
<path d="M5.61397 12.7737V13.7958C5.61397 14.2502 5.43347 14.6859 5.11218 15.0072C4.79088 15.3285 4.35511 15.509 3.90074 15.509C3.44636 15.509 3.01059 15.3285 2.6893 15.0072C2.368 14.6859 2.1875 14.2502 2.1875 13.7958V12.7737C2.18779 12.739 2.20809 12.7084 2.23838 12.6917C2.56485 12.5114 2.65603 12.1373 2.68132 11.9429C2.68311 11.929 2.68807 11.9157 2.69582 11.904C2.70357 11.8923 2.71391 11.8826 2.72603 11.8756C2.73814 11.8686 2.75172 11.8644 2.76569 11.8635C2.77967 11.8626 2.79367 11.8649 2.80662 11.8702C3.59721 12.2005 4.32544 12.204 4.99162 11.8817C5.0046 11.8754 5.01891 11.8722 5.03335 11.8725C5.04779 11.8728 5.06195 11.8765 5.07468 11.8833C5.0874 11.8902 5.09832 11.8999 5.10653 11.9118C5.11474 11.9237 5.12001 11.9374 5.12191 11.9517C5.14868 12.1484 5.24191 12.514 5.56368 12.6917C5.57865 12.6996 5.59122 12.7114 5.60007 12.7258C5.60891 12.7403 5.61372 12.7568 5.61397 12.7737Z" fill="#FFCECF"/>
<path d="M7.25109 19.0966C7.23932 19.2231 7.12756 19.3202 7.00109 19.3202H0.80697C0.677558 19.3202 0.565794 19.2202 0.55697 19.0878C0.533441 18.729 0.536382 18.0878 0.562853 17.7554C0.608113 17.2097 0.844901 16.6974 1.23135 16.3094C1.6178 15.9213 2.12902 15.6824 2.67462 15.6349L2.95109 15.6113L3.90109 16.5172L4.85109 15.6113L5.13344 15.6349C6.20109 15.726 7.08344 16.5378 7.22756 17.5996C7.2805 17.9937 7.28932 18.6907 7.25109 19.0966Z" fill="#AEC46E"/>
<path d="M3.90058 16.5181L3.11029 17.1269C3.09516 17.1386 3.07757 17.1466 3.05887 17.1504C3.04016 17.1543 3.02083 17.1538 3.00235 17.149C2.98386 17.1442 2.9667 17.1353 2.95217 17.1229C2.93765 17.1106 2.92614 17.095 2.91852 17.0775L2.30176 15.6619L2.95088 15.6113L3.90058 16.5181ZM3.90058 16.5181L4.69058 17.1269C4.75529 17.1769 4.84999 17.1525 4.88264 17.0775L5.49911 15.6619L4.85029 15.6113L3.90058 16.5181Z" fill="#617F4D"/>
<path d="M6.08887 13.3179C6.08872 13.4438 6.03862 13.5645 5.94958 13.6536C5.86053 13.7426 5.7398 13.7927 5.61387 13.7929V12.8438C5.87564 12.8438 6.08887 13.0558 6.08887 13.3179ZM1.7124 13.3179C1.71256 13.4438 1.76265 13.5645 1.8517 13.6536C1.94074 13.7426 2.06147 13.7927 2.1874 13.7929V12.8438C1.92534 12.8438 1.7124 13.0558 1.7124 13.3179Z" fill="#FEA9AD"/>
<path d="M5.2249 13.0382C5.16233 13.0805 5.09255 13.1109 5.01901 13.1279C4.95048 13.1456 4.88166 13.1509 4.81313 13.1524C4.67607 13.1488 4.53872 13.1297 4.3999 13.0382C4.53872 12.9485 4.67607 12.9274 4.81313 12.9238C4.88166 12.9256 4.95048 12.9309 5.01901 12.9503C5.08754 12.9659 5.15607 12.9906 5.2249 13.0382ZM3.19431 12.9503C3.26284 12.9659 3.33137 12.9906 3.40019 13.0382C3.33762 13.0805 3.26784 13.1109 3.19431 13.1279C3.12548 13.1456 3.05695 13.1509 2.98842 13.1524C2.85107 13.1488 2.71401 13.1297 2.57666 13.0382C2.71401 12.9485 2.85107 12.9274 2.98842 12.9238C3.05695 12.9256 3.12548 12.9309 3.19431 12.9503Z" fill="#3A3A3A"/>
<path d="M4.41792 14.8003C4.29822 14.9517 4.09939 15.045 3.90057 15.045C3.70174 15.045 3.50292 14.9517 3.38351 14.8003C3.26027 14.6526 3.21469 14.4485 3.27086 14.2832C3.37969 14.6106 3.64027 14.7811 3.90057 14.7811C4.16086 14.7811 4.42116 14.6106 4.53027 14.2832C4.58674 14.4485 4.54086 14.6526 4.41763 14.8003H4.41792Z" fill="#FEA9AD"/>
<path d="M18.002 10.6231C18.002 10.8496 17.9214 11.0693 17.7755 11.2431L17.7852 11.2584C17.927 11.4952 18.002 11.7658 18.002 12.0417V12.8858C18.002 13.0717 17.8843 13.2358 17.7079 13.2946H14.4932C14.4035 13.2481 14.3284 13.1779 14.2759 13.0916C14.2235 13.0053 14.1958 12.9062 14.1958 12.8052V11.9264C14.1958 11.5413 14.3488 11.1719 14.6211 10.8996C14.8934 10.6273 15.2627 10.4743 15.6479 10.4743H16.4179C16.6629 10.4743 16.9046 10.4155 17.1214 10.3037L17.4537 10.1305C17.4637 10.1253 17.4748 10.1227 17.4861 10.1231C17.4973 10.1234 17.5083 10.1267 17.5179 10.1325C17.5275 10.1383 17.5354 10.1465 17.541 10.1563C17.5465 10.1661 17.5493 10.1772 17.5493 10.1884V10.4043H17.9302C17.9696 10.4043 18.0017 10.4361 18.0017 10.4758L18.002 10.6231Z" fill="#B53016"/>
<path d="M19.4591 17.6817V18.8729C19.4591 19.137 19.2435 19.3529 18.9776 19.3529H13.285C13.2219 19.3529 13.1595 19.3404 13.1012 19.3163C13.0429 19.2922 12.99 19.2568 12.9454 19.2122C12.9008 19.1676 12.8654 19.1146 12.8412 19.0564C12.8171 18.9981 12.8047 18.9356 12.8047 18.8726V17.6817C12.8043 17.1237 13.0018 16.5836 13.3621 16.1576C13.7225 15.7315 14.2223 15.4471 14.7726 15.3549C14.7756 15.3549 14.78 15.3531 14.7829 15.3531C14.7844 15.3531 14.7873 15.3531 14.7888 15.352C14.9115 15.3343 15.0341 15.3223 15.1626 15.3223H17.1026C17.2282 15.3223 17.3523 15.334 17.4732 15.3517C17.4762 15.3517 17.4791 15.3531 17.4823 15.3531C18.0346 15.4435 18.5366 15.7274 18.8988 16.154C19.2609 16.5806 19.4595 17.1221 19.4591 17.6817Z" fill="#51504F"/>
<path d="M17.4828 15.3534L16.9434 17.1976L16.1325 19.3529L15.3213 17.197L14.7837 15.3546V15.3531C14.7852 15.3531 14.7881 15.3531 14.7896 15.3517C14.9122 15.3346 15.0346 15.3223 15.1631 15.3223H17.1034C17.229 15.3223 17.3531 15.3346 17.474 15.3517C17.4769 15.3517 17.4799 15.3531 17.4831 15.3531L17.4828 15.3534Z" fill="white"/>
<path d="M17.4811 15.3546L16.9432 17.1973L16.1329 16.607H16.1314L15.3208 17.1973L14.7832 15.3546C14.7847 15.3531 14.7876 15.3531 14.7891 15.3517C14.9117 15.3346 15.0341 15.3223 15.1626 15.3223H17.1029C17.2285 15.3223 17.3526 15.3346 17.4735 15.3517C17.4764 15.3531 17.4779 15.3531 17.4811 15.3546Z" fill="#D1DAFE"/>
<path d="M16.5113 18.3665L16.1327 19.3533L15.7539 18.3662L16.0157 17.221L15.8036 16.846L16.1321 16.6074H16.1336L16.4621 16.8457L16.2498 17.221L16.5113 18.3665Z" fill="#B53016"/>
<path d="M16.9744 14.7511V15.5937C16.9744 15.8172 16.8856 16.0316 16.7276 16.1896C16.5696 16.3476 16.3552 16.4364 16.1318 16.4364C15.9083 16.4364 15.6939 16.3476 15.5359 16.1896C15.3779 16.0316 15.2891 15.8172 15.2891 15.5937V14.7511H16.9744ZM14.0029 13.3999C14.0029 13.6652 14.2176 13.8799 14.4829 13.8799H14.5623V12.9199H14.4829C14.2176 12.9199 14.0029 13.1346 14.0029 13.3999ZM18.1985 13.3999C18.1985 13.6652 17.9835 13.8799 17.7182 13.8799H17.6391V12.9199H17.7185C17.9835 12.9199 18.1985 13.1346 18.1985 13.3999Z" fill="#FEA9AD"/>
<path d="M17.708 12.5041V13.7473C17.708 14.5668 17.1224 15.2929 16.3115 15.3973C16.0846 15.4274 15.8538 15.4086 15.6347 15.3423C15.4156 15.2759 15.2132 15.1636 15.041 15.0127C14.8688 14.8619 14.7308 14.676 14.6363 14.4675C14.5417 14.259 14.4928 14.0327 14.4927 13.8038V12.5041C14.4927 12.3265 14.5221 12.155 14.5756 11.9953C14.5833 11.9734 14.5977 11.9545 14.6167 11.9413C14.6357 11.928 14.6583 11.9209 14.6815 11.9212H16.6833C16.8577 11.9212 17.0294 11.8735 17.1815 11.7832L17.3486 11.6809C17.361 11.6731 17.3748 11.6679 17.3892 11.6655C17.4037 11.6631 17.4184 11.6637 17.4327 11.6671C17.4469 11.6705 17.4603 11.6767 17.4721 11.6853C17.484 11.6939 17.4939 11.7048 17.5015 11.7173C17.6339 11.9497 17.708 12.2173 17.708 12.5041Z" fill="#FFCECF"/>
<path d="M17.2614 13.0144C17.2065 13.0514 17.1453 13.078 17.0808 13.0929C17.0217 13.1069 16.9612 13.1141 16.9005 13.1144C16.7799 13.1114 16.6599 13.0944 16.5382 13.0144C16.6599 12.9355 16.7802 12.9173 16.9005 12.9141C16.9605 12.9155 17.0208 12.9202 17.0808 12.9373C17.1411 12.9511 17.2014 12.9726 17.2614 13.0144ZM15.4811 12.9373C15.5414 12.9511 15.6014 12.9726 15.6614 13.0144C15.6066 13.0513 15.5455 13.0779 15.4811 13.0929C15.422 13.1069 15.3615 13.1141 15.3008 13.1144C15.1802 13.1114 15.0602 13.0944 14.9399 13.0144C15.0602 12.9355 15.1805 12.9173 15.3008 12.9141C15.3608 12.9155 15.4211 12.9202 15.4811 12.9373Z" fill="#3A3A3A"/>
<path d="M16.5538 14.557C16.4987 14.624 16.4295 14.678 16.3511 14.715C16.2727 14.7521 16.187 14.7714 16.1003 14.7715C16.0136 14.7713 15.928 14.7519 15.8497 14.7148C15.7713 14.6777 15.7021 14.6237 15.6471 14.5568C15.5391 14.4273 15.4988 14.2485 15.5482 14.1038C15.6438 14.3906 15.8721 14.54 16.1003 14.54C16.3285 14.54 16.5568 14.3906 16.6524 14.1035C16.7018 14.2485 16.6618 14.4273 16.5538 14.557Z" fill="#FEA9AD"/>
<path d="M16.1328 19.3534L14.3687 17.9069C14.3202 17.867 14.2868 17.8116 14.2742 17.7501C14.2616 17.6885 14.2704 17.6245 14.2993 17.5687L14.4263 17.3264C14.4469 17.2866 14.4575 17.2424 14.4572 17.1976C14.457 17.1529 14.4459 17.1088 14.4249 17.0693L13.7363 15.8031C14.0403 15.5715 14.3964 15.4179 14.7734 15.3555H14.7837L16.1328 19.3534Z" fill="#3A3A3A"/>
<path d="M16.1318 19.3534L17.896 17.9069C17.9445 17.867 17.9778 17.8116 17.9904 17.7501C18.0031 17.6885 17.9942 17.6245 17.9654 17.5687L17.8383 17.3264C17.8178 17.2866 17.8072 17.2424 17.8074 17.1976C17.8077 17.1529 17.8188 17.1088 17.8398 17.0693L18.528 15.8031C18.224 15.5715 17.868 15.4179 17.491 15.3555H17.4807L16.1318 19.3534Z" fill="#3A3A3A"/>
<path d="M14.6342 5.99906C14.6516 6.1867 14.793 6.3367 14.978 6.37435C15.0586 6.3917 15.1369 6.40612 15.2174 6.41788V6.76729C15.2174 6.92023 15.4024 7.00112 15.5122 6.89141L15.8616 6.55053C15.879 6.53447 15.8995 6.5221 15.9218 6.51416C15.9442 6.50623 15.9679 6.50289 15.9916 6.50435C16.621 6.542 17.2563 6.48994 17.8916 6.36288C17.9734 6.34708 18.0484 6.30644 18.1062 6.24649C18.1641 6.18654 18.2021 6.11021 18.2151 6.02788C18.348 5.22494 18.3422 4.44259 18.218 3.67435C18.2036 3.58968 18.1634 3.51151 18.1029 3.45051C18.0425 3.38951 17.9646 3.34864 17.8801 3.33347C16.9203 3.17369 15.9408 3.1727 14.9807 3.33053C14.8894 3.34512 14.8055 3.38964 14.7422 3.4571C14.679 3.52455 14.64 3.61111 14.6313 3.70317C14.5673 4.46717 14.5682 5.23523 14.6342 5.99906Z" fill="#3D5E2A"/>
<path d="M14.2763 6.03224C14.2934 6.21988 14.4351 6.36988 14.6198 6.40753C14.7007 6.42488 14.7787 6.43929 14.8595 6.45106V6.80047C14.8595 6.95341 15.0442 7.03429 15.1539 6.92459L15.5037 6.58371C15.5211 6.56768 15.5415 6.55533 15.5638 6.5474C15.5861 6.53946 15.6097 6.53611 15.6334 6.53753C16.2628 6.57518 16.8981 6.52312 17.5337 6.39606C17.6155 6.38026 17.6904 6.33962 17.7483 6.27967C17.8062 6.21972 17.8442 6.14339 17.8572 6.06106C17.9898 5.25812 17.9842 4.47577 17.8601 3.70753C17.8457 3.62281 17.8054 3.54462 17.7449 3.48362C17.6844 3.42261 17.6065 3.38176 17.5219 3.36665C16.5622 3.2069 15.5828 3.20591 14.6228 3.36371C14.5315 3.3783 14.4476 3.42282 14.3843 3.49027C14.3211 3.55773 14.282 3.64429 14.2734 3.73635C14.2093 4.50035 14.2103 5.2684 14.2763 6.03224Z" fill="#AEC46E"/>
<path d="M14.2271 4.89844C14.2271 5.27373 14.2415 5.64932 14.2762 6.03344C14.2932 6.22108 14.435 6.37108 14.6197 6.40873C14.7006 6.42608 14.7785 6.4405 14.8594 6.45226V6.80167C14.8594 6.95461 15.0441 7.0355 15.1538 6.92579L15.5035 6.58491C15.5209 6.56888 15.5414 6.55654 15.5637 6.5486C15.586 6.54067 15.6096 6.53731 15.6332 6.53873C16.2626 6.57638 16.8979 6.52432 17.5335 6.39726C17.6153 6.38146 17.6903 6.34082 17.7482 6.28087C17.8061 6.22092 17.8441 6.14459 17.8571 6.06226C17.8771 5.93226 17.8973 5.80226 17.9091 5.6752C17.5162 5.85167 17.057 5.94961 16.5632 5.94961C15.5379 5.94961 14.6485 5.52226 14.2271 4.89844Z" fill="#617F4D"/>
<path d="M17.2965 4.04697C17.0956 3.9852 16.8945 3.95314 16.6936 3.93138C16.4927 3.90785 16.2915 3.89903 16.0906 3.89844C15.8895 3.89844 15.6886 3.90726 15.4877 3.93079C15.2865 3.95285 15.0856 3.9852 14.8848 4.04697C15.0856 4.10873 15.2865 4.14108 15.4877 4.16314C15.6886 4.18667 15.8895 4.1955 16.0906 4.1955C16.2921 4.19603 16.4934 4.18503 16.6936 4.16256C16.8945 4.14079 17.0956 4.10844 17.2965 4.04697ZM17.2965 4.81197C17.0956 4.7502 16.8945 4.71814 16.6936 4.69638C16.4927 4.67285 16.2915 4.66403 16.0906 4.66344C15.8895 4.66344 15.6886 4.67226 15.4877 4.69579C15.2865 4.71755 15.0856 4.7502 14.8848 4.81197C15.0856 4.87373 15.2865 4.90608 15.4877 4.92814C15.6886 4.95167 15.8895 4.9605 16.0906 4.9605C16.2921 4.96103 16.4934 4.95004 16.6936 4.92755C16.8945 4.90579 17.0956 4.87344 17.2965 4.81197ZM17.2965 5.57697C17.0956 5.5152 16.8945 5.48314 16.6936 5.46138C16.4927 5.43785 16.2915 5.42903 16.0906 5.42844C15.8895 5.42844 15.6886 5.43726 15.4877 5.46079C15.2865 5.48255 15.0856 5.5152 14.8848 5.57697C15.0856 5.63873 15.2865 5.67108 15.4877 5.69314C15.6886 5.71667 15.8895 5.7255 16.0906 5.7255C16.2921 5.72603 16.4934 5.71503 16.6936 5.69255C16.8945 5.67079 17.0956 5.63844 17.2965 5.57697Z" fill="white"/>
</g>
<defs>
<clipPath id="clip0_2122_26972">
<rect width="20" height="20" fill="white"/>
</clipPath>
</defs>
</svg>
