<svg width="254" height="194" viewBox="0 0 254 194" fill="none" xmlns="http://www.w3.org/2000/svg">
<mask id="path-2-inside-1_2829_61769" fill="white">
<path d="M85.0922 0.5C87.2471 0.5 89.352 1.14928 91.1324 2.36319L135.991 32.9483C137.772 34.1622 139.876 34.8115 142.031 34.8115H242.8C248.722 34.8115 253.523 39.612 253.523 45.5337V182.778C253.523 188.699 248.722 193.5 242.8 193.5H11.2C5.27829 193.5 0.477783 188.699 0.477783 182.778V11.2222C0.477783 5.30051 5.27829 0.5 11.2 0.5H85.0922Z"/>
</mask>
<path d="M85.0922 0.5C87.2471 0.5 89.352 1.14928 91.1324 2.36319L135.991 32.9483C137.772 34.1622 139.876 34.8115 142.031 34.8115H242.8C248.722 34.8115 253.523 39.612 253.523 45.5337V182.778C253.523 188.699 248.722 193.5 242.8 193.5H11.2C5.27829 193.5 0.477783 188.699 0.477783 182.778V11.2222C0.477783 5.30051 5.27829 0.5 11.2 0.5H85.0922Z" fill="white"/>
<path d="M135.991 32.9483L135.689 33.3913L135.991 32.9483ZM91.1324 2.36319L91.4344 1.92024L91.1324 2.36319ZM91.1324 2.36319L90.8304 2.80614L135.689 33.3913L135.991 32.9483L136.293 32.5054L91.4344 1.92024L91.1324 2.36319ZM142.031 34.8115V35.3476H242.8V34.8115V34.2754H142.031V34.8115ZM253.523 45.5337H252.987V182.778H253.523H254.059V45.5337H253.523ZM242.8 193.5V192.964H11.2V193.5V194.036H242.8V193.5ZM0.477783 182.778H1.01389V11.2222H0.477783H-0.0583279V182.778H0.477783ZM11.2 0.5V1.03611H85.0922V0.5V-0.0361111H11.2V0.5ZM0.477783 11.2222H1.01389C1.01389 5.59659 5.57437 1.03611 11.2 1.03611V0.5V-0.0361111C4.9822 -0.0361111 -0.0583279 5.00442 -0.0583279 11.2222H0.477783ZM11.2 193.5V192.964C5.57438 192.964 1.01389 188.403 1.01389 182.778H0.477783H-0.0583279C-0.0583279 188.996 4.98221 194.036 11.2 194.036V193.5ZM253.523 182.778H252.987C252.987 188.403 248.426 192.964 242.8 192.964V193.5V194.036C249.018 194.036 254.059 188.996 254.059 182.778H253.523ZM242.8 34.8115V35.3476C248.426 35.3476 252.987 39.9081 252.987 45.5337H253.523H254.059C254.059 39.3159 249.018 34.2754 242.8 34.2754V34.8115ZM135.991 32.9483L135.689 33.3913C137.559 34.6659 139.769 35.3476 142.031 35.3476V34.8115V34.2754C139.984 34.2754 137.985 33.6586 136.293 32.5054L135.991 32.9483ZM91.1324 2.36319L91.4344 1.92024C89.5649 0.645638 87.3548 -0.0361111 85.0922 -0.0361111V0.5V1.03611C87.1393 1.03611 89.139 1.65293 90.8304 2.80614L91.1324 2.36319Z" fill="#C5D0D0" mask="url(#path-2-inside-1_2829_61769)"/>
</svg>
