<svg width="24" height="24" viewBox="0 0 24 24" fill="none" xmlns="http://www.w3.org/2000/svg">
<g clip-path="url(#clip0_2025_192117)">
<path d="M20.0543 7.38692L16.5435 5.64884V1.48438H20.0543V7.38692Z" fill="#FF6465"/>
<path d="M3.08496 8.5162V23.9173H20.915V8.5162L12 4.0957L3.08496 8.5162Z" fill="#FF6465"/>
<path d="M11.9999 8.23633C10.743 8.23633 9.72412 9.25525 9.72412 10.5121V12.7879H14.2757V10.5121C14.2757 9.25525 13.2568 8.23633 11.9999 8.23633Z" fill="#7DD2F0"/>
<path d="M14.2756 15.3203H9.72412V23.9175H14.2756V15.3203Z" fill="#FFD782"/>
<path opacity="0.1" d="M3.08496 8.5162V12.1402L12 7.47792L20.915 12.1402V8.5162L12 4.0957L3.08496 8.5162Z" fill="black"/>
<path d="M22.6575 11.0906L12 5.51702L1.3425 11.0906L0 8.52362L12 2.24805L24 8.52362L22.6575 11.0906Z" fill="#FFD782"/>
<path opacity="0.1" d="M20.0539 1.48438H16.543V4.23462H20.0539V1.48438Z" fill="black"/>
<path d="M20.9149 0.0820312H15.6821V2.49675H20.9149V0.0820312Z" fill="#FFD782"/>
</g>
<defs>
<clipPath id="clip0_2025_192117">
<rect width="24" height="24" fill="white"/>
</clipPath>
</defs>
</svg>
