<svg width="15" height="14" viewBox="0 0 15 14" fill="none" xmlns="http://www.w3.org/2000/svg">
<path fill-rule="evenodd" clip-rule="evenodd" d="M5.55898 4.39844H9.44118C11.4098 4.39844 12.3941 4.39844 12.9471 4.97409C13.5 5.54974 13.3699 6.43912 13.1097 8.21782L12.863 9.90458C12.6589 11.2995 12.5569 11.9969 12.0336 12.4146C11.5102 12.8322 10.7383 12.8322 9.19443 12.8322H5.80571C4.26189 12.8322 3.48997 12.8322 2.96661 12.4146C2.44325 11.9969 2.34123 11.2995 2.13719 9.90458L1.89046 8.21782C1.63028 6.43912 1.50019 5.54974 2.0531 4.97409C2.60601 4.39844 3.59034 4.39844 5.55898 4.39844ZM5.16675 10.499C5.16675 10.2574 5.38439 10.0615 5.65286 10.0615H9.34732C9.61577 10.0615 9.83341 10.2574 9.83341 10.499C9.83341 10.7406 9.61577 10.9365 9.34732 10.9365H5.65286C5.38439 10.9365 5.16675 10.7406 5.16675 10.499Z" fill="#FA7F81"/>
<g opacity="0.4">
<path d="M5.46408 1.16797H9.53577C9.6714 1.16794 9.7754 1.16791 9.86629 1.1768C10.5125 1.24002 11.0414 1.62856 11.2658 2.15192H3.73413C3.95843 1.62856 4.48737 1.24002 5.1336 1.1768C5.22449 1.16791 5.32846 1.16794 5.46408 1.16797Z" fill="#FA7F81"/>
</g>
<g opacity="0.7">
<path d="M4.18112 2.75391C3.36992 2.75391 2.70476 3.24376 2.48279 3.89362C2.47816 3.90716 2.47373 3.92078 2.46948 3.93446C2.70174 3.86413 2.94345 3.81818 3.18814 3.78681C3.81836 3.70602 4.61481 3.70606 5.53999 3.70611H5.60908H9.56039C10.4856 3.70606 11.282 3.70602 11.9122 3.78681C12.1569 3.81818 12.3987 3.86413 12.6309 3.93446C12.6266 3.92078 12.6222 3.90716 12.6176 3.89362C12.3956 3.24376 11.7304 2.75391 10.9193 2.75391H4.18112Z" fill="#FA7F81"/>
</g>
</svg>
