<svg width="19" height="23" viewBox="0 0 19 23" fill="none" xmlns="http://www.w3.org/2000/svg">
<path d="M11.4992 8.20073L7.62578 7.12903L6.56458 6.64359C6.22487 6.49393 5.95555 6.2196 5.81219 5.87718C5.52779 5.21109 5.45873 4.47275 5.61466 3.76547C5.73826 3.20479 5.99873 2.68343 6.37282 2.24789C6.7469 1.81235 7.22298 1.47618 7.75858 1.26937L8.00313 1.17492C8.57103 0.955352 9.18112 0.866622 9.78803 0.915325L9.82868 0.91856C10.5352 0.9746 11.2164 1.20711 11.8097 1.59478C12.4031 1.98244 12.8896 2.51286 13.2247 3.13739C13.5771 3.79453 13.9513 4.49208 14.2411 5.03114C14.5751 5.65299 15.0554 6.18423 15.6405 6.57904L16.0923 6.88373C16.683 7.28233 17.1668 7.81982 17.5013 8.44904C17.8357 9.07825 18.0107 9.77995 18.0107 10.4925C18.0106 11.2791 17.7976 12.0509 17.3941 12.726L17.0882 13.2379L11.4992 8.20073Z" fill="#7A4922"/>
<path d="M12.6226 9.23823L12.9408 8.88255C12.748 8.76326 12.5762 8.61294 12.4324 8.43766C12.2344 8.19628 12.0939 7.91305 12.0215 7.60938L9.39258 8.40156L10.0117 9.55361C10.4152 9.81434 10.8973 9.92555 11.3742 9.86794C11.8511 9.81033 12.2928 9.58754 12.6226 9.23823Z" fill="#F6BB92"/>
<path d="M12.1915 8.06875L12.1165 8.11141L11.5095 8.48031C10.9589 8.81533 10.3018 8.92923 9.67055 8.79906C9.64617 8.79391 9.6218 8.78875 9.59742 8.78312L9.39258 8.40156L12.0213 7.60938C12.0574 7.75982 12.1102 7.90574 12.1788 8.04437C12.183 8.05234 12.1868 8.06078 12.1915 8.06875Z" fill="#F6BB92"/>
<path d="M16.9696 11.1397C16.7847 10.7262 16.5071 10.3608 16.1585 10.0716C15.8098 9.78247 15.3993 9.57735 14.9587 9.47213L13.5472 9.13519C13.3331 9.084 13.1285 8.99879 12.9413 8.88281L12.6231 9.2385C12.2933 9.58783 11.8516 9.81064 11.3746 9.86825C10.8977 9.92586 10.4156 9.81463 10.0121 9.55388L7.36652 10.2627C7.03346 10.3519 6.72295 10.5104 6.45519 10.7276C6.18744 10.9449 5.96844 11.2161 5.81247 11.5236L5.725 11.696L4.375 16.2641L8.06739 20.2975L7.85875 22.8299L16.0786 22.8767L15.8274 17.1955L17.0889 13.2395C17.308 12.5486 17.2655 11.8013 16.9696 11.1397Z" fill="#FF8AA0"/>
<path d="M13.0611 16.3892C12.9386 15.8058 12.645 15.2721 12.2177 14.8564L12.1377 14.7786C11.8452 14.494 11.4977 14.2721 11.1164 14.1265L9.42331 13.4805L7.91234 14.6828L7.47266 16.1047L12.506 18.0579L13.0611 16.3892Z" fill="#E6E5E0"/>
<path d="M11.5 14.3044V17.6663L10 17.0841V13.6992L11.1156 14.1248C11.2478 14.1755 11.3763 14.2355 11.5 14.3044Z" fill="#E6E5E0"/>
<path d="M4.37572 16.2617L3.66842 18.8701C3.62633 19.0873 3.6321 19.311 3.68532 19.5257C3.73854 19.7404 3.83794 19.9409 3.97658 20.1132C4.14124 20.3178 4.35607 20.4763 4.60016 20.5733C4.84425 20.6702 5.10928 20.7024 5.36947 20.6665L10.1472 20.0219L4.37572 16.2617Z" fill="#F6BB92"/>
<path d="M10.1469 20.022L9.53141 20.105L5.48516 18.3378C4.94387 18.1012 4.49075 17.7002 4.19 17.1917L4.14453 17.1144L4.37562 16.2617L10.1469 20.022Z" fill="#F6BB92"/>
<path d="M12.1915 8.06875L12.1165 8.11141L11.5095 8.48031C10.9589 8.81533 10.3018 8.92923 9.67055 8.79906C9.64617 8.79391 9.6218 8.78875 9.59742 8.78312L9.39258 8.40156L12.0213 7.60938C12.0574 7.75982 12.1102 7.90574 12.1788 8.04437C12.183 8.05234 12.1868 8.06078 12.1915 8.06875Z" fill="#E6AF89"/>
<path d="M6.98891 11.7539L8.12998 11.9695C8.37584 12.0298 8.6033 12.149 8.7927 12.317C8.9821 12.4849 9.12772 12.6965 9.21697 12.9333L9.42238 13.4783L9.39453 13.5052C8.6131 14.2576 7.96317 15.1355 7.47172 16.1026L6.40039 13.2377L6.98891 11.7539Z" fill="#F6BB92"/>
<path d="M11.5 14.3044V17.6663L10 17.0841V13.6992L11.1156 14.1248C11.2478 14.1755 11.3763 14.2355 11.5 14.3044Z" fill="#D6D5D0"/>
<path d="M1.11817 7.54553L1.13434 7.53475C1.30797 7.41897 1.51636 7.36693 1.72404 7.38749C1.93172 7.40805 2.12586 7.49995 2.27341 7.64754L2.5 7.87432L2.69467 7.65189C2.84534 7.47975 3.05575 7.37124 3.28336 7.3483C3.51097 7.32536 3.7388 7.38971 3.92078 7.52833C4.06198 7.63588 4.17644 7.77459 4.25523 7.93365C4.33401 8.0927 4.375 8.2678 4.375 8.4453C4.37498 8.61815 4.33609 8.78879 4.26121 8.94458C4.18633 9.10037 4.07736 9.23732 3.94239 9.3453L2.5 10.4993L1.04064 9.33185C0.910954 9.22809 0.806263 9.09649 0.734316 8.94679C0.66237 8.7971 0.625009 8.63314 0.625 8.46705C0.624998 8.28472 0.670011 8.10521 0.756044 7.94446C0.842076 7.7837 0.966466 7.64667 1.11817 7.54553Z" fill="#E42A3C"/>
<path d="M10.1469 20.022L9.53141 20.105L5.48516 18.3378C4.94387 18.1012 4.49075 17.7002 4.19 17.1917L4.14453 17.1144L4.37562 16.2617L10.1469 20.022Z" fill="#E6AF89"/>
<path d="M7.47228 16.1037C7.47227 15.1086 7.20904 14.1311 6.7093 13.2705L6.62539 13.126L6.98952 11.755L6.34264 11.6953C5.94463 11.6953 5.5601 11.8396 5.26025 12.1013C4.93354 12.3865 4.73259 12.7891 4.70108 13.2216L4.61914 14.9339L5.73809 16.2634L7.47228 16.1037Z" fill="#7A4922"/>
<path d="M13.9596 13.6853L12.5059 18.0548L7.47265 16.1016L7.08359 15.6203C7.03595 15.5614 6.9769 15.5127 6.90997 15.4771C6.84303 15.4415 6.7696 15.4199 6.69409 15.4134C6.61857 15.4069 6.54252 15.4158 6.47051 15.4394C6.3985 15.4631 6.33201 15.501 6.27504 15.551L6.07488 15.7266L5.41076 15.0956C5.1932 14.8889 4.90707 14.7698 4.60715 14.761C4.30723 14.7522 4.01461 14.8544 3.78532 15.0479L3.73582 15.0897C3.67943 15.1373 3.64172 15.2034 3.62939 15.2761C3.61706 15.3489 3.6309 15.4236 3.66846 15.4872L4.56457 17.0028C4.86521 17.5113 5.31832 17.9122 5.85963 18.1486L11.8626 20.7711C12.1714 20.906 12.5048 20.9757 12.8418 20.9759C13.362 20.9761 13.8688 20.8106 14.2886 20.5034C14.7085 20.1963 15.0196 19.7634 15.1769 19.2675L16.9375 13.7165L13.9596 13.6853ZM12.0226 7.60673C11.9585 7.33843 11.9491 7.06 11.9948 6.78797L12.1309 5.97656C10.6253 5.97657 9.16672 5.45223 8.00571 4.49362L7.53087 4.10156L7.30118 4.62998C7.12429 5.03681 7.06121 5.48404 7.11866 5.92392C7.17611 6.3638 7.35194 6.77983 7.62738 7.12758L7.9107 7.48533C8.2824 7.95454 8.80738 8.27796 9.39363 8.39892C10.025 8.52907 10.6822 8.41517 11.2329 8.08017L11.8398 7.71103L12.0226 7.60673Z" fill="#F6BB92"/>
</svg>
