<svg width="18" height="18" viewBox="0 0 18 18" fill="none" xmlns="http://www.w3.org/2000/svg">
<path d="M17.5958 13.7441V14.6236C17.5958 14.8271 17.5557 15.0286 17.4779 15.2167C17.4 15.4047 17.2859 15.5756 17.142 15.7195C16.9981 15.8634 16.8273 15.9776 16.6392 16.0555C16.4512 16.1334 16.2497 16.1735 16.0462 16.1735H12.3418V13.7441H17.5958Z" fill="#2D77FC"/>
<path d="M5.65697 16.2099L5.62354 13.834H0.370117L0.404364 14.7143C0.404531 15.0554 0.51737 15.387 0.72535 15.6575C0.93333 15.9279 1.22481 16.1221 1.5545 16.2099H5.65697Z" fill="#29265D"/>
<path d="M15.3464 16.2098V16.023L13.1034 7.90625H4.91706L2.67432 16.023V16.2098H15.3464Z" fill="#8C382D"/>
<path d="M7.02441 4.11719H10.8192V8.08513H7.02441V4.11719Z" fill="#2D77FC"/>
<path d="M10.1335 4.11523L9.16141 5.60482L8.92141 5.97249L8.68168 5.60482L7.71045 4.11523H10.1335Z" fill="#F7F8F8"/>
<path d="M9.16137 5.60414L8.92137 5.97181L8.68164 5.60414L8.76027 4.83976L8.76959 4.74414H9.07315L9.08191 4.82715L9.16137 5.60414Z" fill="#FEB630"/>
<path d="M9.22727 4.6613L9.04453 4.8698C9.02833 4.8883 9.00836 4.90313 8.98596 4.91328C8.96357 4.92344 8.93926 4.9287 8.91466 4.9287C8.89007 4.9287 8.86576 4.92344 8.84337 4.91328C8.82097 4.90313 8.801 4.8883 8.7848 4.8698L8.60206 4.66158C8.58013 4.63663 8.56586 4.60589 8.56097 4.57304C8.55607 4.54018 8.56076 4.50662 8.57447 4.47636C8.58818 4.44611 8.61033 4.42045 8.63826 4.40247C8.66619 4.38449 8.69871 4.37495 8.73193 4.375H9.09713C9.13029 4.375 9.16276 4.38455 9.19063 4.40252C9.21851 4.42049 9.24062 4.4461 9.25432 4.4763C9.26802 4.50651 9.27273 4.54002 9.26788 4.57282C9.26303 4.60563 9.24884 4.63635 9.22699 4.6613H9.22727Z" fill="#FEB630"/>
<path d="M7.07529 4.13554C7.16539 4.16847 7.24803 4.21899 7.3184 4.28417C7.38877 4.34935 7.44547 4.42788 7.4852 4.51518C7.52493 4.60249 7.54688 4.69683 7.54979 4.7927C7.5527 4.88858 7.5365 4.98407 7.50214 5.07363L6.57338 7.62678C6.45831 8.00294 6.12543 8.19664 5.82954 8.05965C5.53228 7.9213 5.38625 7.5002 5.50434 7.12294L6.43694 4.78513C6.49776 4.59226 6.62817 4.3991 6.75201 4.275C6.90214 4.12431 6.99612 4.11965 7.02434 4.11719L7.07529 4.13554Z" fill="#2D77FC"/>
<path d="M9.46202 3.33203V4.11669L8.92229 4.37477L8.38037 4.11669V3.33203H9.46202Z" fill="#F9B29C"/>
<path d="M9.46223 3.33203V3.74491C9.3061 3.83281 9.1299 3.87887 8.95072 3.87861C8.74836 3.87893 8.55031 3.82018 8.38086 3.70957V3.33203H9.46223Z" fill="#E29A81"/>
<path d="M9.79424 4.11604L9.37068 4.68755L8.93506 4.37358L9.47588 3.90234L9.78629 4.11495L9.79424 4.11604Z" fill="#E6E8E8"/>
<path d="M8.07568 4.11604L8.49925 4.68755L8.93486 4.37358L8.39377 3.90234L8.08363 4.11495L8.07568 4.11604Z" fill="#E6E8E8"/>
<path d="M12.0317 8.02756C11.736 8.1651 11.4029 7.97112 11.2878 7.59469L10.4385 5.004C10.381 4.83511 10.3879 4.65092 10.458 4.48685C10.5281 4.32278 10.6564 4.19042 10.8182 4.11523C11.1454 4.13551 11.436 4.39907 11.5577 4.78647L12.3566 7.09085C12.4752 7.46838 12.3292 7.88921 12.0317 8.02756Z" fill="#2D77FC"/>
<path d="M10.089 6.97802L9.87864 7.19336L9.74713 7.02952C9.72568 7.0004 9.71293 6.96579 9.71036 6.92971C9.70779 6.89363 9.71551 6.85756 9.73261 6.82569C9.75782 6.77856 9.79946 6.75391 9.8422 6.75391C9.85923 6.75423 9.87598 6.75825 9.8913 6.76568C9.90663 6.7731 9.92016 6.78376 9.93097 6.79692L10.089 6.97802ZM7.57617 6.97802L7.92823 7.19336L7.91782 7.02952C7.96138 6.97473 7.96713 6.88898 7.93261 6.82569C7.9074 6.77856 7.86576 6.75391 7.82302 6.75391C7.806 6.75423 7.78924 6.75825 7.77392 6.76568C7.75859 6.7731 7.74506 6.78376 7.73425 6.79692L7.57617 6.97802Z" fill="#F9B29C"/>
<path d="M12.3949 7.31296C12.3634 6.92282 12.0798 6.63926 11.7637 6.682L10.1061 6.97652L10.0889 8.08446H11.8826C12.1968 8.04611 12.4264 7.70035 12.3949 7.31296Z" fill="#2D77FC"/>
<path d="M10.0892 6.97656V8.08451L9.42398 8.07163C9.25192 8.06862 9.10754 7.91108 9.08315 7.70177C9.08071 7.68232 9.07952 7.66274 9.07959 7.64314C9.07959 7.41492 9.22672 7.22095 9.41631 7.21218L9.87877 7.1919L10.0892 6.97656Z" fill="#F9B29C"/>
<path d="M5.46627 7.34611C5.49778 6.95597 5.78134 6.67269 6.0975 6.71515L7.57559 6.97652V8.08501L5.9786 8.11789C5.66435 8.07926 5.43476 7.73351 5.46627 7.34611Z" fill="#2D77FC"/>
<path d="M10.0979 6.92934L11.0404 6.80469L11.0516 6.89017L10.1092 7.01482L10.0979 6.92934ZM7.57191 7.02085L6.83301 6.95619L6.84753 6.84606L7.57958 6.93482L7.57191 7.02085Z" fill="#125AC4"/>
<path d="M7.57617 6.97656V8.08451L8.24138 8.07163C8.41343 8.06862 8.55782 7.91108 8.5822 7.70177C8.58494 7.68177 8.58549 7.66232 8.58549 7.64314C8.58549 7.41492 8.43864 7.22095 8.24905 7.21218L7.92823 7.1919L7.57617 6.97656Z" fill="#F9B29C"/>
<path d="M6.83281 6.95865L7.54239 5.08851L7.47774 4.9707L6.77637 6.9318L6.83281 6.95865ZM11.115 6.88468L10.4794 4.98879L10.3977 5.01618L11.0208 6.89974L11.115 6.88468Z" fill="#125AC4"/>
<path d="M11.0032 8.10485H6.93494C6.89029 8.10481 6.84609 8.09598 6.80485 8.07886C6.76361 8.06174 6.72615 8.03667 6.69461 8.00507C6.66306 7.97348 6.63804 7.93597 6.62099 7.89471C6.60394 7.85344 6.59518 7.80923 6.59521 7.76458C6.59521 7.67444 6.66809 7.60156 6.75823 7.60156H11.1801C11.27 7.60156 11.3432 7.67444 11.3432 7.76458C11.3432 7.95252 11.1908 8.10485 11.0032 8.10485Z" fill="#29275C"/>
<path d="M10.6118 8.10099H7.2584C7.20848 8.10106 7.16008 8.08382 7.12146 8.05219C7.08284 8.02056 7.05639 7.97652 7.04662 7.92756L6.56032 5.49414C6.55407 5.46283 6.55486 5.43053 6.56261 5.39957C6.57036 5.3686 6.5849 5.33975 6.60516 5.31508C6.62542 5.29041 6.65091 5.27056 6.67978 5.25694C6.70865 5.24332 6.74018 5.23628 6.7721 5.23633H11.0981C11.234 5.23633 11.3365 5.36071 11.3096 5.49414L10.8233 7.92756C10.8136 7.97647 10.7872 8.02048 10.7486 8.0521C10.71 8.08372 10.6617 8.101 10.6118 8.10099Z" fill="#393982"/>
<path d="M8.92218 7.18517C9.11192 7.18517 9.26574 7.03135 9.26574 6.84161C9.26574 6.65186 9.11192 6.49805 8.92218 6.49805C8.73243 6.49805 8.57861 6.65186 8.57861 6.84161C8.57861 7.03135 8.73243 7.18517 8.92218 7.18517Z" fill="#29275C"/>
<path d="M9.27999 6.86634C9.27999 7.0562 9.12602 7.2099 8.93643 7.2099C8.80301 7.2099 8.68904 7.13428 8.63232 7.0236C8.68054 7.04908 8.73452 7.0636 8.79123 7.0636C8.98082 7.0636 9.13452 6.90962 9.13452 6.72003C9.13452 6.6636 9.12027 6.60935 9.09479 6.5625C9.20547 6.61894 9.27999 6.73428 9.27999 6.86661V6.86634Z" fill="#040516" fill-opacity="0.0823529"/>
<path d="M9.97519 2.75851C10.1168 2.75851 10.2316 2.62457 10.2316 2.45933C10.2316 2.2941 10.1168 2.16016 9.97519 2.16016C9.83356 2.16016 9.71875 2.2941 9.71875 2.45933C9.71875 2.62457 9.83356 2.75851 9.97519 2.75851Z" fill="#F9B29C"/>
<path d="M10.0776 2.59468C10.0733 2.59465 10.069 2.5933 10.0654 2.59079C10.0618 2.58829 10.0591 2.58476 10.0575 2.58067C10.056 2.57657 10.0557 2.57211 10.0568 2.56786C10.0578 2.56361 10.0601 2.55978 10.0634 2.55687C10.0778 2.54504 10.0895 2.53026 10.0977 2.51354C10.106 2.49681 10.1105 2.47852 10.1111 2.45988C10.1105 2.44121 10.106 2.42286 10.0978 2.40608C10.0896 2.38931 10.0778 2.37449 10.0634 2.36262C10.0597 2.3587 10.0576 2.35354 10.0575 2.34815C10.0575 2.34277 10.0594 2.33755 10.063 2.3335C10.0665 2.32946 10.0715 2.3269 10.0768 2.3263C10.0822 2.32571 10.0875 2.32713 10.0919 2.3303C10.111 2.34613 10.1265 2.36591 10.1373 2.38827C10.1481 2.41064 10.1539 2.43506 10.1544 2.45988C10.1544 2.50783 10.1322 2.55358 10.0922 2.5892C10.0882 2.59274 10.083 2.59468 10.0776 2.59468Z" fill="#E29A81"/>
<path d="M7.94052 2.75851C8.08215 2.75851 8.19696 2.62457 8.19696 2.45933C8.19696 2.2941 8.08215 2.16016 7.94052 2.16016C7.79889 2.16016 7.68408 2.2941 7.68408 2.45933C7.68408 2.62457 7.79889 2.75851 7.94052 2.75851Z" fill="#F9B29C"/>
<path d="M7.83767 2.59468C7.84207 2.59471 7.84637 2.59339 7.85 2.59091C7.85363 2.58843 7.85642 2.5849 7.858 2.5808C7.85958 2.57669 7.85987 2.5722 7.85883 2.56793C7.85779 2.56365 7.85547 2.5598 7.85219 2.55687C7.83779 2.54504 7.82608 2.53026 7.81786 2.51354C7.80964 2.49681 7.80509 2.47852 7.80452 2.45988C7.80452 2.42427 7.82123 2.38975 7.85192 2.36262C7.8556 2.3587 7.85769 2.35354 7.85777 2.34815C7.85786 2.34277 7.85593 2.33755 7.85237 2.3335C7.84881 2.32946 7.84387 2.3269 7.83852 2.3263C7.83316 2.32571 7.82778 2.32713 7.82342 2.3303C7.80435 2.34616 7.78893 2.36595 7.77819 2.38831C7.76746 2.41067 7.76168 2.43508 7.76123 2.45988C7.76123 2.50783 7.78315 2.55358 7.82342 2.5892C7.82736 2.59267 7.83242 2.59462 7.83767 2.59468Z" fill="#E29A81"/>
<path d="M10.01 2.13367V2.68436C10.01 2.96534 9.8984 3.23482 9.69971 3.4335C9.50103 3.63219 9.23155 3.74381 8.95057 3.74381C8.66958 3.74381 8.40011 3.63219 8.20142 3.4335C8.00273 3.23482 7.89111 2.96534 7.89111 2.68436V2.13367C7.89101 1.99451 7.91834 1.8567 7.97154 1.72811C8.02474 1.59952 8.10278 1.48269 8.20118 1.38428C8.29958 1.28588 8.41642 1.20785 8.545 1.15464C8.67359 1.10144 8.81141 1.07411 8.95057 1.07422C9.24344 1.07422 9.50783 1.19258 9.69988 1.38436C9.89166 1.57614 10.01 1.84079 10.01 2.13367Z" fill="#F9B29C"/>
<path d="M8.62799 2.38956C8.62799 2.46298 8.58772 2.52216 8.53758 2.52216C8.48717 2.52216 8.4458 2.46298 8.4458 2.38956C8.4458 2.31613 8.4869 2.25586 8.53731 2.25586C8.58772 2.25586 8.62799 2.31613 8.62799 2.38956ZM9.45484 2.38956C9.45484 2.46298 9.41457 2.52216 9.36443 2.52216C9.31402 2.52216 9.27292 2.46298 9.27292 2.38956C9.27292 2.31613 9.31402 2.25586 9.36416 2.25586C9.41457 2.25586 9.45484 2.31613 9.45484 2.38956Z" fill="#15144F"/>
<path d="M8.58075 2.96094C8.58047 2.96642 8.5791 2.97162 8.5791 2.9771C8.5791 3.07556 8.61821 3.16998 8.68783 3.2396C8.75745 3.30922 8.85188 3.34833 8.95033 3.34833C9.04879 3.34833 9.14322 3.30922 9.21284 3.2396C9.28246 3.16998 9.32157 3.07556 9.32157 2.9771C9.32157 2.97162 9.3202 2.96642 9.31992 2.96094H8.58075Z" fill="white"/>
<path d="M10.0251 2.32511L10.0105 2.33799C10.0105 2.33799 9.88176 2.35251 9.88176 2.33799C9.88176 2.3232 9.84889 2.09361 9.84889 2.09361C9.84889 2.09361 9.6193 1.77416 9.7845 1.48018C9.7845 1.48018 9.08889 1.86566 8.17629 1.50566C8.17629 1.50566 8.05218 1.6084 8.0919 1.88758C8.11108 2.02457 8.04916 2.22402 7.99053 2.43142H7.89135L7.81053 2.2021C7.81053 2.2021 7.4193 1.4821 7.85985 1.11498C7.85985 1.11498 7.70396 0.527306 8.36122 0.317717L8.46971 0.664841C8.46971 0.664841 8.72861 0.257169 9.24478 0.235252C9.76259 0.211416 9.65053 0.681553 9.65053 0.681553C9.65053 0.681553 9.9793 0.527306 10.1059 0.699909C10.2308 0.872512 10.0251 1.04868 10.0251 1.04868C10.0251 1.04868 10.1905 1.16813 10.253 1.44539C10.3171 1.72265 10.0251 2.32484 10.0251 2.32484V2.32511Z" fill="#15144F"/>
<path d="M14.9694 10.0277C14.9694 10.0277 14.6086 11.2792 13.6428 11.2792C12.6752 11.2792 9.45654 11.0743 9.45654 11.0743C9.45654 10.8063 9.55736 10.5619 9.72284 10.3765C9.89311 10.1833 10.1291 10.0603 10.385 10.0315L13.1601 9.79317C13.1601 9.79317 13.4497 9.23728 13.4675 9.15865C13.4694 9.14085 13.4735 9.12304 13.4754 9.10742L14.9694 10.0277Z" fill="#F9B29C"/>
<path d="M14.9694 10.028C14.9694 10.028 14.6086 11.2795 13.6428 11.2795C12.6752 11.2795 9.45654 11.0745 9.45654 11.0745C9.45654 10.9543 9.47654 10.8381 9.51599 10.7315C10.5308 10.7926 12.2574 10.8893 12.9215 10.8893C13.8872 10.8893 14.248 9.63783 14.248 9.63783L13.4675 9.15674C13.4694 9.1392 13.4735 9.12331 13.4754 9.10742L14.9694 10.028Z" fill="#ED8768"/>
<path d="M2.67432 16.0215H15.3464V16.2083H2.67432V16.0215Z" fill="#792F26"/>
<path d="M7.18154 8.02012C7.18172 8.06514 7.16955 8.10935 7.14637 8.14795C7.12318 8.18654 7.08986 8.21804 7.05003 8.23902L6.52839 8.51217C6.52839 8.51217 7.09825 8.93492 6.68729 9.48313L6.46455 9.80313L6.46263 9.81081L5.56318 10.9464C5.48324 11.0478 5.38362 11.1321 5.27029 11.194C5.15697 11.2559 5.03229 11.2943 4.90375 11.3068C4.77522 11.3192 4.64549 11.3056 4.52236 11.2667C4.39923 11.2277 4.28526 11.1643 4.18729 11.0801L3.44482 10.4426L4.53222 9.36889L4.7725 9.56861C4.80526 9.59551 4.84316 9.61545 4.88388 9.62722C4.9246 9.63899 4.96729 9.64236 5.00935 9.6371C5.05142 9.63185 5.09197 9.61809 5.12854 9.59666C5.16511 9.57523 5.19694 9.54657 5.22208 9.51245L5.5651 9.04341L5.58263 8.91354C5.60782 8.7567 5.66928 8.6079 5.76213 8.479C5.85498 8.3501 5.97664 8.24466 6.11743 8.17108L6.82291 7.80286C6.88078 7.77298 6.94813 7.76722 7.01024 7.78683C7.07235 7.80644 7.12418 7.84983 7.15441 7.90752C7.17359 7.9445 7.18181 7.98313 7.18181 8.01985L7.18154 8.02012Z" fill="#F9B29C"/>
<path d="M6.68659 9.4829L6.46385 9.8029L6.46193 9.81002L5.5633 10.9459C5.48329 11.0474 5.38357 11.1317 5.27013 11.1937C5.15669 11.2556 5.03188 11.294 4.90323 11.3064C4.77457 11.3188 4.64473 11.3051 4.52152 11.266C4.39831 11.227 4.28429 11.1634 4.18631 11.0791L3.44385 10.4426L3.46029 10.4265L4.057 10.9407C4.15508 11.0249 4.26919 11.0884 4.39246 11.1273C4.51573 11.1663 4.64561 11.1799 4.77427 11.1673C4.90293 11.1547 5.0277 11.1162 5.14108 11.0541C5.25446 10.992 5.3541 10.9075 5.43398 10.8059L6.33261 9.67166L6.33453 9.66262L6.55727 9.34262C6.81261 9.0029 6.69042 8.71167 6.56083 8.53906C6.67426 8.63797 7.03864 9.0155 6.68659 9.4829Z" fill="#ED8768"/>
<path d="M3.49023 8.20898C3.68722 8.30433 4.21325 8.89611 4.68037 9.39885L3.54147 10.5975L3.49023 8.20898Z" fill="#02B07E"/>
<path d="M3.8706 9.02131L3.70348 12.3035L3.28046 13.8347L0.404299 13.8356V8.6646C0.404047 8.57102 0.422256 8.47832 0.457882 8.39179C0.493509 8.30526 0.545853 8.22661 0.611919 8.16034C0.677985 8.09407 0.756473 8.04149 0.842891 8.00559C0.929309 7.9697 1.02196 7.95121 1.11553 7.95117H2.80046C2.94101 7.95114 3.08018 7.97879 3.21003 8.03256C3.33988 8.08632 3.45787 8.16515 3.55724 8.26453C3.65662 8.36391 3.73545 8.48189 3.78921 8.61174C3.84298 8.74159 3.87064 8.88077 3.8706 9.02131Z" fill="#03C88B"/>
<path d="M3.8706 11.7108L3.70347 12.3029L3.28046 13.8344L0.404297 13.8352V8.95794C0.500254 8.91892 0.599951 8.88982 0.701831 8.87109L1.09608 9.23164C1.43498 10.1618 2.56183 10.9697 3.41334 11.4763C3.56128 11.5651 3.71306 11.6418 3.8706 11.7108Z" fill="#02B07E"/>
<path d="M1.27734 11.0517C1.27734 11.0517 1.63707 12.3043 2.60337 12.3043C3.56995 12.3043 6.78885 12.098 6.78885 12.098C6.78885 11.8406 6.69421 11.5923 6.52294 11.4002C6.35168 11.2081 6.11575 11.0857 5.86008 11.0563L3.08666 10.8166C3.08666 10.8166 2.7968 10.2615 2.77954 10.1821C2.77582 10.1651 2.77263 10.148 2.76995 10.1309L1.27734 11.0517Z" fill="#F9B29C"/>
<path d="M1.90221 8.45369L2.79618 10.1504C2.89783 10.2803 1.31947 11.5172 1.21755 11.3874C0.915635 11.0397 0.451252 10.1422 0.286594 9.46985C0.146868 8.963 0.269882 8.31917 0.773991 8.04574C0.980293 7.93396 1.21783 7.94218 1.42194 8.01533C1.63337 8.09273 1.80587 8.25019 1.90221 8.45369Z" fill="#03C88B"/>
<path d="M2.76074 10.2848C2.74902 10.2866 2.73705 10.2843 2.72679 10.2784C2.71653 10.2724 2.7086 10.2632 2.70432 10.2521C2.70004 10.2411 2.69966 10.2289 2.70324 10.2176C2.70683 10.2063 2.71416 10.1965 2.72403 10.19L2.84074 10.1122L2.25225 9.06395C2.24615 9.05198 2.24492 9.03811 2.24882 9.02525C2.25271 9.01239 2.26142 9.00154 2.27314 8.99496C2.28485 8.98837 2.29865 8.98658 2.31166 8.98994C2.32467 8.9933 2.33588 9.00156 2.34293 9.01299L2.95526 10.1031C2.9616 10.1145 2.96343 10.1279 2.96039 10.1406C2.95734 10.1533 2.94965 10.1643 2.93882 10.1716L2.78211 10.2766C2.7757 10.2809 2.76839 10.2837 2.76074 10.2848Z" fill="#02B07E"/>
<path d="M14.509 8.11914C14.3123 8.21448 13.786 8.80626 13.3188 9.30928L14.4578 10.5076L14.509 8.11914Z" fill="#D63554"/>
<path d="M14.1676 4.9707C14.1648 4.9907 14.0963 6.36605 13.9119 6.7507C13.7276 7.13509 15.2448 8.22084 15.6771 7.86084C16.1095 7.50084 15.9777 5.92659 15.9777 5.92659L15.5604 5.33591L14.1676 4.9707Z" fill="#15144F"/>
<path d="M14.1289 8.93119V12.272L14.7221 13.746H17.5958V8.57475C17.596 8.48116 17.5778 8.38843 17.5421 8.30188C17.5065 8.21534 17.4541 8.13667 17.388 8.0704C17.3219 8.00413 17.2434 7.95155 17.157 7.91567C17.0705 7.8798 16.9778 7.86133 16.8842 7.86133H15.1993C15.0588 7.86126 14.9195 7.88889 14.7897 7.94264C14.6598 7.99639 14.5418 8.0752 14.4424 8.17459C14.343 8.27397 14.2641 8.39197 14.2103 8.52184C14.1565 8.6517 14.1289 8.7909 14.1289 8.93147V8.93119Z" fill="#F24E66"/>
<path d="M14.1289 11.6213V12.2717L14.6925 13.7456H17.5958V8.8681C17.4998 8.82908 17.4001 8.79998 17.2982 8.78125L16.904 9.14207C16.5651 10.0722 15.4377 10.8804 14.5862 11.387C14.4389 11.4749 14.2862 11.553 14.1289 11.6213Z" fill="#D63554"/>
<path d="M16.7223 10.9602C16.7223 10.9602 16.3628 12.2128 15.3963 12.2128C14.4291 12.2128 11.21 12.0065 11.21 12.0065C11.2099 11.749 11.3046 11.5005 11.476 11.3083C11.6474 11.1162 11.8835 10.9938 12.1393 10.9645L14.913 10.7248C14.913 10.7248 15.2028 10.1697 15.2198 10.0903C15.2237 10.0736 15.2269 10.0566 15.2294 10.0391L16.7223 10.9602Z" fill="#F9B29C"/>
<path d="M16.0977 8.36199L15.2035 10.059C15.1015 10.1888 16.6804 11.4261 16.7821 11.2962C17.0843 10.9483 17.5484 10.0508 17.7133 9.37843C17.853 8.87158 17.73 8.22774 17.2256 7.95404C17.0193 7.84199 16.7818 7.85048 16.5777 7.92363C16.3664 8.0011 16.194 8.15854 16.0977 8.36199Z" fill="#F24E66"/>
<path d="M15.2392 10.1933C15.2509 10.195 15.2629 10.1928 15.2731 10.1869C15.2834 10.1809 15.2913 10.1717 15.2956 10.1606C15.2999 10.1495 15.3002 10.1374 15.2967 10.1261C15.2931 10.1148 15.2858 10.105 15.2759 10.0985L15.1592 10.0207L15.7477 8.97216C15.7538 8.96018 15.755 8.94632 15.7511 8.93346C15.7472 8.9206 15.7385 8.90974 15.7268 8.90316C15.7151 8.89658 15.7013 8.89478 15.6882 8.89814C15.6752 8.9015 15.664 8.90977 15.657 8.9212L15.0446 10.0116C15.0383 10.023 15.0365 10.0364 15.0395 10.0491C15.0426 10.0617 15.0503 10.0728 15.0611 10.0801L15.2178 10.185C15.2244 10.1894 15.2315 10.1922 15.2392 10.1933Z" fill="#D63554"/>
<path d="M16.5686 7.86095L15.0601 8.5878L15.314 7.85547L16.5686 7.86095Z" fill="#F9B29C"/>
<path d="M15.3145 6.52148H16.5679V7.86066H15.3145V6.52148Z" fill="#F9B29C"/>
<path d="M15.3145 6.26199V7.43076C15.3145 7.43076 15.8687 7.71706 16.5679 7.60966V6.26172L15.3145 6.26199Z" fill="#ED8768"/>
<path d="M14.3745 5.68262V6.43714C14.3745 6.58113 14.4028 6.72371 14.4579 6.85673C14.513 6.98976 14.5938 7.11063 14.6956 7.21243C14.7974 7.31423 14.9183 7.39496 15.0513 7.45002C15.1844 7.50508 15.327 7.53338 15.4709 7.53331C15.7617 7.53324 16.0405 7.41773 16.2461 7.21219C16.4517 7.00664 16.5672 6.72787 16.5674 6.43714V5.68235C16.5673 5.46542 16.5029 5.25338 16.3824 5.07305C16.2618 4.89271 16.0904 4.75219 15.89 4.66926C15.6895 4.58632 15.469 4.56469 15.2562 4.60711C15.0435 4.64953 14.8481 4.75408 14.6948 4.90756C14.4896 5.1132 14.3744 5.39186 14.3745 5.68235V5.68262Z" fill="#F9B29C"/>
<path d="M15.5236 6.1817C15.58 6.1817 15.6258 6.12135 15.6258 6.0469C15.6258 5.97246 15.58 5.91211 15.5236 5.91211C15.4671 5.91211 15.4214 5.97246 15.4214 6.0469C15.4214 6.12135 15.4671 6.1817 15.5236 6.1817Z" fill="#15144F"/>
<path d="M14.7956 6.1817C14.852 6.1817 14.8977 6.12135 14.8977 6.0469C14.8977 5.97246 14.852 5.91211 14.7956 5.91211C14.7391 5.91211 14.6934 5.97246 14.6934 6.0469C14.6934 6.12135 14.7391 6.1817 14.7956 6.1817Z" fill="#15144F"/>
<path d="M15.593 6.66406C15.5933 6.67009 15.595 6.67584 15.595 6.68187C15.595 6.79217 15.5511 6.89795 15.4732 6.97595C15.3952 7.05394 15.2894 7.09776 15.1791 7.09776C15.0688 7.09776 14.963 7.05394 14.885 6.97595C14.807 6.89795 14.7632 6.79217 14.7632 6.68187C14.7632 6.67584 14.7648 6.67009 14.7651 6.66406H15.593Z" fill="white"/>
<path d="M17.6939 7.21881C17.4383 7.95662 16.6309 7.87552 16.569 7.861V5.89854C15.3306 5.2958 15.1098 4.99443 15.0698 4.89963C15.3912 4.67306 16.1764 4.08128 16.1764 4.08128C17.3709 3.75799 17.4893 5.0347 17.4126 5.37607C17.3359 5.71936 17.6939 7.21881 17.6939 7.21881Z" fill="#15144F"/>
<path d="M13.8657 4.71124C13.8657 5.21398 14.4802 5.61974 15.2389 5.61974C15.8367 5.61974 16.3449 5.36768 16.5342 5.01508C16.5846 4.91974 16.6117 4.81754 16.6117 4.71124C16.6117 4.48658 16.4879 4.2811 16.2835 4.12302C16.2822 4.12302 16.2808 4.12165 16.2794 4.12028C16.0274 3.92549 15.6556 3.80275 15.2389 3.80275C15.1633 3.80244 15.0878 3.80702 15.0128 3.81645C14.6328 3.85754 14.3071 4.00165 14.1002 4.2033C13.9531 4.34905 13.866 4.5233 13.866 4.71124H13.8657Z" fill="#15144F"/>
<path d="M16.5683 5.89648C16.663 5.90015 16.7526 5.94034 16.8183 6.00864C16.884 6.07693 16.9207 6.16802 16.9207 6.26279C16.9207 6.35755 16.884 6.44864 16.8183 6.51693C16.7526 6.58523 16.663 6.62542 16.5683 6.62909V5.89648ZM2.90938 8.77402L1.30664 7.95128H2.69294L2.90938 8.77402Z" fill="#F9B29C"/>
<path d="M3.84694 4.35913L3.84968 5.34543C3.85023 5.46707 3.80037 5.58324 3.7127 5.66707L3.28174 4.83063L3.29352 4.3457L3.84694 4.35913Z" fill="#15144F"/>
<path d="M1.30615 6.4707H2.693V7.95125H1.30615V6.4707Z" fill="#F9B29C"/>
<path d="M2.69349 6.18555V7.4787C2.69349 7.4787 2.08034 7.79541 1.30664 7.67651V6.18555H2.69349Z" fill="#ED8768"/>
<path d="M3.72903 5.60734L3.70848 6.44159C3.70468 6.60083 3.66953 6.75776 3.60504 6.90342C3.54056 7.04907 3.44801 7.18059 3.33267 7.29045C3.21734 7.40032 3.08148 7.48638 2.93287 7.54371C2.78425 7.60105 2.6258 7.62854 2.46656 7.6246C2.14505 7.61663 1.83985 7.48135 1.61802 7.24848C1.3962 7.01561 1.2759 6.70421 1.28355 6.38268L1.30382 5.54844C1.3098 5.30857 1.38675 5.07585 1.52496 4.87971C1.66318 4.68357 1.85643 4.53281 2.08031 4.44649C2.30419 4.36016 2.54863 4.34215 2.78275 4.39472C3.01686 4.4473 3.23013 4.5681 3.3956 4.74186C3.61702 4.97479 3.73694 5.28607 3.72903 5.60734Z" fill="#F9B29C"/>
<path d="M3.14068 5.95835C3.13822 6.05999 3.18726 6.14383 3.24918 6.14547C3.31219 6.14684 3.36534 6.06547 3.36781 5.96383C3.37055 5.86054 3.32123 5.77698 3.25822 5.77534C3.1963 5.77369 3.14315 5.85506 3.14068 5.95835ZM2.33603 5.93862C2.33356 6.04054 2.3826 6.12438 2.44452 6.12575C2.50616 6.12739 2.55931 6.04602 2.56178 5.9441C2.56425 5.84109 2.5152 5.75725 2.45329 5.75588C2.39137 5.75424 2.33849 5.83534 2.33603 5.93862Z" fill="#15144F"/>
<path d="M2.35436 6.66016C2.35381 6.66673 2.3519 6.67303 2.35162 6.67961C2.34863 6.74092 2.35793 6.80222 2.37898 6.85989C2.40003 6.91755 2.4324 6.97043 2.47419 7.01539C2.51598 7.06036 2.56635 7.09652 2.62232 7.12173C2.67829 7.14694 2.73874 7.1607 2.80011 7.1622C2.86148 7.1637 2.92253 7.1529 2.97967 7.13045C3.03681 7.108 3.08887 7.07435 3.13281 7.03148C3.17674 6.9886 3.21166 6.93737 3.2355 6.8808C3.25934 6.82423 3.27162 6.76346 3.27162 6.70207C3.2719 6.69522 3.27025 6.68892 3.27025 6.68235L2.35436 6.66016Z" fill="white"/>
<path d="M4.22848 4.45544C4.22848 4.45544 4.23012 5.70749 1.7419 4.89297C1.7419 4.89297 1.82437 5.20749 1.47889 5.36941L1.47094 5.86448C1.47033 5.88702 1.46516 5.90921 1.45574 5.9297C1.44632 5.95019 1.43284 5.96856 1.41611 5.98369C1.39939 5.99883 1.37978 6.01041 1.35845 6.01775C1.33712 6.02509 1.31453 6.02803 1.29204 6.02639L1.2967 5.7853L1.13149 5.92064L0.977517 6.0453L0.936969 6.07955C0.936969 6.07955 0.233133 5.36941 0.599161 4.21379C0.75149 3.73434 1.00711 3.63324 1.4008 3.72201C1.4008 3.72201 1.28875 3.11927 2.51587 3.18009C2.83368 3.19571 3.08108 3.36365 3.32245 3.53215C3.4156 3.59735 3.5093 3.66119 3.60409 3.71735C3.7567 3.80776 3.9156 3.87626 4.09779 3.88229C4.09779 3.88229 4.09615 4.23297 3.89368 4.2779C3.89368 4.2779 3.95122 4.52996 4.22848 4.45544Z" fill="#15144F"/>
<path d="M1.31506 5.78527C1.26505 5.78405 1.21528 5.79269 1.16861 5.81069C1.12194 5.8287 1.07927 5.85573 1.04305 5.89022C0.969881 5.95989 0.927389 6.05578 0.924919 6.15678C0.922448 6.25778 0.960201 6.35562 1.02987 6.42879C1.09954 6.50195 1.19543 6.54444 1.29643 6.54691L1.31506 5.78527Z" fill="#F9B29C"/>
<path d="M6.48847 17.7659V13.0234H6.34052C6.05641 13.0234 5.79641 13.1163 5.58518 13.2722C5.58518 13.2722 5.58353 13.2722 5.58353 13.2738C5.42537 13.3917 5.29695 13.545 5.20852 13.7213C5.12009 13.8976 5.0741 14.0922 5.07422 14.2895V17.7662L6.48847 17.7659Z" fill="#FF8E2E"/>
<path d="M12.1632 17.7662V13.4604C12.1632 13.4473 12.1632 13.4341 12.1613 13.4248C12.111 13.3691 12.0554 13.3185 11.9953 13.2736C11.9953 13.2719 11.9933 13.2719 11.9933 13.2719C11.7743 13.1104 11.5093 13.0234 11.2372 13.0234H6.33964C6.0558 13.0234 5.79635 13.1166 5.58539 13.2719C5.58539 13.2719 5.58347 13.2719 5.58347 13.2736C5.52326 13.3185 5.46757 13.3691 5.41717 13.4248C5.41553 13.4341 5.41553 13.4473 5.41553 13.4604V17.7662H12.1632Z" fill="#FF8E2E"/>
<path d="M6.48847 17.7659V13.0234H6.34052C6.05641 13.0234 5.79641 13.1163 5.58518 13.2722C5.58518 13.2722 5.58354 13.2722 5.58354 13.2738C5.52311 13.3183 5.46714 13.3685 5.41642 13.4237C5.19583 13.6579 5.07337 13.9677 5.07422 14.2895V17.7662L6.48847 17.7659Z" fill="#FF8E2E"/>
<path d="M6.6176 17.7655V15.3674C6.61753 15.3503 6.61069 15.3339 6.59858 15.3218C6.58647 15.3096 6.57007 15.3028 6.55294 15.3027C6.54442 15.3026 6.53597 15.3042 6.52807 15.3074C6.52018 15.3106 6.513 15.3154 6.50698 15.3214C6.50095 15.3275 6.49619 15.3346 6.49298 15.3425C6.48977 15.3504 6.48818 15.3589 6.48829 15.3674V17.7655H6.6176Z" fill="#F67112"/>
<path d="M12.5041 17.7662V14.2895C12.5041 13.8733 12.3041 13.5059 11.9948 13.2741C11.9948 13.2725 11.9931 13.2725 11.9931 13.2725C11.7748 13.1105 11.51 13.0231 11.2381 13.0234H11.0898V17.7662H12.5041Z" fill="#FF8E2E"/>
<path d="M12.5041 17.7662V14.2895C12.5041 13.9538 12.3748 13.6511 12.1619 13.424C12.1112 13.3687 12.0552 13.3185 11.9948 13.2741C11.9948 13.2725 11.9931 13.2725 11.9931 13.2725C11.7748 13.1105 11.51 13.0231 11.2381 13.0234H11.0898V17.7662H12.5041Z" fill="#FF8E2E"/>
<path d="M11.0898 17.7655V15.3674C11.0899 15.3589 11.0883 15.3504 11.0851 15.3425C11.0819 15.3346 11.0771 15.3275 11.0711 15.3214C11.065 15.3154 11.0579 15.3106 11.05 15.3074C11.0421 15.3042 11.0336 15.3026 11.0251 15.3027C11.008 15.3028 10.9916 15.3096 10.9795 15.3218C10.9674 15.3339 10.9605 15.3503 10.9604 15.3674V17.7655H11.0898Z" fill="#F67112"/>
<path d="M10.3642 10.1883V10.6239C10.3644 10.8308 10.3238 11.0357 10.2448 11.2268C10.1657 11.418 10.0497 11.5917 9.90345 11.738C9.75718 11.8842 9.58349 12.0002 9.39233 12.0793C9.20117 12.1584 8.99629 12.1989 8.78942 12.1987C8.37687 12.1991 7.98066 12.0375 7.68608 11.7486C7.39151 11.4598 7.22211 11.0668 7.21436 10.6543V10.1883C7.21436 9.31927 7.91846 8.61133 8.78942 8.61133C9.22367 8.61133 9.61682 8.78941 9.90367 9.07407C10.0501 9.22027 10.1661 9.39399 10.2451 9.58522C10.3241 9.77645 10.3648 9.98141 10.3642 10.1883Z" fill="#FFCCCB"/>
<path d="M9.86516 13.0227H7.71338L8.00708 11.6328H9.57146L9.86516 13.0227Z" fill="#F9B29C"/>
<path d="M10.0781 13.0234H7.49951C7.49951 12.8379 7.64992 12.6875 7.8354 12.6875H9.74225C9.92773 12.6875 10.0781 12.8379 10.0781 13.0234Z" fill="#F67112"/>
<path d="M8.80145 12.438C6.85186 12.438 6.61186 9.09713 6.95487 8.6585C7.56035 7.88727 10.0423 7.88727 10.648 8.6585C10.991 9.09713 10.5351 12.438 8.80145 12.438Z" fill="#15144F"/>
<path d="M11.5723 1.80973C11.5724 1.93892 11.5981 2.06681 11.6477 2.18609C11.6973 2.30537 11.7699 2.41371 11.8614 2.50491C11.9529 2.59612 12.0615 2.66841 12.1809 2.71766C12.3003 2.76691 12.4283 2.79214 12.5575 2.79193H14.3558C14.5782 2.79264 14.7942 2.71764 14.9683 2.57926C15.1424 2.44088 15.2642 2.24737 15.3136 2.03056C15.4583 1.42563 14.995 0.826173 14.3558 0.826173H12.5575C12.4282 0.825957 12.3001 0.851238 12.1806 0.90057C12.0611 0.949902 11.9524 1.02232 11.8609 1.11367C11.7694 1.20502 11.6968 1.31352 11.6473 1.43296C11.5978 1.5524 11.5723 1.68043 11.5723 1.80973Z" fill="#EFF6FF"/>
<path d="M13.2168 2.79102L12.5376 3.18828V2.79102H13.2168Z" fill="#EFF6FF"/>
<path d="M14.7153 1.49619C14.7151 1.53088 14.7013 1.56411 14.6767 1.58864C14.6522 1.61316 14.619 1.62701 14.5843 1.62715H12.3268C12.3096 1.62719 12.2925 1.62383 12.2766 1.61726C12.2607 1.61069 12.2462 1.60104 12.2341 1.58888C12.2219 1.57671 12.2123 1.56226 12.2057 1.54635C12.1991 1.53045 12.1958 1.5134 12.1958 1.49619C12.1958 1.42277 12.2536 1.36523 12.3268 1.36523H14.5843C14.6561 1.36523 14.7153 1.42277 14.7153 1.49619ZM13.824 2.02332C13.8239 2.058 13.81 2.09123 13.7855 2.11576C13.761 2.14029 13.7277 2.15413 13.6931 2.15428H12.3268C12.3096 2.15431 12.2925 2.15095 12.2766 2.14438C12.2607 2.13781 12.2462 2.12817 12.2341 2.116C12.2219 2.10383 12.2123 2.08938 12.2057 2.07348C12.1991 2.05757 12.1958 2.04052 12.1958 2.02332C12.1958 1.95017 12.2536 1.89236 12.3268 1.89236H13.6931C13.7648 1.89236 13.824 1.94989 13.824 2.02332Z" fill="#D9E5F1"/>
<path d="M3.729 2.86888C3.72922 2.98812 3.75292 3.10614 3.79875 3.21621C3.84457 3.32629 3.91163 3.42626 3.9961 3.51042C4.08056 3.59457 4.18077 3.66127 4.29101 3.7067C4.40125 3.75213 4.51936 3.7754 4.63859 3.77518H6.29859C6.41773 3.77536 6.53572 3.75206 6.64584 3.70659C6.75596 3.66113 6.85603 3.5944 6.94033 3.51022C7.02463 3.42604 7.09151 3.32607 7.13715 3.21603C7.18278 3.10598 7.20626 2.98802 7.20626 2.86888C7.20626 2.62813 7.11064 2.39723 6.94043 2.22697C6.77022 2.0567 6.53935 1.96101 6.29859 1.96094H4.63832C4.51899 1.96079 4.40081 1.98417 4.29053 2.02974C4.18024 2.0753 4.08002 2.14216 3.9956 2.22648C3.91117 2.31081 3.84419 2.41095 3.7985 2.52117C3.7528 2.6314 3.729 2.74956 3.729 2.86888ZM5.24736 3.77573L4.62051 4.14203V3.77573H5.24736Z" fill="#EFF6FF"/>
<path d="M6.63038 2.57981C6.63038 2.64611 6.57586 2.70063 6.50983 2.70063H4.426C4.41012 2.70067 4.39439 2.69757 4.37972 2.69151C4.36504 2.68545 4.35171 2.67655 4.34048 2.66532C4.32926 2.6541 4.32036 2.64076 4.3143 2.62609C4.30824 2.61141 4.30514 2.59568 4.30518 2.57981C4.30518 2.51214 4.35833 2.45899 4.426 2.45899H6.50956C6.52544 2.45891 6.54117 2.46198 6.55586 2.468C6.57055 2.47403 6.5839 2.4829 6.59515 2.4941C6.60641 2.5053 6.61533 2.51861 6.62143 2.53328C6.62752 2.54794 6.63066 2.56366 6.63066 2.57953L6.63038 2.57981ZM5.80792 3.06638C5.80792 3.13268 5.75312 3.1872 5.68709 3.1872H4.426C4.41014 3.18724 4.39444 3.18415 4.37978 3.17811C4.36512 3.17207 4.3518 3.16319 4.34058 3.15199C4.32936 3.1408 4.32045 3.1275 4.31438 3.11285C4.3083 3.09821 4.30518 3.08251 4.30518 3.06666C4.30518 2.99871 4.35833 2.94556 4.426 2.94556H5.68709C5.70295 2.94556 5.71864 2.94869 5.73329 2.95476C5.74793 2.96084 5.76123 2.96974 5.77243 2.98097C5.78363 2.99219 5.7925 3.00551 5.79854 3.02017C5.80459 3.03482 5.80795 3.05053 5.80792 3.06638Z" fill="#D9E5F1"/>
</svg>
