<svg width="20" height="20" viewBox="0 0 20 20" fill="none" xmlns="http://www.w3.org/2000/svg">
<g clip-path="url(#clip0_2122_26909)">
<path d="M7.8125 7.8125V8.125H7.5C7.34826 8.11296 7.19785 8.16085 7.08101 8.25841C6.96418 8.35597 6.89022 8.49542 6.875 8.64687V7.5C6.875 6.6712 7.20424 5.87634 7.79029 5.29029C8.37634 4.70424 9.1712 4.375 10 4.375C10.8288 4.375 11.6237 4.70424 12.2097 5.29029C12.7958 5.87634 13.125 6.6712 13.125 7.5V8.64687C13.1098 8.49542 13.0358 8.35597 12.919 8.25841C12.8021 8.16085 12.6517 8.11296 12.5 8.125H12.1875V7.8125C11.6687 7.8125 11.25 7.5 10.9375 6.875C10.3125 7.5 9.7125 7.8125 7.8125 7.8125Z" fill="#333940"/>
<path d="M1.875 0.3125V5.3125H0.9375V0.3125H1.875ZM19.0625 2.8125V5.3125H18.125V0.3125H19.0625V2.8125Z" fill="#2B8FFC"/>
<path d="M2.8125 2.8125V5.3125H1.875V0.3125H2.8125V2.8125ZM18.125 0.3125V5.3125H17.1875V0.3125H18.125Z" fill="#7F52FF"/>
<path d="M6.25 2.1875L6.27813 2.19688C6.25951 2.2436 6.24996 2.29345 6.25 2.34375V2.8125H4.0625V1.5625C4.06299 1.39689 4.129 1.23821 4.2461 1.1211C4.36321 1.004 4.52189 0.937995 4.6875 0.9375H5.625C5.79061 0.937995 5.94929 1.004 6.0664 1.1211C6.1835 1.23821 6.24951 1.39689 6.25 1.5625V2.1875ZM15.9375 1.5625V2.8125H13.75V2.34375C13.75 2.29345 13.7405 2.2436 13.7219 2.19688L13.75 2.1875V1.5625C13.7505 1.39689 13.8165 1.23821 13.9336 1.1211C14.0507 1.004 14.2094 0.937995 14.375 0.9375H15.3125C15.4781 0.937995 15.6368 1.004 15.7539 1.1211C15.871 1.23821 15.937 1.39689 15.9375 1.5625Z" fill="#FAA592"/>
<path d="M13.8717 17.8406L13.4373 19.6875H6.5623L6.12793 17.8406L6.2498 17.8125C7.4998 17.8125 7.4998 15.9375 7.4998 15.9375V14.375L8.1248 11.875L9.0623 12.5V12.8125C9.0623 13.0611 9.16108 13.2996 9.33689 13.4754C9.51271 13.6512 9.75116 13.75 9.9998 13.75C10.2484 13.75 10.4869 13.6512 10.6627 13.4754C10.8385 13.2996 10.9373 13.0611 10.9373 12.8125V12.5L11.8748 11.875L12.4998 14.375V15.9375C12.4998 15.9375 12.4998 17.8125 13.7498 17.8125L13.8717 17.8406Z" fill="#2B8FFC"/>
<path d="M7.8125 9.59362C7.81147 9.625 7.81356 9.65641 7.81875 9.68737H7.8125C7.58496 9.70628 7.35912 9.63495 7.18372 9.48878C7.00832 9.34262 6.89743 9.13334 6.875 8.90612V8.64675C6.89022 8.4953 6.96418 8.35584 7.08101 8.25828C7.19785 8.16072 7.34826 8.11283 7.5 8.12487H7.8125V9.59362ZM13.125 8.74987V8.90612C13.1026 9.13334 12.9917 9.34262 12.8163 9.48878C12.6409 9.63495 12.415 9.70628 12.1875 9.68737H12.1812C12.1864 9.65641 12.1885 9.625 12.1875 9.59362V8.12487H12.5C12.6517 8.11283 12.8021 8.16072 12.919 8.25828C13.0358 8.35584 13.1098 8.4953 13.125 8.64675V8.74987Z" fill="#FAA592"/>
<path d="M10.9375 12.4992V12.8117C10.9375 13.0604 10.8387 13.2988 10.6629 13.4746C10.4871 13.6504 10.2486 13.7492 10 13.7492C9.75136 13.7492 9.5129 13.6504 9.33709 13.4746C9.16127 13.2988 9.0625 13.0604 9.0625 12.8117V11.6523C9.35348 11.7982 9.67449 11.8742 10 11.8742C10.3255 11.8742 10.6465 11.7982 10.9375 11.6523V12.4992Z" fill="#E68D79"/>
<path d="M10.9373 11.6531C10.6463 11.799 10.3253 11.875 9.99977 11.875C9.67426 11.875 9.35324 11.799 9.06227 11.6531C8.69674 11.4684 8.38809 11.1881 8.1691 10.842C7.95011 10.4959 7.82896 10.0969 7.81852 9.6875C7.81333 9.65653 7.81124 9.62513 7.81227 9.59375V7.8125C9.71227 7.8125 10.3123 7.5 10.9373 6.875C11.2498 7.5 11.6685 7.8125 12.1873 7.8125V9.59375C12.1883 9.62513 12.1862 9.65653 12.181 9.6875C12.1662 10.2551 11.9399 10.7967 11.5466 11.2063C11.3724 11.391 11.1659 11.5425 10.9373 11.6531Z" fill="#FAA592"/>
<path d="M11.875 11.875L13.75 10.625C13.4375 10.9375 12.5 12.3031 12.5 14.375L11.875 11.875ZM8.125 11.875L7.5 14.375C7.5 12.3031 6.5625 10.9375 6.25 10.625L8.125 11.875Z" fill="#BA7B72"/>
<path d="M16.25 7.81253V8.42815C16.2496 9.26648 16.2037 10.1042 16.1125 10.9375C15.9975 11.9636 15.6385 12.9473 15.0656 13.8063L14.6875 14.375L13.8719 17.8407L13.75 17.8125C12.5 17.8125 12.5 15.9375 12.5 15.9375V14.375C12.5 12.3032 13.4375 10.9375 13.75 10.625L14.375 7.81253L14.0625 4.37503L12.8125 3.43753V2.34378C12.8125 2.21946 12.8619 2.10023 12.9498 2.01232C13.0377 1.92441 13.1569 1.87503 13.2812 1.87503C13.3796 1.87398 13.4756 1.90476 13.555 1.96277C13.6344 2.02078 13.693 2.10291 13.7219 2.1969C13.7405 2.24363 13.75 2.29348 13.75 2.34378V2.81253H15.9375L16.25 7.81253ZM7.5 14.375V15.9375C7.5 15.9375 7.5 17.8125 6.25 17.8125L6.12813 17.8407L5.3125 14.375L4.93438 13.8063C4.36147 12.9473 4.00251 11.9636 3.8875 10.9375C3.79627 10.1042 3.75037 9.26648 3.75 8.42815V7.81253L4.0625 2.81253H6.25V2.34378C6.24996 2.29348 6.25951 2.24363 6.27813 2.1969C6.30704 2.10291 6.36556 2.02078 6.44497 1.96277C6.52438 1.90476 6.62042 1.87398 6.71875 1.87503C6.84307 1.87503 6.9623 1.92441 7.05021 2.01232C7.13811 2.10023 7.1875 2.21946 7.1875 2.34378V3.43753L5.9375 4.37503L5.625 7.81253L6.25 10.625C6.5625 10.9375 7.5 12.3032 7.5 14.375Z" fill="#FAA592"/>
<path d="M16.04 4.4544L15.9375 2.81253H13.75V2.34378C13.75 2.29348 13.7405 2.24363 13.7218 2.1969C13.6929 2.10291 13.6344 2.02078 13.555 1.96277C13.4756 1.90476 13.3795 1.87398 13.2812 1.87503C13.1569 1.87503 13.0377 1.92441 12.9498 2.01232C12.8618 2.10023 12.8125 2.21946 12.8125 2.34378V3.43753L14.0625 4.37503L15.3125 5.00003L16.04 4.4544ZM5.93746 4.37503L7.18746 3.43753V2.34378C7.18746 2.21946 7.13807 2.10023 7.05017 2.01232C6.96226 1.92441 6.84303 1.87503 6.71871 1.87503C6.62038 1.87398 6.52434 1.90476 6.44493 1.96277C6.36552 2.02078 6.307 2.10291 6.27809 2.1969C6.25947 2.24363 6.24992 2.29348 6.24996 2.34378V2.81253H4.06246L3.95996 4.4544L4.68746 5.00003L5.93746 4.37503Z" fill="#F29B87"/>
<path d="M12.5 7.5H12.1875V7.1875C11.6687 7.1875 11.25 6.5625 10.9375 5.9375C10.3125 6.5625 9.7125 7.1875 7.8125 7.1875V7.5H7.5C7.34826 7.48796 7.19785 7.53585 7.08101 7.63341C6.96418 7.73097 6.89022 7.87042 6.875 8.02187V8.64687C6.89022 8.49542 6.96418 8.35597 7.08101 8.25841C7.19785 8.16085 7.34826 8.11296 7.5 8.125H7.8125V7.8125C9.7125 7.8125 10.3125 7.5 10.9375 6.875C11.25 7.5 11.6687 7.8125 12.1875 7.8125V8.125H12.5C12.6517 8.11296 12.8021 8.16085 12.919 8.25841C13.0358 8.35597 13.1098 8.49542 13.125 8.64687V8.02187C13.1098 7.87042 13.0358 7.73097 12.919 7.63341C12.8021 7.53585 12.6517 7.48796 12.5 7.5Z" fill="#2A2E33"/>
<path d="M10 4.375C9.1712 4.375 8.37634 4.70424 7.79029 5.29029C7.20424 5.87634 6.875 6.6712 6.875 7.5V8.125C6.875 7.2962 7.20424 6.50134 7.79029 5.91529C8.37634 5.32924 9.1712 5 10 5C10.8288 5 11.6237 5.32924 12.2097 5.91529C12.7958 6.50134 13.125 7.2962 13.125 8.125V7.5C13.125 6.6712 12.7958 5.87634 12.2097 5.29029C11.6237 4.70424 10.8288 4.375 10 4.375Z" fill="#414952"/>
<path d="M12.8125 9.0625V8.855C12.8125 8.625 12.5312 8.4375 12.1875 8.4375V9.59375C12.1875 9.6125 12.185 9.63125 12.1837 9.65C12.5494 9.56469 12.8125 9.335 12.8125 9.0625ZM7.1875 9.0625V8.855C7.1875 8.625 7.46875 8.4375 7.8125 8.4375V9.59375C7.8125 9.6125 7.815 9.63125 7.81625 9.65C7.45062 9.56469 7.1875 9.335 7.1875 9.0625Z" fill="#E68D79"/>
<path d="M6.25 10.625L5.625 7.8125L5.9375 4.375L4.6875 5V5.9375C4.6875 6.15625 4.68906 6.36938 4.69156 6.58188C4.69835 8.05895 4.78787 9.5345 4.95969 11.0016C4.97903 11.1445 5.0472 11.2763 5.15265 11.3747C5.25809 11.4731 5.39432 11.532 5.53823 11.5414C5.68214 11.5508 5.82488 11.5102 5.94225 11.4264C6.05961 11.3426 6.14438 11.2207 6.18219 11.0816L6.29375 10.6725C6.27875 10.6562 6.26312 10.6381 6.25 10.625Z" fill="#F29B87"/>
<path d="M5.85607 5L5.88232 4.98156L5.93732 4.375L4.68732 5L3.95982 4.45437L3.91357 5.19437L4.22795 5.41594C4.31806 5.47933 4.42333 5.51778 4.53309 5.52738C4.64285 5.53699 4.7532 5.51741 4.85295 5.47063L5.85607 5Z" fill="#E68D79"/>
<path d="M14.0623 4.375L14.3748 7.8125L13.7498 10.625C13.7367 10.6381 13.7211 10.6562 13.7061 10.6725L13.8257 11.1116C13.8634 11.2509 13.9481 11.3729 14.0655 11.4569C14.1829 11.5409 14.3257 11.5817 14.4698 11.5723C14.6138 11.5629 14.7502 11.5039 14.8557 11.4054C14.9612 11.3069 15.0293 11.1749 15.0486 11.0319C15.2261 9.53931 15.3142 8.03746 15.3123 6.53437V6.25C15.3123 5.87437 15.2077 5.50616 15.0102 5.18664C14.8127 4.86712 14.5302 4.6089 14.1942 4.44094L14.0623 4.375Z" fill="#F29B87"/>
<path d="M14.9999 13.1244C14.8814 13.1244 15.0936 13.0931 14.9999 13.1244C14.8203 13.1244 14.6458 13.0654 14.5031 12.9564C14.3604 12.8474 14.2576 12.6945 14.2105 12.5212L13.7061 10.6719C12.8923 11.7317 12.4666 13.0386 12.4999 14.3744V15.9369C12.4999 15.9369 12.5027 17.5097 13.4667 17.7712C13.5588 17.7975 13.6541 17.8112 13.7499 17.8119L13.8717 17.84L14.6874 14.3744L15.0655 13.8056C15.2113 13.5868 15.3436 13.3593 15.4617 13.1244H14.9999Z" fill="#E68D79"/>
<path d="M15 13.1241H14.6875C13.9966 13.1241 13.75 13.6831 13.75 14.3741L14.0625 15.94L13.875 15.0072C13.7454 15.3295 13.5394 15.6156 13.2747 15.8406C12.9644 14.9316 12.8657 13.6044 12.8207 12.3359C12.6061 12.9939 12.4978 13.682 12.5 14.3741V15.9366C12.5 15.9366 12.5028 17.5094 13.4669 17.7709C13.559 17.7972 13.6543 17.8109 13.75 17.8116L13.8719 17.8397L14.1291 16.7459L14.1807 16.5272L14.6875 14.3741L15.0657 13.8053C15.2115 13.5865 15.3438 13.359 15.4619 13.1241H15Z" fill="#D47C69"/>
<path d="M15.9375 2.81234H13.75V2.34359C13.75 2.29329 13.7405 2.24345 13.7219 2.19672C13.701 2.12871 13.6644 2.06659 13.615 2.01544C13.5656 1.96428 13.5047 1.92553 13.4375 1.90234V2.81234C13.4375 2.9781 13.5033 3.13708 13.6206 3.25429C13.7378 3.3715 13.8967 3.43734 14.0625 3.43734H15C15.1658 3.43734 15.3247 3.50319 15.4419 3.6204C15.5592 3.73761 15.625 3.89658 15.625 4.06234V4.76547L16.04 4.45297L15.9375 2.81234Z" fill="#E68D79"/>
<path d="M15.3127 0.9375H14.3752C14.2661 0.938104 14.159 0.967269 14.0647 1.02209C13.9703 1.07692 13.892 1.15549 13.8374 1.25H15.3127C15.3956 1.25 15.4751 1.28292 15.5337 1.34153C15.5923 1.40013 15.6252 1.47962 15.6252 1.5625V2.1875C15.6252 2.27038 15.6581 2.34987 15.7167 2.40847C15.7753 2.46708 15.8548 2.5 15.9377 2.5V1.5625C15.9372 1.39689 15.8712 1.23821 15.7541 1.1211C15.637 1.004 15.4783 0.937995 15.3127 0.9375Z" fill="#FFBEAA"/>
<path d="M15.9203 5.3125L16.0863 5.19531L16.04 4.45531L15.3125 5L14.0625 4.375L14.1175 4.98156L14.1437 5L14.9822 5.39344C15.1318 5.46389 15.2974 5.49351 15.4621 5.47929C15.6269 5.46508 15.785 5.40753 15.9203 5.3125Z" fill="#E68D79"/>
<path d="M10 11.8742C9.67437 11.8753 9.3531 11.7993 9.0625 11.6523V12.8117C9.06268 12.943 9.09061 13.0728 9.14446 13.1926C9.19832 13.3124 9.27688 13.4194 9.375 13.5067V12.7255C9.37532 12.6769 9.38696 12.6291 9.40898 12.5858C9.431 12.5425 9.46281 12.505 9.50187 12.4761C9.54094 12.4473 9.58619 12.428 9.63403 12.4196C9.68188 12.4113 9.731 12.4143 9.7775 12.4283C10.1808 12.4982 10.5956 12.4119 10.9375 12.1867V11.6523C10.6469 11.7993 10.3256 11.8753 10 11.8742Z" fill="#D47C69"/>
<path d="M4.99996 13.1244C4.90621 13.0931 5.1184 13.1244 4.99996 13.1244C5.1795 13.1244 5.35406 13.0654 5.49672 12.9564C5.63938 12.8474 5.74221 12.6945 5.78934 12.5212L6.29371 10.6719C7.10749 11.7317 7.53325 13.0386 7.49996 14.3744V15.9369C7.49996 15.9369 7.49715 17.5097 6.53309 17.7712C6.44098 17.7975 6.34574 17.8112 6.24996 17.8119L6.12809 17.84L5.31246 14.3744L4.93434 13.8056C4.78854 13.5868 4.65621 13.3593 4.53809 13.1244H4.99996Z" fill="#E68D79"/>
<path d="M7.19684 12.3945C7.21902 12.9989 7.24309 14.8008 6.81652 15.9311C6.47902 15.8877 6.23871 15.4842 6.0959 15.1467L6.24996 14.3758C6.24996 13.6848 6.0034 13.1258 5.31246 13.1258H4.53809C4.65621 13.3607 4.78854 13.5882 4.93434 13.807L5.31246 14.3758L5.81934 16.5292L5.90184 16.8795L6.12809 17.8414L6.24996 17.8133C6.34574 17.8126 6.44098 17.7989 6.53309 17.7727C7.49715 17.5111 7.49996 15.9383 7.49996 15.9383V14.3758C7.50157 13.7037 7.39932 13.0354 7.19684 12.3945Z" fill="#D47C69"/>
<path d="M4.06246 2.81234H6.24996V2.34359C6.24992 2.29329 6.25947 2.24345 6.27809 2.19672C6.29893 2.12871 6.33556 2.06659 6.38498 2.01544C6.4344 1.96428 6.49521 1.92553 6.56246 1.90234V2.81234C6.56246 2.9781 6.49661 3.13708 6.3794 3.25429C6.26219 3.3715 6.10322 3.43734 5.93746 3.43734H4.99996C4.8342 3.43734 4.67523 3.50319 4.55802 3.6204C4.44081 3.73761 4.37496 3.89658 4.37496 4.06234V4.76547L3.95996 4.45297L4.06246 2.81234Z" fill="#E68D79"/>
<path d="M4.6875 0.9375H5.625C5.73412 0.938104 5.84119 0.967269 5.93554 1.02209C6.0299 1.07692 6.10825 1.15549 6.16281 1.25H4.6875C4.60462 1.25 4.52513 1.28292 4.46653 1.34153C4.40792 1.40013 4.375 1.47962 4.375 1.5625V2.1875C4.375 2.27038 4.34208 2.34987 4.28347 2.40847C4.22487 2.46708 4.14538 2.5 4.0625 2.5V1.5625C4.06299 1.39689 4.129 1.23821 4.2461 1.1211C4.36321 1.004 4.52189 0.937995 4.6875 0.9375Z" fill="#FFBEAA"/>
<path d="M10.9373 6.875C10.386 7.42625 9.8532 7.73406 8.43227 7.79906C8.33852 7.80344 8.24008 7.80688 8.13789 7.80906C8.03571 7.81125 7.92539 7.8125 7.81227 7.8125V9.59375C7.81124 9.62513 7.81333 9.65653 7.81852 9.6875C7.82896 10.0969 7.95011 10.4959 8.1691 10.842C8.38809 11.1881 8.69674 11.4684 9.06227 11.6531C9.35287 11.8001 9.67413 11.8761 9.99977 11.875C10.1044 11.8741 10.2089 11.8655 10.3123 11.8494C10.0948 11.8177 9.8838 11.7515 9.68727 11.6531C9.32174 11.4684 9.01309 11.1881 8.7941 10.842C8.57511 10.4959 8.45396 10.0969 8.44352 9.6875C8.43833 9.65653 8.43624 9.62513 8.43727 9.59375V9C8.4375 8.84717 8.49372 8.69973 8.59529 8.58554C8.69687 8.47136 8.83676 8.39835 8.98852 8.38031C9.72804 8.35223 10.4273 8.03634 10.9373 7.5C11.2498 8.125 11.6685 8.4375 12.1873 8.4375V7.8125C11.6685 7.8125 11.2498 7.5 10.9373 6.875Z" fill="#E68D79"/>
<path d="M11.5625 9.59352C11.5635 9.6249 11.5614 9.6563 11.5562 9.68727C11.5414 10.2549 11.3152 10.7965 10.9219 11.206C10.7476 11.3908 10.5411 11.5422 10.3125 11.6529C10.116 11.7512 9.90497 11.8175 9.6875 11.8491C9.7909 11.8653 9.89535 11.8739 10 11.8748C10.3256 11.8759 10.6469 11.7998 10.9375 11.6529C11.1661 11.5422 11.3726 11.3908 11.5469 11.206C11.9402 10.7965 12.1664 10.2549 12.1812 9.68727C12.1864 9.6563 12.1885 9.6249 12.1875 9.59352V8.43727C11.9655 8.43787 11.7483 8.37344 11.5625 8.25195V9.59352Z" fill="#FFB8A8"/>
<path d="M18.2619 4.0625H18.125V5.3125H19.0625V2.8125L18.8684 3.58906C18.8346 3.72433 18.7566 3.8444 18.6466 3.93019C18.5367 4.01598 18.4013 4.06255 18.2619 4.0625Z" fill="#2357D1"/>
<path d="M17.9881 4.0625C17.8487 4.06255 17.7133 4.01598 17.6034 3.93019C17.4934 3.8444 17.4154 3.72433 17.3816 3.58906L17.1875 2.8125V5.3125H18.125V4.0625H17.9881ZM2.01188 4.0625H1.875V5.3125H2.8125V2.8125L2.61844 3.58906C2.58463 3.72433 2.50656 3.8444 2.39665 3.93019C2.28674 4.01598 2.1513 4.06255 2.01188 4.0625Z" fill="#5931C2"/>
<path d="M1.73812 4.0625C1.5987 4.06255 1.46326 4.01598 1.35335 3.93019C1.24344 3.8444 1.16537 3.72433 1.13156 3.58906L0.9375 2.8125V5.3125H1.875V4.0625H1.73812Z" fill="#2357D1"/>
<path d="M11.8751 11.875L10.9376 12.5V12.8125C10.9368 13.0178 10.8679 13.2171 10.7417 13.3791L12.0836 12.7084L11.8751 11.875Z" fill="#2CB5FF"/>
<path d="M6.2498 17.8119L6.12793 17.84L6.5623 19.6869H7.44293L7.03668 17.4453C6.94219 17.5624 6.82215 17.6563 6.68576 17.7199C6.54936 17.7834 6.40024 17.8149 6.2498 17.8119Z" fill="#2864F0"/>
<path d="M9.06244 12.8125V12.5L8.12494 11.875L7.9165 12.7084L9.25619 13.3781C9.13103 13.2161 9.06291 13.0172 9.06244 12.8125Z" fill="#2CB5FF"/>
<path d="M13.8716 17.84L13.7498 17.8119C13.5995 17.8147 13.4507 17.7831 13.3145 17.7196C13.1783 17.656 13.0585 17.5622 12.9641 17.4453L12.5566 19.6869H13.4373L13.8716 17.84Z" fill="#2864F0"/>
<path d="M7.1875 2.5H12.8125V3.125H7.1875V2.5Z" fill="#333940"/>
<path d="M19.0625 2.5H19.6875V3.125H19.0625V2.5Z" fill="#2A2E33"/>
<path d="M0.3125 2.5H0.9375V3.125H0.3125V2.5Z" fill="#333940"/>
<path d="M10.3125 9.33031C10.3125 9.84813 10.1725 10 10 10C9.8275 10 9.6875 9.84813 9.6875 9.33031C9.6875 8.8125 9.8275 8.125 10 8.125C10.1725 8.125 10.3125 8.8125 10.3125 9.33031Z" fill="#E68D79"/>
<path d="M11.25 8.75C11.4226 8.75 11.5625 8.47018 11.5625 8.125C11.5625 7.77982 11.4226 7.5 11.25 7.5C11.0774 7.5 10.9375 7.77982 10.9375 8.125C10.9375 8.47018 11.0774 8.75 11.25 8.75Z" fill="#2A2E33"/>
<path d="M8.43753 8.12555C8.43753 8.47086 8.57722 8.75055 8.75003 8.75055C8.92284 8.75055 9.06253 8.47086 9.06253 8.12555C9.0635 7.99961 9.04235 7.87448 9.00003 7.75586C8.84378 7.77398 8.67097 7.78711 8.48441 7.79711C8.4525 7.90364 8.4367 8.01434 8.43753 8.12555Z" fill="#2A2E33"/>
<path d="M10 11.5625C10.1726 11.5625 10.3125 11.2827 10.3125 10.9375C10.3125 10.5923 10.1726 10.3125 10 10.3125C9.82741 10.3125 9.6875 10.5923 9.6875 10.9375C9.6875 11.2827 9.82741 11.5625 10 11.5625Z" fill="#FDE8E6"/>
<path d="M15.9375 2.5V2.8125H13.75V3.125H17.1875V2.5H15.9375ZM4.0625 2.5V2.8125H6.25V3.125H2.8125V2.5H4.0625Z" fill="#333940"/>
<path d="M9.9998 14.0625C10.3313 14.0625 10.6493 13.9308 10.8837 13.6964C11.1181 13.462 11.2498 13.144 11.2498 12.8125V12.2916L10.9373 12.5V12.8125C10.9373 13.0611 10.8385 13.2996 10.6627 13.4754C10.4869 13.6512 10.2484 13.75 9.9998 13.75C9.75116 13.75 9.51271 13.6512 9.33689 13.4754C9.16108 13.2996 9.0623 13.0611 9.0623 12.8125V12.5L8.7498 12.2916V12.8125C8.7498 13.144 8.8815 13.462 9.11592 13.6964C9.35034 13.9308 9.66828 14.0625 9.9998 14.0625ZM13.7498 17.8125C12.4998 17.8125 12.4998 15.9375 12.4998 15.9375V14.375L11.8748 11.875L11.5989 12.0591L12.1873 14.4134V15.9375C12.1873 16.6941 12.5139 18.125 13.7498 18.125C13.7694 18.1231 13.7888 18.1192 13.8076 18.1134L13.8701 17.8406L13.7498 17.8125ZM7.8123 15.9375V14.4134L8.40074 12.0591L8.1248 11.875L7.4998 14.375V15.9375C7.4998 15.9375 7.4998 17.8125 6.2498 17.8125L6.12793 17.8406L6.19199 18.1134C6.21083 18.1192 6.2302 18.1231 6.2498 18.125C7.48574 18.125 7.8123 16.6941 7.8123 15.9375Z" fill="#E1EAF2"/>
<path d="M11.9644 17.6045C12.1648 17.4041 12.1011 17.0155 11.8221 16.7365C11.5431 16.4575 11.1545 16.3938 10.9541 16.5942C10.7538 16.7946 10.8175 17.1832 11.0964 17.4622C11.3754 17.7412 11.764 17.8049 11.9644 17.6045Z" fill="#F6FAFD"/>
<path d="M11.7126 16.1063C11.8133 16.0056 11.7813 15.8104 11.6412 15.6703C11.5011 15.5302 11.3059 15.4983 11.2053 15.5989C11.1046 15.6996 11.1365 15.8948 11.2766 16.0349C11.4167 16.175 11.6119 16.207 11.7126 16.1063Z" fill="#F6FAFD"/>
<path d="M18.6999 1.13702C18.7503 1.08662 18.7344 0.988975 18.6643 0.918925C18.5943 0.848874 18.4966 0.832947 18.4462 0.883349C18.3958 0.933751 18.4118 1.0314 18.4818 1.10145C18.5519 1.1715 18.6495 1.18743 18.6999 1.13702Z" fill="#F6FAFD"/>
<path d="M1.50997 1.13116C1.56038 1.08076 1.54445 0.983116 1.4744 0.913065C1.40435 0.843015 1.3067 0.827087 1.2563 0.877489C1.2059 0.927891 1.22183 1.02554 1.29188 1.09559C1.36193 1.16564 1.45957 1.18157 1.50997 1.13116Z" fill="#F6FAFD"/>
</g>
<defs>
<clipPath id="clip0_2122_26909">
<rect width="20" height="20" fill="white"/>
</clipPath>
</defs>
</svg>
