<svg width="20" height="20" viewBox="0 0 20 20" fill="none" xmlns="http://www.w3.org/2000/svg">
<path d="M0.804844 6.47266H13.53C13.9745 6.47266 14.3348 6.83301 14.3348 7.2775V19.1954C14.3348 19.6399 13.9745 20.0003 13.53 20.0003H0.804844C0.360352 20.0002 0 19.6399 0 19.1954V7.27746C0 6.83297 0.360352 6.47266 0.804844 6.47266Z" fill="#E8EDF2"/>
<path d="M14.3348 7.2775C14.3348 6.83301 13.9745 6.47266 13.53 6.47266H3.86516L3.29578 7.47867C2.96691 8.05969 2.97133 8.7509 3.30762 9.32766C3.54227 9.73016 3.9052 10.0191 4.32988 10.1572L3.50344 11.3828L3.44309 11.4723L3.44602 11.4743C3.33206 11.6677 3.25475 11.8804 3.21797 12.1018L2.94996 13.7349C2.88285 14.1439 2.99742 14.5588 3.26437 14.8731C3.53387 15.1905 3.92605 15.3725 4.34035 15.3725C4.59727 15.3725 4.85039 15.3011 5.07223 15.166L6.4859 14.3054C6.67778 14.1888 6.84613 14.0374 6.98223 13.8589L6.98504 13.8608L7.48594 13.1179C7.79551 13.3932 8.20277 13.5609 8.64863 13.5609H8.98184C9.23983 13.5612 9.49466 13.5042 9.72793 13.3939C9.9612 13.5041 10.216 13.5611 10.474 13.5609H10.8072C11.5366 13.5609 12.1632 13.1129 12.4266 12.4777C12.5342 12.4866 12.6425 12.4911 12.7514 12.4911H14.3348V7.2775H14.3348ZM1.02375 19.1954V7.2775C1.02375 6.83301 1.3841 6.47266 1.82859 6.47266H0.804844C0.360352 6.4727 0 6.83301 0 7.2775V19.1954C0 19.6399 0.360352 20.0003 0.804844 20.0003H1.82859C1.38406 20.0003 1.02375 19.6399 1.02375 19.1954Z" fill="#C5D3DD"/>
<path d="M15.554 5.88504C15.2009 5.88504 14.8549 5.78582 14.5555 5.59867L12.2757 4.17383H7.54485C7.17352 4.17383 6.80883 4.27238 6.48804 4.45943C6.16726 4.64647 5.90186 4.91531 5.71895 5.23848L4.17106 7.9734C3.8504 8.53996 4.2597 9.24188 4.91067 9.24188H5.49575V9.52195C5.49575 10.0776 5.94618 10.528 6.50181 10.528H7.90239L9.08356 11.4819H10.6868L11.5531 11.2239L11.5889 11.2397C11.9552 11.4009 12.351 11.4842 12.7512 11.4842H15.2378C15.5181 11.4842 15.797 11.4433 16.0655 11.3629L17.1382 11.0416V5.88504H15.554Z" fill="#FFB8A9"/>
<path d="M4.95095 7.9734L6.49884 5.23848C6.68174 4.91531 6.94714 4.64648 7.26793 4.45943C7.58872 4.27239 7.9534 4.17383 8.32474 4.17383H7.54485C7.17352 4.17383 6.80883 4.27239 6.48805 4.45943C6.16726 4.64648 5.90186 4.91531 5.71895 5.23848L4.17106 7.9734C3.8504 8.53996 4.2597 9.24188 4.91067 9.24188H5.69056C5.03954 9.24191 4.63028 8.53996 4.95095 7.9734ZM10.0215 10.5776C9.94715 10.5448 9.86681 10.5279 9.7856 10.528H7.90239V11.8079C7.90239 12.2199 8.23642 12.5539 8.64849 12.5539H8.98169C9.39372 12.5539 9.72774 12.2199 9.72774 11.8079C9.72774 12.2199 10.0618 12.5539 10.4738 12.5539H10.807C11.2191 12.5539 11.5531 12.2199 11.5531 11.8079V11.2239L10.0215 10.5776Z" fill="#FF947E"/>
<path d="M10.3313 12.5413V10.7097L10.0214 10.5789C9.94706 10.5461 9.86673 10.5292 9.78551 10.5293H9.72766V11.8091C9.7277 12.1725 9.98746 12.4747 10.3313 12.5413ZM8.50598 12.5413V10.5293H7.90234V11.8091C7.90234 12.1725 8.16211 12.4747 8.50598 12.5413Z" fill="#FC8775"/>
<path d="M4.84009 11.2012L4.33806 11.9457C4.27322 12.0418 4.22993 12.1509 4.21115 12.2653L3.94314 13.8984C3.88744 14.2378 4.25572 14.4861 4.54951 14.3073L5.96302 13.4467C6.06207 13.3864 6.14693 13.3054 6.21177 13.2092L6.7138 12.4647L4.84009 11.2012Z" fill="#4A80AA"/>
<path d="M6.71359 12.4639L4.83984 11.2004L12.2729 0.177477C12.3971 -0.00678115 12.6472 -0.055453 12.8315 0.0688048L14.0379 0.882359C14.2222 1.00662 14.2709 1.25673 14.1466 1.44099L6.71359 12.4639Z" fill="#DD636E"/>
<path d="M4.88376 12.7189C4.90255 12.6044 4.94584 12.4954 5.01068 12.3992L5.51271 11.6547L4.84009 11.2012L4.33806 11.9457C4.27322 12.0418 4.22993 12.1509 4.21115 12.2653L3.94314 13.8984C3.88744 14.2378 4.25568 14.4861 4.54951 14.3073L4.63126 14.2575L4.88376 12.7189Z" fill="#407093"/>
<path d="M13.5041 0.52237L12.8315 0.0688151C12.6472 -0.0554427 12.3971 -0.00680992 12.2729 0.177487L4.83984 11.2004L5.51246 11.6539L12.9455 0.631042C13.0698 0.446745 13.3199 0.398112 13.5041 0.52237Z" fill="#C63D4F"/>
<path d="M11.4609 1.38129L11.7984 0.880859L13.6719 2.14414L13.3345 2.64461L11.4609 1.38129Z" fill="#FFD064"/>
<path d="M11.4609 1.38133L11.7984 0.880859L12.4709 1.33437L12.1334 1.8348L11.4609 1.38133Z" fill="#EBB044"/>
<path d="M10.4843 8.31445H6.37496C5.88957 8.31445 5.49609 8.70793 5.49609 9.19332V9.52168C5.49609 10.0773 5.94652 10.5277 6.50215 10.5277H9.78594L10.4843 9.6007V8.31445H10.4843Z" fill="#FFB8A9"/>
<path d="M6.16922 9.52168V9.19332C6.16922 8.70793 6.56269 8.31445 7.04809 8.31445H6.37496C5.88957 8.31445 5.49609 8.70793 5.49609 9.19332V9.52168C5.49609 10.0773 5.94652 10.5277 6.50215 10.5277H7.17527C6.61965 10.5277 6.16922 10.0773 6.16922 9.52168Z" fill="#FF947E"/>
<path d="M16.8125 5.06648V12.3803C16.8125 12.6026 16.9927 12.7827 17.2149 12.7827H19.5972C19.8195 12.7827 19.9996 12.6026 19.9996 12.3803V5.06648C19.9996 4.84422 19.8195 4.66406 19.5972 4.66406H17.2149C16.9927 4.66406 16.8125 4.84422 16.8125 5.06648Z" fill="#90D8F9"/>
<path d="M17.6093 12.3803V5.06648C17.6093 4.84422 17.7895 4.66406 18.0117 4.66406H17.2149C16.9927 4.66406 16.8125 4.84422 16.8125 5.06648V12.3803C16.8125 12.6026 16.9927 12.7827 17.2149 12.7827H18.0117C17.7895 12.7827 17.6093 12.6026 17.6093 12.3803Z" fill="#75CEF9"/>
<path d="M2.4407 14.668H1.67289C1.59285 14.668 1.51609 14.6362 1.45949 14.5797C1.40289 14.5231 1.37109 14.4463 1.37109 14.3662C1.37109 14.2862 1.40289 14.2094 1.45949 14.1528C1.51609 14.0962 1.59285 14.0645 1.67289 14.0645H2.4407C2.52074 14.0645 2.59751 14.0962 2.65411 14.1528C2.7107 14.2094 2.7425 14.2862 2.7425 14.3662C2.7425 14.4463 2.7107 14.5231 2.65411 14.5797C2.59751 14.6362 2.52074 14.668 2.4407 14.668ZM12.5676 16.2753H1.67289C1.59285 16.2753 1.51609 16.2435 1.45949 16.1869C1.40289 16.1303 1.37109 16.0536 1.37109 15.9735C1.37109 15.8935 1.40289 15.8167 1.45949 15.7601C1.51609 15.7035 1.59285 15.6717 1.67289 15.6717H12.5676C12.6476 15.6717 12.7244 15.7035 12.781 15.7601C12.8376 15.8167 12.8694 15.8935 12.8694 15.9735C12.8694 16.0536 12.8376 16.1303 12.781 16.1869C12.7244 16.2435 12.6476 16.2753 12.5676 16.2753ZM12.5676 17.8826H1.67289C1.59285 17.8826 1.51609 17.8508 1.45949 17.7942C1.40289 17.7376 1.37109 17.6608 1.37109 17.5808C1.37109 17.5007 1.40289 17.424 1.45949 17.3674C1.51609 17.3108 1.59285 17.279 1.67289 17.279H12.5676C12.6476 17.279 12.7244 17.3108 12.781 17.3674C12.8376 17.424 12.8694 17.5007 12.8694 17.5808C12.8694 17.6608 12.8376 17.7376 12.781 17.7942C12.7244 17.8508 12.6476 17.8826 12.5676 17.8826Z" fill="#9FACBA"/>
<path d="M12.386 6.86854C12.3322 6.80927 12.2571 6.77379 12.1772 6.76989C12.0972 6.76599 12.019 6.794 11.9597 6.84775L11.1746 7.55986C11.0673 7.65731 10.9275 7.71126 10.7825 7.71115H9.91922L9.51074 8.31479H10.7825C11.0774 8.31499 11.3618 8.20526 11.5801 8.00701L12.3653 7.2949C12.4245 7.2411 12.46 7.16596 12.4639 7.08601C12.4678 7.00606 12.4398 6.92784 12.386 6.86854Z" fill="#FF947E"/>
</svg>
