<svg width="56" height="54" viewBox="0 0 56 54" fill="none" xmlns="http://www.w3.org/2000/svg">
<rect x="0.303371" y="0.303371" width="54.6067" height="53.3933" rx="8.19101" fill="url(#paint0_linear_2766_61762)" stroke="#1565C0" stroke-width="0.606742"/>
<path d="M29.3728 13.3477H27.856H23.8111C22.1356 13.3477 20.7773 14.7059 20.7773 16.3814V28.5162C20.7773 30.1917 22.1356 31.5499 23.8111 31.5499H27.856M29.3728 13.3477L34.9346 19.0359M29.3728 13.3477V18.0246C29.3728 18.5831 29.8256 19.0359 30.3841 19.0359H34.9346M34.9346 19.0359V22.2592" stroke="white" stroke-width="2.02247" stroke-linecap="round" stroke-linejoin="round"/>
<path d="M33.4133 31.5479V25.4805M33.4133 25.4805L35.9414 28.0086M33.4133 25.4805L30.8853 28.0086" stroke="white" stroke-width="2.02247" stroke-linecap="round" stroke-linejoin="round"/>
<path d="M18.1538 38.4043H18.9019V42.4946C18.9019 42.9169 18.8023 43.294 18.6032 43.6258C18.4062 43.9556 18.1276 44.216 17.7677 44.4071C17.4077 44.5961 16.9854 44.6906 16.5008 44.6906C16.0161 44.6906 15.5938 44.5961 15.2338 44.4071C14.8739 44.216 14.5943 43.9556 14.3953 43.6258C14.1982 43.294 14.0996 42.9169 14.0996 42.4946V38.4043H14.8477V42.4343C14.8477 42.736 14.9141 43.0044 15.0468 43.2397C15.1795 43.473 15.3686 43.657 15.6139 43.7917C15.8613 43.9244 16.1569 43.9908 16.5008 43.9908C16.8446 43.9908 17.1403 43.9244 17.3876 43.7917C17.635 43.657 17.824 43.473 17.9547 43.2397C18.0874 43.0044 18.1538 42.736 18.1538 42.4343V38.4043ZM20.2992 46.3195V39.9487H20.987V40.6848H21.0715C21.1238 40.6043 21.1961 40.5018 21.2887 40.3771C21.3832 40.2504 21.5179 40.1378 21.6929 40.0392C21.8698 39.9387 22.1091 39.8884 22.4108 39.8884C22.8009 39.8884 23.1448 39.9859 23.4424 40.181C23.74 40.3761 23.9723 40.6526 24.1392 41.0105C24.3061 41.3685 24.3896 41.7908 24.3896 42.2774C24.3896 42.7681 24.3061 43.1934 24.1392 43.5534C23.9723 43.9114 23.741 44.1889 23.4454 44.386C23.1498 44.581 22.809 44.6786 22.4228 44.6786C22.1252 44.6786 21.8869 44.6293 21.7079 44.5308C21.529 44.4302 21.3912 44.3166 21.2947 44.1899C21.1982 44.0612 21.1238 43.9546 21.0715 43.8701H21.0111V46.3195H20.2992ZM20.9991 42.2654C20.9991 42.6153 21.0504 42.924 21.1529 43.1914C21.2555 43.4569 21.4053 43.665 21.6024 43.8158C21.7994 43.9647 22.0408 44.0391 22.3263 44.0391C22.6239 44.0391 22.8723 43.9606 23.0714 43.8038C23.2725 43.6449 23.4233 43.4318 23.5239 43.1643C23.6264 42.8948 23.6777 42.5952 23.6777 42.2654C23.6777 41.9396 23.6274 41.646 23.5269 41.3846C23.4283 41.1211 23.2785 40.913 23.0774 40.7602C22.8783 40.6053 22.628 40.5279 22.3263 40.5279C22.0367 40.5279 21.7934 40.6013 21.5963 40.7481C21.3993 40.8929 21.2504 41.096 21.1499 41.3574C21.0493 41.6168 20.9991 41.9195 20.9991 42.2654ZM26.1874 38.4043V44.582H25.4755V38.4043H26.1874ZM29.3735 44.6786C28.9553 44.6786 28.5883 44.579 28.2725 44.3799C27.9588 44.1808 27.7135 43.9023 27.5365 43.5444C27.3616 43.1864 27.2741 42.7681 27.2741 42.2895C27.2741 41.8069 27.3616 41.3856 27.5365 41.0256C27.7135 40.6656 27.9588 40.3861 28.2725 40.187C28.5883 39.9879 28.9553 39.8884 29.3735 39.8884C29.7918 39.8884 30.1578 39.9879 30.4715 40.187C30.7873 40.3861 31.0326 40.6656 31.2076 41.0256C31.3845 41.3856 31.473 41.8069 31.473 42.2895C31.473 42.7681 31.3845 43.1864 31.2076 43.5444C31.0326 43.9023 30.7873 44.1808 30.4715 44.3799C30.1578 44.579 29.7918 44.6786 29.3735 44.6786ZM29.3735 44.0391C29.6913 44.0391 29.9527 43.9576 30.1578 43.7947C30.363 43.6318 30.5148 43.4177 30.6133 43.1522C30.7119 42.8868 30.7611 42.5992 30.7611 42.2895C30.7611 41.9798 30.7119 41.6912 30.6133 41.4238C30.5148 41.1563 30.363 40.9401 30.1578 40.7752C29.9527 40.6103 29.6913 40.5279 29.3735 40.5279C29.0558 40.5279 28.7944 40.6103 28.5893 40.7752C28.3841 40.9401 28.2323 41.1563 28.1338 41.4238C28.0352 41.6912 27.986 41.9798 27.986 42.2895C27.986 42.5992 28.0352 42.8868 28.1338 43.1522C28.2323 43.4177 28.3841 43.6318 28.5893 43.7947C28.7944 43.9576 29.0558 44.0391 29.3735 44.0391ZM33.9231 44.6906C33.6295 44.6906 33.3631 44.6353 33.1238 44.5247C32.8845 44.4121 32.6944 44.2502 32.5537 44.0391C32.4129 43.8259 32.3425 43.5685 32.3425 43.2668C32.3425 43.0014 32.3948 42.7862 32.4994 42.6213C32.6039 42.4544 32.7437 42.3237 32.9187 42.2292C33.0936 42.1347 33.2867 42.0643 33.4978 42.018C33.711 41.9698 33.9251 41.9316 34.1403 41.9034C34.4219 41.8672 34.6501 41.8401 34.8251 41.822C35.002 41.8019 35.1307 41.7687 35.2112 41.7224C35.2936 41.6762 35.3348 41.5957 35.3348 41.4811V41.457C35.3348 41.1593 35.2534 40.9281 35.0905 40.7632C34.9296 40.5983 34.6853 40.5158 34.3575 40.5158C34.0177 40.5158 33.7512 40.5902 33.5581 40.739C33.3651 40.8879 33.2294 41.0467 33.1509 41.2156L32.4752 40.9743C32.5959 40.6928 32.7568 40.4736 32.9579 40.3167C33.161 40.1579 33.3822 40.0473 33.6215 39.9849C33.8628 39.9206 34.1001 39.8884 34.3334 39.8884C34.4822 39.8884 34.6531 39.9065 34.8462 39.9427C35.0412 39.9769 35.2293 40.0483 35.4103 40.1569C35.5933 40.2655 35.7451 40.4294 35.8657 40.6486C35.9864 40.8678 36.0467 41.1614 36.0467 41.5294V44.582H35.3348V43.9546H35.2986C35.2504 44.0552 35.1699 44.1627 35.0573 44.2774C34.9447 44.392 34.7949 44.4895 34.6079 44.57C34.4209 44.6504 34.1926 44.6906 33.9231 44.6906ZM34.0317 44.0511C34.3133 44.0511 34.5506 43.9958 34.7436 43.8852C34.9387 43.7746 35.0855 43.6318 35.184 43.4569C35.2846 43.2819 35.3348 43.0979 35.3348 42.9049V42.2533C35.3047 42.2895 35.2383 42.3227 35.1358 42.3529C35.0352 42.381 34.9186 42.4062 34.7858 42.4283C34.6551 42.4484 34.5274 42.4665 34.4028 42.4826C34.2801 42.4966 34.1805 42.5087 34.1041 42.5188C33.9191 42.5429 33.7462 42.5821 33.5853 42.6364C33.4264 42.6887 33.2977 42.7681 33.1992 42.8747C33.1027 42.9793 33.0544 43.1221 33.0544 43.303C33.0544 43.5504 33.1459 43.7374 33.3289 43.8641C33.5139 43.9888 33.7482 44.0511 34.0317 44.0511ZM39.0956 44.6786C38.7095 44.6786 38.3687 44.581 38.0731 44.386C37.7774 44.1889 37.5462 43.9114 37.3793 43.5534C37.2124 43.1934 37.1289 42.7681 37.1289 42.2774C37.1289 41.7908 37.2124 41.3685 37.3793 41.0105C37.5462 40.6526 37.7784 40.3761 38.0761 40.181C38.3737 39.9859 38.7176 39.8884 39.1077 39.8884C39.4093 39.8884 39.6476 39.9387 39.8226 40.0392C39.9996 40.1378 40.1343 40.2504 40.2268 40.3771C40.3213 40.5018 40.3947 40.6043 40.447 40.6848H40.5073V38.4043H41.2192V44.582H40.5315V43.8701H40.447C40.3947 43.9546 40.3203 44.0612 40.2238 44.1899C40.1273 44.3166 39.9895 44.4302 39.8105 44.5308C39.6316 44.6293 39.3933 44.6786 39.0956 44.6786ZM39.1922 44.0391C39.4777 44.0391 39.719 43.9647 39.9161 43.8158C40.1132 43.665 40.263 43.4569 40.3656 43.1914C40.4681 42.924 40.5194 42.6153 40.5194 42.2654C40.5194 41.9195 40.4691 41.6168 40.3686 41.3574C40.268 41.096 40.1192 40.8929 39.9221 40.7481C39.7251 40.6013 39.4817 40.5279 39.1922 40.5279C38.8905 40.5279 38.6391 40.6053 38.438 40.7602C38.239 40.913 38.0891 41.1211 37.9886 41.3846C37.8901 41.646 37.8408 41.9396 37.8408 42.2654C37.8408 42.5952 37.8911 42.8948 37.9916 43.1643C38.0942 43.4318 38.245 43.6449 38.4441 43.8038C38.6452 43.9606 38.8945 44.0391 39.1922 44.0391Z" fill="white"/>
<defs>
<linearGradient id="paint0_linear_2766_61762" x1="27.6067" y1="0" x2="27.6067" y2="54" gradientUnits="userSpaceOnUse">
<stop stop-color="#CED9F9"/>
<stop offset="0.610045" stop-color="#1849D6"/>
</linearGradient>
</defs>
</svg>
