<svg width="24" height="24" viewBox="0 0 24 24" fill="none" xmlns="http://www.w3.org/2000/svg">
<g clip-path="url(#clip0_2070_26651)">
<path d="M18.2864 11.5686C18.1816 11.6527 18.0513 11.6986 17.9169 11.6985C17.7825 11.6985 17.6522 11.6526 17.5475 11.5684C14.1979 8.86921 12.5844 7.80332 11.9949 5.97777C11.4335 4.23918 12.3878 2.37468 14.1264 1.81335C15.5289 1.36045 17.0128 1.8936 17.8291 3.0291C17.839 3.0432 17.8522 3.05471 17.8675 3.06266C17.8828 3.0706 17.8997 3.07475 17.917 3.07475C17.9342 3.07475 17.9512 3.0706 17.9665 3.06266C17.9818 3.05471 17.995 3.0432 18.0049 3.0291C18.8212 1.8937 20.3054 1.36068 21.7073 1.81321C23.4458 2.37454 24.4003 4.2389 23.839 5.97749C23.2394 7.83468 21.5324 8.95551 18.2864 11.5686Z" fill="#FE76A8"/>
<path d="M21.7084 1.81256C21.3504 1.69679 20.9754 1.64305 20.5993 1.65366C20.6149 1.65844 20.6305 1.66266 20.646 1.66767C22.3845 2.229 23.339 4.09331 22.7777 5.83195C22.1826 7.67517 20.4958 8.79389 17.2969 11.3654C17.3799 11.432 17.4633 11.499 17.5486 11.5677C17.6533 11.6519 17.7836 11.6978 17.918 11.6978C18.0524 11.6979 18.1827 11.652 18.2875 11.5679C21.5335 8.95481 23.2405 7.83399 23.84 5.97684C24.4014 4.23825 23.4468 2.37389 21.7084 1.81256Z" fill="#FE5694"/>
<path d="M19.7216 5.99452H18.7337C18.6976 5.99452 18.663 5.98018 18.6374 5.95466C18.6119 5.92914 18.5976 5.89453 18.5976 5.85844V4.87045C18.5976 4.79531 18.5366 4.73438 18.4615 4.73438H17.3727C17.3549 4.73438 17.3372 4.73789 17.3207 4.74473C17.3041 4.75157 17.2891 4.7616 17.2765 4.77423C17.2639 4.78687 17.2539 4.80187 17.247 4.81838C17.2402 4.83489 17.2367 4.85258 17.2367 4.87045V5.85844C17.2367 5.93358 17.1757 5.99452 17.1006 5.99452H16.1126C16.0948 5.99452 16.0771 5.99804 16.0606 6.00487C16.0441 6.01171 16.0291 6.02174 16.0164 6.03437C16.0038 6.04701 15.9938 6.06201 15.9869 6.07852C15.9801 6.09503 15.9766 6.11272 15.9766 6.13059V7.21936C15.9766 7.2945 16.0375 7.35544 16.1126 7.35544H17.1006C17.1757 7.35544 17.2367 7.41637 17.2367 7.49152V8.47945C17.2367 8.55459 17.2976 8.61553 17.3727 8.61553H18.4615C18.5366 8.61553 18.5976 8.55459 18.5976 8.47945V7.49152C18.5976 7.41637 18.6585 7.35544 18.7337 7.35544H19.7216C19.7967 7.35544 19.8577 7.2945 19.8577 7.21936V6.13059C19.8577 6.05545 19.7967 5.99452 19.7216 5.99452Z" fill="#E5EEF9"/>
<path d="M16.3947 13.1196C15.2571 13.6208 13.4771 13.7884 11.5299 13.5007C11.4407 13.3895 11.3485 13.2808 11.2535 13.1745H6.53027C6.43526 13.2808 6.34309 13.3895 6.25385 13.5007C4.30671 13.7884 2.52663 13.6208 1.38907 13.1196C-0.36429 12.3471 -1.21582 16.1198 4.25866 16.5216C4.36901 16.5297 4.44073 16.642 4.40041 16.7451C4.33796 16.9049 4.27924 17.0661 4.2243 17.2287C4.19726 17.3087 4.44574 17.3889 4.42052 17.4692H13.4036C13.3783 17.3889 13.5866 17.3087 13.5595 17.2287C13.5046 17.0662 13.4458 16.9049 13.3834 16.7451C13.3431 16.6421 13.4148 16.5298 13.5251 16.5217C18.9996 16.1198 18.1481 12.3471 16.3947 13.1196Z" fill="#62DBFB"/>
<path d="M16.4496 13.0964C16.8358 13.6677 15.8939 15.27 12.3809 15.6842C11.9498 15.7351 11.681 16.1765 11.8384 16.5811C11.9524 16.8747 12.0715 17.1901 12.1691 17.4685H13.1668C13.1416 17.3882 13.5858 17.308 13.5588 17.228C13.5038 17.0655 13.4451 16.9043 13.3826 16.7445C13.3423 16.6414 13.414 16.5291 13.5244 16.521C18.9404 16.1233 18.1646 12.4273 16.4496 13.0964Z" fill="#01D0FB"/>
<path d="M8.99577 15.9291C9.79812 15.9291 10.4486 15.1772 10.4486 14.2497C10.4486 13.3222 9.79812 12.5703 8.99577 12.5703C8.19341 12.5703 7.54297 13.3222 7.54297 14.2497C7.54297 15.1772 8.19341 15.9291 8.99577 15.9291Z" fill="#FFB09E"/>
<path d="M17.349 20.9979C17.1187 20.9401 16.8625 20.9019 16.617 20.9198C16.4721 20.9304 16.342 20.8352 16.3019 20.6956C16.0821 19.9296 15.3419 18.9454 13.9866 18.1624C13.9316 18.1307 13.8831 18.089 13.8434 18.0395L10.518 17.5547L3.94315 18.034C3.90275 18.0859 3.85267 18.1295 3.79568 18.1624C2.44039 18.9454 1.70023 19.9296 1.48034 20.6956C1.44026 20.8352 1.31009 20.9304 1.16524 20.9198C0.919854 20.9019 0.663588 20.9401 0.433292 20.9979C0.0353697 21.0978 -0.131083 21.5719 0.116417 21.8991L0.856339 22.8772C1.0193 23.0926 1.23773 23.2597 1.48828 23.3606C1.73883 23.4615 2.01209 23.4924 2.27885 23.4501L5.39271 22.9559C5.46499 22.9444 5.53891 22.9487 5.60932 22.9687C5.63651 22.9764 6.14895 22.7294 6.17468 22.7416L11.9999 22.9463C12.0257 22.934 12.1458 22.9764 12.1729 22.9687C12.2434 22.9487 12.3173 22.9444 12.3896 22.9559L15.5034 23.4501C15.7702 23.4925 16.0434 23.4615 16.294 23.3606C16.5446 23.2597 16.763 23.0926 16.9259 22.8772L17.6659 21.8991C17.9134 21.5719 17.747 21.0978 17.349 20.9979Z" fill="#FFCEBF"/>
<path d="M17.3495 20.9983C17.1193 20.9405 16.8632 20.9022 16.6179 20.9201C16.4714 20.9307 16.3413 20.8316 16.3005 20.6905C16.0787 19.9253 15.3388 18.9439 13.9867 18.1627C13.9318 18.131 13.8832 18.0893 13.8435 18.0398L12.2754 17.7852C12.33 17.9566 12.442 18.1052 12.5958 18.1985C13.5574 18.782 14.2241 19.5739 14.6034 20.2722C14.8866 20.7934 15.3185 21.225 15.8585 21.4707C16.5174 21.7704 16.2188 22.3159 16.0288 22.5671L15.3759 23.4301L15.5035 23.4504C15.7702 23.4927 16.0435 23.4618 16.2941 23.3609C16.5446 23.26 16.763 23.0929 16.926 22.8775L17.666 21.8994C17.9134 21.5723 17.7473 21.0982 17.3495 20.9983Z" fill="#FFB09E"/>
<path d="M4.74103 9.30427L5.37689 9.93287L4.74103 11.2413C3.86485 11.8387 2.47313 11.0963 2.29838 9.86073C2.1075 8.5112 3.76205 7.69074 4.74103 9.30427ZM13.0416 9.30427L12.4057 9.93287L13.0416 11.2413C13.9178 11.8387 15.3095 11.0963 15.4842 9.86073C15.6751 8.5112 14.0205 7.69074 13.0416 9.30427Z" fill="#FFB09E"/>
<path d="M14.1282 7.9305C14.1282 5.27991 11.7835 2.78906 8.89127 2.78906C5.99898 2.78906 3.6543 5.27995 3.6543 7.9305C3.6543 8.71359 3.85919 9.45272 4.22219 10.1057C4.31678 10.2758 4.32344 10.4819 4.23658 10.6561C4.05836 11.0136 3.96138 11.356 3.96138 11.6503C3.96138 13.4494 6.16858 14.3455 8.89131 14.3455C11.614 14.3455 13.8212 13.4212 13.8212 11.6503C13.8212 11.356 13.7243 11.0136 13.546 10.6561C13.4592 10.4819 13.4658 10.2758 13.5604 10.1057C13.9234 9.45277 14.1282 8.71359 14.1282 7.9305Z" fill="#FFCEBF"/>
<path d="M7.94461 10.9258C7.83563 10.9258 7.74394 11.005 7.72523 11.1124C7.71179 11.1895 7.70505 11.2676 7.70508 11.3458C7.70508 12.0474 8.23622 12.6161 8.89134 12.6161C9.54652 12.6161 10.0777 12.0474 10.0777 11.3458C10.0777 11.266 10.0707 11.188 10.0575 11.1124C10.0388 11.0051 9.94711 10.9258 9.83813 10.9258H7.94461Z" fill="#FE76A8"/>
<path d="M12.5017 4.23291C11.752 4.90889 10.7884 5.38552 9.81689 5.08828C9.71826 5.0581 9.62297 5.14346 9.64603 5.24396C10.1237 7.32657 7.53961 5.78194 6.19795 3.90239C6.09923 3.76411 6.07186 3.5851 6.12942 3.42525C6.31232 2.91736 6.85017 2.56233 7.75889 2.46793C9.4754 2.28957 10.23 1.17802 11.4862 0.502879C12.1288 0.157504 11.8194 1.69955 11.6563 2.37464C11.6348 2.46361 11.7079 2.54663 11.799 2.53782C12.7745 2.44383 13.8819 1.21679 13.9235 1.98741C13.9462 2.4106 13.3666 3.45389 12.5017 4.23291Z" fill="#017297"/>
<path d="M13.8427 18.037C13.8001 17.9839 13.7688 17.9226 13.7509 17.8569C13.6935 17.6448 13.6292 17.4346 13.5583 17.2266H4.22198C4.15101 17.4345 4.08676 17.6448 4.02933 17.8569C4.01145 17.9226 3.98019 17.9839 3.9375 18.037C5.1023 18.898 6.11194 21.2224 5.60827 22.9666C5.63545 22.9743 5.66208 22.9841 5.68786 22.9963C6.4163 23.3428 7.38145 23.5427 8.63348 23.5427H9.14691C10.3989 23.5427 11.364 23.3428 12.0925 22.9963C12.1182 22.9842 12.1448 22.9743 12.1721 22.9666C11.6683 21.2224 12.678 18.898 13.8427 18.037Z" fill="#E5EEF9"/>
<path d="M12.5949 18.1959C12.8162 18.3303 13.0282 18.4794 13.2293 18.6424C13.4233 18.4003 13.6305 18.1941 13.8429 18.037C13.8002 17.9839 13.769 17.9226 13.7511 17.8569C13.6937 17.6448 13.6294 17.4346 13.5585 17.2266H12.082C12.1556 17.4279 12.2226 17.6197 12.2745 17.7826C12.3291 17.954 12.441 18.1026 12.5949 18.1959Z" fill="#D0DFF1"/>
<path d="M6.80263 9.08892C6.70659 9.08892 6.61447 9.12708 6.54655 9.19499C6.47863 9.26291 6.44048 9.35503 6.44048 9.45108V9.66323C6.44048 9.75928 6.47863 9.8514 6.54655 9.91932C6.61447 9.98724 6.70659 10.0254 6.80263 10.0254C6.89868 10.0254 6.9908 9.98724 7.05872 9.91932C7.12664 9.8514 7.16479 9.75928 7.16479 9.66323V9.45108C7.1648 9.40352 7.15543 9.35642 7.13724 9.31248C7.11904 9.26854 7.09236 9.22861 7.05873 9.19498C7.0251 9.16135 6.98518 9.13467 6.94123 9.11648C6.89729 9.09828 6.8502 9.08892 6.80263 9.08892ZM10.9786 9.08892C10.8825 9.08892 10.7904 9.12708 10.7225 9.19499C10.6546 9.26291 10.6164 9.35503 10.6164 9.45108V9.66323C10.6164 9.75928 10.6546 9.8514 10.7225 9.91932C10.7904 9.98724 10.8825 10.0254 10.9786 10.0254C11.0746 10.0254 11.1668 9.98724 11.2347 9.91932C11.3026 9.8514 11.3407 9.75928 11.3407 9.66323V9.45108C11.3408 9.40352 11.3314 9.35642 11.3132 9.31248C11.295 9.26854 11.2683 9.22861 11.2347 9.19498C11.2011 9.16135 11.1611 9.13467 11.1172 9.11648C11.0732 9.09828 11.0261 9.08892 10.9786 9.08892ZM7.64292 8.52609C7.66749 8.48538 7.68381 8.44022 7.69093 8.3932C7.69806 8.34617 7.69585 8.29821 7.68444 8.25204C7.67303 8.20587 7.65263 8.1624 7.62442 8.12411C7.59621 8.08582 7.56073 8.05347 7.52001 8.02889C7.05065 7.74562 6.55453 7.74562 6.08517 8.02889C6.04445 8.05347 6.00897 8.08582 5.98076 8.12411C5.95255 8.1624 5.93215 8.20587 5.92074 8.25204C5.90933 8.29821 5.90712 8.34617 5.91424 8.3932C5.92137 8.44022 5.93768 8.48538 5.96226 8.52609C5.98683 8.56682 6.01919 8.6023 6.05747 8.63051C6.09576 8.65873 6.13923 8.67913 6.1854 8.69054C6.23157 8.70195 6.27954 8.70416 6.32656 8.69703C6.37359 8.6899 6.41875 8.67358 6.45946 8.649C6.69674 8.5058 6.90839 8.5058 7.14567 8.649C7.18638 8.67359 7.23155 8.68992 7.27858 8.69705C7.3256 8.70418 7.37358 8.70198 7.41975 8.69056C7.46593 8.67915 7.50941 8.65875 7.5477 8.63053C7.58599 8.60231 7.61834 8.56682 7.64292 8.52609ZM11.696 8.02889C11.2267 7.74562 10.7305 7.74553 10.2612 8.02889C10.2204 8.05347 10.185 8.08582 10.1568 8.12411C10.1285 8.1624 10.1082 8.20587 10.0967 8.25204C10.0853 8.29821 10.0831 8.34617 10.0902 8.3932C10.0974 8.44022 10.1137 8.48538 10.1383 8.52609C10.1628 8.56682 10.1952 8.6023 10.2335 8.63051C10.2718 8.65873 10.3152 8.67913 10.3614 8.69054C10.4076 8.70195 10.4555 8.70416 10.5026 8.69703C10.5496 8.6899 10.5947 8.67358 10.6355 8.649C10.8728 8.5058 11.0844 8.5058 11.3217 8.649C11.3624 8.67361 11.4075 8.68995 11.4546 8.6971C11.5016 8.70424 11.5496 8.70205 11.5957 8.69064C11.6419 8.67923 11.6854 8.65882 11.7237 8.6306C11.762 8.60237 11.7943 8.56688 11.8189 8.52614C11.8435 8.48542 11.8598 8.44026 11.8669 8.39324C11.874 8.34621 11.8718 8.29824 11.8604 8.25207C11.849 8.20589 11.8286 8.16242 11.8004 8.12412C11.7722 8.08583 11.7367 8.05347 11.696 8.02889Z" fill="#017297"/>
<path d="M13.9248 1.9874C13.8832 1.21677 12.7757 2.44382 11.8002 2.53781C11.7091 2.54657 11.636 2.4636 11.6576 2.37463C11.8206 1.69954 12.1301 0.15754 11.4874 0.502868C11.1776 0.669368 10.8983 0.862493 10.6275 1.06157C11.0158 3.08062 10.485 4.22577 9.27316 3.92788C7.89762 3.58982 7.97538 4.82784 8.34457 5.91955C9.23201 6.43813 9.91282 6.40166 9.64727 5.24395C9.62421 5.1434 9.71956 5.05809 9.81813 5.08823C10.7896 5.38551 11.7533 4.90888 12.503 4.2329C13.3679 3.45388 13.9474 2.41059 13.9248 1.9874Z" fill="#025F80"/>
</g>
<defs>
<clipPath id="clip0_2070_26651">
<rect width="24" height="24" fill="white"/>
</clipPath>
</defs>
</svg>
