<svg width="20" height="20" viewBox="0 0 20 20" fill="none" xmlns="http://www.w3.org/2000/svg">
<path d="M14.857 12.4531H9.78363C9.53422 12.4531 9.33203 12.6553 9.33203 12.9047V19.1301C9.33203 19.3795 9.53422 19.5817 9.78363 19.5817H14.857C15.1064 19.5817 15.3086 19.3795 15.3086 19.1301V12.9047C15.3086 12.6553 15.1064 12.4531 14.857 12.4531Z" fill="#B6DBFF"/>
<path d="M14.5103 12.4531H9.78363C9.53422 12.4531 9.33203 12.6553 9.33203 12.9047V19.1301C9.33203 19.3795 9.53422 19.5817 9.78363 19.5817H14.5103C14.7597 19.5817 14.9619 19.3795 14.9619 19.1301V12.9047C14.9619 12.6553 14.7597 12.4531 14.5103 12.4531Z" fill="#E3F1FF"/>
<path fill-rule="evenodd" clip-rule="evenodd" d="M12.3197 11.4844C12.0145 11.4844 11.767 11.7318 11.767 12.0371V12.113L11.219 12.0173C11.1367 12.0029 11.06 12.0235 10.996 12.0773C10.932 12.1311 10.8984 12.2031 10.8984 12.2867V12.8815H13.7411V12.2867C13.7411 12.2031 13.7075 12.1311 13.6435 12.0773C13.5795 12.0235 13.5029 12.0029 13.4205 12.0173L12.8725 12.113V12.0371C12.8725 11.7318 12.625 11.4844 12.3198 11.4844H12.3197Z" fill="#C86F5C"/>
<path fill-rule="evenodd" clip-rule="evenodd" d="M11.767 12.0369V12.1128L11.219 12.017C11.1367 12.0026 11.06 12.0233 10.996 12.0771C10.932 12.1308 10.8984 12.2028 10.8984 12.2864V12.8813H13.4929V12.3298C13.4929 12.2462 13.4594 12.1742 13.3954 12.1205C13.3314 12.0667 13.2547 12.046 13.1723 12.0604L12.8725 12.1128L12.7388 12.1362L12.6687 12.1485C12.6774 11.3853 11.767 11.4905 11.767 12.0369L11.767 12.0369Z" fill="#F29988"/>
<path fill-rule="evenodd" clip-rule="evenodd" d="M2.03125 11L1.61328 19.5816H3.71832L4.20613 14.4973C4.21816 14.3717 4.32273 14.2766 4.44891 14.2766C4.57508 14.2766 4.67973 14.3717 4.69176 14.4973L5.17953 19.5816H7.28461L6.87363 11H2.03125Z" fill="#A34F41"/>
<path fill-rule="evenodd" clip-rule="evenodd" d="M2.03121 11L1.61328 19.5816H3.16242L3.6502 14.4973C3.72004 13.7695 4.6102 13.6468 4.69176 14.4973L5.17953 19.5816H6.5723L6.16133 11H2.03121Z" fill="#C86F5C"/>
<path fill-rule="evenodd" clip-rule="evenodd" d="M4.44958 4.42063C2.49579 4.29391 1.97985 0.417969 4.44958 0.417969C6.9193 0.417969 6.40333 4.29391 4.44958 4.42063Z" fill="#FDB0A0"/>
<path fill-rule="evenodd" clip-rule="evenodd" d="M4.44956 4.42063C2.49581 4.29391 1.97984 0.417969 4.44956 0.417969C4.57156 0.417969 4.68601 0.427773 4.79363 0.445781C5.78613 1.41875 5.54484 3.45609 4.50453 4.41539C4.48624 4.41727 4.46808 4.41941 4.44956 4.42063Z" fill="#FFCEC0"/>
<path fill-rule="evenodd" clip-rule="evenodd" d="M4.44923 11.0104L2.03611 11.0102L1.9538 12.7001H1.63587C1.05638 12.7001 0.573647 12.3059 0.543686 11.7054C0.459389 10.0169 0.372866 8.49737 0.466069 6.80491C0.516928 6.14342 0.664936 5.89483 1.08017 5.65135C1.4156 5.45471 2.46302 5.16131 3.2283 4.95221C3.3738 4.91244 3.51498 4.93662 3.639 5.02244C3.8988 5.20225 4.17349 5.29284 4.44923 5.29264C4.72494 5.29284 4.99966 5.20225 5.25947 5.02244C5.38349 4.93662 5.52466 4.91244 5.67017 4.95221C6.43544 5.16127 7.48287 5.45471 7.8183 5.65135C8.23357 5.89483 8.38158 6.14342 8.4324 6.80491C8.5256 8.49737 8.43908 10.0169 8.35482 11.7054C8.32482 12.3059 7.84208 12.7001 7.26263 12.7001H6.9447L6.8624 11.0102L4.44923 11.0104Z" fill="#99CCFF"/>
<path fill-rule="evenodd" clip-rule="evenodd" d="M4.44852 11.0095L2.03539 11.0093L1.95309 12.6993H1.63516C1.48309 12.6993 1.33774 12.6721 1.20543 12.6212C1.15078 12.5417 1.11731 12.4346 1.11008 12.2902C1.02578 10.6017 0.939259 8.64441 1.0325 6.95195C1.08336 6.29047 1.23137 6.04187 1.6466 5.7984C1.97875 5.60367 3.00891 5.3141 3.77203 5.10547C3.99152 5.22949 4.21969 5.29184 4.44852 5.29168C4.67735 5.29184 4.90551 5.22949 5.125 5.10547C5.88813 5.3141 6.91828 5.60367 7.25043 5.7984C7.6657 6.04187 7.81371 6.29047 7.86453 6.95195C7.95774 8.64441 7.87121 10.6016 7.78695 12.2902C7.77973 12.4346 7.74625 12.5417 7.6916 12.6212C7.5593 12.6721 7.41391 12.6993 7.26188 12.6993H6.94395L6.86164 11.0093L4.44852 11.0095Z" fill="#B6DBFF"/>
<path fill-rule="evenodd" clip-rule="evenodd" d="M6.31449 11.0117V7.73828C6.31449 7.66576 6.3433 7.59621 6.39458 7.54493C6.44586 7.49365 6.51541 7.46484 6.58793 7.46484C6.66045 7.46484 6.73 7.49365 6.78128 7.54493C6.83256 7.59621 6.86137 7.66576 6.86137 7.73828V11.0117H6.31449ZM2.03516 11.0117V7.73828C2.03516 7.70237 2.04223 7.66682 2.05597 7.63364C2.06971 7.60047 2.08985 7.57032 2.11524 7.54493C2.14064 7.51954 2.17078 7.4994 2.20395 7.48566C2.23713 7.47192 2.27269 7.46484 2.30859 7.46484C2.3445 7.46484 2.38006 7.47192 2.41323 7.48566C2.44641 7.4994 2.47655 7.51954 2.50194 7.54493C2.52733 7.57032 2.54748 7.60047 2.56122 7.63364C2.57496 7.66682 2.58203 7.70237 2.58203 7.73828V11.0117H2.03516Z" fill="#61A0E0"/>
<path fill-rule="evenodd" clip-rule="evenodd" d="M10.668 14.668C10.5954 14.668 10.5259 14.6392 10.4746 14.5879C10.4233 14.5366 10.3945 14.4671 10.3945 14.3945C10.3945 14.322 10.4233 14.2525 10.4746 14.2012C10.5259 14.1499 10.5954 14.1211 10.668 14.1211H13.973C14.0455 14.1211 14.115 14.1499 14.1663 14.2012C14.2176 14.2525 14.2464 14.322 14.2464 14.3945C14.2464 14.4671 14.2176 14.5366 14.1663 14.5879C14.115 14.6392 14.0455 14.668 13.973 14.668H10.668ZM10.668 18.4184C10.5954 18.4184 10.5259 18.3896 10.4746 18.3383C10.4233 18.287 10.3945 18.2174 10.3945 18.1449C10.3945 18.0724 10.4233 18.0029 10.4746 17.9516C10.5259 17.9003 10.5954 17.8715 10.668 17.8715H13.973C14.0455 17.8715 14.115 17.9003 14.1663 17.9516C14.2176 18.0029 14.2464 18.0724 14.2464 18.1449C14.2464 18.2174 14.2176 18.287 14.1663 18.3383C14.115 18.3896 14.0455 18.4184 13.973 18.4184H10.668ZM10.668 17.1682C10.5954 17.1682 10.5259 17.1394 10.4746 17.0882C10.4233 17.0369 10.3945 16.9673 10.3945 16.8948C10.3945 16.8223 10.4233 16.7527 10.4746 16.7015C10.5259 16.6502 10.5954 16.6214 10.668 16.6214H13.973C14.0455 16.6214 14.115 16.6502 14.1663 16.7015C14.2176 16.7527 14.2464 16.8223 14.2464 16.8948C14.2464 16.9673 14.2176 17.0369 14.1663 17.0882C14.115 17.1394 14.0455 17.1682 13.973 17.1682H10.668ZM10.668 15.9181C10.5954 15.9181 10.5259 15.8893 10.4746 15.838C10.4233 15.7868 10.3945 15.7172 10.3945 15.6447C10.3945 15.5722 10.4233 15.5026 10.4746 15.4513C10.5259 15.4001 10.5954 15.3712 10.668 15.3712H13.973C14.0455 15.3712 14.115 15.4001 14.1663 15.4513C14.2176 15.5026 14.2464 15.5722 14.2464 15.6447C14.2464 15.7172 14.2176 15.7868 14.1663 15.838C14.115 15.8893 14.0455 15.9181 13.973 15.9181H10.668Z" fill="#7986BF"/>
<path fill-rule="evenodd" clip-rule="evenodd" d="M11.4039 0.429688C13.9472 0.429688 16.009 2.49145 16.009 5.03477C16.009 5.89352 15.7739 6.69734 15.3646 7.38547C15.1775 7.69988 15.2261 8.08832 15.4848 8.34703L16.3073 9.16949L15.5387 9.93809L14.7162 9.11563C14.4575 8.85691 14.0691 8.80836 13.7546 8.99539C13.0665 9.40473 12.2627 9.6398 11.4039 9.6398C8.86063 9.6398 6.79883 7.57805 6.79883 5.03473C6.79883 2.49141 8.86059 0.429688 11.4039 0.429688Z" fill="#FDB0A0"/>
<path fill-rule="evenodd" clip-rule="evenodd" d="M15.9893 9.48551L15.5387 9.93609L14.7162 9.11363C14.4575 8.85492 14.0691 8.80637 13.7546 8.9934C13.0665 9.40273 12.2627 9.63781 11.4039 9.63781C8.86063 9.63781 6.79883 7.57605 6.79883 5.03273C6.79883 3.17922 7.89402 1.58176 9.47246 0.851406C9.93617 0.694453 10.433 0.609375 10.9496 0.609375C14.5449 0.609375 16.765 4.29008 14.7809 7.43578C14.5939 7.7502 14.6424 8.13863 14.9011 8.39738L15.9893 9.48551H15.9893Z" fill="#FFCEC0"/>
<path fill-rule="evenodd" clip-rule="evenodd" d="M19.2837 11.5118L16.6146 8.8427C16.4285 8.6566 16.1249 8.6566 15.9388 8.8427L15.2138 9.5677C15.0277 9.75379 15.0277 10.0574 15.2138 10.2435L17.8829 12.9126C18.2682 13.2978 18.8985 13.2978 19.2837 12.9126C19.6689 12.5273 19.669 11.897 19.2837 11.5118Z" fill="#A34F41"/>
<path fill-rule="evenodd" clip-rule="evenodd" d="M15.7991 8.98438L15.2138 9.56961C15.0277 9.7557 15.0277 10.0593 15.2138 10.2454L17.8829 12.9145C18.2546 13.2861 18.8544 13.2992 19.2421 12.9537C19.274 12.6645 19.1798 12.3638 18.9593 12.1432L15.8208 9.00477C15.8138 8.99776 15.8065 8.99096 15.7991 8.98438H15.7991Z" fill="#C86F5C"/>
<path d="M14.282 5.49786C14.5336 3.70771 13.2863 2.05256 11.4962 1.80097C9.70604 1.54938 8.05088 2.79663 7.79929 4.58678C7.5477 6.37692 8.79495 8.03208 10.5851 8.28367C12.3752 8.53526 14.0304 7.28801 14.282 5.49786Z" fill="#FDB0A0"/>
<path d="M14.6434 5.51564C14.9056 3.72701 13.6682 2.06449 11.8795 1.80228C10.0909 1.54007 8.42838 2.77748 8.16617 4.5661C7.90397 6.35472 9.14137 8.01725 10.93 8.27946C12.7186 8.54166 14.3811 7.30426 14.6434 5.51564Z" fill="#F3F3FF"/>
<path d="M10.6883 5.25164C11.2626 5.25164 11.7282 4.78607 11.7282 4.21176C11.7282 3.63745 11.2626 3.17188 10.6883 3.17188C10.114 3.17188 9.64844 3.63745 9.64844 4.21176C9.64844 4.78607 10.114 5.25164 10.6883 5.25164Z" fill="#FDB0A0"/>
<path fill-rule="evenodd" clip-rule="evenodd" d="M9.66016 4.0584C9.7343 3.55684 10.1665 3.17188 10.6888 3.17188C11.211 3.17188 11.6432 3.5568 11.7173 4.0584C11.6432 4.55996 11.211 4.94488 10.6888 4.94488C10.1665 4.94488 9.7343 4.55996 9.66016 4.0584Z" fill="#FFCEC0"/>
<path fill-rule="evenodd" clip-rule="evenodd" d="M9.64844 4.21176C9.64844 3.63746 10.114 3.17188 10.6883 3.17188V5.2516C10.114 5.2516 9.64844 4.78609 9.64844 4.21176Z" fill="#F2671F"/>
<path fill-rule="evenodd" clip-rule="evenodd" d="M9.66016 4.0584C9.7343 3.55684 10.1665 3.17188 10.6888 3.17188V4.94488C10.1665 4.94488 9.7343 4.55996 9.66016 4.0584Z" fill="#FF8748"/>
<path fill-rule="evenodd" clip-rule="evenodd" d="M13.2208 4.26117C13.5117 4.55215 13.5117 5.0282 13.2208 5.31918L11.5809 6.9591C11.2899 7.25004 10.8138 7.25004 10.5229 6.9591C10.232 6.66816 10.2319 6.19207 10.5229 5.90109L12.1628 4.26117C12.4537 3.97023 12.9299 3.97023 13.2208 4.26117Z" fill="#FDB0A0"/>
<path fill-rule="evenodd" clip-rule="evenodd" d="M10.4085 6.81165C10.239 6.52486 10.2771 6.14693 10.5229 5.90111L12.1628 4.26118C12.4086 4.01536 12.7866 3.97724 13.0734 4.14677C13.2429 4.43357 13.2048 4.8115 12.959 5.05732L11.3191 6.69724C11.0733 6.94306 10.6953 6.98115 10.4085 6.81161L10.4085 6.81165Z" fill="#FFCEC0"/>
<path fill-rule="evenodd" clip-rule="evenodd" d="M13.2216 4.26117C13.5126 4.55211 13.5126 5.0282 13.2216 5.31914L12.4017 6.13906L11.3438 5.08109L12.1637 4.26117C12.4546 3.97023 12.9307 3.97023 13.2217 4.26117H13.2216Z" fill="#2A92FA"/>
<path fill-rule="evenodd" clip-rule="evenodd" d="M12.1399 5.87724L11.3438 5.08111L12.1637 4.26118C12.4095 4.01536 12.7875 3.97724 13.0743 4.14677C13.2438 4.43357 13.2057 4.8115 12.9598 5.05732L12.1399 5.87728V5.87724Z" fill="#4EB1FC"/>
</svg>
