<svg width="23" height="23" viewBox="0 0 23 23" fill="none" xmlns="http://www.w3.org/2000/svg">
<g clip-path="url(#clip0_2122_26709)">
<path d="M7.54688 19.7656H15.4531V22.2812H7.54688V19.7656Z" fill="#E6CAA0"/>
<path d="M18.3281 12.8587V13.9002C18.3281 14.8273 17.7316 15.6532 16.8547 15.9414L16.1719 16.1714V12.5777L17.3794 12.1744C17.8466 12.0178 18.3281 12.3692 18.3281 12.8587ZM6.82813 12.5777V16.1714L6.14531 15.9414C5.71633 15.7992 5.34306 15.5255 5.07855 15.159C4.81404 14.7926 4.67174 14.3521 4.67188 13.9002V12.8587C4.67188 12.3692 5.15344 12.0178 5.62063 12.1752L6.82813 12.5777Z" fill="#FFE0B2"/>
<path d="M11.6504 4.67188C14.9495 4.67188 17.5729 7.44553 17.3932 10.7374C17.2135 14.0796 16.8541 17.5806 16.0916 18.7012C15.352 19.7944 13.8491 21.4331 12.7997 21.9212H10.1985C9.14915 21.4259 7.63259 19.7937 6.89155 18.6868C6.15124 17.5727 5.79906 14.0796 5.61218 10.7446C5.43321 7.44553 8.04946 4.67188 11.3557 4.67188H11.6504Z" fill="#FFE0B2"/>
<path d="M7.28669 7.52172H7.67266C7.94506 7.82431 8.33534 8.01766 8.77378 8.01766C9.10009 8.01766 9.39909 7.91056 9.64275 7.73087C9.9761 7.89254 10.2573 8.14463 10.4543 8.4584C10.6513 8.77217 10.7561 9.13499 10.7568 9.50547V9.82675C10.7568 10.3557 10.6519 10.8301 10.4636 11.2477C10.2501 11.7185 10.6016 12.2489 11.1191 12.2489H11.8817C12.3992 12.2489 12.7506 11.7192 12.5372 11.2477C12.3386 10.8006 12.2386 10.316 12.2439 9.82675V9.50547C12.2446 9.13499 12.3495 8.77217 12.5464 8.4584C12.7434 8.14463 13.0246 7.89254 13.358 7.73087C13.6016 7.91056 13.9006 8.01766 14.2269 8.01766C14.6654 8.01766 15.0557 7.82359 15.3281 7.52172H15.714C16.174 7.52172 16.5794 7.30897 16.8525 6.98122C17.3097 7.08975 17.8257 7.05884 18.4403 6.22509C18.5869 6.02528 18.6875 5.78666 18.6875 5.53797C18.6869 5.14387 18.53 4.76611 18.2512 4.48757C17.9724 4.20904 17.5945 4.0525 17.2004 4.05231C17.1149 4.05231 17.0322 4.06453 16.9503 4.07747C16.9503 4.06884 16.9524 4.06166 16.9524 4.05231C16.9524 3.52638 16.7435 3.02199 16.3716 2.6501C15.9997 2.27821 15.4953 2.06928 14.9694 2.06928C14.7677 2.07227 14.5677 2.10645 14.3764 2.17062C13.7526 1.51153 12.6974 1.07812 11.5 1.07812C10.3026 1.07812 9.24744 1.51153 8.62356 2.17062C8.43232 2.10645 8.2323 2.07227 8.03059 2.06928C7.50466 2.06928 7.00027 2.27821 6.62838 2.6501C6.25649 3.02199 6.04756 3.52638 6.04756 4.05231C6.04756 4.06166 6.04972 4.06884 6.04972 4.07747C5.96719 4.06212 5.88352 4.05371 5.79959 4.05231C5.4055 4.0525 5.02758 4.20904 4.74878 4.48757C4.46998 4.76611 4.31307 5.14387 4.3125 5.53797C4.3125 5.78666 4.41312 6.026 4.56047 6.22509C5.17428 7.05884 5.69106 7.08975 6.14819 6.98122C6.42131 7.30897 6.82669 7.52172 7.28669 7.52172Z" fill="#EAD960"/>
<path d="M8.77425 7.5205H7.28716C6.89294 7.5205 6.51488 7.3639 6.23613 7.08515C5.95738 6.8064 5.80078 6.42834 5.80078 6.03413V5.04297H8.77497V7.5205H8.77425Z" fill="#FFF176"/>
<path d="M14.2273 7.5205H15.7144C16.1086 7.5205 16.4867 7.3639 16.7654 7.08515C17.0442 6.8064 17.2008 6.42834 17.2008 6.03413V5.04297H14.2266L14.2273 7.5205Z" fill="#FF8A80"/>
<path d="M17.2 7.02497C18.0213 7.02497 18.6871 6.35917 18.6871 5.53787C18.6871 4.71658 18.0213 4.05078 17.2 4.05078C16.3787 4.05078 15.7129 4.71658 15.7129 5.53787C15.7129 6.35917 16.3787 7.02497 17.2 7.02497Z" fill="#FF8A80"/>
<path d="M14.2254 8.01716C15.0467 8.01716 15.7125 7.35136 15.7125 6.53006C15.7125 5.70876 15.0467 5.04297 14.2254 5.04297C13.4041 5.04297 12.7383 5.70876 12.7383 6.53006C12.7383 7.35136 13.4041 8.01716 14.2254 8.01716Z" fill="#FFF176"/>
<path d="M5.79959 7.02497C6.62089 7.02497 7.28669 6.35917 7.28669 5.53787C7.28669 4.71658 6.62089 4.05078 5.79959 4.05078C4.97829 4.05078 4.3125 4.71658 4.3125 5.53787C4.3125 6.35917 4.97829 7.02497 5.79959 7.02497Z" fill="#FFF176"/>
<path d="M6.04612 5.04462C6.55428 5.04462 7.00206 5.29978 7.27016 5.68862C7.27519 5.63975 7.28525 5.59015 7.28525 5.53984C7.28506 5.30701 7.23017 5.07748 7.12501 4.86974C7.01986 4.66201 6.86737 4.48189 6.67984 4.34389C6.49231 4.2059 6.27498 4.11388 6.04538 4.07527C5.81577 4.03666 5.5803 4.05252 5.35795 4.12159C5.1356 4.19066 4.93258 4.311 4.76526 4.47291C4.59794 4.63482 4.471 4.83377 4.39466 5.05373C4.31832 5.2737 4.29473 5.50852 4.32577 5.73927C4.35682 5.97002 4.44164 6.19025 4.57341 6.38221C4.6094 6.01636 4.78001 5.67693 5.05214 5.42977C5.32427 5.18261 5.67851 5.04535 6.04612 5.04462Z" fill="#FFFDA6"/>
<path d="M14.9706 6.03494C16.0654 6.03494 16.9529 5.14743 16.9529 4.05262C16.9529 2.95782 16.0654 2.07031 14.9706 2.07031C13.8758 2.07031 12.9883 2.95782 12.9883 4.05262C12.9883 5.14743 13.8758 6.03494 14.9706 6.03494Z" fill="#FFF176"/>
<path d="M8.02919 6.03494C9.12399 6.03494 10.0115 5.14743 10.0115 4.05262C10.0115 2.95782 9.12399 2.07031 8.02919 2.07031C6.93439 2.07031 6.04688 2.95782 6.04688 4.05262C6.04688 5.14743 6.93439 6.03494 8.02919 6.03494Z" fill="#FFFDA6"/>
<path d="M11.5007 6.03462C13.4168 6.03462 14.9701 4.92507 14.9701 3.55637C14.9701 2.18768 13.4168 1.07812 11.5007 1.07812C9.58456 1.07812 8.03125 2.18768 8.03125 3.55637C8.03125 4.92507 9.58456 6.03462 11.5007 6.03462Z" fill="#FFFDA6"/>
<path d="M8.27795 7.02856C9.37315 7.02856 10.261 6.14073 10.261 5.04553C10.261 3.95033 9.37315 3.0625 8.27795 3.0625C7.18276 3.0625 6.29492 3.95033 6.29492 5.04553C6.29492 6.14073 7.18276 7.02856 8.27795 7.02856Z" fill="#FFF176"/>
<path d="M11.7475 7.27434C13.664 7.27434 15.2176 6.16447 15.2176 4.79537C15.2176 3.42628 13.664 2.31641 11.7475 2.31641C9.83097 2.31641 8.27734 3.42628 8.27734 4.79537C8.27734 6.16447 9.83097 7.27434 11.7475 7.27434Z" fill="#FFF176"/>
<path d="M8.77225 8.01716C9.59355 8.01716 10.2593 7.35136 10.2593 6.53006C10.2593 5.70876 9.59355 5.04297 8.77225 5.04297C7.95095 5.04297 7.28516 5.70876 7.28516 6.53006C7.28516 7.35136 7.95095 8.01716 8.77225 8.01716Z" fill="#FF8A80"/>
<path d="M11.4988 7.77106C12.3201 7.77106 12.9859 7.10527 12.9859 6.28397C12.9859 5.46267 12.3201 4.79688 11.4988 4.79688C10.6775 4.79688 10.0117 5.46267 10.0117 6.28397C10.0117 7.10527 10.6775 7.77106 11.4988 7.77106Z" fill="#FF8A80"/>
<path d="M11.2527 7.02497C12.074 7.02497 12.7398 6.35917 12.7398 5.53787C12.7398 4.71658 12.074 4.05078 11.2527 4.05078C10.4314 4.05078 9.76562 4.71658 9.76562 5.53787C9.76562 6.35917 10.4314 7.02497 11.2527 7.02497Z" fill="#FFF176"/>
<path d="M8.52616 7.27497C9.34746 7.27497 10.0132 6.60917 10.0132 5.78788C10.0132 4.96658 9.34746 4.30078 8.52616 4.30078C7.70486 4.30078 7.03906 4.96658 7.03906 5.78788C7.03906 6.60917 7.70486 7.27497 8.52616 7.27497Z" fill="#FFF176"/>
<path d="M16.1002 2.42578C16.3244 2.74706 16.4567 3.13591 16.4567 3.55638C16.4565 4.08225 16.2475 4.58653 15.8756 4.95838C15.5038 5.33023 14.9995 5.53922 14.4736 5.53941C14.0694 5.53909 13.675 5.41464 13.3438 5.18291C13.5257 5.44577 13.7687 5.66062 14.0518 5.80907C14.335 5.95753 14.6499 6.03517 14.9696 6.03534C15.3915 6.03503 15.8024 5.90007 16.1423 5.65011C16.4823 5.40015 16.7336 5.04822 16.8598 4.64555C16.9859 4.24288 16.9802 3.81046 16.8436 3.41122C16.707 3.01199 16.4465 2.66676 16.1002 2.42578Z" fill="#FF8A80"/>
<path d="M15.4549 5.69531C15.457 5.72622 15.4649 5.75569 15.4649 5.78731C15.4642 6.105 15.3619 6.41412 15.1728 6.66944C14.9838 6.92475 14.7179 7.11284 14.4143 7.20619C14.1106 7.29954 13.7851 7.29324 13.4852 7.18821C13.1854 7.08318 12.9271 6.88494 12.748 6.6225C12.7704 6.9995 12.9357 7.35377 13.2103 7.61302C13.4849 7.87227 13.8481 8.01697 14.2258 8.01759C14.4958 8.0171 14.7606 7.94315 14.9918 7.80365C15.2229 7.66416 15.4118 7.46439 15.5381 7.22575C15.6644 6.9871 15.7234 6.71859 15.7087 6.44899C15.694 6.17938 15.6063 5.91885 15.4549 5.69531Z" fill="#FF8A80"/>
<path d="M15.4531 22.2812C15.3578 22.2812 15.2664 22.2433 15.199 22.176C15.1316 22.1086 15.0938 22.0171 15.0938 21.9218V19.6218C15.0938 19.5265 15.1316 19.4351 15.199 19.3677C15.2664 19.3003 15.3578 19.2625 15.4531 19.2625C15.5484 19.2625 15.6398 19.3003 15.7072 19.3677C15.7746 19.4351 15.8125 19.5265 15.8125 19.6218V21.9218C15.8125 22.0171 15.7746 22.1086 15.7072 22.176C15.6398 22.2433 15.5484 22.2812 15.4531 22.2812ZM7.54688 22.2812C7.45156 22.2812 7.36016 22.2433 7.29276 22.176C7.22536 22.1086 7.1875 22.0171 7.1875 21.9218V19.6218C7.1875 19.5265 7.22536 19.4351 7.29276 19.3677C7.36016 19.3003 7.45156 19.2625 7.54688 19.2625C7.64219 19.2625 7.7336 19.3003 7.80099 19.3677C7.86839 19.4351 7.90625 19.5265 7.90625 19.6218V21.9218C7.90625 22.0171 7.86839 22.1086 7.80099 22.176C7.7336 22.2433 7.64219 22.2812 7.54688 22.2812ZM16.9611 16.2631C16.8776 16.2627 16.7969 16.2331 16.7328 16.1797C16.6687 16.1262 16.6252 16.052 16.6098 15.97C16.5944 15.8879 16.6081 15.8031 16.6484 15.73C16.6888 15.657 16.7533 15.6002 16.831 15.5695C17.1658 15.4371 17.4532 15.2072 17.6561 14.9097C17.8589 14.6122 17.9678 14.2607 17.9688 13.9006V12.8591C17.9689 12.8016 17.9551 12.7448 17.9288 12.6936C17.9024 12.6425 17.8641 12.5984 17.8171 12.5651C17.7711 12.5316 17.7177 12.5097 17.6614 12.5012C17.6051 12.4926 17.5475 12.4978 17.4937 12.5163C17.4045 12.5426 17.3086 12.5333 17.2261 12.4905C17.1437 12.4476 17.081 12.3744 17.0513 12.2863C17.0216 12.1982 17.0273 12.1021 17.067 12.018C17.1067 11.934 17.1775 11.8686 17.2644 11.8356C17.595 11.7235 17.9515 11.7767 18.2368 11.9822C18.5193 12.1842 18.6875 12.512 18.6875 12.8591V13.9006C18.6859 14.4054 18.5329 14.8981 18.2482 15.315C17.9634 15.7318 17.5601 16.0536 17.0904 16.2387C17.0492 16.2548 17.0053 16.2631 16.9611 16.2631ZM5.94981 16.2265C5.89979 16.2264 5.85034 16.2158 5.80463 16.1956C5.36029 15.9987 4.9827 15.6771 4.7178 15.2696C4.4529 14.8622 4.31209 14.3866 4.3125 13.9006V12.8591C4.3125 12.5127 4.48069 12.1849 4.76316 11.9815C5.04778 11.776 5.405 11.7228 5.73563 11.8349C5.78199 11.8486 5.82511 11.8715 5.86241 11.9022C5.89971 11.933 5.93043 11.9709 5.95273 12.0138C5.97502 12.0567 5.98844 12.1036 5.99217 12.1518C5.9959 12.2 5.98987 12.2485 5.97444 12.2943C5.95901 12.3401 5.93449 12.3823 5.90236 12.4184C5.87023 12.4545 5.83115 12.4838 5.78745 12.5045C5.74375 12.5251 5.69633 12.5368 5.64803 12.5387C5.59973 12.5406 5.55154 12.5327 5.50634 12.5156C5.452 12.4976 5.39416 12.4928 5.33758 12.5015C5.28101 12.5102 5.22732 12.5323 5.18093 12.5658C5.13454 12.5994 5.09679 12.6435 5.07076 12.6944C5.04474 12.7454 5.0312 12.8019 5.03125 12.8591V13.9006C5.03083 14.2473 5.13113 14.5867 5.31998 14.8775C5.50882 15.1683 5.77807 15.398 6.095 15.5386C6.1717 15.5709 6.23477 15.6288 6.27337 15.7025C6.31197 15.7762 6.32369 15.8611 6.3065 15.9425C6.28932 16.0239 6.24431 16.0968 6.17922 16.1486C6.11412 16.2004 6.033 16.228 5.94981 16.2265Z" fill="#455A64"/>
<path d="M12.8008 22.2824H10.1989C10.1457 22.2821 10.0933 22.2703 10.0451 22.2479C8.84406 21.6808 7.27503 19.9076 6.59293 18.8884C5.9439 17.9116 5.50547 15.2544 5.2539 10.7665C5.20675 9.93419 5.33077 9.10101 5.61831 8.31848C5.65568 8.23503 5.72333 8.16889 5.80759 8.13341C5.89185 8.09793 5.98645 8.09576 6.07225 8.12734C6.15805 8.15892 6.22866 8.2219 6.26981 8.30354C6.31096 8.38519 6.31958 8.47941 6.29393 8.56717C6.03986 9.25773 5.93027 9.99309 5.97193 10.7277C6.21343 15.0237 6.62384 17.6349 7.19165 18.4902C7.92118 19.5791 9.34862 21.082 10.283 21.5636H12.7181C13.6374 21.0957 15.0361 19.6237 15.7951 18.501C16.2019 17.9023 16.7474 16.0666 17.0357 10.7198C17.0768 9.98715 16.9674 9.25382 16.7144 8.56501C16.6969 8.52049 16.6885 8.47294 16.6896 8.42512C16.6907 8.37731 16.7014 8.3302 16.7209 8.28655C16.7405 8.24291 16.7686 8.20362 16.8035 8.17097C16.8385 8.13832 16.8796 8.11298 16.9245 8.09643C16.9694 8.07987 17.0171 8.07245 17.0649 8.07458C17.1126 8.07671 17.1595 8.08835 17.2027 8.10883C17.246 8.12931 17.2847 8.15821 17.3166 8.19384C17.3485 8.22947 17.373 8.27111 17.3886 8.31632C17.6765 9.09652 17.8008 9.92762 17.7537 10.7579C17.5129 15.2451 17.0666 17.9102 16.3909 18.9042C15.6959 19.9306 14.1233 21.7045 12.9539 22.2479C12.906 22.2705 12.8537 22.2822 12.8008 22.2824Z" fill="#455A64"/>
<path d="M10.0493 12.2861C9.9821 12.2867 9.91608 12.2684 9.85881 12.2332C9.80154 12.198 9.75534 12.1474 9.72549 12.0872C9.69564 12.0269 9.68335 11.9595 9.69003 11.8926C9.6967 11.8258 9.72208 11.7621 9.76325 11.709C10.1764 11.1686 10.3993 10.5068 10.3972 9.82656V9.50528C10.3972 8.88213 10.05 8.32294 9.49013 8.04766C9.40463 8.00543 9.33941 7.93098 9.30881 7.84067C9.27821 7.75036 9.28475 7.65159 9.32697 7.56609C9.36919 7.4806 9.44365 7.41538 9.53396 7.38478C9.62427 7.35418 9.72304 7.36071 9.80853 7.40294C10.2017 7.59537 10.5328 7.8946 10.7639 8.26639C10.995 8.63819 11.1167 9.06753 11.1152 9.50528V9.82656C11.1177 10.6643 10.843 11.4793 10.3339 12.1445C10.3007 12.1886 10.2577 12.2243 10.2083 12.2489C10.1589 12.2735 10.1045 12.2862 10.0493 12.2861ZM12.9092 12.2301C12.8526 12.2301 12.7968 12.2168 12.7464 12.1912C12.6959 12.1656 12.6522 12.1284 12.6188 12.0827C12.1401 11.428 11.883 10.6376 11.885 9.82656V9.50528C11.885 9.05822 12.0115 8.62338 12.2501 8.24891C12.2756 8.20912 12.3086 8.17474 12.3473 8.14772C12.386 8.12069 12.4297 8.10156 12.4758 8.09142C12.5219 8.08128 12.5696 8.08031 12.6161 8.08859C12.6626 8.09687 12.707 8.11422 12.7468 8.13966C12.7866 8.16509 12.821 8.19812 12.848 8.23684C12.875 8.27557 12.8941 8.31924 12.9043 8.36536C12.9144 8.41148 12.9154 8.45914 12.9071 8.50563C12.8988 8.55212 12.8815 8.59653 12.856 8.63631C12.6907 8.89434 12.603 9.19478 12.603 9.50528V9.82656C12.603 10.4907 12.8093 11.1239 13.1996 11.6587C13.2382 11.7124 13.2613 11.7757 13.2664 11.8417C13.2714 11.9076 13.2583 11.9737 13.2283 12.0327C13.1983 12.0917 13.1527 12.1413 13.0964 12.1761C13.0401 12.2109 12.9754 12.2296 12.9092 12.2301ZM15.7138 7.88091H15.3666C15.2713 7.88091 15.1799 7.84304 15.1125 7.77565C15.0451 7.70825 15.0073 7.61684 15.0073 7.52153C15.0073 7.42622 15.0451 7.33481 15.1125 7.26741C15.1799 7.20002 15.2713 7.16216 15.3666 7.16216H15.7138C16.0126 7.16178 16.299 7.04292 16.5103 6.83165C16.7215 6.62037 16.8404 6.33394 16.8408 6.03516C16.8408 5.93984 16.8786 5.84844 16.946 5.78104C17.0134 5.71364 17.1048 5.67578 17.2002 5.67578C17.2955 5.67578 17.3869 5.71364 17.4543 5.78104C17.5217 5.84844 17.5595 5.93984 17.5595 6.03516C17.5592 6.52456 17.3646 6.99382 17.0185 7.33988C16.6724 7.68594 16.2032 7.88053 15.7138 7.88091ZM7.63431 7.88091H7.28716C6.79775 7.88053 6.3285 7.68594 5.98243 7.33988C5.63637 6.99382 5.44179 6.52456 5.44141 6.03516C5.44141 5.93984 5.47927 5.84844 5.54666 5.78104C5.61406 5.71364 5.70547 5.67578 5.80078 5.67578C5.89609 5.67578 5.9875 5.71364 6.0549 5.78104C6.12229 5.84844 6.16016 5.93984 6.16016 6.03516C6.16054 6.33394 6.2794 6.62037 6.49067 6.83165C6.70194 7.04292 6.98837 7.16178 7.28716 7.16216H7.63431C7.72962 7.16216 7.82103 7.20002 7.88843 7.26741C7.95582 7.33481 7.99369 7.42622 7.99369 7.52153C7.99369 7.61684 7.95582 7.70825 7.88843 7.77565C7.82103 7.84304 7.72962 7.88091 7.63431 7.88091Z" fill="#455A64"/>
<path d="M17.2004 7.38341C17.0547 7.3837 16.9095 7.36681 16.7677 7.3331C16.5744 7.2871 16.4551 7.09304 16.5018 6.89969C16.5485 6.70635 16.7397 6.58488 16.9352 6.63376C17.101 6.67375 17.2738 6.67561 17.4405 6.6392C17.6072 6.60279 17.7634 6.52906 17.8975 6.42356C18.0316 6.31805 18.14 6.18352 18.2146 6.03008C18.2892 5.87663 18.328 5.70827 18.3281 5.53766C18.3275 5.32498 18.2668 5.11681 18.153 4.93712C18.0392 4.75742 17.877 4.61352 17.685 4.52196C17.4931 4.43041 17.2791 4.39494 17.0679 4.41962C16.8567 4.44431 16.6567 4.52816 16.491 4.66151C16.4168 4.72137 16.322 4.74945 16.2272 4.73962C16.1324 4.72979 16.0453 4.68284 15.985 4.60904C15.9552 4.57249 15.9328 4.53041 15.9193 4.48522C15.9057 4.44002 15.9012 4.3926 15.906 4.34566C15.9108 4.29872 15.9248 4.25319 15.9473 4.21168C15.9697 4.17017 16.0001 4.1335 16.0367 4.10376C16.3079 3.88466 16.6354 3.74671 16.9816 3.70584C17.3278 3.66497 17.6784 3.72284 17.9931 3.87278C18.3078 4.02272 18.5737 4.2586 18.76 4.5532C18.9463 4.8478 19.0455 5.18909 19.0462 5.53766C19.0458 6.02707 18.8512 6.49632 18.5051 6.84238C18.1591 7.18845 17.6898 7.38303 17.2004 7.38341ZM11.748 8.12804C11.6527 8.12804 11.5612 8.09018 11.4939 8.02278C11.4265 7.95538 11.3886 7.86397 11.3886 7.76866C11.3886 7.67335 11.4265 7.58194 11.4939 7.51455C11.5612 7.44715 11.6527 7.40929 11.748 7.40929C11.8962 7.40957 12.043 7.38057 12.18 7.32396C12.317 7.26734 12.4415 7.18422 12.5463 7.07937C12.6511 6.97451 12.7341 6.85 12.7906 6.71297C12.8472 6.57593 12.8761 6.42908 12.8757 6.28085C12.8757 6.18554 12.9135 6.09413 12.9809 6.02673C13.0483 5.95934 13.1397 5.92147 13.2351 5.92147C13.3304 5.92147 13.4218 5.95934 13.4892 6.02673C13.5566 6.09413 13.5944 6.18554 13.5944 6.28085C13.5944 6.77063 13.3999 7.24036 13.0537 7.58675C12.7074 7.93315 12.2377 8.12785 11.748 8.12804ZM14.2262 8.37529C13.9722 8.37573 13.7208 8.32335 13.4881 8.22148C13.4447 8.2028 13.4056 8.17574 13.3727 8.14186C13.3399 8.10798 13.3141 8.06795 13.2968 8.02407C13.2795 7.98019 13.271 7.93332 13.2719 7.88615C13.2728 7.83899 13.283 7.79247 13.3019 7.74926C13.3402 7.66229 13.4113 7.59396 13.4997 7.5591C13.5882 7.52425 13.6868 7.52568 13.7741 7.5631C13.8057 7.57676 13.8381 7.58897 13.8712 7.59904C14.6014 7.8391 15.3539 7.26985 15.3539 6.52882C15.3541 6.40408 15.3335 6.28019 15.2928 6.16226C15.277 6.11747 15.2702 6.06999 15.2728 6.02255C15.2754 5.97512 15.2874 5.92867 15.308 5.8859C15.3287 5.84312 15.3577 5.80487 15.3932 5.77336C15.4288 5.74184 15.4702 5.71769 15.5152 5.7023C15.5601 5.6869 15.6077 5.68058 15.6551 5.68368C15.7025 5.68678 15.7488 5.69925 15.7913 5.72037C15.8339 5.74148 15.8718 5.77083 15.903 5.80671C15.9341 5.84258 15.9579 5.88428 15.9728 5.92938C16.0675 6.20743 16.0947 6.50405 16.052 6.79468C16.0093 7.08531 15.898 7.36159 15.7273 7.60065C15.5566 7.83971 15.3314 8.03466 15.0704 8.16937C14.8093 8.30408 14.52 8.37467 14.2262 8.37529ZM8.77378 8.37529C8.28418 8.37491 7.81475 8.18025 7.46855 7.83405C7.12235 7.48785 6.92769 7.01842 6.92731 6.52882C6.92731 6.43351 6.96517 6.3421 7.03257 6.2747C7.09997 6.20731 7.19137 6.16944 7.28669 6.16944C7.382 6.16944 7.47341 6.20731 7.5408 6.2747C7.6082 6.3421 7.64606 6.43351 7.64606 6.52882C7.64606 7.15054 8.15206 7.65654 8.77378 7.65654C9.25031 7.65654 9.67797 7.35466 9.83681 6.90544C9.86902 6.81574 9.93534 6.74239 10.0213 6.70133C10.1074 6.66028 10.2061 6.65485 10.2961 6.68623C10.483 6.75307 10.5807 6.95791 10.5153 7.14551C10.3873 7.50504 10.1512 7.81619 9.83941 8.03635C9.52764 8.2565 9.15544 8.37488 8.77378 8.37529ZM5.79959 7.38341C5.48334 7.38341 5.16997 7.30219 4.89541 7.14838C4.60989 6.98726 4.37224 6.75327 4.2067 6.4703C4.04116 6.18733 3.95366 5.8655 3.95312 5.53766C3.95336 5.26953 4.01195 5.00466 4.12482 4.76144C4.23769 4.51822 4.40214 4.30247 4.60676 4.12918C4.81137 3.95589 5.05124 3.8292 5.30972 3.75792C5.56821 3.68663 5.83911 3.67244 6.10362 3.71635C6.19639 3.73347 6.2787 3.78638 6.3328 3.86366C6.38689 3.94094 6.40844 4.03639 6.39278 4.12942C6.37711 4.22244 6.32551 4.30558 6.24909 4.36088C6.17267 4.41619 6.07757 4.43923 5.98431 4.42504C5.82282 4.39847 5.65749 4.40733 5.49977 4.45099C5.34204 4.49466 5.19569 4.57209 5.07086 4.67792C4.94602 4.78375 4.84568 4.91545 4.77679 5.0639C4.7079 5.21235 4.6721 5.374 4.67187 5.53766C4.67187 5.94376 4.89253 6.3211 5.24831 6.52163C5.49269 6.65819 5.79744 6.69773 6.06553 6.63376C6.15614 6.61722 6.24964 6.63604 6.3268 6.68633C6.40396 6.73662 6.45891 6.81457 6.48036 6.90414C6.50181 6.99371 6.48812 7.0881 6.44211 7.16789C6.3961 7.24767 6.32127 7.3068 6.233 7.3331C6.09212 7.36688 5.94622 7.38341 5.79959 7.38341Z" fill="#455A64"/>
<path d="M16.9523 4.41277C16.8569 4.41277 16.7655 4.37491 16.6981 4.30751C16.6307 4.24012 16.5929 4.14871 16.5929 4.0534C16.5925 3.79843 16.5322 3.54713 16.4168 3.31978C16.3013 3.09244 16.1341 2.89542 15.9284 2.74466C15.7228 2.59389 15.4846 2.4936 15.2331 2.45188C14.9816 2.41016 14.7238 2.42818 14.4805 2.50449C14.4354 2.5186 14.388 2.5237 14.341 2.51949C14.2939 2.51528 14.2482 2.50184 14.2063 2.47995C14.1218 2.43574 14.0583 2.35976 14.0298 2.26874C14.0013 2.17772 14.0102 2.0791 14.0544 1.99459C14.0986 1.91007 14.1746 1.84658 14.2656 1.81808C14.6165 1.7082 14.9884 1.68238 15.3512 1.74272C15.7139 1.80306 16.0574 1.94786 16.3539 2.16543C16.6504 2.383 16.8915 2.66724 17.0579 2.9952C17.2243 3.32316 17.3112 3.68565 17.3116 4.0534C17.3116 4.14871 17.2738 4.24012 17.2064 4.30751C17.139 4.37491 17.0476 4.41277 16.9523 4.41277ZM6.31261 5.40465C6.24954 5.40457 6.1876 5.38794 6.13298 5.3564C6.07836 5.32487 6.03298 5.27954 6.00139 5.22496C5.79664 4.86874 5.68908 4.46498 5.68945 4.05411C5.68983 3.64324 5.79814 3.23968 6.00354 2.88383C6.20894 2.52799 6.50422 2.23235 6.85981 2.02651C7.2154 1.82068 7.61883 1.71187 8.0297 1.71099C8.86201 1.71099 9.63898 2.15949 10.0573 2.88112C10.1051 2.96366 10.1182 3.06182 10.0937 3.15402C10.0692 3.24622 10.009 3.32489 9.92648 3.37274C9.84394 3.42059 9.74577 3.43369 9.65358 3.40915C9.56138 3.38462 9.4827 3.32447 9.43486 3.24193C9.29197 2.99546 9.08697 2.79077 8.84028 2.64825C8.5936 2.50574 8.31387 2.4304 8.02898 2.42974C7.74413 2.43028 7.46442 2.50564 7.21786 2.64829C6.9713 2.79093 6.76655 2.99586 6.62411 3.24253C6.48166 3.48921 6.40653 3.76898 6.40623 4.05383C6.40592 4.33868 6.48047 4.61861 6.62239 4.86558C6.65457 4.92 6.67174 4.98198 6.67213 5.0452C6.67253 5.10842 6.65614 5.17061 6.62464 5.22542C6.59314 5.28023 6.54766 5.32571 6.49284 5.35719C6.43802 5.38868 6.37582 5.40506 6.31261 5.40465Z" fill="#455A64"/>
<path d="M14.9692 3.91575C14.8739 3.91575 14.7825 3.87789 14.7151 3.81049C14.6477 3.7431 14.6098 3.65169 14.6098 3.55638C14.6098 2.38769 13.2147 1.4375 11.4998 1.4375C10.4684 1.4375 9.50526 1.78969 8.92091 2.37978C8.85353 2.44573 8.76292 2.48256 8.66863 2.48232C8.57434 2.48207 8.48392 2.44479 8.41687 2.37849C8.34982 2.3122 8.31152 2.22221 8.31021 2.12793C8.3089 2.03365 8.3447 1.94263 8.40988 1.8745C9.12576 1.15072 10.2815 0.71875 11.4998 0.71875C13.6115 0.71875 15.3286 1.99166 15.3286 3.55638C15.3286 3.75547 15.1683 3.91575 14.9692 3.91575ZM19.3284 8.86794C19.2642 8.86833 19.201 8.85142 19.1456 8.81901C19.0902 8.78659 19.0445 8.73985 19.0133 8.6837C18.9821 8.62754 18.9666 8.56403 18.9685 8.49983C18.9703 8.43563 18.9894 8.37311 19.0237 8.31881L19.6238 7.35713C19.7137 7.21122 19.8955 7.15156 20.0551 7.21122L20.8435 7.50734L21.2899 6.79506C21.3143 6.75381 21.3468 6.71786 21.3853 6.68934C21.4239 6.66082 21.4677 6.64031 21.5143 6.629C21.5609 6.6177 21.6093 6.61583 21.6567 6.62352C21.704 6.63121 21.7493 6.64829 21.79 6.67376C21.8306 6.69923 21.8657 6.73258 21.8932 6.77183C21.9208 6.81109 21.9402 6.85545 21.9503 6.90233C21.9605 6.9492 21.9611 6.99762 21.9522 7.04474C21.9434 7.09187 21.9251 7.13674 21.8987 7.17672L21.2956 8.13841C21.2515 8.20865 21.1845 8.26149 21.1059 8.28795C21.0273 8.31441 20.942 8.31287 20.8644 8.28359L20.0766 7.98747L19.6324 8.69903C19.6004 8.7508 19.5556 8.79351 19.5024 8.82308C19.4492 8.85264 19.3893 8.86809 19.3284 8.86794ZM19.3284 11.0242C19.2558 11.0245 19.1848 11.0028 19.1248 10.9619C19.0649 10.921 19.0187 10.8629 18.9924 10.7952C18.9662 10.7275 18.9611 10.6535 18.9778 10.5828C18.9946 10.5122 19.0324 10.4483 19.0862 10.3996L19.9243 9.63556C19.9856 9.57954 20.0644 9.54648 20.1474 9.54203C20.2303 9.53757 20.3123 9.56199 20.3792 9.61113L21.057 10.1099L21.6802 9.54428C21.7512 9.48341 21.8431 9.45261 21.9365 9.45845C22.0298 9.46428 22.1172 9.50628 22.1801 9.57552C22.243 9.64477 22.2764 9.7358 22.2732 9.82928C22.2701 9.92276 22.2306 10.0113 22.1632 10.0762L21.3222 10.8395C21.2607 10.895 21.182 10.9276 21.0993 10.9319C21.0166 10.9362 20.9349 10.912 20.868 10.8632L20.1909 10.3651L19.5706 10.93C19.5046 10.9907 19.4181 11.0243 19.3284 11.0242ZM3.67116 8.86794C3.61021 8.86794 3.55026 8.85244 3.49695 8.82289C3.44364 8.79334 3.39872 8.75072 3.36641 8.69903L2.92222 7.98747L2.13447 8.28359C2.05688 8.31287 1.97154 8.31441 1.89294 8.28795C1.81434 8.26149 1.74731 8.20865 1.70322 8.13841L1.10091 7.176C1.0503 7.09518 1.03387 6.99756 1.05524 6.90462C1.0766 6.81168 1.13401 6.73103 1.21483 6.68042C1.29566 6.62981 1.39328 6.61338 1.48622 6.63475C1.57916 6.65611 1.6598 6.71352 1.71041 6.79434L2.15676 7.50663L2.94522 7.2105C3.02289 7.18115 3.10832 7.17965 3.18697 7.20626C3.26561 7.23286 3.33259 7.28593 3.37647 7.35641L3.97663 8.31809C4.01091 8.3725 4.02993 8.43512 4.03171 8.4994C4.03348 8.56368 4.01794 8.62725 3.98671 8.68347C3.95548 8.73968 3.90971 8.78646 3.8542 8.81891C3.79868 8.85137 3.73547 8.8683 3.67116 8.86794ZM3.67116 11.0242C3.58147 11.0243 3.495 10.9907 3.42894 10.93L2.80866 10.3651L2.1316 10.8632C2.06466 10.912 1.98298 10.9362 1.90027 10.9319C1.81755 10.9276 1.73884 10.895 1.67735 10.8395L0.836412 10.0762C0.799927 10.0449 0.770085 10.0066 0.748653 9.96358C0.727221 9.92057 0.714634 9.8737 0.711637 9.82573C0.70864 9.77777 0.715293 9.72969 0.731204 9.68434C0.747114 9.63899 0.771958 9.5973 0.804266 9.56172C0.836575 9.52614 0.87569 9.49741 0.919299 9.47721C0.962908 9.45702 1.01012 9.44578 1.05815 9.44415C1.10619 9.44252 1.15405 9.45055 1.19893 9.46775C1.2438 9.48495 1.28477 9.51097 1.31941 9.54428L1.94257 10.1099L2.62035 9.61113C2.68738 9.56212 2.76928 9.53779 2.85219 9.54224C2.9351 9.54669 3.01393 9.57966 3.07532 9.63556L3.91338 10.3996C3.96721 10.4483 4.00499 10.5122 4.02173 10.5828C4.03847 10.6535 4.03338 10.7275 4.00713 10.7952C3.98088 10.8629 3.93471 10.921 3.87473 10.9619C3.81474 11.0028 3.74376 11.0245 3.67116 11.0242Z" fill="#455A64"/>
</g>
<defs>
<clipPath id="clip0_2122_26709">
<rect width="23" height="23" fill="white"/>
</clipPath>
</defs>
</svg>
