<svg width="24" height="24" viewBox="0 0 24 24" fill="none" xmlns="http://www.w3.org/2000/svg">
<g clip-path="url(#clip0_2025_192123)">
<path d="M18.8379 23.9996C19.6505 23.9934 20.3073 23.3331 20.3073 22.5191V9.59136L18.3481 9.10156L18.8379 23.9996Z" fill="#2D64BC"/>
<path d="M14.1285 24H10.8668L9.39746 12L10.8668 0H14.1285V24Z" fill="#E04C00"/>
<path d="M2.90733 0.302734L1.92773 12.3424L2.90733 23.9995C3.72511 23.9995 4.38801 23.3366 4.38801 22.5188V1.80906L2.90733 0.302734Z" fill="#FF8E00"/>
<path d="M2.90776 0.302734L2.41797 3.52754H4.38845V1.80906L2.90776 0.302734Z" fill="#FFBA00"/>
<path d="M2.90754 0.302734L1.42676 1.80906V22.5188C1.42676 23.3366 2.08971 23.9995 2.90749 23.9995L2.90754 0.302734Z" fill="#FFBA00"/>
<path d="M21.104 1.48047V2.767H18.8379V4.23639H21.104V11.3766H22.5734V1.48047H21.104Z" fill="#2D64BC"/>
<path d="M10.867 0H7.60547V24H10.867V0Z" fill="#FF7D3C"/>
<path d="M14.1286 20.8652H10.2612V22.3346H14.1286V20.8652Z" fill="#FFB995"/>
<path d="M14.1286 18.4668H9.50342V19.9362H14.1286V18.4668Z" fill="#FFB995"/>
<path d="M14.1286 16.0664H10.2612V17.5358H14.1286V16.0664Z" fill="#FFB995"/>
<path d="M14.1286 13.666H9.50342V15.1354H14.1286V13.666Z" fill="#FFB995"/>
<path d="M14.1286 11.2656H10.2612V12.735H14.1286V11.2656Z" fill="#FFB995"/>
<path d="M14.1286 8.86523H9.50342V10.3346H14.1286V8.86523Z" fill="#FFB995"/>
<path d="M14.1286 6.4668H10.2612V7.93618H14.1286V6.4668Z" fill="#FFB995"/>
<path d="M14.1286 4.06641H9.50342V5.53579H14.1286V4.06641Z" fill="#FFB995"/>
<path d="M14.1286 1.66602H10.2612V3.1354H14.1286V1.66602Z" fill="#FFB995"/>
<path d="M2.90754 0.302734L1.42676 1.80906V3.52754H2.90754V0.302734Z" fill="#FDE09C"/>
<path d="M2.41748 19.8477L2.90728 24.0002C3.72506 24.0002 4.38796 23.3373 4.38796 22.5195V20.3375L2.41748 19.8477Z" fill="#E04C00"/>
<path d="M2.90749 19.8477L1.42676 20.3375V22.5195C1.42676 23.3373 2.08971 24.0002 2.90749 24.0002V19.8477Z" fill="#FF7D3C"/>
<path d="M2.90728 18.3164L2.41748 19.327L2.90728 20.3376H4.38796V18.3164H2.90728Z" fill="#9BD6FF"/>
<path d="M2.9074 18.3164H1.42676V20.3378H2.9074V18.3164Z" fill="#C4EAFF"/>
<path d="M17.3457 9.59917V22.5185C17.3457 23.3362 18.0087 23.9991 18.8264 23.9991V9.10938L17.3457 9.59917Z" fill="#6499F3"/>
<path d="M18.8379 0L18.3481 9.59117H20.3073V1.4804C20.3073 0.666467 19.6504 0.00614061 18.8379 0Z" fill="#9BD6FF"/>
<path d="M18.8264 0C18.0087 0 17.3457 0.662952 17.3457 1.48068V9.5914H18.8264V0Z" fill="#C4EAFF"/>
</g>
<defs>
<clipPath id="clip0_2025_192123">
<rect width="24" height="24" fill="white"/>
</clipPath>
</defs>
</svg>
