<svg width="14" height="14" viewBox="0 0 14 14" fill="none" xmlns="http://www.w3.org/2000/svg">
<path opacity="0.4" d="M10.2569 2.41055H8.29482C7.80604 2.41378 7.34197 2.19635 7.03223 1.81899L6.38612 0.925734C6.08156 0.54506 5.61752 0.326614 5.12946 0.334174H3.74239C1.25278 0.334174 0.333985 1.79533 0.333985 4.27988V6.96556C0.330894 7.26091 13.6644 7.26053 13.6653 6.96556V6.1847C13.6771 3.70015 12.7821 2.41055 10.2569 2.41055Z" fill="#56555C"/>
<path d="M10.2509 2.41076C11.1208 2.34349 11.9842 2.60535 12.6694 3.14429C12.7483 3.21121 12.8217 3.28441 12.8887 3.36317C13.102 3.61256 13.2669 3.89943 13.3748 4.2091C13.5872 4.84556 13.6855 5.51439 13.6653 6.18491V9.68694C13.6644 9.98192 13.6426 10.2765 13.6001 10.5684C13.519 11.0835 13.3378 11.5779 13.0666 12.0236C12.9419 12.2389 12.7906 12.4377 12.6161 12.6152C11.8262 13.3401 10.7773 13.7174 9.7056 13.6622H4.28773C3.21431 13.717 2.16373 13.3399 1.37132 12.6152C1.19892 12.4373 1.04956 12.2386 0.92675 12.0236C0.657151 11.5782 0.479777 11.0834 0.405117 10.5684C0.357643 10.2769 0.333984 9.98218 0.333984 9.68694V6.18491C0.333984 5.89243 0.349699 5.60016 0.381406 5.3094C0.399189 5.17334 0.440683 5.0432 0.440683 4.91306C0.500855 4.56217 0.610623 4.22159 0.766703 3.90149C1.22906 2.91359 2.17748 2.41076 3.73053 2.41076H10.2509ZM10.411 8.26128H3.64754C3.34308 8.26128 3.09627 8.50759 3.09627 8.81143C3.09627 9.11527 3.34308 9.36158 3.64754 9.36158H10.3695C10.5167 9.36798 10.6604 9.31528 10.7684 9.21525C10.8765 9.11522 10.9399 8.97618 10.9445 8.82918C10.9528 8.69997 10.9103 8.57262 10.8259 8.47424C10.7289 8.34204 10.5752 8.26314 10.411 8.26128Z" fill="#56555C"/>
</svg>
