<svg width="15" height="14" viewBox="0 0 15 14" fill="none" xmlns="http://www.w3.org/2000/svg">
<path d="M3.53515 6.57457L2.43258 3.42112C2.38594 3.23643 2.27075 3.07605 2.11008 2.9721C1.94941 2.86814 1.75511 2.82828 1.5661 2.8605C1.46917 2.88102 1.37745 2.92086 1.2965 2.97762C1.21554 3.03439 1.14704 3.10688 1.09515 3.19071C1.04326 3.27453 1.00906 3.36795 0.994625 3.4653C0.980187 3.56264 0.985812 3.66188 1.01116 3.757L2.14537 7.23426L3.53515 6.57457ZM11.4649 6.57457L12.5675 3.42112C12.6141 3.23643 12.7293 3.07605 12.89 2.9721C13.0507 2.86814 13.2449 2.82828 13.434 2.8605C13.5309 2.88102 13.6226 2.92086 13.7036 2.97762C13.7845 3.03439 13.853 3.10688 13.9049 3.19071C13.9568 3.27453 13.991 3.36795 14.0054 3.4653C14.0199 3.56264 14.0142 3.66188 13.9889 3.757L12.8547 7.23426L11.4649 6.57457Z" fill="#FFAC96"/>
<path d="M5.80744 7.88257L3.65584 6.63037C3.50696 6.545 3.33246 6.51464 3.16321 6.54467C2.99395 6.5747 2.84084 6.66317 2.73095 6.79445L1.94576 4.38791C1.89912 4.20323 1.78394 4.04285 1.62326 3.93889C1.46259 3.83494 1.26829 3.79508 1.07928 3.8273C0.982353 3.84781 0.890632 3.88766 0.80968 3.94442C0.728727 4.00118 0.660228 4.07367 0.608338 4.1575C0.556448 4.24133 0.522247 4.33475 0.507809 4.43209C0.49337 4.52944 0.498996 4.62868 0.524344 4.7238L1.58311 8.64569C1.63167 8.82911 1.73421 8.99401 1.87761 9.11931L3.52295 10.5716C3.62561 10.6623 3.70774 10.7736 3.76396 10.8982C3.82017 11.0227 3.84919 11.1576 3.8491 11.2941V12.0674H6.76982V9.5504C6.76984 9.21322 6.68104 8.8819 6.51221 8.58932C6.34339 8.29675 6.10043 8.0531 5.80744 7.88257ZM13.9207 3.8273C13.7317 3.79508 13.5374 3.83494 13.3767 3.93889C13.2161 4.04285 13.1009 4.20323 13.0542 4.38791L12.2681 6.79445C12.1582 6.66317 12.0051 6.5747 11.8358 6.54467C11.6666 6.51464 11.4921 6.545 11.3432 6.63037L9.19158 7.88257C8.89878 8.05322 8.65601 8.29692 8.48736 8.58949C8.31872 8.88205 8.23006 9.21331 8.23018 9.5504V12.0674H11.1509V11.2941C11.1508 11.1576 11.1798 11.0227 11.236 10.8982C11.2923 10.7736 11.3744 10.6623 11.477 10.5716L13.1224 9.11931C13.2658 8.99401 13.3683 8.82911 13.4169 8.64569L14.4757 4.7238C14.501 4.62868 14.5066 4.52944 14.4922 4.43209C14.4778 4.33475 14.4436 4.24133 14.3917 4.1575C14.3398 4.07367 14.2713 4.00118 14.1903 3.94442C14.1094 3.88766 14.0176 3.84781 13.9207 3.8273Z" fill="#FFBCAB"/>
<path d="M7.98704 12.0664V13.9996H11.3945V12.0664H8.23043H7.98704ZM7.01347 12.0664H3.60596V13.9996H7.01347V12.0664Z" fill="#006DF0"/>
<path d="M10.7716 3.74461L10.5988 3.91618L7.50041 6.99231L4.40201 3.91618L4.2292 3.74461C4.01871 3.54424 3.85063 3.30416 3.73482 3.03845C3.61902 2.77274 3.55781 2.48675 3.5548 2.19724C3.55179 1.90774 3.60704 1.62055 3.7173 1.35252C3.82755 1.08449 3.99061 0.841021 4.19689 0.63638C4.40318 0.431739 4.64854 0.27005 4.91859 0.160795C5.18865 0.0515404 5.47796 -0.00308103 5.76956 0.000134116C6.06115 0.00334926 6.34917 0.0643362 6.61671 0.179519C6.88426 0.294701 7.12594 0.46176 7.3276 0.670899L7.50041 0.842466L7.67322 0.670899C7.87487 0.46176 8.11656 0.294701 8.3841 0.179519C8.65165 0.0643362 8.93966 0.00334926 9.23126 0.000134116C9.52286 -0.00308103 9.81217 0.0515404 10.0822 0.160795C10.3523 0.27005 10.5976 0.431739 10.8039 0.63638C11.0102 0.841021 11.1733 1.08449 11.2835 1.35252C11.3938 1.62055 11.449 1.90774 11.446 2.19724C11.443 2.48675 11.3818 2.77274 11.266 3.03845C11.1502 3.30416 10.9821 3.54424 10.7716 3.74461Z" fill="#D80027"/>
<path d="M10.7714 0.671181C10.5399 0.438835 10.258 0.261947 9.94727 0.153961C9.63653 0.0459742 9.30508 0.00972944 8.97811 0.0479805C9.38804 0.0930842 9.77679 0.25224 10.0996 0.507113C10.4224 0.761987 10.6661 1.10221 10.8026 1.48859C10.9392 1.87496 10.963 2.29177 10.8713 2.69101C10.7797 3.09024 10.5763 3.45565 10.2847 3.74514L10.1118 3.91671L7.25684 6.75095L7.50023 6.9926L10.5986 3.91646L10.7714 3.7449C11.1817 3.33712 11.4121 2.78436 11.4121 2.20804C11.4121 1.63172 11.1817 1.07896 10.7714 0.671181Z" fill="#BD0022"/>
<path d="M7.9867 4.57551V3.60894H8.96027V2.64236H7.9867V1.67578H7.01312V2.64236H6.03955V3.60894H7.01312V4.57551H7.9867Z" fill="#F1F2F2"/>
<path d="M12.0747 7.40248L10.4478 8.29656C10.4013 8.32329 10.3668 8.36663 10.3514 8.41773C10.336 8.46883 10.3408 8.52384 10.3648 8.57155C10.3777 8.59707 10.3956 8.61971 10.4176 8.63807C10.4396 8.65643 10.4651 8.67013 10.4927 8.67832C10.5202 8.68652 10.5491 8.68904 10.5776 8.68572C10.6062 8.6824 10.6337 8.67332 10.6586 8.65903L12.0747 7.88577C12.2225 7.80068 12.3356 7.6668 12.3943 7.50744C12.4529 7.34809 12.4534 7.17336 12.3957 7.01367C12.3394 7.17745 12.2254 7.31553 12.0747 7.40248ZM2.92598 7.40248L4.55283 8.29656C4.59932 8.32329 4.6338 8.36663 4.64922 8.41773C4.66464 8.46883 4.65985 8.52384 4.63582 8.57155C4.62298 8.59707 4.60501 8.61971 4.58302 8.63807C4.56104 8.65643 4.5355 8.67013 4.50798 8.67832C4.48046 8.68652 4.45154 8.68904 4.423 8.68572C4.39447 8.6824 4.36692 8.67332 4.34205 8.65903L2.92598 7.88577C2.77814 7.80068 2.66504 7.6668 2.60638 7.50744C2.54772 7.34809 2.54721 7.17336 2.60495 7.01367C2.66126 7.17745 2.77527 7.31553 2.92598 7.40248Z" fill="#FFAC96"/>
</svg>
