<svg width="15" height="14" viewBox="0 0 15 14" fill="none" xmlns="http://www.w3.org/2000/svg">
<path d="M2.10455 10.8796C1.86538 10.8796 1.66705 10.6813 1.66705 10.4421V7.11712C1.63788 5.53629 2.22705 4.04296 3.32372 2.92296C4.42038 1.80879 5.89038 1.19629 7.47122 1.19629C10.7029 1.19629 13.3337 3.82712 13.3337 7.05879V10.3838C13.3337 10.623 13.1354 10.8213 12.8962 10.8213C12.6571 10.8213 12.4587 10.623 12.4587 10.3838V7.05879C12.4587 4.31129 10.2245 2.07129 7.47122 2.07129C6.12372 2.07129 4.87538 2.59046 3.94788 3.53546C3.01455 4.48629 2.51872 5.75212 2.54205 7.10546V10.4363C2.54205 10.6813 2.34955 10.8796 2.10455 10.8796Z" fill="#1A1A1A"/>
<path d="M3.96435 7.2627H3.88852C2.66352 7.2627 1.66602 8.2602 1.66602 9.4852V10.5819C1.66602 11.8069 2.66352 12.8044 3.88852 12.8044H3.96435C5.18935 12.8044 6.18685 11.8069 6.18685 10.5819V9.4852C6.18685 8.2602 5.18935 7.2627 3.96435 7.2627Z" fill="#1A1A1A"/>
<path d="M11.1108 7.2627H11.035C9.81 7.2627 8.8125 8.2602 8.8125 9.4852V10.5819C8.8125 11.8069 9.81 12.8044 11.035 12.8044H11.1108C12.3358 12.8044 13.3333 11.8069 13.3333 10.5819V9.4852C13.3333 8.2602 12.3358 7.2627 11.1108 7.2627Z" fill="#1A1A1A"/>
</svg>
