<svg width="20" height="21" viewBox="0 0 20 21" fill="none" xmlns="http://www.w3.org/2000/svg">
<path d="M3.48839 0.777346C3.13922 0.776912 2.79212 0.830891 2.45958 0.937343C1.74454 1.15103 1.11819 1.59105 0.674668 2.19124C0.231149 2.79143 -0.00556799 3.51937 9.94438e-05 4.26564V8.91669C0.000592211 9.59498 0.270262 10.2454 0.749888 10.725C1.22951 11.2046 1.87988 11.4743 2.55818 11.4748H6.27902C6.46405 11.4748 6.6415 11.4013 6.77234 11.2704C6.90317 11.1396 6.97668 10.9621 6.97668 10.7771V4.26564C6.97545 3.34086 6.60754 2.45432 5.95362 1.8004C5.29971 1.14649 4.41316 0.778577 3.48839 0.777346Z" fill="#145638"/>
<path d="M19.9996 5.19534V18.2183C19.9999 18.5543 19.9339 18.887 19.8054 19.1975C19.6769 19.508 19.4885 19.7901 19.2509 20.0277C19.0133 20.2653 18.7312 20.4537 18.4208 20.5821C18.1103 20.7106 17.7775 20.7766 17.4415 20.7764H8.13944C7.80344 20.7766 7.47069 20.7106 7.16022 20.5821C6.84975 20.4537 6.56765 20.2653 6.33006 20.0277C6.09247 19.7901 5.90405 19.508 5.77558 19.1975C5.64712 18.887 5.58112 18.5543 5.58136 18.2183V3.56747C5.57997 2.91062 5.34693 2.27532 4.92326 1.77337C4.49958 1.27142 3.91243 0.935013 3.26514 0.82335C3.33446 0.789335 3.41124 0.773339 3.48839 0.77684H15.5811C16.7527 0.777825 17.876 1.24366 18.7044 2.07208C19.5328 2.90049 19.9986 4.02378 19.9996 5.19534Z" fill="#00AA5B"/>
<path d="M12.7903 7.75371H9.99966C9.81463 7.75371 9.63718 7.68021 9.50634 7.54937C9.37551 7.41854 9.302 7.24109 9.302 7.05606C9.302 6.87103 9.37551 6.69357 9.50634 6.56274C9.63718 6.4319 9.81463 6.3584 9.99966 6.3584H12.7903C12.9753 6.3584 13.1528 6.4319 13.2836 6.56274C13.4144 6.69357 13.4879 6.87103 13.4879 7.05606C13.4879 7.24109 13.4144 7.41854 13.2836 7.54937C13.1528 7.68021 12.9753 7.75371 12.7903 7.75371ZM15.5809 10.5443H9.99966C9.81463 10.5443 9.63718 10.4708 9.50634 10.34C9.37551 10.2092 9.302 10.0317 9.302 9.84669C9.302 9.66166 9.37551 9.48421 9.50634 9.35337C9.63718 9.22253 9.81463 9.14903 9.99966 9.14903H15.5809C15.766 9.14903 15.9434 9.22253 16.0742 9.35337C16.2051 9.48421 16.2786 9.66166 16.2786 9.84669C16.2786 10.0317 16.2051 10.2092 16.0742 10.34C15.9434 10.4708 15.766 10.5443 15.5809 10.5443ZM15.5809 13.335H9.99966C9.81463 13.335 9.63718 13.2615 9.50634 13.1306C9.37551 12.9998 9.302 12.8223 9.302 12.6373C9.302 12.4523 9.37551 12.2748 9.50634 12.144C9.63718 12.0132 9.81463 11.9397 9.99966 11.9397H15.5809C15.766 11.9397 15.9434 12.0132 16.0742 12.144C16.2051 12.2748 16.2786 12.4523 16.2786 12.6373C16.2786 12.8223 16.2051 12.9998 16.0742 13.1306C15.9434 13.2615 15.766 13.335 15.5809 13.335ZM15.5809 16.1256H9.99966C9.81463 16.1256 9.63718 16.0521 9.50634 15.9213C9.37551 15.7904 9.302 15.613 9.302 15.428C9.302 15.2429 9.37551 15.0655 9.50634 14.9346C9.63718 14.8038 9.81463 14.7303 9.99966 14.7303H15.5809C15.766 14.7303 15.9434 14.8038 16.0742 14.9346C16.2051 15.0655 16.2786 15.2429 16.2786 15.428C16.2786 15.613 16.2051 15.7904 16.0742 15.9213C15.9434 16.0521 15.766 16.1256 15.5809 16.1256Z" fill="white"/>
</svg>
