<svg width="25" height="25" viewBox="0 0 25 25" fill="none" xmlns="http://www.w3.org/2000/svg">
<path d="M12.922 1.0407C12.8663 1.04216 12.8096 1.0468 12.7541 1.0468C11.6605 1.0468 10.707 1.82952 10.2242 2.98157H8.63579V3.89407H9.95869C9.91313 4.15222 9.88838 4.42083 9.88838 4.6967C9.88838 5.71926 10.2304 6.64177 10.7597 7.30593C7.48467 7.81384 6.77681 12.3723 7.55537 16.5131H8.67988L8.63105 11.4502L9.54365 11.441L9.60469 17.659L10.0166 23.9182H12.2642V15.4771H13.1768V23.9182H15.2992L15.8455 16.5664L15.8959 11.4411L16.8084 11.4502L16.7596 16.5131H17.93C18.375 14.3696 18.3131 12.2026 17.7591 10.5073H18.6959V9.59475H17.3897C16.8016 8.40627 15.9051 7.57434 14.7057 7.34866C15.2589 6.68142 15.6183 5.74514 15.6183 4.69666C15.6183 2.80334 14.4918 1.23411 13.0501 1.04675C13.0262 1.04314 13.0016 1.04138 12.9769 1.04065C12.9585 1.04016 12.9406 1.04016 12.922 1.04065L12.922 1.0407ZM3.60342 1.07424C3.58769 1.07415 3.57236 1.07439 3.55615 1.07571C2.16689 1.19436 1.18945 2.67297 1.18945 4.12747C1.18945 4.7676 1.75127 5.41067 2.30186 5.18342C2.50713 5.09866 2.73237 5.0301 2.97021 4.97737C3.81787 5.9741 4.66611 6.01301 5.51382 5.00178C5.70132 5.05051 5.87793 5.11189 6.03726 5.18342C6.58135 5.42776 7.52031 4.76858 7.52031 4.12747C7.52031 2.65369 6.55679 1.13577 5.15215 1.07571C4.554 1.05022 4.50957 1.86707 4.41216 2.61692C4.33794 1.77786 4.09102 1.07688 3.60342 1.07424ZM12.803 1.96843C13.6661 1.96843 14.3562 2.65852 14.3562 3.52175C14.3562 4.38489 13.6661 5.07512 12.803 5.07512C12.0682 5.07512 11.4589 4.57532 11.2938 3.89407H12.5924V2.98157H11.3442C11.562 2.38806 12.1304 1.96838 12.803 1.96838L12.803 1.96843ZM21.0885 6.09133C20.8448 6.41584 20.5819 6.77151 20.4171 7.21292C20.3844 7.30032 20.3574 7.39187 20.3347 7.48601L20.3254 7.47834C19.9595 7.1783 19.5528 7.00051 19.1765 6.83899L18.8164 7.67673C19.1816 7.83347 19.5055 7.9866 19.7472 8.18479C19.7837 8.21472 19.8175 8.24602 19.851 8.27786C19.8395 8.29543 19.8279 8.31321 19.8174 8.33132C19.0923 9.57874 20.5908 13.1557 22.0543 13.1119C23.4697 13.07 24.7334 9.51648 23.9953 8.33137C23.9647 8.28245 23.9303 8.23582 23.893 8.19099C23.9121 8.15437 23.9311 8.11814 23.9479 8.08113C24.1435 7.65251 24.2096 7.21492 24.2668 6.81306L23.3635 6.68494C23.3098 7.06238 23.2482 7.3988 23.1285 7.67371C22.9516 7.60437 22.7604 7.55041 22.5624 7.51355C21.8555 7.49661 21.6148 7.93269 21.3341 8.61365C21.4145 8.15466 21.3844 7.8155 21.2623 7.55925C21.2656 7.55017 21.2682 7.54094 21.2715 7.53181C21.379 7.24373 21.5814 6.95388 21.8178 6.63923L21.0884 6.09138L21.0885 6.09133ZM3.73926 6.65432V7.56531H4.65332V6.65432H3.73926ZM14.3364 8.43362C15.0642 8.43362 15.668 8.92336 15.8395 9.59475H14.428V10.5073H15.7998C15.5878 11.1107 15.0165 11.5387 14.3364 11.5387C13.4733 11.5387 12.7831 10.85 12.7831 9.98689C12.7831 9.12385 13.4734 8.43367 14.3365 8.43367L14.3364 8.43362ZM3.73926 8.47932V9.34749H4.65332V8.47932H3.73926ZM3.73926 10.2601V11.1328H4.65332V10.26H3.73926V10.2601Z" fill="#2C5F8D"/>
</svg>
