<svg width="20" height="20" viewBox="0 0 20 20" fill="none" xmlns="http://www.w3.org/2000/svg">
<g clip-path="url(#clip0_2001_113688)">
<path d="M9.61605 16.6666H1.99734C1.26098 16.6666 0.664062 16.0697 0.664062 15.3334V14H10.8968L9.61605 16.6666Z" fill="#D3DCFB"/>
<path d="M17.9987 5.99938V15.3327H1.99734C1.26098 15.3327 0.664062 14.7357 0.664062 13.9993V5.99938L9.99805 2.66602L17.9987 5.99938Z" fill="#EBF5FC"/>
<path d="M3.02082 8.66731H2.3125C2.22962 8.66731 2.15013 8.63438 2.09153 8.57578C2.03292 8.51717 2 8.43769 2 8.35481V7.64648C2 7.5636 2.03292 7.48412 2.09153 7.42551C2.15013 7.36691 2.22962 7.33398 2.3125 7.33398H3.02082C3.1037 7.33398 3.18319 7.36691 3.24179 7.42551C3.3004 7.48412 3.33332 7.5636 3.33332 7.64648V8.35481C3.33332 8.43769 3.3004 8.51717 3.24179 8.57578C3.18319 8.63438 3.1037 8.66731 3.02082 8.66731ZM5.6875 8.66731H4.97918C4.8963 8.66731 4.81681 8.63438 4.75821 8.57578C4.6996 8.51717 4.66668 8.43769 4.66668 8.35481V7.64648C4.66668 7.5636 4.6996 7.48412 4.75821 7.42551C4.81681 7.36691 4.8963 7.33398 4.97918 7.33398H5.6875C5.77038 7.33398 5.84987 7.36691 5.90847 7.42551C5.96708 7.48412 6 7.5636 6 7.64648V8.35481C6 8.43769 5.96708 8.51717 5.90847 8.57578C5.84987 8.63438 5.77038 8.66731 5.6875 8.66731ZM8.35414 8.66731H7.64582C7.56294 8.66731 7.48345 8.63438 7.42485 8.57578C7.36624 8.51717 7.33332 8.43769 7.33332 8.35481V7.64648C7.33332 7.5636 7.36624 7.48412 7.42485 7.42551C7.48345 7.36691 7.56294 7.33398 7.64582 7.33398H8.35414C8.43702 7.33398 8.51651 7.36691 8.57511 7.42551C8.63372 7.48412 8.66664 7.5636 8.66664 7.64648V8.35481C8.66664 8.43769 8.63372 8.51717 8.57511 8.57578C8.51651 8.63438 8.43702 8.66731 8.35414 8.66731ZM11.0208 8.66731H10.3125C10.2296 8.66731 10.1501 8.63438 10.0915 8.57578C10.0329 8.51717 10 8.43769 10 8.35481V7.64648C10 7.5636 10.0329 7.48412 10.0915 7.42551C10.1501 7.36691 10.2296 7.33398 10.3125 7.33398H11.0208C11.1037 7.33398 11.1832 7.36691 11.2418 7.42551C11.3004 7.48412 11.3333 7.5636 11.3333 7.64648V8.35481C11.3333 8.43769 11.3004 8.51717 11.2418 8.57578C11.1832 8.63438 11.1037 8.66731 11.0208 8.66731ZM13.687 8.66731H12.9787C12.8958 8.66731 12.8163 8.63438 12.7577 8.57578C12.6991 8.51717 12.6662 8.43769 12.6662 8.35481V7.64648C12.6662 7.5636 12.6991 7.48412 12.7577 7.42551C12.8163 7.36691 12.8958 7.33398 12.9787 7.33398H13.687C13.7699 7.33398 13.8494 7.36691 13.908 7.42551C13.9666 7.48412 13.9995 7.5636 13.9995 7.64648V8.35481C13.9995 8.43769 13.9666 8.51717 13.908 8.57578C13.8494 8.63438 13.7699 8.66731 13.687 8.66731ZM16.3537 8.66731H15.6454C15.5625 8.66731 15.483 8.63438 15.4244 8.57578C15.3658 8.51717 15.3329 8.43769 15.3329 8.35481V7.64648C15.3329 7.5636 15.3658 7.48412 15.4244 7.42551C15.483 7.36691 15.5625 7.33398 15.6454 7.33398H16.3537C16.4366 7.33398 16.5161 7.36691 16.5747 7.42551C16.6333 7.48412 16.6662 7.5636 16.6662 7.64648V8.35481C16.6662 8.43769 16.6333 8.51717 16.5747 8.57578C16.5161 8.63438 16.4366 8.66731 16.3537 8.66731ZM3.02082 11.3339H2.3125C2.22962 11.3339 2.15013 11.301 2.09153 11.2424C2.03292 11.1838 2 11.1043 2 11.0214V10.3131C2 10.2302 2.03292 10.1508 2.09153 10.0922C2.15013 10.0335 2.22962 10.0006 2.3125 10.0006H3.02082C3.1037 10.0006 3.18319 10.0335 3.24179 10.0922C3.3004 10.1508 3.33332 10.2302 3.33332 10.3131V11.0214C3.33332 11.1043 3.3004 11.1838 3.24179 11.2424C3.18319 11.301 3.1037 11.3339 3.02082 11.3339ZM5.6875 11.3339H4.97918C4.8963 11.3339 4.81681 11.301 4.75821 11.2424C4.6996 11.1838 4.66668 11.1043 4.66668 11.0214V10.3131C4.66668 10.2302 4.6996 10.1508 4.75821 10.0922C4.81681 10.0335 4.8963 10.0006 4.97918 10.0006H5.6875C5.77038 10.0006 5.84987 10.0335 5.90847 10.0922C5.96708 10.1508 6 10.2302 6 10.3131V11.0214C6 11.1043 5.96708 11.1838 5.90847 11.2424C5.84987 11.301 5.77038 11.3339 5.6875 11.3339ZM8.35414 11.3339H7.64582C7.56294 11.3339 7.48345 11.301 7.42485 11.2424C7.36624 11.1838 7.33332 11.1043 7.33332 11.0214V10.3131C7.33332 10.2302 7.36624 10.1508 7.42485 10.0922C7.48345 10.0335 7.56294 10.0006 7.64582 10.0006H8.35414C8.43702 10.0006 8.51651 10.0335 8.57511 10.0922C8.63372 10.1508 8.66664 10.2302 8.66664 10.3131V11.0214C8.66664 11.1043 8.63372 11.1838 8.57511 11.2424C8.51651 11.301 8.43702 11.3339 8.35414 11.3339ZM11.3333 11.3339V10.3339C11.3333 10.2902 11.3247 10.2468 11.3079 10.2064C11.2912 10.1659 11.2666 10.1292 11.2357 10.0983C11.2047 10.0673 11.168 10.0427 11.1276 10.026C11.0871 10.0092 11.0438 10.0006 11 10.0006H10.3333C10.2449 10.0006 10.1601 10.0357 10.0976 10.0983C10.0351 10.1608 10 10.2455 10 10.3339V11.0006C10 11.089 10.0351 11.1738 10.0976 11.2363C10.1601 11.2988 10.2449 11.3339 10.3333 11.3339H11.3333ZM3.02082 14.0006H2.3125C2.22962 14.0006 2.15013 13.9677 2.09153 13.9091C2.03292 13.8505 2 13.771 2 13.6881V12.9798C2 12.8969 2.03292 12.8174 2.09153 12.7588C2.15013 12.7002 2.22962 12.6673 2.3125 12.6673H3.02082C3.1037 12.6673 3.18319 12.7002 3.24179 12.7588C3.3004 12.8174 3.33332 12.8969 3.33332 12.9798V13.6881C3.33332 13.771 3.3004 13.8505 3.24179 13.9091C3.18319 13.9677 3.1037 14.0006 3.02082 14.0006ZM5.6875 14.0006H4.97918C4.8963 14.0006 4.81681 13.9677 4.75821 13.9091C4.6996 13.8505 4.66668 13.771 4.66668 13.6881V12.9798C4.66668 12.8969 4.6996 12.8174 4.75821 12.7588C4.81681 12.7002 4.8963 12.6673 4.97918 12.6673H5.6875C5.77038 12.6673 5.84987 12.7002 5.90847 12.7588C5.96708 12.8174 6 12.8969 6 12.9798V13.6881C6 13.771 5.96708 13.8505 5.90847 13.9091C5.84987 13.9677 5.77038 14.0006 5.6875 14.0006ZM8.35414 14.0006H7.64582C7.56294 14.0006 7.48345 13.9677 7.42485 13.9091C7.36624 13.8505 7.33332 13.771 7.33332 13.6881V12.9798C7.33332 12.8969 7.36624 12.8174 7.42485 12.7588C7.48345 12.7002 7.56294 12.6673 7.64582 12.6673H8.35414C8.43702 12.6673 8.51651 12.7002 8.57511 12.7588C8.63372 12.8174 8.66664 12.8969 8.66664 12.9798V13.6881C8.66664 13.771 8.63372 13.8505 8.57511 13.9091C8.51651 13.9677 8.43702 14.0006 8.35414 14.0006Z" fill="#3C58A0"/>
<path d="M16.3435 7.33398H15.6541C15.6123 7.33398 15.5726 7.34219 15.536 7.3566C15.5961 7.38027 15.6477 7.42147 15.6841 7.47485C15.7204 7.52823 15.7399 7.59131 15.7399 7.6559V8.34535C15.7399 8.48144 15.6553 8.59754 15.536 8.64465C15.5726 8.6591 15.6123 8.6673 15.6541 8.6673H16.3435C16.4289 8.6673 16.5108 8.63339 16.5712 8.57302C16.6315 8.51265 16.6655 8.43077 16.6655 8.34539V7.65594C16.6655 7.57055 16.6315 7.48867 16.5712 7.42829C16.5108 7.36792 16.4289 7.33399 16.3435 7.33398ZM13.6768 7.33398H12.9874C12.9457 7.33398 12.9059 7.34219 12.8693 7.3566C12.9294 7.38027 12.981 7.42147 13.0174 7.47485C13.0537 7.52823 13.0732 7.59131 13.0732 7.6559V8.34535C13.0732 8.48144 12.9886 8.59754 12.8693 8.64465C12.9059 8.6591 12.9457 8.6673 12.9874 8.6673H13.6768C13.7191 8.66731 13.761 8.65899 13.8 8.64281C13.8391 8.62663 13.8746 8.60292 13.9045 8.57303C13.9344 8.54314 13.9581 8.50765 13.9743 8.46859C13.9904 8.42953 13.9988 8.38767 13.9987 8.34539V7.65594C13.9988 7.61366 13.9904 7.5718 13.9743 7.53273C13.9581 7.49367 13.9344 7.45818 13.9045 7.42828C13.8746 7.39839 13.8391 7.37467 13.8 7.35849C13.761 7.34231 13.7191 7.33398 13.6768 7.33398ZM11.0106 7.33398H10.3212C10.2795 7.33398 10.2397 7.34219 10.2031 7.3566C10.3225 7.40371 10.407 7.5198 10.407 7.6559V8.34535C10.407 8.48144 10.3225 8.59754 10.2031 8.64465C10.2397 8.6591 10.2795 8.6673 10.3212 8.6673H11.0106C11.096 8.6673 11.1779 8.63339 11.2383 8.57302C11.2986 8.51265 11.3326 8.43077 11.3326 8.34539V7.65594C11.3326 7.57055 11.2986 7.48867 11.2383 7.42829C11.1779 7.36792 11.096 7.33399 11.0106 7.33398ZM8.34395 7.33398H7.65449C7.61277 7.33398 7.57305 7.34219 7.53644 7.3566C7.65578 7.40371 7.74035 7.5198 7.74035 7.6559V8.34535C7.74035 8.48144 7.65578 8.59754 7.53644 8.64465C7.57305 8.6591 7.61277 8.6673 7.65449 8.6673H8.34395C8.42933 8.6673 8.51121 8.63339 8.57159 8.57302C8.63196 8.51265 8.66589 8.43077 8.6659 8.34539V7.65594C8.66589 7.57055 8.63196 7.48867 8.57159 7.42829C8.51121 7.36792 8.42933 7.33399 8.34395 7.33398ZM5.67727 7.33398H4.98781C4.94609 7.33398 4.90637 7.34219 4.86977 7.3566C4.92986 7.38027 4.98144 7.42147 5.0178 7.47485C5.05416 7.52823 5.07362 7.59131 5.07363 7.6559V8.34535C5.07363 8.48144 4.98906 8.59754 4.86977 8.64465C4.90637 8.6591 4.94609 8.6673 4.98781 8.6673H5.67727C5.76265 8.6673 5.84453 8.63339 5.90491 8.57302C5.96528 8.51265 5.99921 8.43077 5.99922 8.34539V7.65594C5.99922 7.57055 5.9653 7.48866 5.90492 7.42828C5.84454 7.3679 5.76265 7.33398 5.67727 7.33398ZM3.01063 7.33398H2.32117C2.27945 7.33398 2.23973 7.34219 2.20312 7.3566C2.32246 7.40371 2.40703 7.5198 2.40703 7.6559V8.34535C2.40703 8.48144 2.32246 8.59754 2.20312 8.64465C2.23973 8.6591 2.27945 8.6673 2.32117 8.6673H3.01063C3.09601 8.6673 3.17789 8.63339 3.23827 8.57302C3.29864 8.51265 3.33257 8.43077 3.33258 8.34539V7.65594C3.33257 7.57055 3.29864 7.48867 3.23827 7.42829C3.17789 7.36792 3.09601 7.33399 3.01063 7.33398ZM3.01063 10.0007H2.32117C2.27945 10.0007 2.23973 10.0089 2.20312 10.0233C2.32246 10.0704 2.40703 10.1865 2.40703 10.3226V11.0121C2.40703 11.1482 2.32246 11.2643 2.20312 11.3114C2.23973 11.3258 2.27945 11.334 2.32117 11.334H3.01063C3.09601 11.334 3.17789 11.3001 3.23827 11.2397C3.29864 11.1794 3.33257 11.0975 3.33258 11.0121V10.3226C3.33257 10.2372 3.29864 10.1553 3.23827 10.095C3.17789 10.0346 3.09601 10.0007 3.01063 10.0007ZM3.01063 12.6673H2.32117C2.27945 12.6673 2.23973 12.6755 2.20312 12.69C2.32246 12.7371 2.40703 12.8532 2.40703 12.9893V13.6788C2.40703 13.8148 2.32246 13.9309 2.20312 13.978C2.23973 13.9925 2.27945 14.0007 2.32117 14.0007H3.01063C3.09601 14.0007 3.17789 13.9668 3.23827 13.9064C3.29864 13.846 3.33257 13.7642 3.33258 13.6788V12.9893C3.33257 12.9039 3.29864 12.822 3.23827 12.7617C3.17789 12.7013 3.09601 12.6674 3.01063 12.6673ZM5.67727 10.0007H4.98781C4.94609 10.0007 4.90637 10.0089 4.86977 10.0233C4.92986 10.0469 4.98144 10.0881 5.0178 10.1415C5.05416 10.1949 5.07362 10.258 5.07363 10.3226V11.0121C5.07363 11.1482 4.98906 11.2643 4.86977 11.3114C4.90637 11.3258 4.94609 11.334 4.98781 11.334H5.67727C5.76265 11.334 5.84453 11.3001 5.90491 11.2397C5.96528 11.1794 5.99921 11.0975 5.99922 11.0121V10.3226C5.99922 10.2372 5.9653 10.1553 5.90492 10.095C5.84454 10.0346 5.76265 10.0007 5.67727 10.0007ZM5.67727 12.6673H4.98781C4.94609 12.6673 4.90637 12.6755 4.86977 12.69C4.92986 12.7136 4.98144 12.7548 5.0178 12.8082C5.05416 12.8616 5.07362 12.9247 5.07363 12.9893V13.6788C5.07363 13.8148 4.98906 13.9309 4.86977 13.978C4.90637 13.9925 4.94609 14.0007 4.98781 14.0007H5.67727C5.76265 14.0007 5.84453 13.9668 5.90491 13.9064C5.96528 13.846 5.99921 13.7642 5.99922 13.6788V12.9893C5.99922 12.947 5.9909 12.9051 5.97472 12.8661C5.95854 12.827 5.93483 12.7915 5.90493 12.7616C5.87504 12.7317 5.83954 12.708 5.80048 12.6918C5.76141 12.6757 5.71955 12.6673 5.67727 12.6673ZM8.34395 10.0007H7.65449C7.61277 10.0007 7.57305 10.0089 7.53644 10.0233C7.65578 10.0704 7.74035 10.1865 7.74035 10.3226V11.0121C7.74035 11.1482 7.65578 11.2643 7.53644 11.3114C7.57305 11.3258 7.61277 11.334 7.65449 11.334H8.34395C8.42933 11.334 8.51121 11.3001 8.57159 11.2397C8.63196 11.1794 8.66589 11.0975 8.6659 11.0121V10.3226C8.66589 10.2372 8.63196 10.1553 8.57159 10.095C8.51121 10.0346 8.42933 10.0007 8.34395 10.0007ZM11.3325 11.334V10.3226C11.3325 10.2803 11.3242 10.2384 11.308 10.1994C11.2919 10.1603 11.2681 10.1248 11.2382 10.0949C11.2083 10.065 11.1728 10.0413 11.1338 10.0252C11.0947 10.009 11.0529 10.0007 11.0106 10.0007H10.3211C10.2794 10.0007 10.2397 10.0089 10.2031 10.0233C10.3224 10.0704 10.407 10.1865 10.407 10.3226V11.0121C10.407 11.1482 10.3224 11.2643 10.2031 11.3114C10.2397 11.3258 10.2794 11.334 10.3211 11.334H11.3325V11.334ZM8.34395 12.6673H7.65449C7.61277 12.6673 7.57305 12.6755 7.53644 12.69C7.65578 12.7371 7.74035 12.8532 7.74035 12.9893V13.6788C7.74035 13.8148 7.65578 13.9309 7.53644 13.978C7.57305 13.9925 7.61277 14.0007 7.65449 14.0007H8.34395C8.42933 14.0007 8.51121 13.9668 8.57159 13.9064C8.63196 13.846 8.66589 13.7642 8.6659 13.6788V12.9893C8.6659 12.947 8.65757 12.9052 8.64139 12.8661C8.62521 12.827 8.6015 12.7915 8.5716 12.7616C8.5417 12.7317 8.50621 12.708 8.46715 12.6919C8.42809 12.6757 8.38622 12.6673 8.34395 12.6673Z" fill="#2A428C"/>
<path d="M17.0703 5.61328V15.3325H17.9965V5.99918L17.0703 5.61328Z" fill="#D3DCFB"/>
<path d="M17.9987 6.00063V2.66727C17.9987 1.9309 17.4017 1.33398 16.6654 1.33398H1.99734C1.26098 1.33398 0.664062 1.9309 0.664062 2.66727V6.00063H17.9987Z" fill="#FF4155"/>
<path d="M4.86496 2.96883H3.99711C3.91707 2.96883 3.8403 2.93703 3.78371 2.88043C3.72711 2.82384 3.69531 2.74707 3.69531 2.66703C3.69531 2.58699 3.72711 2.51023 3.78371 2.45363C3.8403 2.39703 3.91707 2.36523 3.99711 2.36523H4.86496C4.945 2.36523 5.02177 2.39703 5.07836 2.45363C5.13496 2.51023 5.16676 2.58699 5.16676 2.66703C5.16676 2.74707 5.13496 2.82384 5.07836 2.88043C5.02177 2.93703 4.945 2.96883 4.86496 2.96883ZM6.99707 2.96883H6.12922C6.04918 2.96883 5.97241 2.93703 5.91582 2.88043C5.85922 2.82384 5.82742 2.74707 5.82742 2.66703C5.82742 2.58699 5.85922 2.51023 5.91582 2.45363C5.97241 2.39703 6.04918 2.36523 6.12922 2.36523H6.99707C7.16379 2.36523 7.29887 2.50035 7.29887 2.66703C7.29887 2.83371 7.16379 2.96883 6.99707 2.96883ZM12.5321 2.96883H11.6642C11.5841 2.96883 11.5074 2.93703 11.4508 2.88043C11.3942 2.82384 11.3624 2.74707 11.3624 2.66703C11.3624 2.58699 11.3942 2.51023 11.4508 2.45363C11.5074 2.39703 11.5841 2.36523 11.6642 2.36523H12.5321C12.6988 2.36523 12.8339 2.50035 12.8339 2.66703C12.8339 2.83371 12.6988 2.96883 12.5321 2.96883ZM14.6642 2.96883H13.7963C13.7163 2.96883 13.6395 2.93703 13.5829 2.88043C13.5263 2.82384 13.4945 2.74707 13.4945 2.66703C13.4945 2.58699 13.5263 2.51023 13.5829 2.45363C13.6395 2.39703 13.7163 2.36523 13.7963 2.36523H14.6642C14.7443 2.36523 14.821 2.39703 14.8776 2.45363C14.9342 2.51023 14.966 2.58699 14.966 2.66703C14.966 2.74707 14.9342 2.82384 14.8776 2.88043C14.821 2.93703 14.7443 2.96883 14.6642 2.96883Z" fill="#E80054"/>
<path d="M6.3307 2.5C6.3307 2.96023 5.95762 3.33332 5.49738 3.33332C5.03715 3.33332 4.66406 2.96023 4.66406 2.5V0.83332C4.66402 0.373086 5.03711 0 5.49734 0C5.95758 0 6.33066 0.373086 6.33066 0.83332V2.5H6.3307ZM13.9978 2.5C13.9978 2.96023 13.6247 3.33332 13.1645 3.33332C12.7043 3.33332 12.3311 2.96023 12.3311 2.5V0.83332C12.3311 0.373086 12.7042 0 13.1645 0C13.6247 0 13.9978 0.373086 13.9978 0.83332V2.5H13.9978Z" fill="#EBF5FC"/>
<path d="M13.1607 0C12.9896 0 12.8307 0.0517188 12.6984 0.140156C12.922 0.289609 13.0694 0.54418 13.0694 0.833359V2.5C13.0694 2.78914 12.922 3.04375 12.6984 3.1932C12.8352 3.28477 12.9961 3.33355 13.1607 3.33336C13.6209 3.33336 13.994 2.96027 13.994 2.50004V0.83332C13.9941 0.373086 13.621 0 13.1607 0ZM5.49359 0C5.3225 0 5.16359 0.0517188 5.03125 0.140156C5.25488 0.289609 5.40227 0.54418 5.40227 0.833359V2.5C5.40227 2.78914 5.25488 3.04375 5.03125 3.1932C5.16804 3.28477 5.32899 3.33355 5.49359 3.33336C5.95383 3.33336 6.32691 2.96027 6.32691 2.50004V0.83332C6.32695 0.373086 5.95387 0 5.49359 0Z" fill="#D3DCFB"/>
<path d="M16.6681 1.33398H15.7422C16.4786 1.33398 17.0755 1.9309 17.0755 2.66727V6.00066H18.0013V2.6673C18.0014 1.93094 17.4044 1.33398 16.6681 1.33398Z" fill="#E80054"/>
<path d="M0.664062 4.36523H17.9987V4.96887H0.664062V4.36523Z" fill="#E80054"/>
<path d="M14.3281 20C17.0895 20 19.3281 17.7614 19.3281 15C19.3281 12.2386 17.0895 10 14.3281 10C11.5667 10 9.32812 12.2386 9.32812 15C9.32812 17.7614 11.5667 20 14.3281 20Z" fill="#4FABF7"/>
<path d="M14.3307 18.6673C16.3558 18.6673 17.9974 17.0257 17.9974 15.0007C17.9974 12.9756 16.3558 11.334 14.3307 11.334C12.3057 11.334 10.6641 12.9756 10.6641 15.0007C10.6641 17.0257 12.3057 18.6673 14.3307 18.6673Z" fill="#EBF5FC"/>
<path d="M14.333 14.6355C14.2934 14.6355 14.2542 14.6277 14.2175 14.6125C14.1809 14.5974 14.1477 14.5751 14.1196 14.5471C14.0916 14.5191 14.0694 14.4858 14.0542 14.4492C14.039 14.4126 14.0312 14.3733 14.0313 14.3337V12.667C14.0313 12.587 14.063 12.5102 14.1196 12.4536C14.1762 12.397 14.253 12.3652 14.333 12.3652C14.4131 12.3652 14.4899 12.397 14.5464 12.4536C14.603 12.5102 14.6348 12.587 14.6348 12.667V14.3337C14.6348 14.4138 14.603 14.4905 14.5464 14.5471C14.4899 14.6037 14.4131 14.6355 14.333 14.6355ZM15.9997 15.3022H14.9997C14.9196 15.3022 14.8429 15.2704 14.7863 15.2138C14.7297 15.1572 14.6979 15.0804 14.6979 15.0004C14.6979 14.9203 14.7297 14.8436 14.7863 14.787C14.8429 14.7304 14.9196 14.6986 14.9997 14.6986H15.9997C16.0798 14.6986 16.1565 14.7304 16.2131 14.787C16.2697 14.8436 16.3015 14.9203 16.3015 15.0004C16.3015 15.0804 16.2697 15.1572 16.2131 15.2138C16.1565 15.2704 16.0798 15.3022 15.9997 15.3022Z" fill="#3C58A0"/>
<path d="M14.33 10C14.1739 10 14.0196 10.0075 13.8672 10.0215C16.4116 10.2551 18.4044 12.3946 18.4044 15C18.4044 17.6054 16.4116 19.7449 13.8672 19.9785C14.0196 19.9925 14.1739 20 14.33 20C17.0914 20 19.33 17.7614 19.33 15C19.33 12.2386 17.0914 10 14.33 10Z" fill="#1886EA"/>
<path d="M14.3296 11.334C14.173 11.334 14.0187 11.3439 13.8672 11.3629C15.6739 11.5903 17.0714 13.1323 17.0714 15.0007C17.0714 16.8691 15.6739 18.411 13.8672 18.6384C14.0187 18.6575 14.173 18.6673 14.3296 18.6673C16.3547 18.6673 17.9963 17.0257 17.9963 15.0007C17.9963 12.9756 16.3547 11.334 14.3296 11.334Z" fill="#D3DCFB"/>
<path d="M14.3307 15.6673C14.6989 15.6673 14.9974 15.3689 14.9974 15.0007C14.9974 14.6325 14.6989 14.334 14.3307 14.334C13.9625 14.334 13.6641 14.6325 13.6641 15.0007C13.6641 15.3689 13.9625 15.6673 14.3307 15.6673Z" fill="#FFDD40"/>
</g>
<defs>
<clipPath id="clip0_2001_113688">
<rect width="20" height="20" fill="white"/>
</clipPath>
</defs>
</svg>
