<?xml version="1.0" encoding="UTF-8"?>
<svg xmlns="http://www.w3.org/2000/svg" xmlns:xlink="http://www.w3.org/1999/xlink" width="3750" height="2501.25" viewBox="0 0 3750 2501.25">

<path fill-rule="nonzero" fill="rgb(83.59375%, 96.484375%, 100%)" fill-opacity="1" d="M 2850.820312 1953.519531 C 2744.578125 2033.722656 2595.070312 2112.765625 2408.929688 2086.902344 C 2222.800781 2061.039062 2000.039062 1930.273438 1843.261719 1883.777344 C 1686.480469 1837.28125 1595.691406 1875.058594 1507.910156 1926.785156 C 1420.140625 1978.511719 1335.398438 2044.183594 1244.300781 2071.210938 C 1153.199219 2098.234375 1055.738281 2086.613281 962.519531 1996.816406 C 869.300781 1907.023438 780.316406 1739.058594 789.699219 1588.242188 C 799.082031 1437.421875 906.828125 1303.75 918.328125 1155.839844 C 929.832031 1007.921875 845.085938 845.769531 833.890625 721.109375 C 822.691406 596.441406 885.035156 509.261719 1010.339844 497.640625 C 1135.640625 486.019531 1323.898438 549.949219 1433.578125 555.648438 C 1543.261719 561.339844 1574.359375 508.808594 1700.570312 435.871094 C 1826.78125 362.929688 2048.101562 269.589844 2229.570312 256.039062 C 2411.050781 242.5 2552.699219 308.75 2640.160156 373.851562 C 3219.050781 716.730469 3375.671875 1552.183594 2850.820312 1953.519531 "/>
<path fill-rule="nonzero" fill="rgb(83.59375%, 96.484375%, 100%)" fill-opacity="1" d="M 1728.628906 1922.5625 C 1833.328125 1908.496094 1978.570312 2032.820312 2147.609375 2037.085938 C 2316.640625 2041.347656 2509.46875 1925.546875 2596.769531 1783.074219 C 2684.058594 1640.597656 2665.820312 1471.449219 2722.261719 1349.480469 C 2778.710938 1227.519531 2909.828125 1152.738281 2973.550781 1054.628906 C 3037.261719 956.519531 3033.570312 835.078125 2972.648438 736.648438 C 2911.71875 638.210938 2793.570312 562.789062 2677.089844 559.75 C 2560.609375 556.71875 2445.820312 626.070312 2267.671875 596.878906 C 2089.511719 567.699219 1848 439.96875 1560.828125 467.921875 C 1273.648438 495.871094 940.820312 679.488281 741.246094 906.730469 C 541.675781 1133.96875 475.363281 1404.808594 528.464844 1608.066406 C 581.566406 1811.320312 754.078125 1946.992188 935.175781 2041.304688 C 1116.269531 2135.613281 1305.949219 2188.566406 1432.859375 2138.816406 C 1559.78125 2089.070312 1623.941406 1936.621094 1728.628906 1922.5625 "/>
<path fill-rule="nonzero" fill="rgb(68.554688%, 86.71875%, 91.40625%)" fill-opacity="1" d="M 2670.261719 1209.691406 C 2614.96875 1245.199219 2552.550781 1311.171875 2488.160156 1336.871094 C 2423.78125 1362.570312 2357.441406 1347.980469 2318.179688 1303.269531 C 2278.929688 1258.558594 2266.761719 1183.730469 2283.109375 1128.871094 C 2299.449219 1074.011719 2344.320312 1039.128906 2358.011719 995.390625 C 2371.699219 951.640625 2354.21875 899.039062 2342.851562 847.871094 C 2331.480469 796.699219 2326.230469 746.96875 2346.160156 727.671875 C 2366.101562 708.359375 2411.21875 719.480469 2443.550781 739.851562 C 2475.878906 760.21875 2495.421875 789.820312 2523.460938 782.121094 C 2551.5 774.421875 2588.03125 729.421875 2603.558594 680.238281 C 2619.089844 631.058594 2613.609375 577.699219 2636.289062 534.539062 C 2658.96875 491.378906 2709.820312 458.421875 2748.660156 464.238281 C 2787.511719 470.050781 2814.359375 514.648438 2818.011719 561.710938 C 2821.660156 608.769531 2802.101562 658.269531 2789.300781 696.859375 C 2776.488281 735.460938 2770.421875 763.128906 2792.671875 771.929688 C 2814.921875 780.738281 2865.480469 770.679688 2885.75 784.640625 C 2906.03125 798.589844 2896.019531 836.558594 2868.289062 857.859375 C 2840.558594 879.160156 2795.109375 883.789062 2759.589844 918.058594 C 2724.070312 952.328125 2698.480469 1016.238281 2724.789062 1037.75 C 2751.109375 1059.25 2829.339844 1038.339844 2854.171875 1052.320312 C 2879 1066.308594 2850.429688 1115.179688 2812.070312 1142.148438 C 2773.699219 1169.109375 2725.550781 1174.171875 2670.261719 1209.691406 "/>
<path fill-rule="nonzero" fill="rgb(100%, 100%, 100%)" fill-opacity="1" d="M 2728.960938 698.078125 C 2728.578125 698.078125 2728.210938 698.210938 2727.921875 698.441406 C 2700.359375 719.691406 2672.320312 741.449219 2654.621094 802.011719 C 2636.929688 862.578125 2629.308594 961.558594 2591.539062 1045.171875 C 2553.769531 1128.78125 2485.679688 1197.460938 2417.429688 1266.238281 C 2416.988281 1266.660156 2416.820312 1267.289062 2416.96875 1267.878906 C 2417.128906 1268.460938 2417.589844 1268.921875 2418.179688 1269.070312 C 2418.769531 1269.21875 2419.390625 1269.050781 2419.808594 1268.609375 C 2488.070312 1199.820312 2556.5 1130.921875 2594.609375 1046.558594 C 2632.71875 962.199219 2640.359375 862.820312 2657.851562 802.949219 C 2675.339844 743.089844 2702.410156 722.351562 2729.96875 701.109375 C 2730.550781 700.671875 2730.789062 699.921875 2730.558594 699.230469 C 2730.328125 698.539062 2729.679688 698.078125 2728.960938 698.078125 "/>
<path fill-rule="nonzero" fill="rgb(100%, 100%, 100%)" fill-opacity="1" d="M 2482.78125 1182.171875 C 2482.46875 1182.140625 2492.480469 1152.660156 2497.789062 1107.710938 C 2500.25 1086.929688 2501.371094 1061.640625 2496.058594 1037.390625 C 2495.878906 1036.570312 2495.691406 1035.75 2495.488281 1034.929688 C 2489.859375 1011.390625 2478.921875 991.488281 2468.800781 976.039062 C 2445.828125 940.898438 2425.261719 922.320312 2425.441406 922.128906 C 2424.671875 922.941406 2443.058594 944.128906 2464.960938 979.410156 C 2474.578125 994.929688 2485.101562 1014.550781 2490.46875 1037.148438 C 2490.660156 1037.941406 2490.839844 1038.71875 2491.011719 1039.511719 C 2496.160156 1062.699219 2495.289062 1087.371094 2493.308594 1107.78125 C 2489 1151.980469 2481.839844 1182.070312 2482.78125 1182.171875 "/>
<path fill-rule="nonzero" fill="rgb(68.554688%, 86.71875%, 91.40625%)" fill-opacity="1" d="M 1242.738281 1371.378906 C 1298.03125 1406.890625 1360.449219 1472.871094 1424.839844 1498.558594 C 1489.21875 1524.257812 1555.558594 1509.675781 1594.820312 1464.96875 C 1634.078125 1420.261719 1646.238281 1345.421875 1629.898438 1290.558594 C 1613.550781 1235.699219 1568.679688 1200.820312 1554.988281 1157.078125 C 1541.300781 1113.339844 1558.78125 1060.730469 1570.148438 1009.558594 C 1581.519531 958.390625 1586.769531 908.660156 1566.839844 889.359375 C 1546.898438 870.058594 1501.78125 881.179688 1469.449219 901.539062 C 1437.121094 921.910156 1417.578125 951.519531 1389.539062 943.820312 C 1361.5 936.121094 1324.96875 891.109375 1309.441406 841.929688 C 1293.910156 792.75 1299.390625 739.390625 1276.710938 696.230469 C 1254.03125 653.070312 1203.179688 620.109375 1164.339844 625.929688 C 1125.488281 631.75 1098.640625 676.351562 1094.988281 723.398438 C 1091.339844 770.460938 1110.898438 819.96875 1123.710938 858.558594 C 1136.519531 897.148438 1142.578125 924.820312 1120.328125 933.621094 C 1098.078125 942.429688 1047.53125 932.371094 1027.25 946.328125 C 1006.96875 960.289062 1016.980469 998.261719 1044.710938 1019.558594 C 1072.441406 1040.859375 1117.890625 1045.480469 1153.410156 1079.75 C 1188.929688 1114.019531 1214.519531 1177.941406 1188.210938 1199.441406 C 1161.890625 1220.941406 1083.660156 1200.039062 1058.828125 1214.019531 C 1034 1228 1062.570312 1276.871094 1100.929688 1303.839844 C 1139.300781 1330.800781 1187.449219 1335.859375 1242.738281 1371.378906 "/>
<path fill-rule="nonzero" fill="rgb(100%, 100%, 100%)" fill-opacity="1" d="M 1176.101562 854.101562 C 1175.328125 854.121094 1174.671875 854.621094 1174.441406 855.351562 C 1174.199219 856.078125 1174.460938 856.878906 1175.070312 857.339844 C 1204.550781 880.058594 1233.5 902.238281 1252.210938 966.269531 C 1270.910156 1030.300781 1279.089844 1136.589844 1319.851562 1226.808594 C 1360.609375 1317.039062 1433.800781 1390.738281 1506.800781 1464.308594 C 1507.25 1464.769531 1507.921875 1464.960938 1508.550781 1464.800781 C 1509.179688 1464.640625 1509.671875 1464.148438 1509.839844 1463.519531 C 1510 1462.898438 1509.820312 1462.230469 1509.351562 1461.769531 C 1436.351562 1388.199219 1363.53125 1314.761719 1323.128906 1225.328125 C 1282.730469 1135.910156 1274.589844 1030.039062 1255.660156 965.261719 C 1236.738281 900.480469 1206.738281 877.210938 1177.269531 854.488281 C 1176.941406 854.21875 1176.519531 854.089844 1176.101562 854.101562 "/>
<path fill-rule="nonzero" fill="rgb(100%, 100%, 100%)" fill-opacity="1" d="M 1430.21875 1343.871094 C 1430.53125 1343.828125 1420.519531 1314.351562 1415.210938 1269.398438 C 1412.75 1248.628906 1411.628906 1223.339844 1416.941406 1199.089844 C 1417.121094 1198.261719 1417.308594 1197.449219 1417.511719 1196.628906 C 1423.140625 1173.078125 1434.078125 1153.191406 1444.199219 1137.730469 C 1467.171875 1102.589844 1487.738281 1084.011719 1487.558594 1083.820312 C 1488.328125 1084.628906 1469.941406 1105.820312 1448.039062 1141.101562 C 1438.421875 1156.628906 1427.898438 1176.238281 1422.53125 1198.839844 C 1422.339844 1199.628906 1422.160156 1200.421875 1421.988281 1201.210938 C 1416.839844 1224.390625 1417.710938 1249.070312 1419.691406 1269.480469 C 1424.011719 1313.679688 1431.160156 1343.769531 1430.21875 1343.871094 "/>
<path fill-rule="nonzero" fill="rgb(0%, 26.660156%, 33.325195%)" fill-opacity="1" d="M 1965.5 1658.53125 C 1973.199219 1706.59375 1992.230469 1758.230469 2020.011719 1806.398438 C 2033.648438 1829.925781 2049.140625 1852.1875 2065.949219 1872.441406 L 2065.949219 1873.152344 L 1771.761719 1873.152344 L 1771.761719 1872.671875 C 1788.578125 1852.339844 1804.070312 1829.996094 1817.699219 1806.398438 C 1845.441406 1758.210938 1864.441406 1706.578125 1872.089844 1658.53125 L 1965.5 1658.53125 "/>
<path fill-rule="nonzero" fill="rgb(100%, 100%, 100%)" fill-opacity="1" d="M 2466.808594 868.671875 L 1391.769531 868.671875 C 1352.570312 868.671875 1321.019531 902.789062 1321.019531 945.171875 L 1321.019531 1640.03125 C 1321.019531 1682.410156 1352.570312 1716.53125 1391.769531 1716.53125 L 2466.808594 1716.53125 C 2506.011719 1716.53125 2537.570312 1682.410156 2537.570312 1640.03125 L 2537.570312 945.171875 C 2537.570312 902.789062 2506.011719 868.671875 2466.808594 868.671875 "/>
<path fill-rule="nonzero" fill="rgb(0%, 39.988708%, 50.193787%)" fill-opacity="1" d="M 2466.808594 868.671875 C 2506.011719 868.671875 2537.570312 902.789062 2537.570312 945.171875 L 2537.570312 1601.78125 L 1321.019531 1601.78125 L 1321.019531 945.171875 C 1321.019531 902.789062 1352.570312 868.671875 1391.769531 868.671875 L 2466.808594 868.671875 "/>
<path fill-rule="nonzero" fill="rgb(0%, 26.660156%, 33.325195%)" fill-opacity="1" d="M 2475.660156 932.421875 L 1382.929688 932.421875 L 1382.929688 1538.03125 L 2475.660156 1538.03125 L 2475.660156 932.421875 "/>
<path fill-rule="nonzero" fill="rgb(100%, 100%, 100%)" fill-opacity="1" d="M 2410.308594 1538.019531 C 2395.539062 1537.867188 2382.351562 1540.316406 2371.699219 1544.386719 C 2345.5 1554.410156 2334.75 1574.261719 2335.140625 1604.875 C 2335.53125 1635.488281 2347.050781 1676.867188 2369.621094 1715.003906 C 2392.179688 1753.140625 2425.78125 1788.035156 2462.101562 1818.941406 C 2498.410156 1849.851562 2512.960938 1851.707031 2539.148438 1878.039062 C 2565.351562 1851.707031 2579.898438 1849.851562 2616.210938 1818.941406 C 2652.519531 1788.035156 2686.128906 1753.140625 2708.691406 1715.003906 C 2731.25 1676.867188 2742.78125 1635.488281 2743.171875 1604.875 C 2743.558594 1574.261719 2732.808594 1554.410156 2706.609375 1544.386719 C 2680.398438 1534.363281 2638.738281 1534.171875 2596.199219 1558.390625 C 2576.96875 1569.339844 2557.558594 1585.289062 2539.148438 1603.367188 C 2520.75 1585.289062 2501.339844 1569.339844 2482.109375 1558.390625 C 2456.851562 1544.011719 2431.898438 1538.238281 2410.308594 1538.019531 "/>
<path fill-rule="nonzero" fill="rgb(0%, 26.660156%, 33.325195%)" fill-opacity="1" d="M 2078.320312 1863.941406 L 1759.378906 1863.941406 C 1749.011719 1863.941406 1740.648438 1872.296875 1740.648438 1882.671875 C 1740.648438 1893.050781 1749.011719 1901.402344 1759.378906 1901.402344 L 2078.320312 1901.402344 C 2088.699219 1901.402344 2097.058594 1893.050781 2097.058594 1882.671875 C 2097.058594 1872.296875 2088.699219 1863.941406 2078.320312 1863.941406 "/>
<path fill-rule="nonzero" fill="rgb(100%, 100%, 100%)" fill-opacity="1" d="M 2308.441406 558.339844 L 2665.371094 558.339844 L 2665.371094 1045.390625 L 2308.441406 1045.390625 L 2308.441406 558.339844 "/>
<path fill-rule="nonzero" fill="rgb(100%, 50.193787%, 50.193787%)" fill-opacity="1" d="M 2294.820312 538.410156 C 2293.800781 538.410156 2292.980469 539.410156 2292.980469 540.300781 L 2292.980469 1059.140625 C 2292.980469 1060.191406 2293.800781 1061.03125 2294.820312 1061.03125 L 2684.269531 1061.03125 C 2685.289062 1061.03125 2686.109375 1060.191406 2686.109375 1059.140625 L 2686.109375 540.300781 C 2686.109375 539.25 2685.289062 538.410156 2684.269531 538.410156 Z M 2325.710938 570.339844 L 2652.898438 570.339844 C 2653.75 570.339844 2654.441406 571.078125 2654.441406 572 L 2654.441406 1026.628906 C 2654.441406 1027.550781 2653.75 1028.289062 2652.898438 1028.289062 L 2325.710938 1028.289062 C 2324.851562 1028.289062 2324.160156 1027.550781 2324.160156 1026.628906 L 2324.160156 572 C 2324.160156 571.21875 2324.851562 570.339844 2325.710938 570.339844 "/>
<path fill-rule="nonzero" fill="rgb(100%, 50.193787%, 50.193787%)" fill-opacity="1" d="M 2403.679688 553.761719 L 2575.230469 553.761719 C 2602.421875 553.761719 2601 607.378906 2576.589844 607.5 L 2403.679688 608.398438 C 2376.050781 608.539062 2376.488281 553.761719 2403.679688 553.761719 "/>
<path fill-rule="nonzero" fill="rgb(100%, 50.193787%, 50.193787%)" fill-opacity="1" d="M 2439.71875 518.589844 C 2438.671875 518.589844 2437.820312 519.429688 2437.820312 520.480469 L 2437.820312 568.878906 C 2437.820312 569.929688 2438.671875 570.78125 2439.71875 570.78125 L 2541.371094 570.78125 C 2542.421875 570.78125 2543.269531 569.929688 2543.269531 568.878906 L 2543.269531 520.480469 C 2543.269531 519.429688 2542.421875 518.589844 2541.371094 518.589844 L 2516.621094 518.589844 C 2511.679688 528.78125 2501.570312 535.230469 2490.511719 535.238281 C 2479.429688 535.238281 2469.308594 528.789062 2464.371094 518.589844 L 2439.71875 518.589844 "/>
<path fill-rule="nonzero" fill="rgb(100%, 50.193787%, 50.193787%)" fill-opacity="1" d="M 2429.21875 890.03125 L 2419.960938 935.980469 L 2405.679688 935.449219 L 2402.980469 938.191406 L 2399.679688 925.269531 L 2394.890625 925.410156 L 2389.921875 951.128906 L 2381.890625 936.910156 L 2337.410156 936.578125 L 2337.371094 941.488281 L 2379.011719 941.789062 L 2392.199219 965.171875 L 2397.628906 937.101562 L 2400.371094 947.808594 L 2407.648438 940.441406 L 2423.949219 941.039062 L 2430.949219 906.300781 L 2438.238281 970.5 L 2443.078125 970.71875 L 2451.730469 929.238281 L 2460.660156 951.339844 L 2469.070312 935.410156 L 2471.300781 942.78125 L 2508.230469 943.171875 L 2508.28125 938.261719 L 2474.960938 937.910156 L 2470.320312 922.53125 L 2461.25 939.710938 L 2450.21875 912.421875 L 2441.390625 954.761719 L 2434.070312 890.238281 L 2429.21875 890.03125 "/>
<path fill-rule="nonzero" fill="rgb(100%, 50.193787%, 50.193787%)" fill-opacity="1" d="M 2564.960938 891.351562 L 2555.699219 937.289062 L 2541.421875 936.769531 L 2538.71875 939.5 L 2535.421875 926.589844 L 2530.628906 926.730469 L 2525.660156 952.449219 L 2517.628906 938.21875 L 2473.148438 937.890625 L 2473.109375 942.800781 L 2514.75 943.109375 L 2527.941406 966.488281 L 2533.371094 938.410156 L 2536.109375 949.128906 L 2543.390625 941.75 L 2559.691406 942.351562 L 2566.691406 907.621094 L 2573.980469 971.808594 L 2578.820312 972.039062 L 2587.46875 930.558594 L 2596.410156 952.660156 L 2604.820312 936.71875 L 2607.039062 944.101562 L 2643.96875 944.488281 L 2644.019531 939.578125 L 2610.699219 939.230469 L 2606.058594 923.839844 L 2596.988281 941.019531 L 2585.960938 913.730469 L 2577.128906 956.078125 L 2569.808594 891.558594 L 2564.960938 891.351562 "/>
<path fill-rule="nonzero" fill="rgb(100%, 50.193787%, 50.193787%)" fill-opacity="1" d="M 2636.238281 684.828125 L 2487.960938 685.53125 C 2486.769531 685.519531 2485.671875 686.148438 2485.070312 687.179688 C 2484.480469 688.210938 2484.480469 689.480469 2485.089844 690.5 C 2485.691406 691.53125 2486.800781 692.148438 2487.988281 692.128906 L 2636.28125 691.429688 C 2637.46875 691.441406 2638.570312 690.808594 2639.171875 689.78125 C 2639.761719 688.75 2639.761719 687.480469 2639.148438 686.449219 C 2638.539062 685.429688 2637.429688 684.808594 2636.238281 684.828125 "/>
<path fill-rule="nonzero" fill="rgb(100%, 50.193787%, 50.193787%)" fill-opacity="1" d="M 2628.21875 782.238281 L 2387.671875 782.660156 C 2386.808594 782.648438 2386.019531 783.101562 2385.589844 783.839844 C 2385.160156 784.578125 2385.160156 785.488281 2385.589844 786.21875 C 2386.019531 786.960938 2386.808594 787.410156 2387.671875 787.398438 L 2628.21875 786.96875 C 2629.070312 786.988281 2629.871094 786.539062 2630.300781 785.800781 C 2630.730469 785.058594 2630.730469 784.148438 2630.300781 783.410156 C 2629.871094 782.671875 2629.070312 782.230469 2628.21875 782.238281 "/>
<path fill-rule="nonzero" fill="rgb(100%, 50.193787%, 50.193787%)" fill-opacity="1" d="M 2628.21875 803.679688 L 2347.71875 804.101562 C 2346.800781 804.078125 2345.929688 804.558594 2345.460938 805.359375 C 2344.988281 806.160156 2344.988281 807.148438 2345.460938 807.949219 C 2345.929688 808.75 2346.800781 809.230469 2347.71875 809.210938 L 2628.21875 808.789062 C 2629.128906 808.789062 2629.980469 808.308594 2630.441406 807.511719 C 2630.898438 806.71875 2630.898438 805.738281 2630.441406 804.949219 C 2629.980469 804.160156 2629.128906 803.671875 2628.21875 803.679688 "/>
<path fill-rule="nonzero" fill="rgb(100%, 50.193787%, 50.193787%)" fill-opacity="1" d="M 2628.21875 824.621094 L 2347.71875 825.039062 C 2346.800781 825.019531 2345.929688 825.511719 2345.460938 826.300781 C 2344.988281 827.101562 2344.988281 828.089844 2345.460938 828.890625 C 2345.929688 829.691406 2346.800781 830.171875 2347.71875 830.148438 L 2628.21875 829.730469 C 2629.148438 829.75 2630.011719 829.269531 2630.480469 828.46875 C 2630.949219 827.671875 2630.949219 826.679688 2630.480469 825.878906 C 2630.011719 825.078125 2629.148438 824.601562 2628.21875 824.621094 "/>
<path fill-rule="nonzero" fill="rgb(100%, 50.193787%, 50.193787%)" fill-opacity="1" d="M 2586.078125 846.25 L 2346.988281 846.738281 C 2346.070312 846.730469 2345.230469 847.210938 2344.769531 848 C 2344.308594 848.789062 2344.308594 849.769531 2344.78125 850.550781 C 2345.238281 851.339844 2346.089844 851.820312 2347.011719 851.800781 L 2586.101562 851.308594 C 2587 851.308594 2587.839844 850.820312 2588.289062 850.039062 C 2588.738281 849.25 2588.738281 848.289062 2588.28125 847.511719 C 2587.828125 846.730469 2586.988281 846.25 2586.078125 846.25 "/>
<path fill-rule="nonzero" fill="rgb(100%, 50.193787%, 50.193787%)" fill-opacity="1" d="M 2491.019531 471.328125 C 2469.46875 471.328125 2451.601562 488.75 2451.601562 510.210938 C 2451.601562 531.660156 2469.46875 549.078125 2491.019531 549.078125 C 2512.578125 549.078125 2530.449219 531.660156 2530.449219 510.210938 C 2530.449219 488.75 2512.578125 471.328125 2491.019531 471.328125 Z M 2491.019531 491.398438 C 2501.941406 491.398438 2510.378906 499.800781 2510.378906 510.210938 C 2510.378906 520.609375 2501.941406 529.011719 2491.019531 529.011719 C 2480.109375 529.011719 2471.660156 520.609375 2471.660156 510.210938 C 2471.660156 499.800781 2480.109375 491.398438 2491.019531 491.398438 "/>
<path fill-rule="nonzero" fill="rgb(100%, 59.959412%, 33.325195%)" fill-opacity="1" d="M 2960.660156 1378.261719 C 2962.519531 1378.75 2964.398438 1377.820312 2964.871094 1376.179688 C 2965.089844 1375.390625 2964.949219 1374.550781 2964.46875 1373.820312 C 2964 1373.101562 2963.230469 1372.558594 2962.328125 1372.320312 C 2961.441406 1372.089844 2960.488281 1372.179688 2959.699219 1372.570312 C 2958.910156 1372.960938 2958.339844 1373.621094 2958.121094 1374.398438 C 2957.660156 1376.039062 2958.800781 1377.769531 2960.660156 1378.261719 "/>
<path fill-rule="nonzero" fill="rgb(100%, 100%, 100%)" fill-opacity="1" d="M 2218.109375 1001.328125 C 2218.160156 1003.410156 2218.160156 1005.480469 2218.160156 1007.558594 C 2218.160156 1116.769531 2143.050781 1205.121094 2051.039062 1205.121094 C 1959.03125 1205.121094 1883.859375 1116.769531 1883.859375 1007.558594 C 1883.859375 1005.480469 1883.910156 1003.410156 1883.859375 1001.328125 L 1901.800781 1001.328125 C 1901.75 1003.410156 1901.800781 1005.480469 1901.800781 1007.558594 C 1901.800781 1104.390625 1968.328125 1183.128906 2051.039062 1183.128906 C 2133.738281 1183.128906 2200.269531 1104.390625 2200.269531 1007.558594 C 2200.269531 1005.480469 2200.230469 1003.410156 2200.269531 1001.328125 L 2218.109375 1001.328125 "/>
<path fill-rule="nonzero" fill="rgb(100%, 100%, 100%)" fill-opacity="1" d="M 2149.53125 999 L 2150.078125 999.019531 C 2169.269531 999.761719 2188.179688 1000.050781 2207.640625 1000.988281 L 2207.609375 1001.671875 L 2207.539062 1001.671875 L 2149.53125 999.691406 L 2149.511719 999.691406 L 2149.53125 999 "/>
<path fill-rule="nonzero" fill="rgb(100%, 100%, 100%)" fill-opacity="1" d="M 2149.238281 990.230469 C 2149.46875 990.21875 2149.699219 990.230469 2149.929688 990.238281 C 2169.148438 990.980469 2188.261719 991.269531 2208.121094 992.21875 C 2211.628906 992.351562 2214.800781 994.238281 2216.410156 997.160156 C 2218.019531 1000.070312 2217.828125 1003.578125 2215.910156 1006.328125 C 2213.980469 1009.070312 2210.628906 1010.640625 2207.121094 1010.441406 C 2187.710938 1009.5 2168.671875 1009.21875 2149.109375 1008.460938 C 2143.800781 1008.328125 2139.578125 1004.25 2139.609375 999.289062 C 2139.648438 994.320312 2143.929688 990.289062 2149.238281 990.230469 "/>
<path fill-rule="nonzero" fill="rgb(100%, 100%, 100%)" fill-opacity="1" d="M 1951.671875 999 L 1951.699219 999.691406 C 1951.691406 999.691406 1951.691406 999.691406 1951.679688 999.691406 L 1893.640625 1001.671875 L 1893.550781 1001.671875 L 1893.519531 1000.988281 C 1893.519531 1000.988281 1893.519531 1000.988281 1893.53125 1000.988281 C 1912.988281 1000.050781 1931.941406 999.761719 1951.128906 999.019531 L 1951.671875 999 "/>
<path fill-rule="nonzero" fill="rgb(100%, 100%, 100%)" fill-opacity="1" d="M 1952.25 990.230469 C 1957.511719 990.449219 1961.628906 994.511719 1961.589844 999.421875 C 1961.539062 1004.328125 1957.339844 1008.328125 1952.089844 1008.460938 C 1932.539062 1009.21875 1913.441406 1009.511719 1894.03125 1010.429688 C 1890.519531 1010.640625 1887.171875 1009.070312 1885.238281 1006.320312 C 1883.320312 1003.570312 1883.128906 1000.070312 1884.738281 997.148438 C 1886.351562 994.230469 1889.519531 992.351562 1893.03125 992.21875 C 1912.890625 991.269531 1932.058594 990.988281 1951.269531 990.230469 C 1951.601562 990.21875 1951.921875 990.21875 1952.25 990.230469 "/>
<path fill-rule="nonzero" fill="rgb(100%, 100%, 100%)" fill-opacity="1" d="M 2152.988281 984.050781 L 2152.988281 1012.011719 L 2152.261719 1012.011719 L 2152.261719 984.050781 L 2152.988281 984.050781 "/>
<path fill-rule="nonzero" fill="rgb(100%, 100%, 100%)" fill-opacity="1" d="M 2152.878906 968.210938 C 2162.101562 968.339844 2169.46875 975.429688 2169.339844 984.050781 L 2169.339844 1012.011719 C 2169.421875 1017.648438 2166.261719 1022.878906 2161.050781 1025.71875 C 2155.839844 1028.558594 2149.398438 1028.558594 2144.199219 1025.71875 C 2138.988281 1022.878906 2135.820312 1017.648438 2135.910156 1012.011719 L 2135.910156 984.050781 C 2135.839844 979.828125 2137.609375 975.769531 2140.808594 972.78125 C 2144.011719 969.800781 2148.359375 968.148438 2152.878906 968.210938 "/>
<path fill-rule="nonzero" fill="rgb(100%, 100%, 100%)" fill-opacity="1" d="M 1948.898438 984.050781 L 1948.898438 1012.011719 L 1948.160156 1012.011719 L 1948.160156 984.050781 L 1948.898438 984.050781 "/>
<path fill-rule="nonzero" fill="rgb(100%, 100%, 100%)" fill-opacity="1" d="M 1948.78125 968.210938 C 1958.011719 968.339844 1965.378906 975.429688 1965.238281 984.050781 L 1965.238281 1012.011719 C 1965.328125 1017.648438 1962.160156 1022.878906 1956.960938 1025.71875 C 1951.75 1028.558594 1945.308594 1028.558594 1940.101562 1025.71875 C 1934.898438 1022.878906 1931.730469 1017.648438 1931.808594 1012.011719 L 1931.808594 984.050781 C 1931.75 979.828125 1933.519531 975.769531 1936.710938 972.78125 C 1939.910156 969.800781 1944.261719 968.148438 1948.78125 968.210938 "/>
<path fill-rule="nonzero" fill="rgb(100%, 100%, 100%)" fill-opacity="1" d="M 2041.351562 1196.910156 C 2046.429688 1196.898438 2050.691406 1200.480469 2051.21875 1205.191406 C 2053.78125 1225.359375 2056.210938 1257.03125 2054.25 1288.671875 C 2052.289062 1320.308594 2046.558594 1351.960938 2029.339844 1372.820312 C 1997.398438 1411.488281 1931.179688 1444.808594 1867.890625 1431.898438 C 1851.191406 1428.480469 1835.25 1421.820312 1820.539062 1413.179688 C 1785.628906 1432.050781 1746.820312 1449.191406 1725.128906 1457.71875 C 1721.859375 1459.070312 1718.070312 1458.671875 1715.210938 1456.660156 C 1712.351562 1454.660156 1710.871094 1451.371094 1711.328125 1448.058594 C 1711.800781 1444.761719 1714.140625 1441.941406 1717.449219 1440.691406 C 1736.28125 1433.289062 1770.550781 1417.679688 1802.28125 1401.050781 C 1796.011719 1396.328125 1790.039062 1391.289062 1784.460938 1386.03125 C 1761.679688 1364.550781 1744.988281 1339.570312 1739.019531 1316.730469 C 1727.101562 1271.058594 1762.578125 1236.488281 1794.75 1245.378906 C 1794.761719 1245.378906 1794.769531 1245.378906 1794.78125 1245.390625 C 1810.828125 1249.851562 1820.769531 1263.339844 1828.140625 1276.769531 C 1829.421875 1279.109375 1830.511719 1281.460938 1831.621094 1283.808594 C 1832.96875 1281.449219 1834.390625 1279.101562 1835.96875 1276.789062 C 1843.089844 1266.351562 1852.351562 1256.53125 1864.808594 1251.628906 C 1889.710938 1241.851562 1919.910156 1257.039062 1924.53125 1284.738281 C 1929.179688 1312.351562 1910.949219 1346.929688 1878.058594 1375.890625 C 1868.480469 1384.328125 1854.941406 1393.328125 1839.859375 1402.25 C 1850.328125 1407.539062 1861.199219 1411.621094 1872.128906 1413.851562 C 1925.261719 1424.691406 1986.710938 1394.199219 2013.691406 1361.53125 C 2025.929688 1346.71875 2032.660156 1317.640625 2034.519531 1287.609375 C 2036.390625 1257.570312 2034.039062 1226.628906 2031.589844 1207.371094 C 2031.21875 1204.738281 2032.070312 1202.078125 2033.949219 1200.078125 C 2035.820312 1198.078125 2038.519531 1196.921875 2041.359375 1196.921875 Z M 1786.488281 1262.648438 C 1772.589844 1261.621094 1749.449219 1278.75 1758.230469 1312.351562 C 1762.910156 1330.269531 1777.808594 1353.511719 1798.5 1373.019531 C 1805.390625 1379.519531 1812.941406 1385.539062 1820.871094 1390.980469 C 1839 1380.808594 1855.039062 1370.761719 1864.480469 1362.449219 C 1894.039062 1336.421875 1907.820312 1304.421875 1904.980469 1287.609375 C 1904.980469 1287.601562 1904.980469 1287.589844 1904.980469 1287.589844 C 1902.148438 1270.609375 1885.519531 1263.539062 1872.46875 1268.660156 C 1865.960938 1271.230469 1858.429688 1278.21875 1852.628906 1286.730469 C 1846.949219 1295.039062 1842.871094 1304.648438 1841.339844 1311.148438 C 1841.511719 1311.898438 1841.78125 1312.800781 1841.929688 1313.488281 C 1841.929688 1313.488281 1841.929688 1313.488281 1841.929688 1313.5 C 1842.871094 1318.089844 1843.25 1321.199219 1842.859375 1324.488281 C 1842.671875 1326.128906 1843.640625 1328.050781 1839.089844 1331.800781 C 1836.820312 1333.671875 1831.480469 1334.628906 1828.441406 1333.460938 C 1825.398438 1332.28125 1824.390625 1330.78125 1823.648438 1329.75 C 1820.679688 1325.648438 1821.019531 1323.628906 1820.789062 1320.199219 C 1820.628906 1317.808594 1820.828125 1314.980469 1821.230469 1311.949219 C 1819.199219 1304.539062 1815.550781 1294.351562 1810.53125 1285.199219 C 1804.28125 1273.800781 1795.769531 1264.960938 1789.128906 1263.101562 C 1788.300781 1262.839844 1787.421875 1262.710938 1786.488281 1262.640625 Z M 1823.121094 1321.339844 C 1822.890625 1322.078125 1823.210938 1322.410156 1823.199219 1322.488281 C 1823.199219 1322.621094 1823.171875 1322.101562 1823.121094 1321.339844 "/>
<path fill-rule="nonzero" fill="rgb(100%, 100%, 100%)" fill-opacity="1" d="M 1684.738281 1429.46875 C 1709 1429.46875 1729.039062 1449.25 1729.039062 1473.820312 C 1729.039062 1498.328125 1709 1518.097656 1684.738281 1518.097656 C 1660.46875 1518.097656 1640.421875 1498.328125 1640.421875 1473.820312 C 1640.421875 1449.25 1660.46875 1429.46875 1684.738281 1429.46875 Z M 1684.738281 1442.960938 C 1667.289062 1442.960938 1653.511719 1456.789062 1653.511719 1473.820312 C 1653.511719 1490.769531 1667.289062 1504.605469 1684.738281 1504.605469 C 1702.179688 1504.605469 1715.949219 1490.769531 1715.949219 1473.820312 C 1715.949219 1456.789062 1702.179688 1442.960938 1684.738281 1442.960938 "/>
<path fill-rule="nonzero" fill="rgb(100%, 100%, 100%)" fill-opacity="1" d="M 1665.519531 1474.390625 C 1665.519531 1485.28125 1674.121094 1494.140625 1684.738281 1494.140625 C 1695.351562 1494.140625 1703.949219 1485.28125 1703.949219 1474.390625 C 1703.949219 1463.5 1695.351562 1454.640625 1684.738281 1454.640625 C 1674.121094 1454.640625 1665.519531 1463.5 1665.519531 1474.390625 "/>
<path fill-rule="nonzero" fill="rgb(100%, 50.193787%, 50.193787%)" fill-opacity="1" d="M 2365.308594 632.828125 L 2447.949219 632.828125 L 2447.949219 734.808594 L 2365.308594 734.808594 L 2365.308594 632.828125 "/>
<path fill-rule="nonzero" fill="rgb(100%, 50.193787%, 50.193787%)" fill-opacity="1" d="M 2668.160156 1537.199219 C 2651.960938 1537.347656 2633.859375 1540.671875 2615.148438 1548.363281 L 2619.691406 1548.523438 L 2633.359375 1723.585938 L 2636.839844 1768.164062 L 2637.070312 1771.105469 L 2638 1783.007812 L 2639.140625 1797.605469 C 2640.429688 1796.390625 2641.761719 1795.199219 2643.039062 1793.972656 L 2644.78125 1781.867188 C 2644.78125 1781.867188 2644.78125 1781.867188 2644.789062 1781.867188 L 2648.660156 1754.800781 C 2648.660156 1754.800781 2648.660156 1754.789062 2648.660156 1754.789062 L 2662.179688 1660.507812 L 2668.808594 1660.089844 L 2691.121094 1740.382812 C 2697.5 1731.832031 2703.421875 1723.109375 2708.691406 1714.191406 C 2731.261719 1676.058594 2742.789062 1634.675781 2743.179688 1604.0625 C 2743.570312 1573.449219 2732.808594 1553.589844 2706.609375 1543.566406 C 2696.78125 1539.808594 2684.789062 1537.445312 2671.378906 1537.21875 L 2671.378906 1537.210938 C 2670.320312 1537.191406 2669.25 1537.191406 2668.171875 1537.199219 Z M 2406.941406 1537.199219 L 2406.941406 1537.207031 C 2393.53125 1537.421875 2381.53125 1539.800781 2371.699219 1543.558594 C 2345.488281 1553.578125 2334.761719 1573.4375 2335.140625 1604.050781 C 2335.53125 1634.664062 2347.050781 1676.046875 2369.609375 1714.183594 C 2373.191406 1720.226562 2377.140625 1726.152344 2381.238281 1732.03125 L 2437.96875 1728.808594 L 2442.089844 1728.578125 L 2488.359375 1725.949219 L 2511.519531 1785.570312 L 2525.621094 1679.28125 L 2532.339844 1679.117188 L 2541.988281 1734.210938 L 2548.199219 1725.074219 L 2551.121094 1720.789062 L 2588.769531 1722.796875 L 2596.308594 1668.425781 L 2596.320312 1668.433594 L 2607.148438 1590.242188 C 2607.148438 1590.234375 2607.148438 1590.230469 2607.148438 1590.226562 L 2612.828125 1549.296875 C 2607.320312 1551.660156 2601.78125 1554.394531 2596.210938 1557.566406 C 2576.96875 1568.519531 2557.558594 1584.46875 2539.160156 1602.546875 C 2520.761719 1584.464844 2501.351562 1568.511719 2482.109375 1557.558594 C 2455.53125 1542.421875 2429.28125 1536.828125 2406.941406 1537.203125 Z M 2615.378906 1580.507812 L 2594.640625 1730.210938 L 2571.859375 1729.015625 L 2571.859375 1729.007812 L 2554.488281 1728.101562 L 2553.101562 1730.136719 L 2538.21875 1752.035156 L 2529.429688 1701.996094 L 2529.289062 1703.058594 L 2518.558594 1783.917969 L 2518.558594 1783.964844 L 2514.730469 1812.878906 L 2483.898438 1733.308594 L 2386.121094 1738.878906 C 2407.191406 1767.46875 2433.789062 1794.015625 2462.101562 1818.113281 C 2498.421875 1849.023438 2512.960938 1850.882812 2539.160156 1877.214844 C 2565.351562 1850.882812 2579.898438 1849.019531 2616.210938 1818.113281 C 2621.820312 1813.335938 2627.328125 1808.429688 2632.78125 1803.464844 L 2631.238281 1783.75 C 2631.238281 1783.75 2631.238281 1783.75 2631.25 1783.75 L 2630.070312 1768.710938 L 2625.519531 1710.472656 C 2625.53125 1710.480469 2625.53125 1710.492188 2625.539062 1710.503906 L 2620.261719 1643.058594 C 2620.261719 1643.050781 2620.261719 1643.039062 2620.261719 1643.027344 Z M 2666.578125 1677.59375 L 2651.039062 1786.078125 C 2663.578125 1773.59375 2675.328125 1760.597656 2685.910156 1747.109375 L 2666.578125 1677.59375 "/>
<path fill-rule="nonzero" fill="rgb(100%, 50.193787%, 50.193787%)" fill-opacity="1" d="M 1086.761719 321.96875 L 1702.328125 321.96875 C 1738.46875 321.96875 1767.570312 351.070312 1767.570312 387.210938 L 1767.570312 678.308594 C 1767.570312 714.460938 1738.46875 743.558594 1702.328125 743.558594 L 1705.160156 865.539062 L 1546.308594 743.558594 L 1086.761719 743.558594 C 1050.609375 743.558594 1021.511719 714.460938 1021.511719 678.308594 L 1021.511719 387.210938 C 1021.511719 351.070312 1050.609375 321.96875 1086.761719 321.96875 "/>
<path fill="none" stroke-width="149.824" stroke-linecap="round" stroke-linejoin="round" stroke="rgb(100%, 100%, 100%)" stroke-opacity="1" stroke-miterlimit="4" d="M 16569.414062 20629.804688 L 11321.484375 20629.804688 " transform="matrix(0.1, 0, 0, -0.1, 0, 2501.25)"/>
<path fill="none" stroke-width="149.824" stroke-linecap="round" stroke-linejoin="round" stroke="rgb(100%, 100%, 100%)" stroke-opacity="1" stroke-miterlimit="4" d="M 16569.414062 19679.414062 L 11321.484375 19679.414062 " transform="matrix(0.1, 0, 0, -0.1, 0, 2501.25)"/>
<path fill="none" stroke-width="149.824" stroke-linecap="round" stroke-linejoin="round" stroke="rgb(100%, 100%, 100%)" stroke-opacity="1" stroke-miterlimit="4" d="M 15037.617188 18729.101562 L 11321.484375 18729.101562 " transform="matrix(0.1, 0, 0, -0.1, 0, 2501.25)"/>
<path fill-rule="nonzero" fill="rgb(100%, 50.193787%, 50.193787%)" fill-opacity="1" d="M 990.308594 1760.605469 L 1313.539062 1760.605469 C 1349.691406 1760.605469 1378.789062 1789.703125 1378.789062 1825.847656 L 1378.789062 1975.777344 C 1378.789062 2011.921875 1349.691406 2041.019531 1313.539062 2041.019531 L 990.308594 2041.019531 C 954.164062 2041.019531 925.066406 2011.921875 925.066406 1975.777344 L 925.066406 1825.847656 C 925.066406 1789.703125 954.164062 1760.605469 990.308594 1760.605469 "/>
<path fill="none" stroke-width="269.683" stroke-linecap="round" stroke-linejoin="round" stroke="rgb(100%, 50.193787%, 50.193787%)" stroke-opacity="1" stroke-miterlimit="4" d="M 12368.28125 7172.773438 L 12368.28125 8169.804688 L 10670.195312 8169.804688 L 10670.195312 6939.101562 " transform="matrix(0.1, 0, 0, -0.1, 0, 2501.25)"/>
<path fill-rule="nonzero" fill="rgb(100%, 100%, 100%)" fill-opacity="1" d="M 1151.320312 1805.640625 C 1168.800781 1805.734375 1186.320312 1817.863281 1186.449219 1841.617188 L 1186.578125 1865.683594 L 1210.589844 1865.4375 C 1259.53125 1864.933594 1258.929688 1934.910156 1211.390625 1935.398438 L 1196.339844 1935.554688 L 1181.191406 1896.050781 C 1180.539062 1894.355469 1178.890625 1893.246094 1177.078125 1893.273438 C 1175.128906 1893.304688 1173.449219 1894.628906 1172.960938 1896.511719 L 1151.738281 1977.945312 L 1141.640625 1939.15625 C 1141.140625 1937.226562 1139.390625 1935.890625 1137.390625 1935.917969 L 1117.160156 1936.207031 L 1117.160156 1936.203125 L 1093.070312 1936.332031 C 1069.371094 1936.460938 1057.371094 1920.109375 1056.710938 1903.183594 C 1056.011719 1885.164062 1068.140625 1866.496094 1092.660156 1866.363281 L 1116.609375 1866.234375 L 1116.480469 1842.023438 C 1116.359375 1818.324219 1132.710938 1806.332031 1149.628906 1805.671875 C 1150.199219 1805.652344 1150.761719 1805.640625 1151.320312 1805.640625 Z M 1177.929688 1911.746094 L 1187.128906 1935.730469 L 1187.378906 1959.550781 C 1187.609375 1982.511719 1172.328125 1994.566406 1155.988281 1995.984375 Z M 1134.121094 1944.625 L 1147.441406 1995.757812 C 1131.871094 1993.578125 1117.628906 1981.695312 1117.410156 1960.347656 L 1117.25 1944.867188 L 1134.121094 1944.625 "/>
<path fill-rule="nonzero" fill="rgb(100%, 100%, 100%)" fill-opacity="1" d="M 1436.429688 1135.699219 L 1421.5 1281.671875 L 1265.488281 1280.179688 L 1269.988281 1124.96875 L 1436.429688 1135.699219 "/>
<path fill-rule="nonzero" fill="rgb(100%, 50.193787%, 50.193787%)" fill-opacity="1" d="M 1355.210938 1114.960938 C 1355.109375 1114.851562 1355.03125 1114.75 1355.03125 1114.75 L 1195.21875 1116.480469 C 1058.949219 1117.941406 1061.078125 1291.269531 1193.480469 1289.851562 L 1353.28125 1288.128906 L 1353.730469 1287.78125 L 1353.960938 1265.859375 L 1293.328125 1266.210938 C 1292.628906 1266.179688 1292.21875 1265.769531 1292.390625 1265.070312 L 1294.238281 1141.210938 C 1294.371094 1140.539062 1294.71875 1140.160156 1295.429688 1140.28125 L 1355.238281 1139.929688 L 1355.480469 1115.308594 C 1355.421875 1115.238281 1355.308594 1115.101562 1355.21875 1114.988281 "/>
<path fill-rule="nonzero" fill="rgb(100%, 50.193787%, 50.193787%)" fill-opacity="1" d="M 1591.621094 1145.378906 C 1574.988281 1125.980469 1548.230469 1112.421875 1510.988281 1112.820312 L 1351.230469 1114.53125 L 1350.761719 1114.949219 L 1350.511719 1140.070312 L 1411.898438 1139.699219 C 1412.601562 1139.730469 1413.011719 1140.148438 1412.839844 1140.839844 L 1410.988281 1264.710938 C 1410.871094 1265.371094 1410.511719 1265.761719 1409.800781 1265.628906 L 1349.238281 1265.988281 L 1349.011719 1287.421875 C 1348.710938 1287.878906 1349.441406 1287.941406 1349.441406 1287.941406 L 1509.269531 1286.21875 C 1607.210938 1285.171875 1633.660156 1195.328125 1591.621094 1145.398438 Z M 1351.230469 1114.53125 C 1351.261719 1114.5 1351.230469 1114.53125 1351.230469 1114.53125 "/>
<path fill-rule="nonzero" fill="rgb(100%, 100%, 100%)" fill-opacity="1" d="M 1536.460938 1150.320312 C 1532.570312 1150.328125 1529.460938 1147.660156 1529.519531 1144.339844 C 1529.53125 1142.738281 1530.289062 1141.199219 1531.621094 1140.058594 C 1532.949219 1138.921875 1534.75 1138.261719 1536.628906 1138.25 C 1540.519531 1138.230469 1543.628906 1140.910156 1543.570312 1144.230469 C 1543.558594 1145.820312 1542.800781 1147.359375 1541.46875 1148.511719 C 1540.140625 1149.648438 1538.328125 1150.300781 1536.460938 1150.320312 "/>
<path fill-rule="nonzero" fill="rgb(100%, 100%, 100%)" fill-opacity="1" d="M 1550.929688 1178.28125 C 1549.058594 1178.289062 1547.28125 1177.671875 1545.96875 1176.539062 C 1544.671875 1175.421875 1543.960938 1173.898438 1543.980469 1172.300781 C 1544 1170.710938 1544.75 1169.171875 1546.078125 1168.03125 C 1547.421875 1166.878906 1549.21875 1166.230469 1551.089844 1166.210938 C 1552.960938 1166.199219 1554.738281 1166.828125 1556.039062 1167.949219 C 1557.339844 1169.070312 1558.058594 1170.601562 1558.03125 1172.191406 C 1558.019531 1173.789062 1557.269531 1175.328125 1555.929688 1176.46875 C 1554.601562 1177.621094 1552.800781 1178.269531 1550.921875 1178.289062 "/>
<path fill-rule="nonzero" fill="rgb(100%, 100%, 100%)" fill-opacity="1" d="M 1570.050781 1208.890625 C 1566.160156 1208.898438 1563.050781 1206.230469 1563.109375 1202.910156 C 1563.121094 1201.308594 1563.878906 1199.769531 1565.210938 1198.628906 C 1566.539062 1197.488281 1568.339844 1196.839844 1570.210938 1196.820312 C 1572.078125 1196.808594 1573.859375 1197.441406 1575.171875 1198.558594 C 1576.46875 1199.679688 1577.179688 1201.210938 1577.160156 1202.800781 C 1577.140625 1204.398438 1576.390625 1205.929688 1575.058594 1207.078125 C 1573.71875 1208.21875 1571.921875 1208.871094 1570.050781 1208.890625 "/>
<path fill-rule="nonzero" fill="rgb(100%, 100%, 100%)" fill-opacity="1" d="M 1484.011719 1135 C 1482.140625 1135.011719 1480.359375 1134.378906 1479.058594 1133.261719 C 1477.75 1132.140625 1477.039062 1130.609375 1477.070312 1129.019531 C 1477.078125 1127.421875 1477.828125 1125.878906 1479.171875 1124.738281 C 1480.5 1123.589844 1482.300781 1122.941406 1484.171875 1122.921875 C 1486.039062 1122.921875 1487.828125 1123.539062 1489.128906 1124.660156 C 1490.429688 1125.789062 1491.148438 1127.308594 1491.121094 1128.910156 C 1491.109375 1130.5 1490.351562 1132.039062 1489.019531 1133.191406 C 1487.691406 1134.328125 1485.878906 1134.980469 1484.011719 1135 "/>
<path fill-rule="nonzero" fill="rgb(100%, 100%, 100%)" fill-opacity="1" d="M 1498.46875 1162.960938 C 1494.578125 1162.980469 1491.46875 1160.300781 1491.53125 1156.980469 C 1491.539062 1155.390625 1492.300781 1153.851562 1493.628906 1152.710938 C 1494.960938 1151.570312 1496.761719 1150.910156 1498.628906 1150.890625 C 1502.519531 1150.878906 1505.628906 1153.550781 1505.578125 1156.871094 C 1505.558594 1158.46875 1504.808594 1160.011719 1503.480469 1161.148438 C 1502.140625 1162.300781 1500.339844 1162.949219 1498.46875 1162.96875 "/>
<path fill-rule="nonzero" fill="rgb(100%, 100%, 100%)" fill-opacity="1" d="M 1517.589844 1193.570312 C 1513.699219 1193.578125 1510.601562 1190.910156 1510.648438 1187.589844 C 1510.671875 1185.988281 1511.421875 1184.460938 1512.75 1183.308594 C 1514.089844 1182.171875 1515.890625 1181.519531 1517.761719 1181.5 C 1521.648438 1181.488281 1524.75 1184.160156 1524.699219 1187.480469 C 1524.691406 1189.070312 1523.929688 1190.609375 1522.601562 1191.761719 C 1521.269531 1192.898438 1519.46875 1193.550781 1517.589844 1193.570312 "/>
<path fill-rule="nonzero" fill="rgb(100%, 100%, 100%)" fill-opacity="1" d="M 1478.011719 1191.121094 C 1474.121094 1191.128906 1471.011719 1188.460938 1471.070312 1185.140625 C 1471.078125 1183.539062 1471.828125 1182 1473.171875 1180.859375 C 1474.5 1179.710938 1476.300781 1179.058594 1478.179688 1179.039062 C 1482.070312 1179.03125 1485.171875 1181.699219 1485.121094 1185.019531 C 1485.109375 1186.621094 1484.351562 1188.160156 1483.019531 1189.300781 C 1481.679688 1190.449219 1479.878906 1191.101562 1478.011719 1191.121094 "/>
<path fill-rule="nonzero" fill="rgb(100%, 100%, 100%)" fill-opacity="1" d="M 1492.46875 1219.078125 C 1488.578125 1219.101562 1485.46875 1216.421875 1485.53125 1213.101562 C 1485.539062 1211.5 1486.300781 1209.96875 1487.628906 1208.820312 C 1488.960938 1207.679688 1490.761719 1207.03125 1492.628906 1207.011719 C 1494.5 1207 1496.28125 1207.628906 1497.589844 1208.75 C 1498.890625 1209.871094 1499.601562 1211.398438 1499.578125 1212.988281 C 1499.558594 1214.589844 1498.808594 1216.128906 1497.480469 1217.269531 C 1496.140625 1218.410156 1494.339844 1219.070312 1492.46875 1219.089844 "/>
<path fill-rule="nonzero" fill="rgb(100%, 100%, 100%)" fill-opacity="1" d="M 1511.601562 1249.691406 C 1507.699219 1249.699219 1504.589844 1247.03125 1504.648438 1243.710938 C 1504.660156 1242.109375 1505.421875 1240.570312 1506.75 1239.429688 C 1508.078125 1238.289062 1509.878906 1237.628906 1511.761719 1237.621094 C 1515.648438 1237.601562 1518.761719 1240.28125 1518.699219 1243.601562 C 1518.691406 1245.191406 1517.929688 1246.730469 1516.601562 1247.871094 C 1515.269531 1249.019531 1513.46875 1249.671875 1511.601562 1249.691406 "/>
<path fill-rule="nonzero" fill="rgb(100%, 100%, 100%)" fill-opacity="1" d="M 1477.089844 1252.71875 C 1475.21875 1252.730469 1473.441406 1252.101562 1472.140625 1250.980469 C 1470.839844 1249.859375 1470.121094 1248.328125 1470.148438 1246.738281 C 1470.160156 1245.140625 1470.921875 1243.601562 1472.25 1242.460938 C 1473.578125 1241.320312 1475.378906 1240.671875 1477.25 1240.648438 C 1479.121094 1240.640625 1480.910156 1241.269531 1482.210938 1242.390625 C 1483.511719 1243.511719 1484.230469 1245.039062 1484.199219 1246.628906 C 1484.191406 1248.21875 1483.429688 1249.761719 1482.101562 1250.910156 C 1480.769531 1252.050781 1478.96875 1252.699219 1477.089844 1252.71875 "/>
<path fill-rule="nonzero" fill="rgb(100%, 100%, 100%)" fill-opacity="1" d="M 1491.550781 1280.679688 C 1487.660156 1280.699219 1484.558594 1278.019531 1484.609375 1274.699219 C 1484.621094 1273.109375 1485.378906 1271.570312 1486.710938 1270.421875 C 1488.050781 1269.28125 1489.851562 1268.628906 1491.71875 1268.609375 C 1495.609375 1268.601562 1498.71875 1271.269531 1498.660156 1274.589844 C 1498.648438 1276.179688 1497.890625 1277.71875 1496.558594 1278.871094 C 1495.230469 1280.011719 1493.429688 1280.660156 1491.558594 1280.679688 "/>
<path fill-rule="nonzero" fill="rgb(100%, 100%, 100%)" fill-opacity="1" d="M 1593.351562 1240.011719 C 1591.480469 1240.019531 1589.699219 1239.390625 1588.390625 1238.269531 C 1587.089844 1237.148438 1586.378906 1235.621094 1586.398438 1234.03125 C 1586.421875 1232.429688 1587.171875 1230.890625 1588.5 1229.75 C 1589.839844 1228.609375 1591.640625 1227.960938 1593.511719 1227.941406 C 1595.378906 1227.929688 1597.160156 1228.550781 1598.460938 1229.679688 C 1599.761719 1230.800781 1600.480469 1232.320312 1600.449219 1233.921875 C 1600.441406 1235.511719 1599.679688 1237.050781 1598.351562 1238.199219 C 1597.019531 1239.339844 1595.21875 1239.988281 1593.351562 1240.011719 "/>
<path fill-rule="nonzero" fill="rgb(100%, 100%, 100%)" fill-opacity="1" d="M 1539.460938 1226.609375 C 1535.570312 1226.621094 1532.460938 1223.949219 1532.519531 1220.628906 C 1532.53125 1219.03125 1533.289062 1217.488281 1534.621094 1216.351562 C 1535.949219 1215.210938 1537.761719 1214.550781 1539.628906 1214.53125 C 1543.519531 1214.519531 1546.621094 1217.199219 1546.570312 1220.511719 C 1546.558594 1222.109375 1545.800781 1223.648438 1544.46875 1224.789062 C 1543.128906 1225.941406 1541.328125 1226.589844 1539.460938 1226.609375 "/>
<path fill-rule="nonzero" fill="rgb(100%, 100%, 100%)" fill-opacity="1" d="M 1553.921875 1254.570312 C 1552.050781 1254.578125 1550.269531 1253.960938 1548.96875 1252.828125 C 1547.671875 1251.710938 1546.949219 1250.191406 1546.980469 1248.589844 C 1546.988281 1246.988281 1547.75 1245.449219 1549.078125 1244.308594 C 1550.410156 1243.171875 1552.21875 1242.519531 1554.089844 1242.5 C 1555.960938 1242.488281 1557.738281 1243.121094 1559.039062 1244.238281 C 1560.339844 1245.359375 1561.058594 1246.890625 1561.03125 1248.480469 C 1561.019531 1250.078125 1560.269531 1251.621094 1558.929688 1252.761719 C 1557.601562 1253.898438 1555.800781 1254.558594 1553.921875 1254.570312 "/>
<path fill-rule="nonzero" fill="rgb(100%, 100%, 100%)" fill-opacity="1" d="M 1537.011719 1277.121094 C 1533.121094 1277.140625 1530.011719 1274.460938 1530.070312 1271.140625 C 1530.078125 1269.539062 1530.828125 1268 1532.171875 1266.859375 C 1533.5 1265.710938 1535.300781 1265.058594 1537.179688 1265.039062 C 1539.039062 1265.039062 1540.828125 1265.660156 1542.128906 1266.78125 C 1543.429688 1267.910156 1544.148438 1269.429688 1544.121094 1271.03125 C 1544.109375 1272.621094 1543.351562 1274.160156 1542.019531 1275.300781 C 1540.691406 1276.441406 1538.890625 1277.101562 1537.011719 1277.121094 "/>
<path fill-rule="nonzero" fill="rgb(100%, 100%, 100%)" fill-opacity="1" d="M 1232.441406 1136.570312 C 1235.78125 1138.289062 1236.941406 1142.011719 1235.03125 1144.898438 C 1233.128906 1147.78125 1228.878906 1148.738281 1225.53125 1147.03125 C 1222.191406 1145.320312 1221.03125 1141.589844 1222.929688 1138.710938 C 1224.839844 1135.828125 1229.089844 1134.871094 1232.429688 1136.578125 "/>
<path fill-rule="nonzero" fill="rgb(100%, 100%, 100%)" fill-opacity="1" d="M 1231.96875 1180.359375 C 1235.308594 1182.070312 1236.46875 1185.800781 1234.570312 1188.679688 C 1232.660156 1191.558594 1228.410156 1192.519531 1225.070312 1190.820312 C 1221.730469 1189.101562 1220.558594 1185.378906 1222.46875 1182.488281 C 1224.378906 1179.609375 1228.621094 1178.660156 1231.96875 1180.359375 "/>
<path fill-rule="nonzero" fill="rgb(100%, 100%, 100%)" fill-opacity="1" d="M 1231.101562 1215.679688 C 1234.441406 1217.390625 1235.601562 1221.121094 1233.691406 1224 C 1231.789062 1226.890625 1227.539062 1227.839844 1224.191406 1226.140625 C 1220.851562 1224.421875 1219.691406 1220.699219 1221.601562 1217.808594 C 1223.5 1214.929688 1227.75 1213.980469 1231.089844 1215.679688 "/>
<path fill-rule="nonzero" fill="rgb(100%, 100%, 100%)" fill-opacity="1" d="M 1129.980469 1175.550781 C 1133.320312 1177.269531 1134.480469 1180.988281 1132.578125 1183.878906 C 1131.660156 1185.261719 1130.128906 1186.261719 1128.351562 1186.660156 C 1126.558594 1187.050781 1124.648438 1186.808594 1123.050781 1185.980469 C 1119.699219 1184.269531 1118.539062 1180.539062 1120.449219 1177.648438 C 1122.351562 1174.769531 1126.601562 1173.808594 1129.949219 1175.519531 "/>
<path fill-rule="nonzero" fill="rgb(100%, 100%, 100%)" fill-opacity="1" d="M 1195.980469 1126.089844 C 1199.320312 1127.800781 1200.480469 1131.53125 1198.578125 1134.410156 C 1196.671875 1137.300781 1192.421875 1138.25 1189.078125 1136.550781 C 1185.738281 1134.828125 1184.570312 1131.109375 1186.480469 1128.21875 C 1188.378906 1125.339844 1192.640625 1124.378906 1195.980469 1126.089844 "/>
<path fill-rule="nonzero" fill="rgb(100%, 100%, 100%)" fill-opacity="1" d="M 1198.148438 1165.070312 C 1201.488281 1166.78125 1202.648438 1170.511719 1200.75 1173.390625 C 1198.839844 1176.28125 1194.589844 1177.230469 1191.25 1175.53125 C 1187.898438 1173.820312 1186.738281 1170.089844 1188.648438 1167.199219 C 1189.570312 1165.820312 1191.089844 1164.820312 1192.878906 1164.429688 C 1194.660156 1164.03125 1196.570312 1164.28125 1198.171875 1165.101562 "/>
<path fill-rule="nonzero" fill="rgb(100%, 100%, 100%)" fill-opacity="1" d="M 1164.539062 1151.710938 C 1167.878906 1153.429688 1169.039062 1157.148438 1167.140625 1160.039062 C 1165.230469 1162.921875 1160.988281 1163.871094 1157.640625 1162.171875 C 1154.300781 1160.449219 1153.140625 1156.730469 1155.039062 1153.839844 C 1156.949219 1150.960938 1161.199219 1150 1164.550781 1151.710938 "/>
<path fill-rule="nonzero" fill="rgb(100%, 100%, 100%)" fill-opacity="1" d="M 1158.988281 1190.011719 C 1162.328125 1191.71875 1163.5 1195.449219 1161.589844 1198.328125 C 1159.691406 1201.21875 1155.429688 1202.171875 1152.089844 1200.46875 C 1148.75 1198.75 1147.578125 1195.03125 1149.488281 1192.140625 C 1151.390625 1189.261719 1155.648438 1188.300781 1158.988281 1190.011719 "/>
<path fill-rule="nonzero" fill="rgb(100%, 100%, 100%)" fill-opacity="1" d="M 1158.121094 1225.328125 C 1161.460938 1227.050781 1162.621094 1230.769531 1160.71875 1233.660156 C 1158.808594 1236.539062 1154.558594 1237.488281 1151.210938 1235.789062 C 1147.871094 1234.078125 1146.710938 1230.351562 1148.621094 1227.46875 C 1150.519531 1224.578125 1154.769531 1223.628906 1158.121094 1225.328125 "/>
<path fill-rule="nonzero" fill="rgb(100%, 100%, 100%)" fill-opacity="1" d="M 1126.898438 1212.601562 C 1130.238281 1214.320312 1131.398438 1218.039062 1129.488281 1220.929688 C 1127.589844 1223.808594 1123.339844 1224.769531 1119.988281 1223.058594 C 1116.648438 1221.351562 1115.488281 1217.621094 1117.390625 1214.738281 C 1118.320312 1213.351562 1119.839844 1212.351562 1121.621094 1211.960938 C 1123.410156 1211.570312 1125.320312 1211.808594 1126.921875 1212.640625 "/>
<path fill-rule="nonzero" fill="rgb(100%, 100%, 100%)" fill-opacity="1" d="M 1127.640625 1244.429688 C 1130.980469 1246.140625 1132.148438 1249.871094 1130.238281 1252.75 C 1128.339844 1255.628906 1124.089844 1256.589844 1120.738281 1254.890625 C 1117.398438 1253.171875 1116.238281 1249.449219 1118.140625 1246.558594 C 1120.050781 1243.679688 1124.300781 1242.730469 1127.640625 1244.429688 "/>
<path fill-rule="nonzero" fill="rgb(100%, 100%, 100%)" fill-opacity="1" d="M 1233.511719 1253.308594 C 1236.851562 1255.03125 1238.011719 1258.75 1236.101562 1261.640625 C 1234.199219 1264.519531 1229.949219 1265.480469 1226.601562 1263.769531 C 1223.261719 1262.058594 1222.089844 1258.328125 1224 1255.441406 C 1224.921875 1254.058594 1226.449219 1253.058594 1228.230469 1252.671875 C 1230.019531 1252.269531 1231.921875 1252.519531 1233.53125 1253.351562 "/>
<path fill-rule="nonzero" fill="rgb(100%, 100%, 100%)" fill-opacity="1" d="M 1194.03125 1210.199219 C 1197.371094 1211.921875 1198.539062 1215.640625 1196.628906 1218.53125 C 1194.71875 1221.410156 1190.46875 1222.359375 1187.128906 1220.660156 C 1183.789062 1218.949219 1182.621094 1215.21875 1184.53125 1212.328125 C 1186.441406 1209.449219 1190.679688 1208.5 1194.03125 1210.199219 "/>
<path fill-rule="nonzero" fill="rgb(100%, 100%, 100%)" fill-opacity="1" d="M 1197.890625 1241.089844 C 1201.230469 1242.800781 1202.390625 1246.53125 1200.488281 1249.410156 C 1198.578125 1252.300781 1194.328125 1253.25 1190.988281 1251.550781 C 1187.648438 1249.828125 1186.480469 1246.109375 1188.390625 1243.21875 C 1190.289062 1240.339844 1194.539062 1239.390625 1197.890625 1241.089844 "/>
<path fill-rule="nonzero" fill="rgb(100%, 100%, 100%)" fill-opacity="1" d="M 1164.421875 1260.679688 C 1167.761719 1262.390625 1168.921875 1266.121094 1167.019531 1269 C 1166.101562 1270.390625 1164.570312 1271.390625 1162.789062 1271.78125 C 1161 1272.179688 1159.089844 1271.929688 1157.488281 1271.101562 C 1154.148438 1269.390625 1152.988281 1265.660156 1154.890625 1262.78125 C 1156.800781 1259.890625 1161.050781 1258.941406 1164.390625 1260.640625 "/>
<path fill-rule="nonzero" fill="rgb(100%, 50.193787%, 50.193787%)" fill-opacity="1" d="M 2989.03125 1232.53125 C 2987.019531 1232.460938 2985.140625 1233.5 2984.140625 1235.230469 C 2976.289062 1248.21875 2961.398438 1273 2948.109375 1296.769531 C 2941.46875 1308.660156 2935.25 1320.308594 2930.488281 1330.179688 C 2925.738281 1340.050781 2922.351562 1347.589844 2921.578125 1353.699219 C 2920.371094 1363.339844 2921.851562 1372.980469 2928.25 1380.71875 C 2934.640625 1388.460938 2945.210938 1393.890625 2960.851562 1397.261719 C 2992.109375 1403.988281 3044.019531 1403.019531 3076.730469 1403.851562 C 3109.441406 1404.660156 3120.839844 1407.21875 3127.871094 1412.28125 C 3134.890625 1417.339844 3138.421875 1425.089844 3137.96875 1435.671875 C 3137.519531 1446.269531 3132.511719 1460.121094 3127.210938 1474.21875 C 3126.320312 1476.070312 3126.550781 1478.261719 3127.808594 1479.878906 C 3129.070312 1481.5 3131.140625 1482.269531 3133.148438 1481.859375 C 3135.160156 1481.460938 3136.769531 1479.949219 3137.308594 1477.96875 C 3142.609375 1463.878906 3148.21875 1449.53125 3148.789062 1436.128906 C 3149.359375 1422.738281 3144.28125 1410.78125 3134.210938 1403.519531 C 3124.140625 1396.25 3110.160156 1393.859375 3076.988281 1393.039062 C 3043.820312 1392.199219 2991.710938 1392.699219 2963.160156 1386.710938 C 2948.890625 1383.640625 2940.828125 1378.949219 2936.628906 1373.871094 C 2932.421875 1368.78125 2931.359375 1362.898438 2932.339844 1355.089844 C 2932.679688 1352.488281 2935.601562 1344.390625 2940.191406 1334.859375 C 2944.789062 1325.328125 2950.960938 1313.820312 2957.550781 1302.050781 C 2970.710938 1278.488281 2985.601562 1253.808594 2993.449219 1240.828125 C 2994.488281 1239.191406 2994.578125 1237.109375 2993.660156 1235.390625 C 2992.75 1233.679688 2990.96875 1232.578125 2989.03125 1232.53125 "/>
<path fill-rule="nonzero" fill="rgb(100%, 50.193787%, 50.193787%)" fill-opacity="1" d="M 2882.25 1195.898438 C 2880.261719 1195.859375 2878.410156 1196.929688 2877.429688 1198.671875 C 2869.96875 1211.21875 2861.519531 1224.421875 2862.921875 1238.789062 C 2863.621094 1245.980469 2867.070312 1253.011719 2873.480469 1258.628906 C 2879.878906 1264.238281 2889.039062 1268.53125 2901.320312 1271.078125 C 2925.898438 1276.179688 2962.71875 1274.71875 2993.25 1274.449219 C 3023.769531 1274.121094 3047.808594 1275.160156 3062.539062 1281.371094 C 3069.898438 1284.480469 3074.53125 1288.421875 3076.859375 1294.550781 C 3079.191406 1300.679688 3079.238281 1309.851562 3074.75 1323.539062 C 3065.761719 1350.941406 3038.929688 1395.058594 3022.941406 1423.761719 C 3022.011719 1425.460938 3022.050781 1427.519531 3023.058594 1429.179688 C 3024.058594 1430.828125 3025.878906 1431.828125 3027.808594 1431.78125 C 3029.75 1431.738281 3031.519531 1430.671875 3032.449219 1428.96875 C 3048.210938 1400.679688 3075.179688 1356.988281 3085.039062 1326.898438 C 3089.980469 1311.851562 3090.578125 1300.03125 3087.019531 1290.660156 C 3083.46875 1281.300781 3075.78125 1275.238281 3066.761719 1271.421875 C 3048.730469 1263.808594 3023.871094 1263.308594 2993.121094 1263.648438 C 2962.371094 1263.988281 2925.550781 1265.058594 2903.570312 1260.480469 C 2892.578125 1258.179688 2885.171875 1254.53125 2880.601562 1250.53125 C 2876.03125 1246.53125 2874.121094 1242.308594 2873.671875 1237.75 C 2872.789062 1228.621094 2879.28125 1216.691406 2886.738281 1204.140625 C 2887.761719 1202.488281 2887.808594 1200.429688 2886.890625 1198.71875 C 2885.960938 1197.019531 2884.191406 1195.949219 2882.25 1195.910156 "/>
<path fill-rule="nonzero" fill="rgb(100%, 50.193787%, 50.193787%)" fill-opacity="1" d="M 2932.730469 1288.859375 C 2930.691406 1285.441406 2927.261719 1283.011719 2923.191406 1282.109375 C 2919.121094 1281.210938 2914.75 1281.921875 2911.039062 1284.070312 C 2903.328125 1288.550781 2900.519531 1297.96875 2904.769531 1305.089844 C 2909.03125 1312.21875 2918.738281 1314.371094 2926.460938 1309.878906 C 2934.179688 1305.398438 2936.988281 1295.988281 2932.730469 1288.859375 "/>
<path fill-rule="nonzero" fill="rgb(100%, 50.193787%, 50.193787%)" fill-opacity="1" d="M 2985.679688 1256.691406 C 2981.480469 1249.378906 2971.71875 1247.011719 2963.890625 1251.398438 C 2956.058594 1255.789062 2953.121094 1265.269531 2957.320312 1272.570312 C 2959.339844 1276.078125 2962.769531 1278.609375 2966.859375 1279.609375 C 2970.941406 1280.601562 2975.351562 1279.96875 2979.109375 1277.859375 C 2982.878906 1275.761719 2985.679688 1272.339844 2986.910156 1268.371094 C 2988.140625 1264.398438 2987.699219 1260.199219 2985.679688 1256.691406 "/>
<path fill-rule="nonzero" fill="rgb(100%, 50.193787%, 50.193787%)" fill-opacity="1" d="M 3058.941406 1390.320312 C 3054.691406 1383.199219 3044.96875 1381.050781 3037.25 1385.53125 C 3029.53125 1390.019531 3026.730469 1399.429688 3030.980469 1406.550781 C 3035.238281 1413.679688 3044.949219 1415.828125 3052.671875 1411.339844 C 3060.390625 1406.859375 3063.199219 1397.449219 3058.941406 1390.320312 "/>
<path fill-rule="nonzero" fill="rgb(100%, 50.193787%, 50.193787%)" fill-opacity="1" d="M 3105.910156 1360.769531 C 3101.710938 1353.460938 3091.949219 1351.101562 3084.121094 1355.480469 C 3076.289062 1359.871094 3073.339844 1369.351562 3077.550781 1376.660156 C 3079.570312 1380.171875 3083 1382.699219 3087.078125 1383.691406 C 3091.171875 1384.679688 3095.578125 1384.050781 3099.339844 1381.949219 C 3103.101562 1379.839844 3105.910156 1376.429688 3107.140625 1372.449219 C 3108.371094 1368.480469 3107.929688 1364.28125 3105.910156 1360.769531 "/>
</svg>
