<svg width="24" height="25" viewBox="0 0 24 25" fill="none" xmlns="http://www.w3.org/2000/svg">
<path d="M14 7.5L14.4142 7.91421C14.7893 8.28929 15.298 8.5 15.8284 8.5H19.1716C19.702 8.5 20.2107 8.28929 20.5858 7.91421L21.4142 7.08579C21.7893 6.71071 22 6.20201 22 5.67157V4.5" stroke="white" stroke-width="1.5" stroke-linecap="round" stroke-linejoin="round"/>
<path d="M10 7.5L9.58579 7.91421C9.21071 8.28929 8.70201 8.5 8.17157 8.5H4.82843C4.29799 8.5 3.78929 8.28929 3.41421 7.91421L2.58579 7.08579C2.21071 6.71071 2 6.20201 2 5.67157V4.5" stroke="white" stroke-width="1.5" stroke-linecap="round" stroke-linejoin="round"/>
<path d="M20.5 8L20 10.5L19.3078 12.9227C19.1036 13.6374 19 14.3771 19 15.1204V15.4315C19 15.81 19.0269 16.1881 19.0804 16.5628L19.5 20.5" stroke="white" stroke-width="1.5" stroke-linecap="round" stroke-linejoin="round"/>
<path d="M3.5 8L4 10.5L4.69219 12.9227C4.8964 13.6374 5 14.3771 5 15.1204V15.4315C5 15.81 4.97313 16.1881 4.9196 16.5628L4.5 20.5" stroke="white" stroke-width="1.5" stroke-linecap="round" stroke-linejoin="round"/>
<path d="M15 13.5H14C12.8954 13.5 12 12.6046 12 11.5C12 12.6046 11.1046 13.5 10 13.5H9" stroke="white" stroke-width="1.5" stroke-linecap="round" stroke-linejoin="round"/>
<path d="M15 18.5H14C12.8954 18.5 12 17.6046 12 16.5C12 17.6046 11.1046 18.5 10 18.5H9" stroke="white" stroke-width="1.5" stroke-linecap="round" stroke-linejoin="round"/>
</svg>
