<svg width="20" height="20" viewBox="0 0 20 20" fill="none" xmlns="http://www.w3.org/2000/svg">
<g clip-path="url(#clip0_2001_113544)">
<path d="M18.7554 11.0625H15.9032C15.8646 11.0625 15.8264 11.0701 15.7907 11.0849C15.7551 11.0996 15.7227 11.1213 15.6954 11.1485C15.6681 11.1758 15.6465 11.2082 15.6317 11.2439C15.617 11.2795 15.6094 11.3177 15.6094 11.3563V19.6961C15.6094 19.7347 15.617 19.7729 15.6317 19.8086C15.6465 19.8442 15.6681 19.8766 15.6954 19.9039C15.7227 19.9312 15.7551 19.9528 15.7907 19.9676C15.8264 19.9823 15.8646 19.9899 15.9032 19.9899H18.7554C18.8333 19.9899 18.908 19.959 18.9631 19.9039C19.0182 19.8488 19.0492 19.7741 19.0492 19.6961V11.3563C19.0492 11.2784 19.0182 11.2037 18.9631 11.1486C18.908 11.0935 18.8333 11.0625 18.7554 11.0625Z" fill="#A0A0A0"/>
<path d="M17.0782 11.0625H15.9032C15.8646 11.0625 15.8264 11.0701 15.7907 11.0849C15.7551 11.0996 15.7227 11.1213 15.6954 11.1485C15.6681 11.1758 15.6465 11.2082 15.6317 11.2439C15.617 11.2795 15.6094 11.3177 15.6094 11.3563V19.6961C15.6094 19.7347 15.617 19.7729 15.6317 19.8086C15.6465 19.8442 15.6681 19.8766 15.6954 19.9039C15.7227 19.9312 15.7551 19.9528 15.7907 19.9676C15.8264 19.9823 15.8646 19.9899 15.9032 19.9899H17.0782V11.0625Z" fill="#878787"/>
<path d="M19.708 9.48438H15.9032C15.8252 9.48438 15.7505 9.51533 15.6954 9.57042C15.6403 9.62552 15.6094 9.70025 15.6094 9.77816V11.3557C15.6094 11.4336 15.6403 11.5083 15.6954 11.5634C15.7505 11.6185 15.8252 11.6495 15.9032 11.6495H19.708C19.7859 11.6495 19.8606 11.6185 19.9157 11.5634C19.9708 11.5083 20.0018 11.4336 20.0018 11.3557V9.77816C20.0018 9.70025 19.9708 9.62552 19.9157 9.57042C19.8606 9.51533 19.7859 9.48438 19.708 9.48438Z" fill="#565656"/>
<path d="M17.0782 9.48438H15.9032C15.8646 9.48437 15.8264 9.49197 15.7907 9.50674C15.7551 9.5215 15.7227 9.54314 15.6954 9.57042C15.6681 9.5977 15.6465 9.63009 15.6317 9.66574C15.617 9.70138 15.6094 9.73958 15.6094 9.77816V11.3557C15.6094 11.3943 15.617 11.4325 15.6317 11.4681C15.6465 11.5038 15.6681 11.5362 15.6954 11.5634C15.7227 11.5907 15.7551 11.6124 15.7907 11.6271C15.8264 11.6419 15.8646 11.6495 15.9032 11.6495H17.0782V9.48438Z" fill="#494949"/>
<path d="M4.09922 11.0625H1.24691C1.169 11.0625 1.09427 11.0935 1.03917 11.1485C0.984078 11.2036 0.953125 11.2784 0.953125 11.3563V19.6961C0.953125 19.7741 0.984078 19.8488 1.03917 19.9039C1.09427 19.959 1.169 19.9899 1.24691 19.9899H4.09914C4.17706 19.9899 4.25178 19.959 4.30688 19.9039C4.36198 19.8488 4.39293 19.7741 4.39293 19.6961V11.3563C4.39294 11.3177 4.38535 11.2795 4.37059 11.2439C4.35584 11.2082 4.33421 11.1758 4.30693 11.1486C4.27966 11.1213 4.24727 11.0996 4.21163 11.0849C4.176 11.0701 4.1378 11.0625 4.09922 11.0625Z" fill="#A0A0A0"/>
<path d="M4.09699 11.0625H2.92188V19.9899H4.09695C4.17487 19.9899 4.2496 19.9589 4.30469 19.9038C4.35979 19.8487 4.39074 19.774 4.39074 19.6961V11.3562C4.39074 11.2783 4.35979 11.2036 4.3047 11.1485C4.24962 11.0934 4.1749 11.0625 4.09699 11.0625Z" fill="#878787"/>
<path d="M4.09859 9.48438H0.293789C0.215871 9.48438 0.141145 9.51533 0.0860488 9.57042C0.0309527 9.62552 0 9.70025 0 9.77816L0 11.3557C0 11.4336 0.0309527 11.5083 0.0860488 11.5634C0.141145 11.6185 0.215871 11.6495 0.293789 11.6495H4.09859C4.17651 11.6495 4.25124 11.6185 4.30633 11.5634C4.36143 11.5083 4.39238 11.4336 4.39238 11.3557V9.77816C4.39236 9.70025 4.3614 9.62554 4.30631 9.57045C4.25122 9.51536 4.17651 9.4844 4.09859 9.48438Z" fill="#565656"/>
<path d="M4.09699 9.48438H2.92188V11.6495H4.09695C4.17487 11.6495 4.2496 11.6185 4.30469 11.5634C4.35979 11.5083 4.39074 11.4336 4.39074 11.3557V9.77813C4.39074 9.70022 4.35979 9.6255 4.3047 9.57041C4.24962 9.51532 4.1749 9.48438 4.09699 9.48438Z" fill="#494949"/>
<path d="M15.9013 5.17773H12.5691C12.5236 5.17773 12.4787 5.18829 12.438 5.20858C12.3973 5.22886 12.3619 5.25833 12.3345 5.29465C11.774 6.0382 10.9195 6.46465 9.99004 6.46465C9.06059 6.46465 8.20605 6.0382 7.64559 5.29465C7.61821 5.25833 7.58277 5.22887 7.54206 5.20858C7.50136 5.18829 7.4565 5.17773 7.41102 5.17773H4.09848C4.02056 5.17773 3.94583 5.20869 3.89074 5.26378C3.83564 5.31888 3.80469 5.39361 3.80469 5.47152V19.6945C3.80469 19.7724 3.83564 19.8472 3.89074 19.9023C3.94583 19.9574 4.02056 19.9883 4.09848 19.9883H15.9014C15.9793 19.9883 16.054 19.9574 16.1091 19.9023C16.1642 19.8472 16.1952 19.7724 16.1952 19.6945V5.47152C16.1951 5.3936 16.1642 5.31888 16.109 5.26379C16.0539 5.2087 15.9792 5.17774 15.9013 5.17773Z" fill="#F9F1EF"/>
<path d="M15.9016 5.17773H14.7656V19.9883H15.9016C15.9401 19.9883 15.9783 19.9807 16.014 19.9659C16.0496 19.9512 16.082 19.9295 16.1093 19.9022C16.1366 19.875 16.1582 19.8426 16.173 19.8069C16.1878 19.7713 16.1954 19.7331 16.1954 19.6945V5.47152C16.1954 5.43294 16.1878 5.39474 16.173 5.3591C16.1582 5.32345 16.1366 5.29106 16.1093 5.26378C16.082 5.2365 16.0496 5.21486 16.014 5.2001C15.9783 5.18533 15.9401 5.17773 15.9016 5.17773Z" fill="#DDDBDB"/>
<path d="M7.07687 3.86262C7.06883 3.79082 7.03462 3.72451 6.98077 3.67635C6.92692 3.62819 6.85721 3.60157 6.78496 3.60156H3.02035C2.94243 3.60156 2.86771 3.63251 2.81261 3.68761C2.75752 3.74271 2.72656 3.81743 2.72656 3.89535V5.47289C2.72656 5.55081 2.75752 5.62553 2.81261 5.68063C2.86771 5.73573 2.94243 5.76668 3.02035 5.76668H7.41293C7.46754 5.76666 7.52106 5.75142 7.56749 5.72267C7.61393 5.69392 7.65143 5.6528 7.67579 5.60392C7.70015 5.55505 7.71041 5.50035 7.70541 5.44597C7.70041 5.39159 7.68036 5.33967 7.6475 5.29605C7.33242 4.87793 7.13536 4.38289 7.07687 3.86262ZM16.9833 3.60156H13.199C13.1267 3.60157 13.057 3.62819 13.0032 3.67635C12.9493 3.72451 12.9151 3.79082 12.9071 3.86262C12.8486 4.38289 12.6516 4.87793 12.3365 5.29605C12.3036 5.33967 12.2836 5.39159 12.2786 5.44597C12.2736 5.50035 12.2838 5.55505 12.3082 5.60392C12.3326 5.6528 12.3701 5.69392 12.4165 5.72267C12.4629 5.75142 12.5164 5.76666 12.5711 5.76668H16.9833C17.0612 5.76668 17.136 5.73573 17.1911 5.68063C17.2462 5.62553 17.2771 5.55081 17.2771 5.47289V3.89531C17.2771 3.8174 17.2461 3.74268 17.191 3.68759C17.1359 3.63251 17.0612 3.60156 16.9833 3.60156Z" fill="#565656"/>
<path d="M7.81098 11.0126H6.16879C6.09087 11.0126 6.01614 11.0436 5.96105 11.0987C5.90595 11.1538 5.875 11.2285 5.875 11.3064V12.9486C5.875 12.9872 5.8826 13.0254 5.89736 13.061C5.91213 13.0967 5.93377 13.1291 5.96105 13.1563C5.98833 13.1836 6.02072 13.2053 6.05636 13.22C6.092 13.2348 6.13021 13.2424 6.16879 13.2424H7.81098C7.84956 13.2424 7.88776 13.2348 7.9234 13.22C7.95905 13.2053 7.99144 13.1836 8.01872 13.1563C8.046 13.1291 8.06764 13.0967 8.0824 13.061C8.09717 13.0254 8.10477 12.9872 8.10477 12.9486V11.3064C8.10477 11.2285 8.07381 11.1538 8.01872 11.0987C7.96362 11.0436 7.88889 11.0126 7.81098 11.0126ZM10.8201 11.0126H9.17793C9.10001 11.0126 9.02529 11.0436 8.97019 11.0987C8.91509 11.1538 8.88414 11.2285 8.88414 11.3064V12.9486C8.88414 12.9872 8.89174 13.0254 8.9065 13.061C8.92127 13.0967 8.94291 13.1291 8.97019 13.1563C8.99747 13.1836 9.02986 13.2053 9.0655 13.22C9.10115 13.2348 9.13935 13.2424 9.17793 13.2424H10.8201C10.8587 13.2424 10.8969 13.2348 10.9325 13.22C10.9682 13.2053 11.0006 13.1836 11.0279 13.1563C11.0551 13.1291 11.0768 13.0967 11.0915 13.061C11.1063 13.0254 11.1139 12.9872 11.1139 12.9486V11.3064C11.1139 11.2285 11.083 11.1538 11.0279 11.0987C10.9728 11.0436 10.898 11.0126 10.8201 11.0126ZM13.8293 11.0126H12.1871C12.1485 11.0126 12.1103 11.0202 12.0747 11.035C12.039 11.0497 12.0066 11.0714 11.9794 11.0987C11.9521 11.1259 11.9304 11.1583 11.9157 11.194C11.9009 11.2296 11.8933 11.2678 11.8933 11.3064V12.9486C11.8933 12.9872 11.9009 13.0254 11.9157 13.061C11.9304 13.0967 11.9521 13.1291 11.9794 13.1563C12.0066 13.1836 12.039 13.2053 12.0747 13.22C12.1103 13.2348 12.1485 13.2424 12.1871 13.2424H13.8293C13.8679 13.2424 13.9061 13.2348 13.9417 13.22C13.9774 13.2053 14.0098 13.1836 14.037 13.1563C14.0643 13.1291 14.086 13.0967 14.1007 13.061C14.1155 13.0254 14.1231 12.9872 14.1231 12.9486V11.3064C14.1231 11.2678 14.1155 11.2296 14.1007 11.194C14.086 11.1583 14.0643 11.1259 14.037 11.0987C14.0098 11.0714 13.9774 11.0497 13.9417 11.035C13.9061 11.0202 13.8679 11.0126 13.8293 11.0126ZM7.81098 8.16992H6.16879C6.09087 8.16992 6.01614 8.20087 5.96105 8.25597C5.90595 8.31107 5.875 8.38579 5.875 8.46371V10.1059C5.875 10.1838 5.90595 10.2585 5.96105 10.3136C6.01614 10.3687 6.09087 10.3997 6.16879 10.3997H7.81098C7.88889 10.3997 7.96362 10.3687 8.01872 10.3136C8.07381 10.2585 8.10477 10.1838 8.10477 10.1059V8.46371C8.10477 8.38579 8.07381 8.31107 8.01872 8.25597C7.96362 8.20087 7.88889 8.16992 7.81098 8.16992ZM10.8201 8.16992H9.17793C9.10001 8.16992 9.02529 8.20087 8.97019 8.25597C8.91509 8.31107 8.88414 8.38579 8.88414 8.46371V10.1059C8.88414 10.1838 8.91509 10.2585 8.97019 10.3136C9.02529 10.3687 9.10001 10.3997 9.17793 10.3997H10.8201C10.898 10.3997 10.9728 10.3687 11.0279 10.3136C11.083 10.2585 11.1139 10.1838 11.1139 10.1059V8.46371C11.1139 8.38579 11.083 8.31107 11.0279 8.25597C10.9728 8.20087 10.898 8.16992 10.8201 8.16992ZM13.8293 8.16992H12.1871C12.1485 8.16992 12.1103 8.17752 12.0747 8.19228C12.039 8.20705 12.0066 8.22869 11.9794 8.25597C11.9521 8.28325 11.9304 8.31564 11.9157 8.35128C11.9009 8.38693 11.8933 8.42513 11.8933 8.46371V10.1059C11.8933 10.1445 11.9009 10.1827 11.9157 10.2183C11.9304 10.254 11.9521 10.2864 11.9794 10.3136C12.0066 10.3409 12.039 10.3626 12.0747 10.3773C12.1103 10.3921 12.1485 10.3997 12.1871 10.3997H13.8293C13.9072 10.3997 13.9819 10.3687 14.037 10.3136C14.0921 10.2585 14.1231 10.1838 14.1231 10.1059V8.46371C14.1231 8.42513 14.1155 8.38692 14.1007 8.35128C14.086 8.31563 14.0643 8.28324 14.037 8.25596C14.0098 8.22868 13.9774 8.20704 13.9417 8.19227C13.9061 8.17751 13.8679 8.16992 13.8293 8.16992ZM13.4073 15.7876H9.99902C9.96044 15.7876 9.92224 15.7952 9.8866 15.8099C9.85095 15.8247 9.81856 15.8463 9.79128 15.8736C9.764 15.9009 9.74236 15.9333 9.7276 15.9689C9.71283 16.0046 9.70523 16.0428 9.70523 16.0814V19.6948C9.70523 19.7727 9.73619 19.8475 9.79128 19.9025C9.84638 19.9576 9.92111 19.9886 9.99902 19.9886H13.4073C13.4852 19.9886 13.5599 19.9576 13.615 19.9025C13.6701 19.8475 13.7011 19.7727 13.7011 19.6948V16.0814C13.7011 16.0428 13.6935 16.0046 13.6787 15.9689C13.664 15.9333 13.6423 15.9009 13.615 15.8736C13.5878 15.8463 13.5554 15.8247 13.5197 15.8099C13.4841 15.7952 13.4459 15.7876 13.4073 15.7876Z" fill="#00C1EC"/>
<path d="M13.4091 15.7891H12.3516V19.9901H13.4091C13.4477 19.9901 13.4859 19.9825 13.5216 19.9677C13.5572 19.9529 13.5896 19.9313 13.6169 19.904C13.6442 19.8767 13.6658 19.8444 13.6806 19.8087C13.6953 19.7731 13.7029 19.7349 13.7029 19.6963V16.0829C13.7029 16.0049 13.672 15.9302 13.6169 15.8751C13.5618 15.82 13.4871 15.7891 13.4091 15.7891Z" fill="#00AADE"/>
<path d="M9.99895 15.7891H6.59066C6.55208 15.7891 6.51388 15.7967 6.47824 15.8114C6.44259 15.8262 6.4102 15.8478 6.38292 15.8751C6.35564 15.9024 6.334 15.9348 6.31924 15.9704C6.30447 16.0061 6.29688 16.0443 6.29688 16.0829V19.6963C6.29688 19.7742 6.32783 19.8489 6.38292 19.904C6.43802 19.9591 6.51275 19.9901 6.59066 19.9901H9.99895C10.0769 19.9901 10.1516 19.9591 10.2067 19.904C10.2618 19.8489 10.2927 19.7742 10.2927 19.6963V16.0829C10.2927 16.0443 10.2851 16.0061 10.2704 15.9704C10.2556 15.9348 10.234 15.9024 10.2067 15.8751C10.1794 15.8478 10.147 15.8262 10.1114 15.8114C10.0757 15.7967 10.0375 15.7891 9.99895 15.7891Z" fill="#00C1EC"/>
<path d="M8.94531 15.7871H10.2967V19.9881H8.94531V15.7871Z" fill="#00AADE"/>
<path d="M9.99043 0.00976562C8.04859 0.00976562 6.46875 1.58961 6.46875 3.53145C6.46875 5.47328 8.04859 7.05312 9.99043 7.05312C11.9323 7.05312 13.5121 5.47332 13.5121 3.53145C13.5121 1.58957 11.9323 0.00976562 9.99043 0.00976562Z" fill="#EF3A47"/>
<path d="M9.99328 0.00976562C9.74109 0.00976562 9.49512 0.0366406 9.25781 0.0872266C10.8479 0.426406 12.044 1.84172 12.044 3.53145C12.044 5.22117 10.8478 6.63648 9.25781 6.97566C9.49957 7.02723 9.74609 7.05319 9.99328 7.05312C11.9352 7.05312 13.515 5.47332 13.515 3.53145C13.515 1.58957 11.9352 0.00976562 9.99328 0.00976562Z" fill="#CE3043"/>
<path d="M11.2582 2.97605H10.542V2.2598C10.542 2.23364 10.5368 2.20772 10.5268 2.18355C10.5168 2.15937 10.5021 2.1374 10.4836 2.1189C10.4651 2.10039 10.4432 2.08572 10.419 2.0757C10.3948 2.06569 10.3689 2.06054 10.3427 2.06055H9.63035C9.60418 2.06054 9.57827 2.06569 9.55409 2.0757C9.52992 2.08572 9.50795 2.10039 9.48944 2.1189C9.47094 2.1374 9.45626 2.15937 9.44625 2.18355C9.43624 2.20772 9.43109 2.23364 9.43109 2.2598V2.97602H8.71488C8.68871 2.97601 8.6628 2.98116 8.63862 2.99117C8.61445 3.00118 8.59248 3.01586 8.57397 3.03437C8.55547 3.05287 8.54079 3.07484 8.53078 3.09901C8.52077 3.12319 8.51562 3.14911 8.51563 3.17527V3.88766C8.51562 3.91382 8.52077 3.93974 8.53078 3.96392C8.54079 3.98809 8.55547 4.01006 8.57397 4.02856C8.59248 4.04707 8.61445 4.06175 8.63862 4.07176C8.6628 4.08177 8.68871 4.08692 8.71488 4.08691H9.43109V4.80312C9.43109 4.82929 9.43624 4.85521 9.44625 4.87938C9.45626 4.90356 9.47094 4.92553 9.48944 4.94403C9.50795 4.96254 9.52992 4.97721 9.55409 4.98723C9.57827 4.99724 9.60418 5.00239 9.63035 5.00238H10.3427C10.3689 5.00239 10.3948 4.99724 10.419 4.98723C10.4432 4.97721 10.4651 4.96254 10.4836 4.94403C10.5021 4.92553 10.5168 4.90356 10.5268 4.87938C10.5368 4.85521 10.542 4.82929 10.542 4.80312V4.08691H11.2582C11.2844 4.08691 11.3103 4.08176 11.3344 4.07175C11.3586 4.06173 11.3806 4.04705 11.3991 4.02855C11.4176 4.01005 11.4323 3.98808 11.4423 3.96391C11.4523 3.93973 11.4574 3.91382 11.4574 3.88766V3.17527C11.4574 3.12244 11.4364 3.07177 11.3991 3.0344C11.3617 2.99704 11.311 2.97605 11.2582 2.97605Z" fill="#F9F1EF"/>
<path d="M14.0949 14.5098H5.90316C5.82525 14.5098 5.75052 14.5407 5.69542 14.5958C5.64033 14.6509 5.60938 14.7256 5.60938 14.8036V16.0792C5.60938 16.1571 5.64033 16.2319 5.69542 16.287C5.75052 16.3421 5.82525 16.373 5.90316 16.373H14.0949C14.1335 16.373 14.1717 16.3654 14.2073 16.3506C14.243 16.3359 14.2754 16.3142 14.3027 16.287C14.3299 16.2597 14.3516 16.2273 14.3663 16.1916C14.3811 16.156 14.3887 16.1178 14.3887 16.0792V14.8036C14.3887 14.7256 14.3577 14.6509 14.3027 14.5958C14.2476 14.5407 14.1728 14.5098 14.0949 14.5098Z" fill="#565656"/>
</g>
<defs>
<clipPath id="clip0_2001_113544">
<rect width="20" height="20" fill="white"/>
</clipPath>
</defs>
</svg>
