<svg width="22" height="22" viewBox="0 0 22 22" fill="none" xmlns="http://www.w3.org/2000/svg">
<path d="M21.875 14.8486C21.8743 15.4527 21.7334 16.0484 21.4635 16.5889C21.1937 17.1294 20.8021 17.5999 20.3196 17.9635C19.8372 18.3271 19.2769 18.5738 18.683 18.6843C18.0891 18.7947 17.4776 18.7659 16.8967 18.6001C16.3158 18.4343 15.7812 18.136 15.3351 17.7287C14.8889 17.3214 14.5433 16.8162 14.3254 16.2527C14.1075 15.6893 14.0233 15.083 14.0793 14.4814C14.1354 13.8799 14.3302 13.2996 14.6484 12.7861C14.9308 12.3373 15.3 11.9495 15.7344 11.6455C16.3199 11.2371 17.0062 10.9971 17.7186 10.9514C18.4311 10.9057 19.1424 11.0561 19.7753 11.3862C20.4083 11.7164 20.9387 12.2137 21.3088 12.8241C21.679 13.4345 21.8748 14.1347 21.875 14.8486Z" fill="#2C5F8D"/>
<path d="M7.81251 3.91091C7.81235 4.53998 7.66026 5.15971 7.36918 5.71739C7.07809 6.27507 6.65663 6.7542 6.14063 7.11403C5.42355 7.61408 4.55946 7.85914 3.68662 7.80998C2.81379 7.76083 1.98267 7.42031 1.32627 6.84291C0.669864 6.26551 0.226121 5.48461 0.066047 4.62517C-0.0940267 3.76573 0.0388221 2.87744 0.443335 2.10244C0.847847 1.32744 1.50064 0.710531 2.29725 0.350436C3.09386 -0.00965885 3.98824 -0.0921251 4.83726 0.116234C5.68629 0.324593 6.44088 0.811732 6.98028 1.4997C7.51969 2.18766 7.81273 3.03669 7.81251 3.91091V3.91091Z" fill="#2C5F8D"/>
<path d="M7.22656 5.97339L8.85156 7.03589C8.45798 7.38676 8.16192 7.83355 7.99219 8.33276L6.14062 7.11401C6.57503 6.81 6.94425 6.42219 7.22656 5.97339V5.97339Z" fill="#02478D" fill-opacity="0.5"/>
<path d="M15.7344 11.6453C15.3 11.9493 14.9308 12.3371 14.6484 12.7859L13.0234 11.7234C13.417 11.3725 13.7131 10.9257 13.8828 10.4265L15.7344 11.6453Z" fill="#02478D" fill-opacity="0.5"/>
<path d="M9.375 17.1922C9.375 18.1193 9.10008 19.0256 8.58502 19.7964C8.06995 20.5673 7.33786 21.1681 6.48133 21.5229C5.6248 21.8776 4.6823 21.9705 3.77302 21.7896C2.86373 21.6087 2.0285 21.1623 1.37294 20.5067C0.71738 19.8512 0.270939 19.0159 0.0900711 18.1067C-0.0907971 17.1974 0.00203103 16.2549 0.356817 15.3983C0.711603 14.5418 1.31241 13.8097 2.08327 13.2947C2.85412 12.7796 3.7604 12.5047 4.6875 12.5047C5.43063 12.5018 6.16353 12.6778 6.82436 13.0177C7.48519 13.3577 8.05454 13.8516 8.48438 14.4578C9.06575 15.2507 9.37787 16.209 9.375 17.1922V17.1922Z" fill="#2C5F8D"/>
<path d="M18.75 3.12976C18.75 3.95856 18.4208 4.75342 17.8347 5.33947C17.2487 5.92552 16.4538 6.25476 15.625 6.25476C15.1244 6.25621 14.6309 6.13554 14.1875 5.9032C13.7139 5.66311 13.3122 5.30192 13.0234 4.85632C12.7531 4.45012 12.5817 3.98626 12.5228 3.5019C12.464 3.01753 12.5194 2.52611 12.6845 2.067C12.8497 1.60788 13.1201 1.19383 13.4741 0.857996C13.8281 0.522163 14.2558 0.27388 14.7229 0.133032C15.1901 -0.00781671 15.6837 -0.0373171 16.1643 0.0468929C16.6449 0.131103 17.0992 0.326683 17.4906 0.617972C17.882 0.90926 18.1998 1.28816 18.4185 1.72434C18.6372 2.16051 18.7507 2.64183 18.75 3.12976V3.12976Z" fill="#2C5F8D"/>
<path d="M14.0626 9.3797C14.0632 9.73129 14.0024 10.0803 13.8829 10.4109C13.7156 10.9158 13.4193 11.3682 13.0235 11.7234C12.4477 12.2312 11.7052 12.5093 10.9376 12.5047C10.586 12.5054 10.237 12.4446 9.90631 12.325C9.40145 12.1577 8.94903 11.8615 8.59381 11.4656C8.08602 10.8899 7.80792 10.1474 7.81256 9.3797C7.81188 9.0281 7.87269 8.67909 7.99224 8.34845C8.15956 7.84359 8.45579 7.39117 8.85162 7.03595C9.42737 6.52815 10.1699 6.25006 10.9376 6.2547C11.2892 6.25402 11.6382 6.31483 11.9688 6.43438C12.4737 6.6017 12.9261 6.89792 13.2813 7.29376C13.7891 7.86951 14.0672 8.61203 14.0626 9.3797V9.3797Z" fill="#2C5F8D"/>
<path d="M8.59375 11.4656C8.94463 11.8592 9.39141 12.1552 9.89062 12.325L8.48437 14.4578C8.17636 14.0235 7.79578 13.6456 7.35938 13.3406L8.59375 11.4656Z" fill="#02478D" fill-opacity="0.5"/>
<path d="M14.1875 5.90308L13.2812 7.2937C12.9304 6.90012 12.4836 6.60405 11.9844 6.43433L13.0391 4.87183C13.3257 5.30962 13.7215 5.66507 14.1875 5.90308V5.90308Z" fill="#02478D" fill-opacity="0.5"/>
</svg>
