<svg width="20" height="20" viewBox="0 0 20 20" fill="none" xmlns="http://www.w3.org/2000/svg">
<g clip-path="url(#clip0_2001_102745)">
<path d="M9.51377 18.7308L8.76291 16.4781C8.75261 16.3933 8.72506 16.3116 8.68196 16.2378C8.63886 16.1641 8.58111 16.0999 8.51228 16.0494C8.44345 15.9988 8.365 15.9628 8.28175 15.9437C8.1985 15.9246 8.11222 15.9228 8.02822 15.9383C7.91885 15.9441 6.7542 15.9712 5.43201 14.649C4.10982 13.3268 4.13674 12.1621 4.14271 12.0528C4.15819 11.9688 4.15631 11.8825 4.1372 11.7993C4.11808 11.716 4.08213 11.6376 4.03156 11.5688C3.98099 11.4999 3.91687 11.4422 3.84315 11.3991C3.76942 11.356 3.68765 11.3284 3.60287 11.3181L1.35021 10.5672C1.19298 10.5148 1.02136 10.527 0.873111 10.6011C0.724858 10.6752 0.612111 10.8052 0.559667 10.9624C0.490917 11.1685 0.338378 12.0118 0.532323 13.1449C0.71201 14.195 1.24795 15.7683 2.78033 17.3006C4.31271 18.8329 5.88599 19.3689 6.93603 19.5486C7.29823 19.6111 7.66506 19.6428 8.0326 19.6435C8.59455 19.6435 8.98682 19.5654 9.11853 19.5213C9.27577 19.4689 9.40575 19.3562 9.47987 19.2079C9.55399 19.0597 9.56618 18.888 9.51377 18.7308Z" fill="#F0D160"/>
<path d="M11.1795 17.7429L8.52782 15.0913C8.41061 14.974 8.25164 14.9082 8.08588 14.9082C7.92013 14.9082 7.76116 14.974 7.64395 15.0913L7.20204 15.5332C6.73617 16.0026 6.4753 16.6375 6.47657 17.2989C6.47783 17.9603 6.74112 18.5942 7.20878 19.0619C7.67643 19.5296 8.31036 19.7929 8.97173 19.7941C9.63311 19.7954 10.268 19.5346 10.7375 19.0687L11.1795 18.6268C11.2375 18.5688 11.2836 18.4999 11.315 18.424C11.3464 18.3482 11.3626 18.2669 11.3626 18.1848C11.3626 18.1028 11.3464 18.0215 11.315 17.9457C11.2836 17.8698 11.2375 17.8009 11.1795 17.7429Z" fill="url(#paint0_linear_2001_102745)"/>
<path d="M4.98975 11.5555L2.33811 8.90377C2.28007 8.84573 2.21117 8.79969 2.13534 8.76828C2.05951 8.73687 1.97823 8.7207 1.89616 8.7207C1.81408 8.7207 1.7328 8.73687 1.65697 8.76828C1.58114 8.79969 1.51224 8.84573 1.4542 8.90377L1.01233 9.34577C0.547425 9.81542 0.287388 10.45 0.289071 11.1109C0.290753 11.7717 0.554018 12.405 1.02131 12.8723C1.48859 13.3396 2.12189 13.6028 2.78273 13.6045C3.44356 13.6062 4.07819 13.3461 4.54784 12.8812L4.98975 12.4393C5.10696 12.3221 5.1728 12.1631 5.1728 11.9974C5.1728 11.8316 5.10696 11.6727 4.98975 11.5555Z" fill="url(#paint1_linear_2001_102745)"/>
<path d="M12.8125 0C9.36621 0 6.5625 2.80371 6.5625 6.25C6.5631 7.59622 6.99783 8.90637 7.80215 9.9859L7.22156 11.6714C7.18325 11.7827 7.1771 11.9025 7.20384 12.017C7.23058 12.1316 7.28911 12.2363 7.37271 12.3191C7.4563 12.4019 7.56157 12.4594 7.67639 12.485C7.79122 12.5106 7.91094 12.5033 8.0218 12.4639L9.91797 11.79C10.8114 12.2566 11.8045 12.5002 12.8125 12.5C16.2588 12.5 19.0625 9.69629 19.0625 6.25C19.0625 2.80371 16.2588 0 12.8125 0Z" fill="url(#paint2_linear_2001_102745)"/>
<path d="M12.8125 10.3125C13.1577 10.3125 13.4375 10.0327 13.4375 9.6875C13.4375 9.34232 13.1577 9.0625 12.8125 9.0625C12.4673 9.0625 12.1875 9.34232 12.1875 9.6875C12.1875 10.0327 12.4673 10.3125 12.8125 10.3125Z" fill="#C1F1EA"/>
<path d="M12.8125 2.1875C12.1497 2.18824 11.5142 2.45188 11.0456 2.92056C10.5769 3.38924 10.3132 4.02469 10.3125 4.6875V5.3125H11.5625V4.6875C11.5625 4.44027 11.6358 4.1986 11.7732 3.99304C11.9105 3.78748 12.1057 3.62726 12.3341 3.53265C12.5626 3.43804 12.8139 3.41329 13.0564 3.46152C13.2988 3.50975 13.5216 3.6288 13.6964 3.80362C13.8712 3.97843 13.9903 4.20116 14.0385 4.44364C14.0867 4.68611 14.062 4.93745 13.9673 5.16585C13.8727 5.39426 13.7125 5.58949 13.507 5.72684C13.3014 5.86419 13.0597 5.9375 12.8125 5.9375C12.6467 5.9375 12.4878 6.00335 12.3706 6.12056C12.2533 6.23777 12.1875 6.39674 12.1875 6.5625V7.8125H13.4375V7.10844C14.027 6.95657 14.5407 6.59486 14.8825 6.09115C15.2243 5.58745 15.3705 4.97636 15.2938 4.37251C15.2171 3.76866 14.9228 3.21353 14.4659 2.81126C14.0091 2.40898 13.4212 2.1872 12.8125 2.1875Z" fill="#C1F1EA"/>
</g>
<defs>
<linearGradient id="paint0_linear_2001_102745" x1="7.20204" y1="19.0687" x2="9.85368" y2="16.4171" gradientUnits="userSpaceOnUse">
<stop stop-color="#FC8450"/>
<stop offset="1" stop-color="#F0D160"/>
</linearGradient>
<linearGradient id="paint1_linear_2001_102745" x1="7.19952" y1="19.0685" x2="9.85116" y2="16.4168" gradientUnits="userSpaceOnUse">
<stop stop-color="#FC8450"/>
<stop offset="1" stop-color="#F0D160"/>
</linearGradient>
<linearGradient id="paint2_linear_2001_102745" x1="7.05805" y1="12.0045" x2="17.2298" y2="1.83266" gradientUnits="userSpaceOnUse">
<stop stop-color="#5D99CA"/>
<stop offset="1" stop-color="#7ED7DE"/>
</linearGradient>
<clipPath id="clip0_2001_102745">
<rect width="20" height="20" fill="white"/>
</clipPath>
</defs>
</svg>
