<svg width="25" height="25" viewBox="0 0 25 25" fill="none" xmlns="http://www.w3.org/2000/svg">
<path d="M8.63568 9.29067C8.63568 8.91404 8.32929 8.60742 7.95266 8.60742H7.01367V9.97344H7.95266C8.32929 9.97344 8.63568 9.66729 8.63568 9.29067Z" fill="#2C5F8D"/>
<path d="M13.3622 20.9778H4.20559C4.00969 20.9778 3.84716 20.8201 3.84716 20.6194C3.84716 20.4235 4.00969 20.261 4.20559 20.261H13.3622V18.8464H4.20559C4.00969 18.8464 3.84716 18.6839 3.84716 18.488C3.84716 18.2873 4.00969 18.1296 4.20559 18.1296H13.3622V16.7102H4.20559C4.00969 16.7102 3.84716 16.5477 3.84716 16.3518C3.84716 16.1511 4.00969 15.9933 4.20559 15.9933H13.3622V14.3016C13.3622 12.5668 14.7146 11.0949 16.4398 10.9468H16.5019V5.72813C16.5019 4.93961 15.8616 4.29443 15.0682 4.29443H13.8544V5.1451C13.8544 5.80461 13.3191 6.3446 12.6596 6.3446H5.23792C4.57836 6.3446 4.04318 5.80461 4.04318 5.1451V4.29443H2.83408C2.04076 4.29443 1.40039 4.93961 1.40039 5.72813V22.1773C1.40039 22.9707 2.04076 23.611 2.83408 23.611H14.6477C13.8591 22.985 13.367 22.0197 13.3622 20.9778ZM6.29405 8.24665C6.29405 8.0507 6.45652 7.88823 6.65248 7.88823H7.95234C8.72175 7.88823 9.35255 8.51906 9.35255 9.28847C9.35255 9.8046 9.07061 10.249 8.65962 10.4928L9.79224 11.8261L10.9727 10.4067C11.0969 10.2538 11.3215 10.2299 11.4744 10.359C11.6273 10.4832 11.6465 10.7078 11.5222 10.8607L10.2606 12.3804L11.3932 13.7138C11.5222 13.8619 11.5031 14.0913 11.355 14.2156C11.1875 14.3495 10.9735 14.3192 10.8484 14.1773L9.79702 12.9396L8.77431 14.1726C8.65657 14.3241 8.41836 14.3453 8.2725 14.2204C8.1196 14.0913 8.09574 13.8667 8.22478 13.7138L9.32869 12.3852L7.88543 10.6887H7.0109V12.0555C7.0109 12.2514 6.85316 12.4139 6.65248 12.4139C6.45652 12.4139 6.29405 12.2514 6.29405 12.0555V8.24665Z" fill="#2C5F8D"/>
<path d="M5.23766 5.62786H12.6594C12.9222 5.62786 13.1373 5.41283 13.1373 5.14521V3.42476C13.1373 3.16193 12.9222 2.94687 12.6594 2.94687H10.504C10.504 2.08666 9.80633 1.38892 8.94615 1.38892C8.08591 1.38892 7.39298 2.08666 7.39298 2.94687H5.23766C4.97001 2.94687 4.75977 3.16193 4.75977 3.42476V5.14521C4.75977 5.41283 4.97001 5.62786 5.23766 5.62786ZM8.69763 2.34949C8.8314 2.2157 9.07035 2.2157 9.20417 2.34949C9.33328 2.47868 9.35498 2.69459 9.20417 2.85606C9.04252 3.00692 8.82656 2.98508 8.69763 2.85606C8.54818 2.69607 8.56708 2.47994 8.69763 2.34949Z" fill="#2C5F8D"/>
<path d="M17.2266 20.0419H23.5976C23.3705 18.0485 21.4475 16.8121 19.5978 17.2977C18.2787 17.644 17.3711 18.7635 17.2266 20.0419Z" fill="#2C5F8D"/>
<path d="M17.2266 20.7588C17.4521 22.7465 19.3701 23.9922 21.2266 23.5048C22.5463 23.1584 23.454 22.038 23.598 20.7588H17.2266Z" fill="#2C5F8D"/>
<path d="M17.323 17.9912H14.0781V20.9637C14.0781 22.0868 14.7758 23.0473 15.7651 23.4297C16.0614 23.5491 16.3863 23.6113 16.7209 23.6113C17.1175 23.6113 17.495 23.5252 17.8343 23.3628C17.2513 22.861 16.8212 22.1824 16.6157 21.3986C16.2955 20.1704 16.5919 18.9231 17.323 17.9912Z" fill="#2C5F8D"/>
<path d="M14.0781 14.3016V17.2741H18.0494C18.4317 16.9778 18.8762 16.7532 19.3684 16.6194V14.3016C19.3684 12.8392 18.1832 11.6541 16.7209 11.6541C16.6444 11.6541 16.5727 11.6588 16.501 11.6636C15.1438 11.7783 14.0781 12.9157 14.0781 14.3016Z" fill="#2C5F8D"/>
</svg>
