<svg width="20" height="20" viewBox="0 0 20 20" fill="none" xmlns="http://www.w3.org/2000/svg">
<path d="M5.89844 5.89844C2.66406 5.89844 0 8.52344 0 11.7578C0 13.539 0.859375 15.2148 2.24219 16.3281C2.07812 16.8789 1.78516 17.3828 1.38676 17.7929C1.21094 17.957 1.1641 18.2031 1.25781 18.4258C1.35156 18.6484 1.5625 18.7891 1.79688 18.7891H2.96875C3.90625 18.7891 4.78516 18.332 5.32422 17.582C5.51168 17.6055 5.69922 17.6172 5.89844 17.6172C9.13281 17.6172 11.7578 14.9922 11.7578 11.7578C11.7578 8.52344 9.13281 5.89844 5.89844 5.89844Z" fill="#80DBFF"/>
<path d="M11.7578 11.7578C11.7578 14.9922 9.13281 17.6172 5.89844 17.6172V5.89844C9.13281 5.89844 11.7578 8.52344 11.7578 11.7578Z" fill="#4AB8F7"/>
<path d="M17.7591 11.6405C19.145 10.531 20 8.85102 20 7.07031C20 3.83965 17.3322 1.21094 14.1016 1.21094C10.8709 1.21094 8.24219 3.83965 8.24219 7.07031C8.24219 10.301 10.8709 12.9297 14.1016 12.9297C14.2984 12.9297 14.4889 12.9142 14.672 12.8919C15.2191 13.6472 16.09 14.1016 17.0312 14.1016H18.2031C18.319 14.1016 18.4323 14.0673 18.5287 14.0029C18.6251 13.9386 18.7001 13.847 18.7444 13.7399C18.7889 13.6329 18.8005 13.515 18.7779 13.4013C18.7553 13.2876 18.6994 13.1832 18.6174 13.1013C18.2117 12.6951 17.9187 12.1955 17.7591 11.6405Z" fill="#FF6E7C"/>
<path d="M17.0312 14.1016H18.2031C18.319 14.1016 18.4323 14.0673 18.5287 14.0029C18.6251 13.9386 18.7001 13.847 18.7444 13.7399C18.7889 13.6329 18.8005 13.515 18.7779 13.4013C18.7553 13.2876 18.6994 13.1832 18.6174 13.1013C18.2117 12.6951 17.9187 12.1955 17.7591 11.6405C19.145 10.531 20 8.85102 20 7.07031C20 3.83965 17.3322 1.21094 14.1016 1.21094V12.9297C14.2984 12.9297 14.4889 12.9142 14.672 12.8919C15.2191 13.6472 16.09 14.1016 17.0312 14.1016Z" fill="#FF468C"/>
<path d="M8.24219 12.3438C8.56579 12.3438 8.82812 12.0814 8.82812 11.7578C8.82812 11.4342 8.56579 11.1719 8.24219 11.1719C7.91858 11.1719 7.65625 11.4342 7.65625 11.7578C7.65625 12.0814 7.91858 12.3438 8.24219 12.3438Z" fill="#B5EFFF"/>
<path d="M5.89844 12.3438C6.22204 12.3438 6.48438 12.0814 6.48438 11.7578C6.48438 11.4342 6.22204 11.1719 5.89844 11.1719C5.57483 11.1719 5.3125 11.4342 5.3125 11.7578C5.3125 12.0814 5.57483 12.3438 5.89844 12.3438Z" fill="#E3FBFF"/>
<path d="M3.55469 12.3438C3.87829 12.3438 4.14062 12.0814 4.14062 11.7578C4.14062 11.4342 3.87829 11.1719 3.55469 11.1719C3.23108 11.1719 2.96875 11.4342 2.96875 11.7578C2.96875 12.0814 3.23108 12.3438 3.55469 12.3438Z" fill="#E3FBFF"/>
<path d="M14.1016 3.55469C13.1323 3.55469 12.3438 4.3432 12.3438 5.3125C12.3438 5.63637 12.6058 5.89844 12.9297 5.89844C13.2536 5.89844 13.5156 5.63637 13.5156 5.3125C13.5156 4.98922 13.7783 4.72656 14.1016 4.72656C14.4248 4.72656 14.6875 4.98922 14.6875 5.3125C14.6875 5.50074 14.6 5.67301 14.4477 5.78516C14.3188 5.8802 14.2062 5.99223 14.1016 6.11039C13.7321 6.52719 13.5156 7.07047 13.5156 7.65629C13.5156 7.98016 13.7777 8.22848 14.1016 8.22848C14.4254 8.22848 14.6875 7.95266 14.6875 7.62879C14.6875 7.27516 14.858 6.93871 15.1436 6.72813C15.5916 6.39797 15.8594 5.86867 15.8594 5.3125C15.8594 4.3432 15.0709 3.55469 14.1016 3.55469Z" fill="#E3FBFF"/>
<path d="M14.1016 10C14.4252 10 14.6875 9.73767 14.6875 9.41406C14.6875 9.09046 14.4252 8.82812 14.1016 8.82812C13.778 8.82812 13.5156 9.09046 13.5156 9.41406C13.5156 9.73767 13.778 10 14.1016 10Z" fill="#E3FBFF"/>
<path d="M14.6875 7.62879C14.6875 7.27516 14.858 6.93871 15.1436 6.72813C15.5916 6.39797 15.8594 5.86867 15.8594 5.3125C15.8594 4.3432 15.0709 3.55469 14.1016 3.55469V4.72656C14.4248 4.72656 14.6875 4.98922 14.6875 5.3125C14.6875 5.50074 14.6 5.67301 14.4477 5.78516C14.3188 5.8802 14.2063 5.99223 14.1016 6.11039V8.22848C14.4254 8.22844 14.6875 7.95266 14.6875 7.62879ZM14.6875 9.41406C14.6875 9.09039 14.4252 8.82812 14.1016 8.82812V10C14.4252 10 14.6875 9.73766 14.6875 9.41406ZM6.48438 11.7578C6.48438 12.0859 6.2266 12.3438 5.89844 12.3438V11.1719C6.2266 11.1719 6.48438 11.4296 6.48438 11.7578Z" fill="#B5EFFF"/>
</svg>
