<svg width="20" height="20" viewBox="0 0 20 20" fill="none" xmlns="http://www.w3.org/2000/svg">
<path d="M10.5501 19.8921L7.04279 17.8672L6.53115 17.2479L5.3285 16.8774L1.8474 14.8676C1.46291 14.6456 1.33115 14.1539 1.55315 13.7694L9.27076 0.402091C9.49275 0.0175985 9.98443 -0.114159 10.3689 0.107833L12.0642 1.08662L12.4315 1.61912L12.9947 1.62389L19.0716 5.13236C19.4561 5.35436 19.5878 5.84604 19.3658 6.23053L11.6483 19.5979C11.4263 19.9824 10.9346 20.1141 10.5501 19.8921Z" fill="#BBEB6D"/>
<path d="M12.9948 14.4785V1.62379L10.3691 0.107888C9.98442 -0.11426 9.49266 0.0177318 9.2709 0.402068L1.55301 13.7694C1.33129 14.1541 1.46285 14.6455 1.84719 14.8676L7.04278 17.8672H10.1229C10.5762 16.4352 11.6521 15.2137 12.9948 14.4785Z" fill="#A0E05C"/>
<path d="M10.125 17.8672H11.3873C12.2746 17.8672 12.997 17.1453 12.997 16.2576V14.4785C11.6543 15.2138 10.5784 16.4352 10.125 17.8672Z" fill="#A0E05C"/>
<path d="M2.69588 13.9637L10.0114 1.29279C10.0193 1.27906 10.0299 1.26702 10.0425 1.25737C10.0551 1.24772 10.0694 1.24064 10.0847 1.23653C10.1 1.23243 10.116 1.23138 10.1317 1.23346C10.1475 1.23553 10.1626 1.24068 10.1763 1.24861L11.8503 2.21506L12.3122 2.77224L12.9967 2.87701L18.1826 5.87103C18.1963 5.87896 18.2083 5.88951 18.218 5.90209C18.2276 5.91467 18.2347 5.92902 18.2388 5.94434C18.2429 5.95966 18.244 5.97563 18.2419 5.99135C18.2398 6.00707 18.2347 6.02222 18.2267 6.03595L12.9983 15.0929L11.8386 16.3539L11.3938 17.8709L10.9112 18.7068C10.9033 18.7205 10.8927 18.7326 10.8802 18.7422C10.8676 18.7519 10.8532 18.759 10.8379 18.7631C10.8226 18.7672 10.8066 18.7682 10.7909 18.7661C10.7752 18.7641 10.76 18.7589 10.7463 18.751L9.21517 17.867L8.79744 17.1341L7.32662 16.7767L2.74006 14.1286C2.72632 14.1207 2.71429 14.1101 2.70463 14.0976C2.69498 14.085 2.6879 14.0706 2.6838 14.0553C2.6797 14.04 2.67865 14.024 2.68072 14.0083C2.6828 13.9926 2.68794 13.9774 2.69588 13.9637Z" fill="#E8F6FF"/>
<path d="M12.9967 2.87709V15.0948L11.3963 17.867H9.21517L2.73993 14.1286C2.71228 14.1125 2.69212 14.0861 2.68383 14.0552C2.67554 14.0243 2.6798 13.9914 2.69568 13.9636L10.0116 1.2928C10.0195 1.27908 10.03 1.26705 10.0425 1.2574C10.0551 1.24775 10.0694 1.24066 10.0847 1.23655C10.1 1.23244 10.1159 1.23139 10.1316 1.23344C10.1473 1.2355 10.1624 1.24063 10.1761 1.24854L12.9967 2.87709Z" fill="#D8ECFE"/>
<path d="M11.6328 8.53109L13.0018 8.45312L14.2031 9.14672C14.3956 9.25785 14.4615 9.50395 14.3504 9.69645L13.0019 12.0321L11.6888 13.1804L11.6328 8.53109Z" fill="#FC93BB"/>
<path d="M13.0018 8.45246V12.0315L11.6888 14.306L11.6328 7.66211L13.0018 8.45246Z" fill="#FE75A8"/>
<path d="M13.7336 6.77305L13.0018 6.35465L12.5749 5.92484L11.9344 5.73836C11.646 5.57187 11.5472 5.20312 11.7137 4.91473L12.0152 4.39258L12.609 4.87398L13.0019 4.96223L14.3365 5.72871C14.6249 5.8952 14.7237 6.26395 14.5572 6.55234C14.3907 6.8407 14.0219 6.93953 13.7336 6.77305Z" fill="#D8ECFE"/>
<path d="M13.0019 4.96242V6.35477L11.9342 5.73867C11.6461 5.57207 11.5471 5.20305 11.7137 4.91492L12.0151 4.39258L13.0019 4.96242Z" fill="#C5E1FF"/>
<path d="M11.3877 17.0624H2.41402L1.67984 16.8635C1.23535 16.8635 0.875 16.5032 0.875 16.0587L0.935586 1.08652C0.935586 0.642031 1.29594 0.28168 1.74043 0.28168L2.41402 0H11.3877C11.8322 0 12.1925 0.360352 12.1925 0.804844V16.2575C12.1925 16.702 11.8322 17.0624 11.3877 17.0624Z" fill="#89CAFE"/>
<path d="M2.4148 3.90625e-05V17.0624H1.32828C0.883633 17.0624 0.523438 16.7022 0.523438 16.2575V0.804844C0.523437 0.360156 0.883594 0 1.32828 0H2.4148V3.90625e-05Z" fill="#60B7FF"/>
<path d="M1.82789 15.6793L1.82031 1.46516C1.82031 1.43313 1.83303 1.40242 1.85568 1.37978C1.87832 1.35714 1.90903 1.34441 1.94105 1.34441L2.4125 1.08594H10.9837C11.0158 1.08594 11.0465 1.09866 11.0691 1.1213C11.0918 1.14395 11.1045 1.17466 11.1045 1.20668V15.8545C11.1045 15.8866 11.0918 15.9173 11.0691 15.9399C11.0465 15.9626 11.0158 15.9753 10.9837 15.9753H2.41246L1.94859 15.8001C1.91657 15.8001 1.88587 15.7873 1.86324 15.7647C1.84061 15.742 1.82789 15.7113 1.82789 15.6793Z" fill="#E8F6FF"/>
<path d="M2.41422 1.08598V15.9753H1.73012C1.71426 15.9753 1.69855 15.9722 1.68389 15.9661C1.66923 15.9601 1.65591 15.9512 1.64469 15.94C1.63348 15.9287 1.62458 15.9154 1.61852 15.9008C1.61246 15.8861 1.60935 15.8704 1.60938 15.8545V1.20668C1.60938 1.13988 1.66328 1.08594 1.73012 1.08594L2.41422 1.08598ZM7.56496 4.10406H5.15047C4.81711 4.10406 4.54684 3.83383 4.54684 3.50043C4.54684 3.16707 4.81707 2.8968 5.15047 2.8968H7.56496C7.89832 2.8968 8.16859 3.16703 8.16859 3.50043C8.16859 3.83383 7.89832 4.10406 7.56496 4.10406Z" fill="#D8ECFE"/>
<path d="M9.17684 12.3546H3.54305C3.32078 12.3546 3.14062 12.1745 3.14062 11.9522V6.31844C3.14062 6.09617 3.32078 5.91602 3.54305 5.91602H9.17684C9.3991 5.91602 9.57926 6.09617 9.57926 6.31844V11.9522C9.57926 12.1745 9.3991 12.3546 9.17684 12.3546Z" fill="#89CAFE"/>
<path d="M8.37524 9.1843L7.92754 9.75922C7.91843 9.77092 7.91265 9.78486 7.91082 9.79957L7.82078 10.5229C7.81852 10.541 7.81027 10.5579 7.79734 10.5708C7.78441 10.5838 7.76753 10.592 7.74938 10.5943L7.0261 10.6843C7.01139 10.6861 6.99745 10.6919 6.98574 10.701L6.41082 11.1487C6.39639 11.1599 6.37863 11.166 6.36033 11.166C6.34204 11.166 6.32428 11.1599 6.30985 11.1487L5.73492 10.701C5.72323 10.6919 5.70929 10.6861 5.69457 10.6843L4.97129 10.5942C4.95314 10.592 4.93626 10.5837 4.92333 10.5708C4.91039 10.5578 4.90214 10.541 4.89989 10.5228L4.80989 9.79953C4.80804 9.78483 4.80226 9.77089 4.79317 9.75918L4.34547 9.18426C4.33423 9.16983 4.32812 9.15206 4.32812 9.13377C4.32812 9.11548 4.33423 9.09771 4.34547 9.08328L4.79317 8.50836C4.80227 8.49668 4.80805 8.48274 4.80989 8.46801L4.89992 7.74473C4.90218 7.72658 4.91043 7.7097 4.92337 7.69677C4.9363 7.68383 4.95318 7.67558 4.97133 7.67332L5.69461 7.58332C5.70932 7.58148 5.72326 7.5757 5.73496 7.5666L6.30989 7.11891C6.32431 7.10767 6.34208 7.10156 6.36037 7.10156C6.37866 7.10156 6.39643 7.10767 6.41086 7.11891L6.98578 7.5666C6.99746 7.57571 7.01141 7.58149 7.02614 7.58332L7.74942 7.67336C7.76757 7.67562 7.78445 7.68387 7.79738 7.6968C7.81031 7.70974 7.81856 7.72662 7.82082 7.74477L7.91082 8.46805C7.91266 8.48274 7.91844 8.49668 7.92754 8.5084L8.37524 9.08332C8.38648 9.09775 8.39258 9.11552 8.39258 9.13381C8.39258 9.1521 8.38648 9.16987 8.37524 9.1843Z" fill="#FEDF30"/>
<path d="M6.3593 9.79867C6.72601 9.79867 7.02328 9.5014 7.02328 9.13469C7.02328 8.76798 6.72601 8.4707 6.3593 8.4707C5.99259 8.4707 5.69531 8.76798 5.69531 9.13469C5.69531 9.5014 5.99259 9.79867 6.3593 9.79867Z" fill="#FED400"/>
<path d="M9.57637 14.4669H6.44523C6.36519 14.4669 6.28843 14.4351 6.23183 14.3785C6.17523 14.3219 6.14344 14.2451 6.14344 14.1651C6.14344 14.085 6.17523 14.0083 6.23183 13.9517C6.28843 13.8951 6.36519 13.8633 6.44523 13.8633H9.57637C9.65641 13.8633 9.73317 13.8951 9.78977 13.9517C9.84637 14.0083 9.87816 14.085 9.87816 14.1651C9.87816 14.2451 9.84637 14.3219 9.78977 14.3785C9.73317 14.4351 9.65641 14.4669 9.57637 14.4669ZM5.23801 14.4669H3.13773C3.05769 14.4669 2.98093 14.4351 2.92433 14.3785C2.86773 14.3219 2.83594 14.2451 2.83594 14.1651C2.83594 14.085 2.86773 14.0083 2.92433 13.9517C2.98093 13.8951 3.05769 13.8633 3.13773 13.8633H5.23801C5.31805 13.8633 5.39481 13.8951 5.45141 13.9517C5.50801 14.0083 5.5398 14.085 5.5398 14.1651C5.5398 14.2451 5.50801 14.3219 5.45141 14.3785C5.39481 14.4351 5.31805 14.4669 5.23801 14.4669Z" fill="#D8ECFE"/>
</svg>
