<svg width="20" height="20" viewBox="0 0 20 20" fill="none" xmlns="http://www.w3.org/2000/svg">
<g clip-path="url(#clip0_2001_146569)">
<path d="M9.44631 12.9701C7.03769 12.9701 5.07812 11.0067 5.07812 8.59333V4.38651C5.07812 1.97316 7.03769 0.00976562 9.44631 0.00976562C11.855 0.00976562 13.8145 1.97316 13.8145 4.38651V8.59333C13.8145 11.0067 11.855 12.9701 9.44631 12.9701Z" fill="#DADA3B"/>
<path d="M9.44531 0.00976562V12.9701C11.854 12.9701 13.8135 11.0067 13.8135 8.59333V4.38651C13.8135 1.97316 11.8539 0.00976562 9.44531 0.00976562Z" fill="#9DBC29"/>
<path d="M9.4124 4.21484C9.08943 4.21484 8.82759 4.47719 8.82759 4.80078V6.58663L8.43787 6.19226C8.21064 5.9623 7.84041 5.96046 7.61084 6.18816C7.38135 6.41585 7.37948 6.78683 7.60674 7.01679L8.82756 8.25225V19.4056C8.82756 19.7292 9.08939 19.9915 9.41236 19.9915C9.73533 19.9915 9.99716 19.7292 9.99716 19.4056V4.80078C9.9972 4.47719 9.73536 4.21484 9.4124 4.21484Z" fill="#A34F3E"/>
<path d="M9.44531 4.21875V19.9924C9.75449 19.977 10.0007 19.7216 10.0007 19.408V4.80316C10.0006 4.48953 9.75449 4.23422 9.44531 4.21875Z" fill="#873F2E"/>
<path d="M3.29574 19.9586C2.97277 19.9586 2.71094 19.6962 2.71094 19.3726V15.7656C2.71094 15.442 2.97277 15.1797 3.29574 15.1797C3.61871 15.1797 3.88055 15.442 3.88055 15.7656V19.3726C3.88055 19.6962 3.61871 19.9586 3.29574 19.9586Z" fill="#C86E59"/>
<path d="M3.29688 15.1797V19.9586C3.61984 19.9586 3.88168 19.6962 3.88168 19.3726V15.7656C3.88168 15.442 3.61984 15.1797 3.29688 15.1797Z" fill="#A34F3E"/>
<path d="M3.29757 16.3519C2.3512 16.3519 1.49433 15.6848 0.884762 14.4736C0.339413 13.3898 0.0390625 11.9619 0.0390625 10.4529C0.0390625 7.36116 2.71339 3.69879 2.82725 3.54441C2.93753 3.39488 3.11206 3.30664 3.2976 3.30664C3.48315 3.30664 3.65768 3.39488 3.76795 3.54441C3.88178 3.69883 6.55611 7.36116 6.55611 10.4529C6.55611 11.9619 6.25576 13.3898 5.71037 14.4736C5.10084 15.6848 4.24393 16.3519 3.29757 16.3519Z" fill="#DADA3B"/>
<path d="M3.76722 3.54441C3.71292 3.47071 3.64207 3.4108 3.56037 3.3695C3.47868 3.3282 3.38842 3.30667 3.29688 3.30664V16.3519C4.24324 16.3519 5.10011 15.6848 5.70968 14.4736C6.25507 13.3898 6.55542 11.9619 6.55542 10.4529C6.55538 7.36116 3.88105 3.69879 3.76722 3.54441Z" fill="#9DBC29"/>
<path d="M17.7673 5.13471C15.9592 5.38463 14.4426 3.73908 14.9155 1.89935C15.1432 1.01392 15.8401 0.315642 16.7238 0.0875954C18.5599 -0.386311 20.2023 1.13326 19.9528 2.94498C19.7964 4.08092 18.9011 4.97799 17.7673 5.13471Z" fill="#FFDD54"/>
<path d="M17.4062 0V5.15957C17.526 5.15957 17.6476 5.15164 17.7705 5.13465C18.9043 4.97797 19.7996 4.08086 19.956 2.94492C20.1741 1.36074 18.9458 0 17.4062 0Z" fill="#FFB454"/>
<path d="M17.4676 12.0095C17.1446 12.0095 16.8828 11.7472 16.8828 11.4236V8.14648C16.8828 7.82289 17.1446 7.56055 17.4676 7.56055C17.7906 7.56055 18.0524 7.82289 18.0524 8.14648V11.4236C18.0524 11.7472 17.7906 12.0095 17.4676 12.0095Z" fill="#FF405C"/>
<path d="M5.76562 19.9996V12.2884C5.76562 12.2326 5.78953 12.1794 5.83121 12.1424L12.0558 6.60976C12.0915 6.57806 12.1375 6.56055 12.1852 6.56055C12.2329 6.56055 12.2789 6.57806 12.3145 6.60976L18.5391 12.1424C18.5597 12.1607 18.5763 12.1832 18.5876 12.2084C18.5989 12.2336 18.6047 12.2608 18.6047 12.2884V19.9995H5.76562V19.9996Z" fill="#FFF2DE"/>
<path d="M18.5415 12.1424L12.3169 6.60977C12.2812 6.57806 12.2352 6.56055 12.1875 6.56055V19.9995H18.607V12.2885C18.607 12.2609 18.6012 12.2336 18.5899 12.2084C18.5786 12.1832 18.5621 12.1607 18.5415 12.1424Z" fill="#FDE4C3"/>
<path d="M10.8369 20.0007H7.32812V13.8828C7.32812 13.5592 7.58996 13.2969 7.91293 13.2969H10.2521C10.5751 13.2969 10.8369 13.5592 10.8369 13.8828V20.0007Z" fill="#A34F3E"/>
<path d="M15.8656 16.7144H13.8668C13.6383 16.7144 13.4531 16.5288 13.4531 16.3V14.2972C13.4531 14.0684 13.6383 13.8828 13.8668 13.8828H15.8656C16.094 13.8828 16.2792 14.0684 16.2792 14.2972V16.3C16.2792 16.5288 16.094 16.7144 15.8656 16.7144Z" fill="#C8FFFF"/>
<path d="M16.278 17.3003H13.452C13.129 17.3003 12.8672 17.038 12.8672 16.7144V13.8828C12.8672 13.5592 13.129 13.2969 13.452 13.2969H16.278C16.601 13.2969 16.8629 13.5592 16.8629 13.8828V16.7144C16.8628 17.038 16.601 17.3003 16.278 17.3003ZM14.0368 16.1284H15.6932V14.4688H14.0368V16.1284Z" fill="#A34F3E"/>
<path d="M19.3752 13.7309C19.2321 13.731 19.094 13.6785 18.9873 13.5833L12.1871 7.53911L5.38694 13.5833C5.14538 13.798 4.77573 13.7759 4.5614 13.5338C4.34706 13.2917 4.36917 12.9214 4.61081 12.7066L11.7991 6.31751C11.906 6.22244 12.0441 6.16992 12.1871 6.16992C12.3302 6.16992 12.4683 6.22244 12.5752 6.31751L19.7634 12.7066C20.005 12.9214 20.0272 13.2917 19.8129 13.5338C19.7581 13.5958 19.6907 13.6455 19.6152 13.6795C19.5398 13.7134 19.4579 13.731 19.3752 13.7309Z" fill="#FF405C"/>
<path d="M19.7639 12.7067L12.5756 6.31754C12.4687 6.22236 12.3306 6.16982 12.1875 6.16992V7.5391L18.9877 13.5833C19.0944 13.6785 19.2325 13.731 19.3755 13.7309C19.537 13.7309 19.6977 13.6643 19.8132 13.5338C20.0276 13.2918 20.0055 12.9214 19.7639 12.7067Z" fill="#E20059"/>
<path d="M19.4151 19.9997H0.584802C0.261835 19.9922 0 19.7298 0 19.4062C0 19.0827 0.261835 18.8203 0.584802 18.8203H19.4151C19.7381 18.8203 19.9999 19.0827 19.9999 19.4062C19.9999 19.7298 19.7381 19.9922 19.4151 19.9997Z" fill="#DADA3B"/>
<path d="M19.4143 18.8203H10V19.9997H19.4143C19.7372 19.9922 19.9991 19.7298 19.9991 19.4062C19.9991 19.0826 19.7372 18.8203 19.4143 18.8203Z" fill="#9DBC29"/>
</g>
<defs>
<clipPath id="clip0_2001_146569">
<rect width="20" height="20" fill="white"/>
</clipPath>
</defs>
</svg>
