<svg width="20" height="21" viewBox="0 0 20 21" fill="none" xmlns="http://www.w3.org/2000/svg">
<g clip-path="url(#clip0_2025_187923)">
<path d="M2.33325 6.85938L0.712585 8.14304C0.59437 8.23662 0.498845 8.35572 0.433156 8.49143C0.367466 8.62713 0.333313 8.77594 0.333252 8.92671V19.443C0.333252 19.7083 0.438609 19.9626 0.626145 20.1501C0.813682 20.3377 1.06804 20.443 1.33325 20.443H18.6666C18.9318 20.443 19.1862 20.3377 19.3737 20.1501C19.5612 19.9626 19.6666 19.7083 19.6666 19.443V8.92671C19.6665 8.77594 19.6324 8.62713 19.5667 8.49143C19.501 8.35572 19.4055 8.23662 19.2873 8.14304L17.6666 6.85938H2.33325Z" fill="#F0C419"/>
<path d="M7.91333 14.4427L0.66333 20.1827C0.559096 20.0897 0.475782 19.9757 0.418895 19.8481C0.362008 19.7206 0.332844 19.5824 0.33333 19.4427C0.33333 7.95103 0.294663 8.79136 0.42333 8.5127L7.91333 14.4427ZM19.6667 19.4427C19.6671 19.5824 19.638 19.7206 19.5811 19.8481C19.5242 19.9757 19.4409 20.0897 19.3367 20.1827L12.0867 14.4427L19.5767 8.5127C19.705 8.79103 19.6667 7.9297 19.6667 19.4427Z" fill="#F3D55B"/>
<path d="M17.6666 1.77604V10.026L12.0866 14.4427L10.7199 13.3594C10.5149 13.1974 10.2612 13.1093 9.99992 13.1093C9.73863 13.1093 9.48497 13.1974 9.27992 13.3594L7.91325 14.4427L2.33325 10.026V1.77604C2.33378 1.59939 2.40419 1.43013 2.5291 1.30522C2.65401 1.18031 2.82327 1.1099 2.99992 1.10938H16.9999C17.1766 1.1099 17.3458 1.18031 17.4707 1.30522C17.5957 1.43013 17.6661 1.59939 17.6666 1.77604Z" fill="#ECF0F1"/>
<path d="M10 6.85637C10 6.85637 10.4607 5.77637 11.5 5.77637C12.388 5.77637 13 6.63637 13 7.65503C13 9.06403 11.7793 9.99703 10 11.7764C8.22067 9.99703 7 9.06403 7 7.65503C7 6.63637 7.612 5.77637 8.5 5.77637C9.53933 5.77637 10 6.85637 10 6.85637Z" fill="#FF5364"/>
<path d="M3.66659 2.10956C3.57818 2.10956 3.4934 2.14468 3.43088 2.20719C3.36837 2.2697 3.33325 2.35449 3.33325 2.44289V4.44289C3.33325 4.5313 3.36837 4.61609 3.43088 4.6786C3.4934 4.74111 3.57818 4.77623 3.66659 4.77623C3.75499 4.77623 3.83978 4.74111 3.90229 4.6786C3.9648 4.61609 3.99992 4.5313 3.99992 4.44289V2.44289C3.99992 2.35449 3.9648 2.2697 3.90229 2.20719C3.83978 2.14468 3.75499 2.10956 3.66659 2.10956ZM11.3333 2.10956C11.2448 2.10956 11.1601 2.14468 11.0975 2.20719C11.035 2.2697 10.9999 2.35449 10.9999 2.44289V4.44289C10.9999 4.5313 11.035 4.61609 11.0975 4.6786C11.1601 4.74111 11.2448 4.77623 11.3333 4.77623C11.4217 4.77623 11.5064 4.74111 11.569 4.6786C11.6315 4.61609 11.6666 4.5313 11.6666 4.44289V2.44289C11.6666 2.35449 11.6315 2.2697 11.569 2.20719C11.5064 2.14468 11.4217 2.10956 11.3333 2.10956ZM6.66659 2.10956C6.57818 2.10956 6.4934 2.14468 6.43088 2.20719C6.36837 2.2697 6.33325 2.35449 6.33325 2.44289V3.52223L5.25592 2.22956C5.21206 2.17697 5.15307 2.13916 5.08696 2.12128C5.02086 2.10339 4.95085 2.10631 4.88646 2.12961C4.82207 2.15292 4.76642 2.1955 4.72708 2.25155C4.68774 2.30761 4.66662 2.37441 4.66659 2.44289V4.44289C4.66659 4.5313 4.7017 4.61609 4.76422 4.6786C4.82673 4.74111 4.91151 4.77623 4.99992 4.77623C5.08832 4.77623 5.17311 4.74111 5.23562 4.6786C5.29813 4.61609 5.33325 4.5313 5.33325 4.44289V3.36356L6.41059 4.65623C6.45444 4.70882 6.51344 4.74663 6.57954 4.76451C6.64564 4.7824 6.71565 4.77948 6.78004 4.75617C6.84444 4.73287 6.90009 4.69029 6.93943 4.63424C6.97877 4.57818 6.99989 4.51138 6.99992 4.44289V2.44289C6.99992 2.35449 6.9648 2.2697 6.90229 2.20719C6.83978 2.14468 6.75499 2.10956 6.66659 2.10956ZM10.1489 2.14456C10.1097 2.12498 10.0671 2.1133 10.0234 2.11021C9.97972 2.10711 9.93585 2.11266 9.89431 2.12653C9.85276 2.1404 9.81436 2.16232 9.78129 2.19103C9.74822 2.21975 9.72114 2.2547 9.70159 2.29389L8.99992 3.69756L8.29992 2.29389C8.2604 2.21477 8.19107 2.15459 8.10718 2.12658C8.02329 2.09858 7.93171 2.10504 7.85259 2.14456C7.77346 2.18408 7.71328 2.25341 7.68527 2.3373C7.65727 2.42119 7.66373 2.51277 7.70325 2.59189L8.70325 4.59189C8.7309 4.64736 8.77346 4.69403 8.82616 4.72664C8.87886 4.75926 8.93961 4.77654 9.00159 4.77654C9.06356 4.77654 9.12431 4.75926 9.17701 4.72664C9.22971 4.69403 9.27227 4.64736 9.29992 4.59189L10.2999 2.59189C10.3194 2.55262 10.331 2.50988 10.334 2.46612C10.337 2.42236 10.3313 2.37844 10.3173 2.33689C10.3032 2.29533 10.2811 2.25695 10.2523 2.22395C10.2234 2.19094 10.1883 2.16397 10.1489 2.14456ZM13.9999 2.10956H12.6666C12.5782 2.10956 12.4934 2.14468 12.4309 2.20719C12.3684 2.2697 12.3333 2.35449 12.3333 2.44289C12.3333 2.5313 12.3684 2.61608 12.4309 2.6786C12.4934 2.74111 12.5782 2.77623 12.6666 2.77623H12.9999V4.44289C12.9999 4.5313 13.035 4.61609 13.0975 4.6786C13.1601 4.74111 13.2448 4.77623 13.3333 4.77623C13.4217 4.77623 13.5064 4.74111 13.569 4.6786C13.6315 4.61609 13.6666 4.5313 13.6666 4.44289V2.77623H13.9999C14.0883 2.77623 14.1731 2.74111 14.2356 2.6786C14.2981 2.61608 14.3333 2.5313 14.3333 2.44289C14.3333 2.35449 14.2981 2.2697 14.2356 2.20719C14.1731 2.14468 14.0883 2.10956 13.9999 2.10956ZM16.3333 3.77623C16.4217 3.77623 16.5064 3.74111 16.569 3.6786C16.6315 3.61609 16.6666 3.5313 16.6666 3.44289C16.6666 3.35449 16.6315 3.2697 16.569 3.20719C16.5064 3.14468 16.4217 3.10956 16.3333 3.10956H15.6666V2.77623H16.3333C16.4217 2.77623 16.5064 2.74111 16.569 2.6786C16.6315 2.61608 16.6666 2.5313 16.6666 2.44289C16.6666 2.35449 16.6315 2.2697 16.569 2.20719C16.5064 2.14468 16.4217 2.10956 16.3333 2.10956H15.3333C15.2448 2.10956 15.1601 2.14468 15.0975 2.20719C15.035 2.2697 14.9999 2.35449 14.9999 2.44289V4.44289C14.9999 4.5313 15.035 4.61609 15.0975 4.6786C15.1601 4.74111 15.2448 4.77623 15.3333 4.77623H16.3333C16.4217 4.77623 16.5064 4.74111 16.569 4.6786C16.6315 4.61609 16.6666 4.5313 16.6666 4.44289C16.6666 4.35449 16.6315 4.2697 16.569 4.20719C16.5064 4.14468 16.4217 4.10956 16.3333 4.10956H15.6666V3.77623H16.3333Z" fill="#547580"/>
</g>
<defs>
<clipPath id="clip0_2025_187923">
<rect width="20" height="20" fill="white" transform="translate(0 0.776367)"/>
</clipPath>
</defs>
</svg>
