<svg width="20" height="21" viewBox="0 0 20 21" fill="none" xmlns="http://www.w3.org/2000/svg">
<g clip-path="url(#clip0_2025_187905)">
<path d="M6.51383 1.13672C9.90715 1.13672 12.7347 2.29293 12.7347 5.82676C12.7347 7.31723 12.2314 8.38445 11.3951 9.12059C11.2432 9.25426 11.1784 9.46094 11.2311 9.65625C11.3791 10.2053 11.5926 10.7824 11.8856 11.3212C12.1104 11.7345 11.807 12.233 11.3367 12.22C10.1988 12.1883 8.95652 11.6583 8.02551 10.6462C7.91473 10.5257 7.75617 10.4611 7.59305 10.4744C7.24184 10.5031 6.88121 10.5168 6.51383 10.5168C3.12051 10.5168 0.292969 9.36055 0.292969 5.82672C0.292969 2.29293 3.12051 1.13672 6.51383 1.13672Z" fill="#B0DA87"/>
<path d="M2.39409 5.93008C3.018 5.93008 3.52378 5.52731 3.52378 5.03047C3.52378 4.53363 3.018 4.13086 2.39409 4.13086C1.77018 4.13086 1.2644 4.53363 1.2644 5.03047C1.2644 5.52731 1.77018 5.93008 2.39409 5.93008Z" fill="white"/>
<path d="M8.51734 5.93008C9.14123 5.93008 9.64699 5.52731 9.64699 5.03047C9.64699 4.53363 9.14123 4.13086 8.51734 4.13086C7.89346 4.13086 7.3877 4.53363 7.3877 5.03047C7.3877 5.52731 7.89346 5.93008 8.51734 5.93008Z" fill="white"/>
<path d="M13.4862 4.72363C16.8796 4.72363 19.7071 5.87984 19.7071 9.41367C19.7071 10.9041 19.2038 11.9714 18.3675 12.7075C18.2157 12.8412 18.1508 13.0479 18.2035 13.2432C18.3515 13.7922 18.565 14.3693 18.858 14.9081C19.0828 15.3214 18.7794 15.82 18.3091 15.8069C17.1712 15.7752 15.9289 15.2452 14.9979 14.2331C14.8871 14.1126 14.7286 14.048 14.5655 14.0613C14.2142 14.09 13.8536 14.1037 13.4862 14.1037C10.0929 14.1037 7.26538 12.9475 7.26538 9.41367C7.26538 5.87984 10.0929 4.72363 13.4862 4.72363Z" fill="#8DAEE1"/>
<path d="M11.5328 9.3691C10.4723 8.68391 9.08335 8.28785 7.39593 8.1875C7.3105 8.56004 7.26538 8.96785 7.26538 9.41359C7.26538 12.9474 10.0929 14.1036 13.4862 14.1036C13.6272 14.1036 13.7669 14.1009 13.9057 14.0968C13.9059 14.0724 13.9066 14.0482 13.9066 14.0236C13.9066 11.982 13.0858 10.3725 11.5328 9.3691Z" fill="#6A95D6"/>
<path d="M6.51383 9.33301C3.12051 9.33301 0.292969 10.4892 0.292969 14.023C0.292969 15.5135 0.79625 16.5807 1.63258 17.3169C1.78441 17.4505 1.84926 17.6572 1.7966 17.8525C1.64859 18.4016 1.43504 18.9787 1.14203 19.5175C0.917305 19.9308 1.2207 20.4293 1.69098 20.4163C2.82887 20.3846 4.07113 19.8546 5.00219 18.8425C5.11301 18.722 5.27152 18.6573 5.43465 18.6707C5.78586 18.6994 6.14648 18.713 6.51387 18.713C9.90719 18.713 12.7347 17.5568 12.7347 14.023C12.7347 10.4892 9.90715 9.33301 6.51383 9.33301Z" fill="#FBF1CF"/>
<path d="M4.01492 9.59082C1.83832 10.098 0.292969 11.4108 0.292969 14.0231C0.292969 15.5136 0.79625 16.5808 1.63258 17.3169C1.78441 17.4506 1.84926 17.6573 1.7966 17.8526C1.64859 18.4016 1.43504 18.9788 1.14203 19.5175C0.917305 19.9308 1.2207 20.4294 1.69098 20.4163C2.82887 20.3846 4.07113 19.8546 5.00219 18.8425C5.11301 18.722 5.27152 18.6574 5.43465 18.6707C5.78586 18.6994 6.14648 18.7131 6.51387 18.7131C6.89223 18.7131 7.26352 18.6986 7.62469 18.6682C3.4902 17.4003 2.82227 11.5381 4.01492 9.59082Z" fill="#FAE0BD"/>
<path d="M3.05238 3.22121C2.59434 3.22121 2.22168 3.59383 2.22168 4.05188C2.22168 4.21371 2.35281 4.34484 2.51465 4.34484C2.67648 4.34484 2.80762 4.21371 2.80762 4.05188C2.8077 3.98699 2.83352 3.92478 2.8794 3.8789C2.92529 3.83303 2.9875 3.80722 3.05238 3.80715C3.11726 3.80723 3.17946 3.83304 3.22534 3.87892C3.27122 3.9248 3.29703 3.98699 3.29711 4.05188C3.29711 4.21371 3.42824 4.34484 3.59008 4.34484C3.75191 4.34484 3.88305 4.21371 3.88305 4.05188C3.88301 3.59383 3.51039 3.22121 3.05238 3.22121ZM6.21836 4.45945C6.18936 4.43417 6.15566 4.41485 6.11919 4.40259C6.08272 4.39034 6.04419 4.38539 6.00581 4.38803C5.96742 4.39067 5.92993 4.40085 5.89549 4.41798C5.86104 4.43512 5.8303 4.45887 5.80504 4.48789C5.76156 4.53787 5.70787 4.57796 5.64759 4.60544C5.58731 4.63293 5.52184 4.64718 5.45559 4.64723C5.38933 4.64719 5.32385 4.63294 5.26356 4.60546C5.20327 4.57797 5.14958 4.53788 5.10609 4.48789C5.08083 4.45888 5.05009 4.43513 5.01564 4.41799C4.98119 4.40086 4.94371 4.39069 4.90532 4.38805C4.86694 4.3854 4.82842 4.39035 4.79195 4.4026C4.75548 4.41486 4.72178 4.43417 4.69277 4.45945C4.6342 4.51049 4.59829 4.58271 4.59296 4.66022C4.58763 4.73774 4.6133 4.81419 4.66434 4.87277C4.86383 5.1018 5.15227 5.23316 5.45559 5.23316C5.75891 5.23316 6.04727 5.10184 6.2468 4.87277C6.27208 4.84377 6.29139 4.81007 6.30365 4.7736C6.3159 4.73713 6.32085 4.6986 6.3182 4.66022C6.31556 4.62184 6.30539 4.58435 6.28826 4.5499C6.27112 4.51546 6.24737 4.48472 6.21836 4.45945ZM8.68945 4.05184C8.68945 3.59379 8.3168 3.22117 7.85875 3.22117C7.4007 3.22117 7.02809 3.59379 7.02809 4.05184C7.02809 4.21367 7.15922 4.34481 7.32105 4.34481C7.48289 4.34481 7.61402 4.21367 7.61402 4.05184C7.61411 3.98696 7.63992 3.92476 7.68579 3.87888C7.73167 3.833 7.79387 3.80719 7.85875 3.80711C7.92364 3.80718 7.98585 3.83299 8.03173 3.87887C8.07762 3.92474 8.10343 3.98695 8.10352 4.05184C8.10352 4.21367 8.23465 4.34481 8.39648 4.34481C8.55832 4.34481 8.68945 4.21367 8.68945 4.05184ZM6.51805 10.982C6.44035 10.982 6.36583 11.0129 6.31089 11.0678C6.25594 11.1227 6.22508 11.1973 6.22508 11.275V12.023H4.55516C4.47746 12.023 4.40294 12.0538 4.348 12.1088C4.29305 12.1637 4.26219 12.2382 4.26219 12.3159C4.26219 12.4778 4.39332 12.6089 4.55516 12.6089H7.32176C7.25789 13.3 6.92371 14.057 6.42082 14.7205C6.1407 14.4686 5.91293 14.1812 5.76844 13.91C5.75034 13.8761 5.72574 13.846 5.69602 13.8216C5.66631 13.7971 5.63208 13.7788 5.59527 13.7676C5.55847 13.7564 5.51982 13.7525 5.48152 13.7562C5.44323 13.76 5.40604 13.7712 5.37209 13.7893C5.33814 13.8074 5.30808 13.832 5.28363 13.8617C5.25919 13.8914 5.24084 13.9256 5.22962 13.9624C5.21841 13.9992 5.21455 14.0379 5.21828 14.0762C5.222 14.1145 5.23323 14.1517 5.25133 14.1856C5.42336 14.5084 5.69727 14.8594 6.04238 15.1677C5.74066 15.4876 5.39926 15.7716 5.03254 15.9967C4.96767 16.038 4.92163 16.1031 4.90433 16.178C4.88704 16.2529 4.89988 16.3316 4.94009 16.3971C4.9803 16.4627 5.04466 16.5098 5.11928 16.5283C5.1939 16.5468 5.27281 16.5352 5.33898 16.4961C5.75496 16.2408 6.15281 15.9082 6.50723 15.5248C6.84539 15.7454 7.2257 15.9141 7.62965 15.9877C7.7061 16.0016 7.78494 15.9845 7.84883 15.9403C7.91273 15.8961 7.95644 15.8283 7.97035 15.7519C7.98426 15.6754 7.96724 15.5966 7.92302 15.5327C7.87881 15.4688 7.81102 15.4251 7.73457 15.4112C7.43883 15.3574 7.15102 15.2348 6.8873 15.0716C7.42703 14.361 7.84418 13.4953 7.90949 12.6089H8.48098C8.64281 12.6089 8.77395 12.4778 8.77395 12.316C8.77395 12.2383 8.74308 12.1638 8.68814 12.1088C8.63319 12.0539 8.55868 12.023 8.48098 12.023H6.81109V11.275C6.81108 11.1973 6.7802 11.1228 6.72525 11.0678C6.67029 11.0129 6.59576 10.982 6.51805 10.982ZM18.4862 13.1666C18.4629 13.08 18.4916 12.9883 18.561 12.9271C19.5159 12.0867 20 10.9045 20 9.4134C20 7.46148 19.1836 6.05609 17.5736 5.23609C17.5043 5.20083 17.4239 5.19452 17.35 5.21855C17.2761 5.24258 17.2148 5.29498 17.1795 5.36422C17.1443 5.43346 17.138 5.51387 17.162 5.58777C17.186 5.66166 17.2384 5.72298 17.3077 5.75824C18.7054 6.47008 19.4141 7.69984 19.4141 9.4134C19.4141 10.7287 18.9968 11.7629 18.1739 12.4873C17.9358 12.6969 17.8387 13.0156 17.9205 13.3191C18.0901 13.9481 18.3189 14.5297 18.6006 15.0478C18.7161 15.2604 18.5659 15.5181 18.3172 15.5138C17.1971 15.4826 16.0368 14.9296 15.2134 14.0345C15.0393 13.8451 14.7944 13.7482 14.5416 13.7691C14.0767 13.807 13.561 13.8204 13.0237 13.8025C12.9871 12.6892 12.6719 11.7597 12.0826 11.0243L12.3467 10.3308H14.6288L14.9699 11.2347C14.9974 11.3074 15.0526 11.3662 15.1234 11.3982C15.1942 11.4302 15.2748 11.4327 15.3475 11.4053C15.3835 11.3917 15.4164 11.3712 15.4445 11.3449C15.4725 11.3185 15.4951 11.2869 15.511 11.2519C15.5268 11.2168 15.5356 11.179 15.5368 11.1405C15.538 11.1021 15.5317 11.0638 15.5181 11.0278C13.8437 6.59109 13.8618 6.63863 13.8581 6.62945C13.7537 6.37555 13.4895 6.38418 13.4934 6.38543C13.3252 6.38559 13.1807 6.49176 13.1266 6.63688L11.6359 10.5509C11.4591 10.391 11.2659 10.2429 11.0558 10.1071C10.1693 9.53438 8.99937 9.1902 7.56883 9.07969C7.6473 7.69746 8.22188 6.65449 9.28066 5.97781C10.2789 5.33984 11.6939 5.01637 13.4862 5.01637C14.446 5.01637 15.3094 5.11133 16.0523 5.29863C16.209 5.33828 16.3684 5.24305 16.4079 5.08617C16.4269 5.01083 16.4152 4.93104 16.3754 4.86434C16.3355 4.79764 16.2708 4.7495 16.1955 4.73051C15.1469 4.46613 13.9564 4.39684 12.8673 4.44379C12.2795 2.08734 10.0899 0.84375 6.51379 0.84375C2.8632 0.843711 0 2.17531 0 5.82672C0 7.61141 0.695586 9.05371 2.27848 9.92453C0.709961 10.7868 0 12.2121 0 14.0234C0 15.5146 0.484141 16.6967 1.43898 17.5371C1.50844 17.5983 1.53711 17.6901 1.51375 17.7767C1.40898 18.1653 1.27855 18.5382 1.12598 18.885C1.11049 18.9202 1.10208 18.9581 1.10125 18.9966C1.10042 19.0351 1.10717 19.0733 1.12112 19.1092C1.13507 19.145 1.15595 19.1778 1.18256 19.2056C1.20917 19.2334 1.24099 19.2556 1.27621 19.2711C1.31143 19.2866 1.34935 19.295 1.38782 19.2959C1.42629 19.2967 1.46455 19.29 1.5004 19.276C1.53626 19.2621 1.56902 19.2412 1.59681 19.2146C1.62459 19.188 1.64686 19.1561 1.66234 19.1209C1.82672 18.7471 1.96711 18.3462 2.07949 17.9292C2.16133 17.6257 2.06422 17.307 1.82617 17.0973C1.0032 16.373 0.585938 15.3388 0.585938 14.0234C0.585938 10.7138 3.21805 9.62641 6.51383 9.62641C8.31742 9.62641 9.73859 9.95375 10.7378 10.5993C11.8684 11.3298 12.4418 12.4819 12.4418 14.0234C12.4418 15.565 11.8684 16.717 10.7378 17.4475C9.30676 18.3721 7.13594 18.5161 5.45855 18.3791C5.20578 18.3581 4.96078 18.4551 4.7866 18.6445C3.96328 19.5396 2.80301 20.0926 1.68285 20.1238C1.55473 20.1266 1.47457 20.0599 1.43887 20.0193C1.38758 19.9609 1.31522 19.9253 1.23768 19.9203C1.16015 19.9153 1.0838 19.9413 1.02543 19.9926C0.967065 20.0439 0.931461 20.1162 0.926451 20.1938C0.92144 20.2713 0.947432 20.3476 0.998711 20.406C1.17344 20.6049 1.42746 20.7167 1.69918 20.7095C2.99324 20.6734 4.27574 20.0654 5.21781 19.0411C5.26895 18.9856 5.33898 18.9572 5.41082 18.963C7.2323 19.112 9.50914 18.9389 11.0558 17.9397C12.2718 17.154 12.9303 15.9603 13.0174 14.3884C13.5726 14.4066 14.1064 14.3925 14.5893 14.353C14.6606 14.3473 14.7312 14.3756 14.7823 14.4311C15.7244 15.4554 17.0069 16.0634 18.3009 16.0995C19.0003 16.1176 19.447 15.3779 19.1154 14.7679C18.8555 14.2901 18.6439 13.7514 18.4862 13.1666ZM13.493 7.32117L14.4077 9.74492H12.5698L13.493 7.32117ZM6.51383 9.04043C5.11691 9.04043 3.92715 9.23098 2.96043 9.60773C1.31121 8.88477 0.585938 7.57797 0.585938 5.82672C0.585938 2.51707 3.21793 1.42965 6.51383 1.42965C9.02906 1.42965 11.6001 2.07086 12.2716 4.48309C10.9246 4.60535 9.81574 4.94051 8.96516 5.4841C7.73664 6.26922 7.07148 7.46762 6.98363 9.04813C6.82708 9.04304 6.67046 9.04047 6.51383 9.04043Z" fill="black"/>
</g>
<defs>
<clipPath id="clip0_2025_187905">
<rect width="20" height="20" fill="white" transform="translate(0 0.776367)"/>
</clipPath>
</defs>
</svg>
