<svg width="24" height="25" viewBox="0 0 24 25" fill="none" xmlns="http://www.w3.org/2000/svg">
<g clip-path="url(#clip0_2025_187980)">
<path d="M8.25 12.7764C9.9045 12.7764 11.25 11.4309 11.25 9.77637C11.25 8.12187 9.9045 6.77637 8.25 6.77637C6.5955 6.77637 5.25 8.12187 5.25 9.77637C5.25 11.4309 6.5955 12.7764 8.25 12.7764Z" fill="#FFE082"/>
<path d="M11.1757 13.8575C11.0617 13.7599 10.921 13.6987 10.7718 13.6817C10.6227 13.6648 10.4718 13.6928 10.3387 13.7623C9.0585 14.435 7.4415 14.435 6.16125 13.7623C6.02818 13.6927 5.87733 13.6646 5.72815 13.6816C5.57896 13.6986 5.43828 13.7598 5.32425 13.8575C4.83081 14.2802 4.43464 14.8046 4.16291 15.3948C3.89118 15.985 3.75032 16.627 3.75 17.2768V18.0268C3.75 18.2257 3.82902 18.4164 3.96967 18.5571C4.11032 18.6977 4.30109 18.7768 4.5 18.7768H12C12.1989 18.7768 12.3897 18.6977 12.5303 18.5571C12.671 18.4164 12.75 18.2257 12.75 18.0268V17.2768C12.7497 16.627 12.6088 15.985 12.3371 15.3948C12.0654 14.8046 11.6692 14.2802 11.1757 13.8575Z" fill="#42A5F5"/>
<g opacity="0.1">
<path d="M11.25 9.77637C11.25 11.4339 9.9075 12.7764 8.25 12.7764V6.77637C9.9075 6.77637 11.25 8.11887 11.25 9.77637ZM12.75 17.2764V18.0264C12.75 18.4389 12.4125 18.7764 12 18.7764H8.25V14.2614C8.9775 14.2614 9.705 14.0964 10.3425 13.7589C10.6125 13.6239 10.9425 13.6539 11.175 13.8564C11.6691 14.2787 12.0658 14.8032 12.3377 15.3936C12.6096 15.984 12.7502 16.6264 12.75 17.2764Z" fill="black"/>
</g>
<path d="M23.0303 12.246L18.5303 7.74596C18.4254 7.6411 18.2917 7.5697 18.1463 7.54077C18.0008 7.51184 17.85 7.5267 17.713 7.58345C17.576 7.6402 17.4589 7.73631 17.3764 7.85961C17.294 7.98292 17.25 8.12789 17.25 8.27621V10.5262H15C14.8011 10.5262 14.6103 10.6052 14.4697 10.7459C14.329 10.8865 14.25 11.0773 14.25 11.2762V14.2762C14.25 14.4751 14.329 14.6659 14.4697 14.8065C14.6103 14.9472 14.8011 15.0262 15 15.0262H17.25V17.2762C17.2497 17.4247 17.2935 17.5699 17.3758 17.6934C17.4582 17.817 17.5754 17.9133 17.7125 17.9701C17.8497 18.0269 18.0007 18.0417 18.1463 18.0125C18.2919 17.9834 18.4255 17.9117 18.5303 17.8065L23.0303 13.3065C23.1709 13.1658 23.2498 12.9751 23.2498 12.7762C23.2498 12.5773 23.1709 12.3866 23.0303 12.246Z" fill="#EF5350"/>
<path d="M23.0325 13.3084L18.75 17.5909V7.96094L23.0325 12.2434C23.325 12.5359 23.325 13.0159 23.0325 13.3084Z" fill="black" fill-opacity="0.0627451"/>
<path d="M12 24.0264H3.75C2.0955 24.0264 0.75 22.6809 0.75 21.0264V4.52637C0.75 2.87187 2.0955 1.52637 3.75 1.52637H12C12.1989 1.52637 12.3897 1.60538 12.5303 1.74604C12.671 1.88669 12.75 2.07745 12.75 2.27637C12.75 2.47528 12.671 2.66605 12.5303 2.8067C12.3897 2.94735 12.1989 3.02637 12 3.02637H3.75C2.92275 3.02637 2.25 3.69912 2.25 4.52637V21.0264C2.25 21.8536 2.92275 22.5264 3.75 22.5264H12C12.1989 22.5264 12.3897 22.6054 12.5303 22.746C12.671 22.8867 12.75 23.0775 12.75 23.2764C12.75 23.4753 12.671 23.666 12.5303 23.8067C12.3897 23.9473 12.1989 24.0264 12 24.0264Z" fill="#FFCA28"/>
<g opacity="0.1">
<path d="M12.75 23.2764C12.75 23.6889 12.4125 24.0264 12 24.0264H8.25V22.5264H12C12.4125 22.5264 12.75 22.8639 12.75 23.2764ZM12 3.02637H8.25V1.52637H12C12.4125 1.52637 12.75 1.86387 12.75 2.27637C12.75 2.68887 12.4125 3.02637 12 3.02637Z" fill="black"/>
</g>
</g>
<defs>
<clipPath id="clip0_2025_187980">
<rect width="24" height="24" fill="white" transform="translate(0 0.776367)"/>
</clipPath>
</defs>
</svg>
