<svg width="20" height="20" viewBox="0 0 20 20" fill="none" xmlns="http://www.w3.org/2000/svg">
<path d="M11.8714 7.04473C11.8714 7.6691 11.3652 8.17539 10.7408 8.17539H3.5916C2.96707 8.17539 2.46094 8.68152 2.46094 9.30609V18.87C2.46094 19.4945 2.96707 20.0007 3.59164 20.0007H18.1197C18.7442 20.0007 19.2504 19.4945 19.2504 18.87V7.04473C19.2504 6.4202 18.7442 5.91406 18.1197 5.91406H13.002C12.3776 5.91406 11.8714 6.4202 11.8714 7.04473Z" fill="#E58E13"/>
<path d="M5.6875 3.03516H17.9318V18.6818H5.6875V3.03516Z" fill="#B3B3B3"/>
<path d="M3.71875 0H15.963V10.3824H3.71875V0Z" fill="#CBCBCB"/>
<path d="M3.72004 0H15.9643V2.21512H3.72004V0ZM1.75 3.0359H13.9943V10.3824H1.75V3.0359Z" fill="#E6E6E6"/>
<path d="M16.8285 7.04473V18.87C16.8285 19.4945 16.3223 20.0007 15.6978 20.0007H1.16973C0.545703 20.0007 0.0390625 19.4945 0.0390625 18.87V9.30594C0.0390625 8.68141 0.545664 8.17527 1.16973 8.17527H8.31914C8.94352 8.17527 9.44965 7.6691 9.44965 7.04473C9.44965 6.4202 9.95578 5.91406 10.5803 5.91406H15.6978C16.3224 5.91406 16.8285 6.4202 16.8285 7.04473H16.8285Z" fill="#E58E13"/>
<path d="M16.3387 7.04473V18.87C16.3387 19.4945 15.8325 20.0007 15.208 20.0007H1.16973C0.545703 20.0007 0.0390625 19.4945 0.0390625 18.87V9.30594C0.0390625 8.68141 0.545664 8.17527 1.16973 8.17527H8.31914C8.94352 8.17527 9.44965 7.6691 9.44965 7.04473C9.44965 6.4202 9.95578 5.91406 10.5803 5.91406H15.208C15.8325 5.91406 16.3387 6.4202 16.3387 7.04473H16.3387Z" fill="#F7D360"/>
<path d="M11.0121 4.93445H3.66562C3.49652 4.93445 3.35938 4.79742 3.35938 4.62836C3.35938 4.4593 3.49652 4.32227 3.66562 4.32227H11.0121C11.1812 4.32227 11.3182 4.4593 11.3182 4.62836C11.3182 4.79742 11.1812 4.93445 11.0121 4.93445ZM7.86805 6.46504H3.66562C3.49652 6.46504 3.35938 6.32801 3.35938 6.15894C3.35938 5.98988 3.49652 5.85269 3.66562 5.85269H7.86805C7.9484 5.85398 8.02503 5.8868 8.0814 5.94408C8.13777 6.00136 8.16937 6.0785 8.16937 6.15887C8.16937 6.23923 8.13777 6.31638 8.0814 6.37365C8.02503 6.43093 7.9484 6.46376 7.86805 6.46504Z" fill="#6198CE"/>
<path d="M14.938 12.0972H9.41328C9.18059 12.0972 8.99219 11.9086 8.99219 11.6761V10.2532C8.99219 10.0206 9.18059 9.83203 9.41328 9.83203H14.9379C15.1706 9.83203 15.359 10.0206 15.359 10.2531V11.6761C15.3592 11.9087 15.1706 12.0971 14.938 12.0971V12.0972Z" fill="#FC5F61"/>
</svg>
