<svg width="20" height="20" viewBox="0 0 20 20" fill="none" xmlns="http://www.w3.org/2000/svg">
<g clip-path="url(#clip0_2001_102914)">
<path d="M1.25 1.25H18.75V14.375H1.25V1.25Z" fill="#006FDB"/>
<path d="M7.5 15.3125H12.5V17.1875H7.5V15.3125Z" fill="#393D48"/>
<path d="M15 18.75H5L7.5 17.1875H12.5L15 18.75Z" fill="#5C6979"/>
<path d="M5 18.75H15C15.1656 18.7505 15.3243 18.8165 15.4414 18.9336C15.5585 19.0507 15.6245 19.2094 15.625 19.375V19.6875H4.375V19.375C4.37549 19.2094 4.4415 19.0507 4.5586 18.9336C4.67571 18.8165 4.83439 18.7505 5 18.75Z" fill="#393D48"/>
<path d="M0.9375 0.3125H19.0625C19.2281 0.312995 19.3868 0.379001 19.5039 0.496105C19.621 0.613208 19.687 0.771892 19.6875 0.9375V14.6875C19.687 14.8531 19.621 15.0118 19.5039 15.1289C19.3868 15.246 19.2281 15.312 19.0625 15.3125H0.9375C0.771892 15.312 0.613208 15.246 0.496105 15.1289C0.379001 15.0118 0.312995 14.8531 0.3125 14.6875V0.9375C0.312995 0.771892 0.379001 0.613208 0.496105 0.496105C0.613208 0.379001 0.771892 0.312995 0.9375 0.3125ZM1.25 14.375H18.75V1.25H1.25V14.375Z" fill="#393D48"/>
<path d="M17.7939 8.15625C17.8152 8.22307 17.8207 8.29389 17.8102 8.36321C17.7996 8.43253 17.7732 8.49847 17.733 8.55592C17.6927 8.61336 17.6398 8.66076 17.5783 8.69442C17.5168 8.72808 17.4484 8.7471 17.3783 8.75C17.2879 8.74812 17.2003 8.71826 17.1275 8.66453C17.0548 8.61081 17.0005 8.53586 16.9721 8.45L16.2502 6.25V12.1719C16.2509 12.2564 16.2189 12.338 16.1608 12.3994C16.1027 12.4609 16.0231 12.4975 15.9386 12.5015C15.8542 12.5055 15.7714 12.4767 15.7078 12.4211C15.6441 12.3655 15.6044 12.2874 15.597 12.2031L15.3127 8.75L15.0283 12.2031C15.021 12.2874 14.9813 12.3655 14.9176 12.4211C14.8539 12.4767 14.7712 12.5055 14.6867 12.5015C14.6023 12.4975 14.5226 12.4609 14.4646 12.3994C14.4065 12.338 14.3744 12.2564 14.3752 12.1719V6.25L13.6533 8.45C13.6249 8.53586 13.5706 8.61081 13.4978 8.66453C13.4251 8.71826 13.3375 8.74812 13.247 8.75C13.1285 8.74665 13.0162 8.69638 12.9348 8.61024C12.8533 8.52409 12.8094 8.40913 12.8127 8.29063C12.8128 8.24519 12.8191 8.19998 12.8314 8.15625L13.4627 5.92812C13.5162 5.73174 13.6171 5.55147 13.7564 5.40313L13.7908 5.36563C14.031 5.13203 14.3526 5.00092 14.6877 5H15.9377C16.2727 5.00092 16.5943 5.13203 16.8346 5.36563L16.8689 5.40313C17.0083 5.55147 17.1092 5.73174 17.1627 5.92812L17.7939 8.15625Z" fill="#EDF4FA"/>
<path d="M15.9732 2.775C16.126 2.92824 16.2209 3.12972 16.2419 3.34511C16.2628 3.5605 16.2084 3.77648 16.088 3.95629C15.9676 4.13609 15.7885 4.26859 15.5814 4.33121C15.3742 4.39384 15.1518 4.38272 14.9519 4.29976C14.7521 4.21679 14.5871 4.06711 14.4852 3.8762C14.3833 3.68529 14.3507 3.46496 14.3931 3.25273C14.4354 3.04049 14.5499 2.84949 14.7172 2.71224C14.8845 2.57499 15.0943 2.49999 15.3107 2.5C15.4338 2.49999 15.5556 2.52428 15.6693 2.57147C15.783 2.61866 15.8863 2.68782 15.9732 2.775Z" fill="#EDF4FA"/>
<path d="M15.3125 8.75L15.0281 12.2031C15.0242 12.2372 15.0147 12.2705 15 12.3016C15.026 12.3647 15.0716 12.4179 15.13 12.4534C15.1883 12.4889 15.2565 12.5048 15.3246 12.4988C15.3927 12.4928 15.457 12.4652 15.5083 12.4201C15.5596 12.3749 15.5951 12.3146 15.6097 12.2478C15.6043 12.2332 15.6 12.2183 15.5969 12.2031L15.3125 8.75Z" fill="#004080"/>
<path d="M14.375 6.25L13.75 8.15625V12.1719C13.75 12.2589 13.7846 12.3424 13.8461 12.4039C13.9076 12.4654 13.9911 12.5 14.0781 12.5C14.1511 12.4995 14.2217 12.4743 14.2784 12.4285C14.3352 12.3827 14.3747 12.319 14.3906 12.2478C14.3822 12.2233 14.377 12.1977 14.375 12.1719V6.25Z" fill="#004080"/>
<path d="M12.8314 8.15625L13.4627 5.92812C13.5162 5.73174 13.617 5.55147 13.7564 5.40313L13.7908 5.36563C14.031 5.13203 14.3526 5.00092 14.6877 5H14.0627C13.7276 5.00092 13.406 5.13203 13.1658 5.36563L13.1314 5.40313C12.992 5.55147 12.8912 5.73174 12.8377 5.92812L12.2064 8.15625C12.1941 8.19998 12.1878 8.24519 12.1877 8.29063C12.1844 8.40913 12.2283 8.52409 12.3098 8.61024C12.3912 8.69638 12.5035 8.74665 12.622 8.75C12.6809 8.74907 12.7389 8.73566 12.7921 8.71067C12.8454 8.68567 12.8928 8.64966 12.9311 8.605C12.8546 8.51816 12.8125 8.40636 12.8127 8.29063C12.8128 8.24519 12.8191 8.19998 12.8314 8.15625Z" fill="#004080"/>
<path d="M16.25 6.25V8.15625L16.3469 8.45156C16.3753 8.53742 16.4296 8.61237 16.5023 8.6661C16.5751 8.71982 16.6627 8.74968 16.7531 8.75156C16.8129 8.75107 16.8719 8.73772 16.9261 8.71244C16.9803 8.68715 17.0284 8.65051 17.0672 8.605C17.0265 8.56024 16.9947 8.50818 16.9734 8.45156L16.25 6.25Z" fill="#004080"/>
<path d="M14.6875 4.375C14.7942 4.3741 14.9 4.35465 15 4.3175C14.817 4.25424 14.6583 4.13549 14.5459 3.97779C14.4336 3.82009 14.3732 3.63128 14.3732 3.43766C14.3732 3.24403 14.4336 3.05523 14.5459 2.89753C14.6583 2.73982 14.817 2.62108 15 2.55781C14.8999 2.52067 14.7942 2.50111 14.6875 2.5C14.4389 2.5 14.2004 2.59877 14.0246 2.77459C13.8488 2.9504 13.75 3.18886 13.75 3.4375C13.75 3.68614 13.8488 3.9246 14.0246 4.10041C14.2004 4.27623 14.4389 4.375 14.6875 4.375Z" fill="#004080"/>
<path d="M12.5 15.3125H7.5V17.1875H8.75V16.5625C8.75 16.3967 8.81585 16.2378 8.93306 16.1206C9.05027 16.0033 9.20924 15.9375 9.375 15.9375H12.5V15.3125Z" fill="#2B2B37"/>
<path d="M8.70906 18.125C8.65246 18.1251 8.5969 18.1098 8.54832 18.0807C8.49974 18.0517 8.45997 18.01 8.43324 17.9601C8.40651 17.9102 8.39384 17.854 8.39657 17.7974C8.3993 17.7409 8.41734 17.6861 8.44875 17.6391L8.75 17.1875H7.5L5 18.75H15L14 18.125H8.70906Z" fill="#46505C"/>
<path d="M15 19.375H5C4.89088 19.3744 4.78381 19.3452 4.68946 19.2904C4.5951 19.2356 4.51675 19.157 4.46219 19.0625C4.40578 19.157 4.37567 19.2649 4.375 19.375V19.6875H15.625V19.375C15.6243 19.2649 15.5942 19.157 15.5378 19.0625C15.4833 19.157 15.4049 19.2356 15.3105 19.2904C15.2162 19.3452 15.1091 19.3744 15 19.375Z" fill="#2B2B37"/>
<path d="M0.9375 14.6875H19.0625V0.9375H0.9375V14.6875ZM1.25 1.25H18.75V14.375H1.25V1.25Z" fill="#2B2B37"/>
<path d="M10 12.8125C8.17664 12.8125 6.42795 12.0882 5.13864 10.7989C3.84933 9.50955 3.125 7.76086 3.125 5.9375V1.25H1.25V14.375H18.75V12.8125H10Z" fill="#005EBA"/>
<path d="M4.375 11.2503C4.45358 11.2433 4.53276 11.2526 4.60759 11.2776C4.68242 11.3026 4.7513 11.3427 4.80994 11.3955C4.86858 11.4483 4.91572 11.5126 4.94842 11.5844C4.98112 11.6561 4.99868 11.7339 5 11.8128C5 12.6565 3.95938 13.1253 3.75 13.1253C3.64688 13.1253 2.5 12.6565 2.5 11.8128C2.50132 11.7339 2.51888 11.6561 2.55158 11.5844C2.58428 11.5126 2.63142 11.4483 2.69006 11.3955C2.7487 11.3427 2.81758 11.3026 2.89241 11.2776C2.96724 11.2526 3.04642 11.2433 3.125 11.2503C3.26607 11.2495 3.40354 11.2948 3.5164 11.3795C3.62926 11.4641 3.7113 11.5834 3.75 11.719C3.7887 11.5834 3.87074 11.4641 3.9836 11.3795C4.09646 11.2948 4.23393 11.2495 4.375 11.2503Z" fill="#FF505B"/>
<path d="M3.75 12.8131C3.65406 12.8131 2.65625 12.4069 2.51719 11.6719C2.50582 11.7181 2.50005 11.7655 2.5 11.8131C2.5 12.6569 3.64688 13.1256 3.75 13.1256C3.95938 13.1256 5 12.6569 5 11.8131C4.99994 11.7665 4.99448 11.7201 4.98375 11.6747C4.85469 12.4069 3.94438 12.8131 3.75 12.8131Z" fill="#E63B47"/>
<path d="M4.375 10.9374C4.14551 10.9332 3.92269 11.0146 3.75 11.1658C3.57731 11.0146 3.35449 10.9332 3.125 10.9374C3.00514 10.9297 2.88497 10.9465 2.77188 10.987C2.65878 11.0274 2.55515 11.0905 2.46735 11.1725C2.37954 11.2544 2.30943 11.3535 2.2613 11.4635C2.21318 11.5735 2.18806 11.6923 2.1875 11.8124C2.1875 12.8517 3.505 13.4374 3.75 13.4374C4.12656 13.4374 5.3125 12.8436 5.3125 11.8124C5.31194 11.6923 5.28682 11.5735 5.2387 11.4635C5.19057 11.3535 5.12046 11.2544 5.03265 11.1725C4.94485 11.0905 4.84122 11.0274 4.72812 10.987C4.61502 10.9465 4.49486 10.9297 4.375 10.9374ZM3.75 13.1249C3.64687 13.1249 2.5 12.6561 2.5 11.8124C2.50132 11.7335 2.51888 11.6557 2.55158 11.5839C2.58428 11.5121 2.63142 11.4478 2.69006 11.3951C2.7487 11.3423 2.81758 11.3022 2.89241 11.2772C2.96724 11.2522 3.04642 11.2429 3.125 11.2499C3.26607 11.249 3.40354 11.2944 3.5164 11.379C3.62926 11.4637 3.7113 11.583 3.75 11.7186C3.7887 11.583 3.87074 11.4637 3.9836 11.379C4.09646 11.2944 4.23393 11.249 4.375 11.2499C4.45358 11.2429 4.53276 11.2522 4.60759 11.2772C4.68242 11.3022 4.7513 11.3423 4.80994 11.3951C4.86858 11.4478 4.91572 11.5121 4.94842 11.5839C4.98112 11.6557 4.99868 11.7335 5 11.8124C5 12.6561 3.95937 13.1249 3.75 13.1249Z" fill="#EDF4FA"/>
<path d="M7.8125 13.4377C7.76106 13.4377 7.71042 13.425 7.66507 13.4007C7.61971 13.3765 7.58105 13.3414 7.5525 13.2986L7.02031 12.5002H5.9375V11.8752H7.1875C7.23894 11.8752 7.28958 11.8878 7.33493 11.9121C7.38029 11.9364 7.41895 11.9714 7.4475 12.0142L7.77375 12.5039L8.47031 11.1105C8.49476 11.0615 8.53167 11.0198 8.57732 10.9895C8.62297 10.9592 8.67577 10.9415 8.73043 10.9381C8.78509 10.9347 8.83969 10.9457 8.88876 10.97C8.93782 10.9944 8.97963 11.0312 9.01 11.0767L9.54219 11.8752H11.25V12.5002H9.375C9.32357 12.5002 9.27292 12.4875 9.22757 12.4632C9.18221 12.439 9.14355 12.4039 9.115 12.3611L8.78875 11.8714L8.09375 13.2649C8.06926 13.3139 8.03232 13.3556 7.98663 13.3858C7.94094 13.416 7.88811 13.4337 7.83344 13.437L7.8125 13.4377Z" fill="#EDF4FA"/>
<path d="M9.0625 3.75H12.1875V4.375H9.0625V3.75Z" fill="#EDF4FA"/>
<path d="M9.0625 5.625H12.1875V6.25H9.0625V5.625Z" fill="#EDF4FA"/>
<path d="M9.0625 7.5H12.1875V8.125H9.0625V7.5Z" fill="#EDF4FA"/>
<path d="M9.0625 9.375H12.1875V10H9.0625V9.375Z" fill="#EDF4FA"/>
<path d="M7.8125 5.625H8.4375V6.25H7.8125V5.625Z" fill="#EDF4FA"/>
<path d="M7.8125 7.5H8.4375V8.125H7.8125V7.5Z" fill="#EDF4FA"/>
<path d="M7.8125 9.375H8.4375V10H7.8125V9.375Z" fill="#EDF4FA"/>
<path d="M7.8125 3.75H8.4375V4.375H7.8125V3.75Z" fill="#EDF4FA"/>
<path d="M5.30233 3.80313C5.31008 3.76087 5.31353 3.71795 5.31264 3.675V2.1875H4.68764L4.69045 3.67594C4.68753 3.68789 4.68523 3.69999 4.68358 3.71219C4.67785 3.76374 4.65921 3.81302 4.62939 3.85546C4.59956 3.89791 4.55951 3.93214 4.51295 3.955L3.75014 4.33781L2.98483 3.95375C2.93884 3.93075 2.89936 3.89659 2.86999 3.85439C2.84062 3.81219 2.82229 3.7633 2.8167 3.71219C2.81614 3.69972 2.81478 3.6873 2.81264 3.675V2.1875H2.18764V3.675C2.18674 3.71795 2.1902 3.76087 2.19795 3.80313C2.21798 3.95421 2.2749 4.09804 2.36368 4.22192C2.45247 4.3458 2.57038 4.44592 2.70701 4.51344L3.05358 4.6875L2.70983 4.86031C2.57257 4.92768 2.45405 5.02786 2.36476 5.15198C2.27548 5.2761 2.21818 5.42032 2.19795 5.57188C2.1902 5.61413 2.18674 5.65705 2.18764 5.7V6.8C2.18674 6.84295 2.1902 6.88587 2.19795 6.92812C2.21798 7.07921 2.2749 7.22304 2.36368 7.34692C2.45247 7.4708 2.57038 7.57092 2.70701 7.63844L3.05358 7.8125L2.70983 7.98531C2.57257 8.05268 2.45405 8.15286 2.36476 8.27698C2.27548 8.4011 2.21818 8.54532 2.19795 8.69688C2.1902 8.73913 2.18674 8.78205 2.18764 8.825V10.3125H2.81264L2.80983 8.82406C2.81275 8.81211 2.81504 8.80001 2.8167 8.78781C2.82243 8.73626 2.84107 8.68698 2.87089 8.64454C2.90071 8.60209 2.94076 8.56786 2.98733 8.545L3.75014 8.16219L4.51545 8.54625C4.56143 8.56925 4.60092 8.60341 4.63029 8.64561C4.65966 8.68781 4.67798 8.7367 4.68358 8.78781C4.68414 8.80028 4.6855 8.8127 4.68764 8.825V10.3125H5.31264V8.825C5.31353 8.78205 5.31008 8.73913 5.30233 8.69688C5.28229 8.54579 5.22537 8.40196 5.13659 8.27808C5.04781 8.1542 4.9299 8.05408 4.79326 7.98656L4.4467 7.8125L4.79045 7.63969C4.92765 7.57228 5.0461 7.47208 5.13533 7.34796C5.22456 7.22385 5.28181 7.07965 5.30201 6.92812C5.30987 6.88588 5.31343 6.84296 5.31264 6.8V5.7C5.31353 5.65705 5.31008 5.61413 5.30233 5.57188C5.28229 5.42079 5.22537 5.27696 5.13659 5.15308C5.04781 5.0292 4.9299 4.92908 4.79326 4.86156L4.4467 4.6875L4.79045 4.51469C4.92771 4.44732 5.04622 4.34714 5.13551 4.22302C5.2248 4.0989 5.28209 3.95468 5.30233 3.80313ZM4.51545 5.42125C4.56143 5.44425 4.60092 5.47841 4.63029 5.52061C4.65966 5.56281 4.67798 5.6117 4.68358 5.66281C4.68414 5.67528 4.6855 5.6877 4.68764 5.7L4.69045 6.80094C4.68753 6.81289 4.68523 6.82499 4.68358 6.83719C4.67785 6.88874 4.65921 6.93802 4.62939 6.98046C4.59956 7.02291 4.55951 7.05714 4.51295 7.08L3.75014 7.46281L2.98483 7.07875C2.93884 7.05575 2.89936 7.02159 2.86999 6.97939C2.84062 6.93719 2.82229 6.8883 2.8167 6.83719C2.81614 6.82472 2.81478 6.8123 2.81264 6.8L2.80983 5.69906C2.81275 5.68711 2.81504 5.67501 2.8167 5.66281C2.82243 5.61126 2.84107 5.56198 2.87089 5.51954C2.90071 5.47709 2.94076 5.44286 2.98733 5.42L3.75014 5.03719L4.51545 5.42125Z" fill="#EDF4FA"/>
<path d="M2.8125 3.675C2.81464 3.6873 2.816 3.69972 2.81656 3.71219C2.82518 3.78682 2.8606 3.85578 2.91625 3.90625H4.58344C4.63918 3.85581 4.67471 3.78685 4.68344 3.71219C4.6851 3.69999 4.68739 3.68789 4.69031 3.67594V3.59375H2.8125V3.675Z" fill="#FF505B"/>
<path d="M2.8125 2.6582L4.68875 2.65445L4.68938 2.96695L2.81313 2.9707L2.8125 2.6582Z" fill="#FF505B"/>
<path d="M2.8125 9.5332L4.68875 9.52945L4.68938 9.84195L2.81313 9.8457L2.8125 9.5332Z" fill="#FF505B"/>
<path d="M4.69031 8.825C4.68817 8.8127 4.68681 8.80028 4.68625 8.78781C4.67763 8.71318 4.64221 8.64422 4.58656 8.59375H2.91938C2.86364 8.64419 2.8281 8.71315 2.81937 8.78781C2.81772 8.80001 2.81542 8.81211 2.8125 8.82406V8.90625H4.69031V8.825Z" fill="#FF505B"/>
<path d="M2.8125 6.8C2.81464 6.8123 2.816 6.82472 2.81656 6.83719C2.82518 6.91182 2.8606 6.98078 2.91625 7.03125H4.58344C4.63918 6.98081 4.67471 6.91185 4.68344 6.83719C4.6851 6.82499 4.68739 6.81289 4.69031 6.80094V6.71875H2.8125V6.8Z" fill="#FF505B"/>
<path d="M2.81937 5.66281C2.81772 5.67501 2.81542 5.68711 2.8125 5.69906V5.78125H4.69031V5.7C4.68817 5.6877 4.68681 5.67528 4.68625 5.66281C4.67763 5.58818 4.64221 5.51922 4.58656 5.46875H2.91938C2.86364 5.51919 2.8281 5.58815 2.81937 5.66281Z" fill="#FF505B"/>
<path d="M2.18764 9.84375V9.53125V8.82406V8.90625V8.825C2.18674 8.78205 2.1902 8.73913 2.19795 8.69688C2.21815 8.54535 2.2754 8.40115 2.36463 8.27704C2.45386 8.15292 2.57232 8.05272 2.70951 7.98531L3.05358 7.8125L2.70701 7.63844C2.57038 7.57092 2.45247 7.4708 2.36368 7.34692C2.2749 7.22304 2.21798 7.07921 2.19795 6.92812C2.1902 6.88587 2.18674 6.84295 2.18764 6.8V6.71875L2.18514 5.69906V5.78125H2.18764V5.7C2.18674 5.65705 2.1902 5.61413 2.19795 5.57188C2.21815 5.42035 2.2754 5.27615 2.36463 5.15204C2.45386 5.02792 2.57232 4.92772 2.70951 4.86031L3.05358 4.6875L2.70701 4.51344C2.57038 4.44592 2.45247 4.3458 2.36368 4.22192C2.2749 4.09804 2.21798 3.95421 2.19795 3.80313C2.1902 3.76087 2.18674 3.71795 2.18764 3.675V2.1875H1.56264V3.675C1.56174 3.71795 1.5652 3.76087 1.57295 3.80313C1.59298 3.95421 1.6499 4.09804 1.73868 4.22192C1.82747 4.3458 1.94538 4.44592 2.08201 4.51344L2.42858 4.6875L2.08483 4.86031C1.94757 4.92768 1.82905 5.02786 1.73976 5.15198C1.65048 5.2761 1.59318 5.42032 1.57295 5.57188C1.5652 5.61413 1.56174 5.65705 1.56264 5.7V6.8C1.56174 6.84295 1.5652 6.88587 1.57295 6.92812C1.59298 7.07921 1.6499 7.22304 1.73868 7.34692C1.82747 7.4708 1.94538 7.57092 2.08201 7.63844L2.42858 7.8125L2.08483 7.98531C1.94757 8.05268 1.82905 8.15286 1.73976 8.27698C1.65048 8.4011 1.59318 8.54532 1.57295 8.69688C1.5652 8.73913 1.56174 8.78205 1.56264 8.825V10.3125H2.18764V9.70219V9.84375Z" fill="#004080"/>
<path d="M3.4375 8.31867L3.89031 8.54617C3.91533 8.55857 3.93839 8.57457 3.95875 8.59367H4.58375C4.56339 8.57457 4.54033 8.55857 4.51531 8.54617L3.75 8.16211L3.4375 8.31867Z" fill="#004080"/>
<path d="M4.0625 8.90625H4.6875V9.53125H4.0625V8.90625Z" fill="#004080"/>
<path d="M4.0625 2.1875H4.68719V2.65625H4.0625V2.1875Z" fill="#004080"/>
<path d="M4.0625 9.84375H4.6875V10.3125H4.0625V9.84375Z" fill="#004080"/>
<path d="M4.0625 5.78125H4.68625V6.71875H4.0625V5.78125Z" fill="#004080"/>
<path d="M3.88781 3.95531L3.4375 4.18156L3.75 4.33781L4.51281 3.955C4.53802 3.94225 4.56119 3.92582 4.58156 3.90625H3.95656C3.93621 3.92593 3.91304 3.94246 3.88781 3.95531Z" fill="#004080"/>
<path d="M3.4375 5.19367L3.89031 5.42117C3.91533 5.43357 3.93839 5.44957 3.95875 5.46867H4.58375C4.56339 5.44957 4.54033 5.43357 4.51531 5.42117L3.75 5.03711L3.4375 5.19367Z" fill="#004080"/>
<path d="M3.88781 7.08031L3.4375 7.30656L3.75 7.46281L4.51281 7.08C4.53802 7.06725 4.56119 7.05082 4.58156 7.03125H3.95656C3.93621 7.05093 3.91304 7.06746 3.88781 7.08031Z" fill="#004080"/>
<path d="M4.0625 2.96875H4.68563V3.59375H4.0625V2.96875Z" fill="#004080"/>
</g>
<defs>
<clipPath id="clip0_2001_102914">
<rect width="20" height="20" fill="white"/>
</clipPath>
</defs>
</svg>
