<svg width="20" height="20" viewBox="0 0 20 20" fill="none" xmlns="http://www.w3.org/2000/svg">
<g clip-path="url(#clip0_2001_154189)">
<path d="M15.4243 10.5656C15.367 10.6007 15.3011 10.6192 15.2339 10.6192C15.1667 10.6192 15.1009 10.6007 15.0436 10.5656C12.5249 9.02441 10.9639 7.46191 10.9639 4.43883V3.21875H2.54496C2.51854 3.21874 2.49237 3.22395 2.46795 3.23406C2.44354 3.24417 2.42136 3.25899 2.40267 3.27767C2.38399 3.29636 2.36917 3.31854 2.35906 3.34295C2.34895 3.36737 2.34374 3.39354 2.34375 3.41996V14.8879H7.09281C7.2932 14.8879 7.45621 15.0509 7.45621 15.2512V18.4307H15.7943C15.8208 18.4307 15.8469 18.4255 15.8713 18.4154C15.8958 18.4053 15.9179 18.3905 15.9366 18.3718C15.9553 18.3531 15.9701 18.3309 15.9802 18.3065C15.9904 18.2821 15.9956 18.256 15.9955 18.2295V10.2041C15.8071 10.3277 15.6166 10.4482 15.4243 10.5656Z" fill="#DFF6FD"/>
<path d="M4.03793 14.8879V3.41996C4.03792 3.39354 4.04313 3.36737 4.05324 3.34295C4.06335 3.31854 4.07817 3.29636 4.09685 3.27767C4.11554 3.25899 4.13772 3.24417 4.16213 3.23406C4.18655 3.22395 4.21272 3.21874 4.23914 3.21875H2.54496C2.51854 3.21874 2.49237 3.22395 2.46795 3.23406C2.44354 3.24417 2.42136 3.25899 2.40267 3.27767C2.38399 3.29636 2.36917 3.31854 2.35906 3.34295C2.34895 3.36737 2.34374 3.39354 2.34375 3.41996V14.8879H4.03793Z" fill="#C8EFFE"/>
<path d="M11.0606 5.70312H5.65234C5.49051 5.70312 5.35938 5.8343 5.35938 5.99609C5.35938 6.15789 5.49051 6.28906 5.65234 6.28906H11.1923C11.1386 6.09607 11.0947 5.90051 11.0606 5.70312ZM11.5191 7.16582H5.65234C5.49051 7.16582 5.35938 7.29699 5.35938 7.45879C5.35938 7.62059 5.49051 7.75176 5.65234 7.75176H11.8441C11.7237 7.56336 11.6152 7.36767 11.5191 7.16582ZM12.5282 8.62852H8.58828C8.42644 8.62852 8.29531 8.75969 8.29531 8.92148C8.29531 9.08328 8.42644 9.21445 8.58828 9.21445H12.6732C12.7303 9.21444 12.786 9.19779 12.8337 9.16656C12.8814 9.13532 12.9189 9.09085 12.9417 9.03859C12.7987 8.90723 12.6608 8.77044 12.5282 8.62852Z" fill="#62DBFB"/>
<path d="M7.38105 9.21484H5.65234C5.49051 9.21484 5.35938 9.08367 5.35938 8.92188C5.35938 8.76008 5.49051 8.62891 5.65234 8.62891H7.38105C7.54289 8.62891 7.67402 8.76008 7.67402 8.92188C7.67402 9.08367 7.54289 9.21484 7.38105 9.21484Z" fill="#62DBFB"/>
<path d="M12.6733 10.6777H5.65234C5.49051 10.6777 5.35938 10.5466 5.35938 10.3848C5.35938 10.223 5.49051 10.0918 5.65234 10.0918H12.6732C12.8351 10.0918 12.9662 10.223 12.9662 10.3848C12.9662 10.5466 12.8351 10.6777 12.6733 10.6777ZM12.6733 12.1404H10.8016C10.6398 12.1404 10.5086 12.0093 10.5086 11.8475C10.5086 11.6857 10.6398 11.5545 10.8016 11.5545H12.6733C12.751 11.5545 12.8255 11.5854 12.8804 11.6403C12.9354 11.6952 12.9663 11.7698 12.9663 11.8475C12.9663 11.9252 12.9354 11.9997 12.8804 12.0546C12.8255 12.1096 12.751 12.1404 12.6733 12.1404ZM9.71508 11.5545H5.79641C5.96105 11.7292 6.09987 11.9265 6.20867 12.1404H9.71512C9.75359 12.1404 9.79169 12.1328 9.82723 12.1181C9.86277 12.1034 9.89507 12.0818 9.92227 12.0546C9.94947 12.0274 9.97105 11.9951 9.98577 11.9596C10.0005 11.924 10.0081 11.8859 10.0081 11.8474C10.0081 11.809 10.0005 11.7709 9.98576 11.7353C9.97103 11.6998 9.94945 11.6675 9.92224 11.6403C9.89504 11.6131 9.86274 11.5915 9.82719 11.5768C9.79165 11.5621 9.75355 11.5545 9.71508 11.5545ZM12.6733 13.0172H6.46672C6.4752 13.1009 6.47957 13.1858 6.47957 13.2718V13.6031H12.6733C12.751 13.6031 12.8255 13.5723 12.8804 13.5173C12.9354 13.4624 12.9663 13.3879 12.9663 13.3102C12.9663 13.2325 12.9354 13.1579 12.8804 13.103C12.8255 13.0481 12.751 13.0172 12.6733 13.0172ZM12.6733 14.4799H6.47957V14.8868H7.08598C7.21902 14.8868 7.33531 14.9589 7.39859 15.0658H12.6732C12.8351 15.0658 12.9662 14.9346 12.9662 14.7729C12.9662 14.6111 12.8351 14.4799 12.6733 14.4799Z" fill="#01D0FB"/>
<path d="M11.1444 1.99487C11.0775 2.02829 11.0213 2.07966 10.982 2.14324C10.9427 2.20682 10.9219 2.28009 10.9219 2.35483V4.438C10.9219 7.51804 12.5585 9.09175 15.0201 10.5981C15.0836 10.6369 15.1565 10.6574 15.2309 10.6574C15.3053 10.6574 15.3782 10.6369 15.4416 10.5981C17.9033 9.09175 19.5399 7.51804 19.5399 4.438V2.35483C19.5399 2.20237 19.4537 2.06304 19.3174 1.99487L15.4108 0.0424517C15.3549 0.0145339 15.2933 0 15.2309 0C15.1684 0 15.1068 0.0145339 15.051 0.0424517L11.1444 1.99487Z" fill="#FAC600"/>
<path d="M12.3685 3.77371V1.38281L11.1444 1.99457C11.0775 2.02798 11.0213 2.07936 10.982 2.14294C10.9427 2.20652 10.9219 2.27979 10.9219 2.35453V4.4377C10.9219 7.51773 12.5585 9.09145 15.0201 10.5978C15.0836 10.6366 15.1565 10.6571 15.2309 10.6571C15.3052 10.6571 15.3782 10.6366 15.4416 10.5978C15.8001 10.3784 16.1409 10.1576 16.462 9.9309C14.003 8.42543 12.3685 6.85176 12.3685 3.77371Z" fill="#E8B800"/>
<path d="M15.2133 7.60242C16.7334 7.60242 17.9657 6.37014 17.9657 4.85004C17.9657 3.32994 16.7334 2.09766 15.2133 2.09766C13.6932 2.09766 12.4609 3.32994 12.4609 4.85004C12.4609 6.37014 13.6932 7.60242 15.2133 7.60242Z" fill="#4FC123"/>
<path d="M13.6282 4.85C13.6282 3.53023 14.5573 2.42797 15.7969 2.16023C15.6052 2.11871 15.4095 2.09773 15.2133 2.09766C13.6932 2.09766 12.4609 3.32992 12.4609 4.85004C12.4609 6.37016 13.6932 7.60242 15.2133 7.60242C15.4095 7.60235 15.6052 7.58137 15.7969 7.53984C14.5573 7.27203 13.6282 6.16977 13.6282 4.85Z" fill="#47A920"/>
<path d="M15.072 5.933C15.0335 5.93305 14.9954 5.92549 14.9598 5.91076C14.9243 5.89604 14.892 5.87443 14.8648 5.84718L13.9599 4.94226C13.9054 4.88723 13.8748 4.81284 13.875 4.73536C13.8752 4.65788 13.906 4.58363 13.9608 4.52885C14.0156 4.47406 14.0899 4.44321 14.1673 4.44305C14.2448 4.44288 14.3192 4.47341 14.3742 4.52796L15.072 5.22569L16.2674 4.03023C16.3224 3.97568 16.3968 3.94515 16.4743 3.94531C16.5518 3.94548 16.626 3.97633 16.6808 4.03111C16.7356 4.08589 16.7664 4.16015 16.7666 4.23763C16.7668 4.3151 16.7363 4.3895 16.6817 4.44452L15.2792 5.84714C15.252 5.8744 15.2197 5.89603 15.1842 5.91076C15.1486 5.9255 15.1105 5.93305 15.072 5.933Z" fill="white"/>
<path d="M2.63691 14.8873V13.2723C2.63691 12.5343 3.23734 11.9338 3.97539 11.9338C4.71344 11.9338 5.31387 12.5343 5.31387 13.2723V14.8873H6.52109V13.2723C6.52109 11.8663 5.38137 10.7266 3.97539 10.7266C2.56941 10.7266 1.42969 11.8663 1.42969 13.2723V14.8873H2.63691Z" fill="#3675BB"/>
<path d="M2.11188 14.8872V13.2722C2.11188 11.982 3.07191 10.9167 4.31648 10.75C4.20343 10.7346 4.08948 10.7268 3.97539 10.7266C2.56945 10.7266 1.42969 11.8663 1.42969 13.2723V14.8873L2.11188 14.8872Z" fill="#2263AA"/>
<path d="M7.08949 19.9997H0.863359C0.641094 19.9997 0.460938 19.8195 0.460938 19.5973V15.2501C0.460938 15.0278 0.641094 14.8477 0.863359 14.8477H7.08949C7.31176 14.8477 7.49191 15.0278 7.49191 15.2501V19.5973C7.49191 19.8195 7.31172 19.9997 7.08949 19.9997Z" fill="#FAC600"/>
<path d="M2.15316 19.5973V15.2501C2.15316 15.0278 2.33332 14.8477 2.55559 14.8477H0.863359C0.641094 14.8477 0.460938 15.0278 0.460938 15.2501V19.5973C0.460938 19.8195 0.641094 19.9997 0.863359 19.9997H2.55559C2.33332 19.9997 2.15316 19.8195 2.15316 19.5973Z" fill="#E8B800"/>
</g>
<defs>
<clipPath id="clip0_2001_154189">
<rect width="20" height="20" fill="white"/>
</clipPath>
</defs>
</svg>
