<svg width="22" height="23" viewBox="0 0 22 23" fill="none" xmlns="http://www.w3.org/2000/svg">
<path fill-rule="evenodd" clip-rule="evenodd" d="M17.0179 20.4389C16.2067 14.7192 13.9155 15.8665 9.9047 13.0518H7.41636C6.43462 13.7399 5.55648 14.1918 4.7781 14.5645C2.37243 15.7157 0.915805 16.1188 0.302002 20.4389H17.0179Z" fill="#FB4455"/>
<path fill-rule="evenodd" clip-rule="evenodd" d="M6.71973 10.0967H10.6015V14.2866C10.6001 14.8011 10.3951 15.2941 10.0313 15.6579C9.66753 16.0217 9.1745 16.2267 8.66001 16.2281C8.14571 16.2265 7.65295 16.0214 7.2894 15.6576C6.92585 15.2938 6.72104 14.8009 6.71973 14.2866V10.0967Z" fill="#F5AD65"/>
<path fill-rule="evenodd" clip-rule="evenodd" d="M3.86841 7.85567H13.4516V4.58289C13.4516 2.78389 11.9925 1.36491 10.241 1.77783C9.70996 1.90205 9.19352 1.66091 8.81471 1.47091C6.27275 0.19565 3.86841 2.22603 3.86841 4.58289V7.85567Z" fill="#3F5163"/>
<path fill-rule="evenodd" clip-rule="evenodd" d="M5.41308 6.45384C5.64303 6.58465 5.82904 6.78071 5.94758 7.01723C6.06612 7.25375 6.11186 7.52011 6.07903 7.78263C6.04621 8.04515 5.93628 8.29204 5.76315 8.49208C5.59001 8.69213 5.36145 8.83635 5.10636 8.90651C4.85127 8.97667 4.58111 8.96962 4.33003 8.88625C4.07894 8.80288 3.85822 8.64693 3.69576 8.43812C3.5333 8.22932 3.4364 7.97703 3.41731 7.71316C3.39822 7.44929 3.4578 7.18568 3.58851 6.95566C3.67519 6.80274 3.7912 6.66842 3.92987 6.5604C4.06855 6.45238 4.22718 6.37278 4.39667 6.32617C4.56616 6.27955 4.74318 6.26683 4.91759 6.28874C5.092 6.31065 5.26038 6.36675 5.41308 6.45384ZM13.2351 6.45384C13.4652 6.58451 13.6514 6.78049 13.7701 7.017C13.8888 7.25351 13.9347 7.51991 13.902 7.78252C13.8693 8.04512 13.7595 8.29212 13.5863 8.49227C13.4132 8.69243 13.1846 8.83675 12.9295 8.90697C12.6744 8.97719 12.4041 8.97016 12.153 8.88677C11.9018 8.80338 11.681 8.64738 11.5186 8.4385C11.3561 8.22961 11.2592 7.97723 11.2402 7.71329C11.2212 7.44934 11.2809 7.18568 11.4117 6.95566C11.4984 6.80289 11.6144 6.6687 11.7529 6.56078C11.8915 6.45285 12.05 6.37331 12.2194 6.3267C12.3888 6.28009 12.5656 6.26733 12.7399 6.28915C12.9142 6.31096 13.0825 6.36692 13.2352 6.45384H13.2351Z" fill="#F5AD65"/>
<path fill-rule="evenodd" clip-rule="evenodd" d="M10.6015 13.4912C10.0084 13.898 9.34819 14.1538 8.66611 14.1599H8.65515C7.97195 14.1538 7.3117 13.898 6.71973 13.4912V10.0967H10.6015V13.4912Z" fill="#E0974E"/>
<path fill-rule="evenodd" clip-rule="evenodd" d="M5.1219 5.27715C4.55309 7.8922 4.69682 8.90557 4.92945 9.92748C5.30705 11.5876 6.96473 13.5608 8.66018 13.5778C10.3569 13.5606 12.0146 11.5876 12.3922 9.92748C12.6248 8.90557 12.7685 7.8922 12.1997 5.27715C10.3569 5.56215 8.67603 5.31977 7.49943 3.98242C6.73575 4.91054 6.12676 5.08959 5.1219 5.27715Z" fill="#FBBD80"/>
<path fill-rule="evenodd" clip-rule="evenodd" d="M20.1592 18.9917C20.0725 19.361 19.9261 19.7136 19.7256 20.0356L19.9266 20.3707L20.1702 20.7789C19.9331 21.0918 19.6541 21.3705 19.3409 21.6072L18.9327 21.3636L18.5975 21.1638C18.2756 21.3645 17.923 21.511 17.5537 21.5974L17.4588 21.9734L17.3431 22.435C16.9539 22.4886 16.5592 22.4886 16.17 22.435L16.0546 21.9734L15.9596 21.5958C15.5901 21.5103 15.2374 21.3642 14.9157 21.1634L14.5806 21.3632L14.1724 21.6068C13.8592 21.3701 13.5802 21.0914 13.3431 20.7785L13.5867 20.3703L13.7877 20.0352C13.5867 19.7135 13.4402 19.3608 13.3541 18.9913L12.9765 18.8963L12.5162 18.78C12.4627 18.3913 12.4627 17.997 12.5162 17.6083L12.9767 17.4926L13.3543 17.3963C13.441 17.0275 13.5874 16.6753 13.7879 16.3537L13.5869 16.0188L13.3433 15.6106C13.5806 15.2977 13.8597 15.0187 14.1726 14.7813L14.5808 15.0249L14.9159 15.2246C15.2378 15.0244 15.5905 14.8783 15.9597 14.7923L16.0547 14.4147L16.1705 13.953C16.5597 13.9011 16.9542 13.9011 17.3435 13.953L17.4588 14.4144L17.5538 14.792C17.923 14.8783 18.2756 15.0243 18.5976 15.2244L18.9328 15.0246L19.341 14.781C19.6539 15.0184 19.9329 15.2974 20.1702 15.6103L19.9267 16.0185L19.7257 16.3523C19.9259 16.6744 20.0724 17.0269 20.1593 17.3961L20.5369 17.4923L20.9973 17.608C21.0509 17.9968 21.0509 18.391 20.9973 18.7797L20.5369 18.8966L20.1592 18.9917Z" fill="#FFAB02"/>
<path fill-rule="evenodd" clip-rule="evenodd" d="M16.7561 20.3936C17.1911 20.3936 17.6164 20.2646 17.9782 20.0229C18.3399 19.7812 18.6219 19.4376 18.7884 19.0357C18.9549 18.6337 18.9985 18.1915 18.9136 17.7647C18.8287 17.338 18.6192 16.9461 18.3116 16.6384C18.0039 16.3308 17.612 16.1213 17.1853 16.0364C16.7586 15.9515 16.3163 15.9951 15.9143 16.1616C15.5124 16.3281 15.1688 16.61 14.9271 16.9718C14.6854 17.3335 14.5564 17.7588 14.5564 18.1939C14.5574 18.777 14.7895 19.3359 15.2018 19.7482C15.6141 20.1605 16.173 20.3926 16.7561 20.3936Z" fill="#D5E3F2"/>
<path fill-rule="evenodd" clip-rule="evenodd" d="M10.5759 14.6018C11.8426 15.2692 12.8852 15.6395 13.7171 16.2339L13.5868 16.0183L13.3431 15.6101C13.4685 15.4442 13.6062 15.2878 13.7549 15.1424C12.874 14.7027 11.8268 14.2787 10.6015 13.5127V14.2861C10.6015 14.3918 10.5929 14.4973 10.5757 14.6016L10.5759 14.6018Z" fill="#E82E41"/>
<path fill-rule="evenodd" clip-rule="evenodd" d="M17.9264 21.1637C17.6045 21.3641 17.252 21.5106 16.8828 21.5973L16.7878 21.9736L16.6709 22.4353C16.5881 22.4463 16.5053 22.456 16.4212 22.4621C16.7286 22.486 17.0377 22.4771 17.3432 22.4353L17.4586 21.9736L17.5536 21.5973C17.7925 21.541 18.0247 21.4597 18.2466 21.3549L17.9264 21.1637ZM16.8828 14.7923C17.252 14.8786 17.6046 15.0247 17.9267 15.2247L18.247 15.0335C18.0252 14.9287 17.7929 14.8479 17.5539 14.7923L17.4586 14.4146L17.3429 13.953C17.1483 13.9271 16.9521 13.9141 16.7558 13.9141C16.6437 13.9141 16.5317 13.9177 16.4207 13.9262C16.5047 13.9335 16.5875 13.9421 16.6703 13.953L16.7873 14.4146L16.8828 14.7923ZM18.951 15.014C19.1517 15.1953 19.3348 15.3951 19.4979 15.6108L19.2543 16.019L19.0545 16.3528C19.2548 16.6746 19.4008 17.0272 19.4867 17.3964L19.8643 17.4926L20.3259 17.6084C20.3795 17.9971 20.3795 18.3913 20.3259 18.7801L19.8643 18.897L19.4867 18.992C19.401 19.3613 19.2549 19.714 19.0543 20.0358L19.2541 20.371L19.4977 20.7792C19.3349 20.9947 19.1517 21.1942 18.9508 21.3748L19.3405 21.6074C19.6537 21.3708 19.9328 21.092 20.1698 20.7792L19.9262 20.371L19.7253 20.0358C19.9257 19.7138 20.0722 19.3612 20.1589 18.992L20.5365 18.897L20.997 18.7802C21.0506 18.3915 21.0506 17.9973 20.997 17.6085L20.5366 17.4928L20.159 17.3966C20.0722 17.0273 19.9257 16.6747 19.7254 16.3525L19.9264 16.0188L20.17 15.6106C19.9326 15.2977 19.6536 15.0187 19.3407 14.7813L18.951 15.014Z" fill="#ED9E00"/>
<path d="M16.7568 15.6926C16.2622 15.6926 15.7787 15.8393 15.3675 16.1141C14.9562 16.3889 14.6357 16.7794 14.4464 17.2364C14.2572 17.6934 14.2076 18.1962 14.3041 18.6813C14.4006 19.1664 14.6388 19.612 14.9885 19.9617C15.3383 20.3114 15.7839 20.5496 16.269 20.6461C16.7541 20.7426 17.2569 20.6931 17.7138 20.5038C18.1708 20.3145 18.5614 19.994 18.8361 19.5828C19.1109 19.1715 19.2576 18.688 19.2576 18.1934C19.2568 17.5304 18.9931 16.8948 18.5243 16.426C18.0555 15.9572 17.4198 15.6934 16.7568 15.6926ZM16.7568 20.0926C16.3812 20.0926 16.014 19.9812 15.7017 19.7725C15.3894 19.5638 15.146 19.2672 15.0022 18.9202C14.8585 18.5732 14.8209 18.1913 14.8941 17.8229C14.9674 17.4545 15.1483 17.1161 15.4139 16.8505C15.6795 16.5849 16.0179 16.404 16.3863 16.3307C16.7547 16.2574 17.1366 16.295 17.4836 16.4388C17.8307 16.5825 18.1273 16.8259 18.336 17.1383C18.5447 17.4506 18.656 17.8178 18.656 18.1934C18.6555 18.6969 18.4552 19.1797 18.0992 19.5357C17.7431 19.8918 17.2604 20.092 16.7568 20.0926V20.0926ZM21.2964 17.5661C21.2881 17.5068 21.2623 17.4513 21.2223 17.4067C21.1823 17.3622 21.1299 17.3306 21.0718 17.316L20.4067 17.1481C20.3272 16.8714 20.2164 16.6047 20.0765 16.3532L20.4294 15.7645C20.4603 15.713 20.4751 15.6534 20.4718 15.5934C20.4685 15.5334 20.4473 15.4757 20.411 15.4279C20.157 15.0931 19.8584 14.7945 19.5236 14.5405C19.4758 14.5043 19.4183 14.4831 19.3584 14.4798C19.2985 14.4765 19.239 14.4911 19.1875 14.5218L18.5975 14.8742C18.3461 14.7345 18.0795 14.6241 17.803 14.545L17.6358 13.879C17.6212 13.8205 17.5893 13.7678 17.5444 13.7277C17.4994 13.6876 17.4434 13.6619 17.3837 13.6539C16.9682 13.5962 16.5467 13.5962 16.1313 13.6539C16.0715 13.6619 16.0155 13.6876 15.9706 13.7277C15.9256 13.7678 15.8937 13.8205 15.8791 13.879L15.7119 14.545C15.4353 14.6239 15.1687 14.7343 14.9173 14.8741L14.3274 14.522C14.2759 14.4913 14.2164 14.4766 14.1565 14.4799C14.0966 14.4833 14.0391 14.5044 13.9913 14.5407C13.8916 14.6166 13.795 14.6965 13.7018 14.7803C13.5176 14.6905 13.3273 14.6009 13.1288 14.5074C12.468 14.1963 11.7237 13.8457 10.9024 13.3443V12.8978C11.0162 12.7975 11.1281 12.6902 11.238 12.5758C11.9442 11.839 12.4854 10.8734 12.6857 9.99246C12.742 9.7438 12.7927 9.49716 12.8306 9.23286C13.1269 9.1861 13.4046 9.0589 13.6336 8.86514C13.8626 8.67137 14.034 8.41847 14.1291 8.134C14.2243 7.84953 14.2395 7.54441 14.1732 7.25187C14.1068 6.95934 13.9615 6.69063 13.7529 6.47502V4.58072C13.7529 3.5573 13.3068 2.59309 12.5595 2.0015C11.8806 1.46392 11.0325 1.27963 10.1724 1.48236C9.75781 1.57929 9.32374 1.38718 8.94949 1.19945C7.75926 0.602191 6.46269 0.638843 5.39214 1.29953C4.83498 1.64719 4.37523 2.13063 4.05596 2.70453C3.73669 3.27843 3.56836 3.92399 3.56675 4.58072V6.48229C3.36024 6.69811 3.21666 6.96628 3.15153 7.2578C3.0864 7.54932 3.10221 7.8531 3.19724 8.13629C3.29226 8.41948 3.4629 8.67131 3.6907 8.86453C3.91849 9.05776 4.19477 9.18504 4.48967 9.23261C4.5277 9.49725 4.57866 9.74393 4.63529 9.99267C4.83552 10.8732 5.37662 11.8389 6.08272 12.5757C6.19249 12.6903 6.30441 12.7977 6.41848 12.898V13.3443C5.84497 13.6906 5.25394 14.0069 4.64775 14.292C4.49083 14.3671 4.33799 14.439 4.18911 14.509C2.0269 15.5258 0.598412 16.1978 0.0029988 20.3963C-0.00307057 20.439 9.66193e-05 20.4824 0.0122859 20.5238C0.0244752 20.5651 0.0454021 20.6033 0.0736497 20.6359C0.101897 20.6684 0.136806 20.6945 0.176013 20.7124C0.21522 20.7302 0.25781 20.7395 0.300899 20.7395H13.0459C13.0354 20.8178 13.0563 20.8972 13.1039 20.9603C13.3578 21.2952 13.6566 21.5936 13.9919 21.8469C14.0397 21.883 14.0971 21.9039 14.1568 21.9072C14.2166 21.9104 14.276 21.8958 14.3274 21.8651L14.9172 21.513C15.1685 21.6532 15.4353 21.7637 15.7121 21.8424L15.8792 22.5081C15.8937 22.5664 15.9253 22.619 15.97 22.6591C16.0147 22.6992 16.0703 22.725 16.1298 22.7333C16.5463 22.7907 16.9687 22.7907 17.3851 22.7333C17.4446 22.7251 17.5002 22.6993 17.5449 22.6592C17.5896 22.6191 17.6213 22.5666 17.6358 22.5084L17.803 21.8427C18.0796 21.7637 18.3462 21.653 18.5974 21.513L19.1874 21.8651C19.2388 21.8958 19.2982 21.9104 19.358 21.9072C19.4177 21.9039 19.4752 21.883 19.5229 21.8469C19.8583 21.5936 20.1571 21.2952 20.4109 20.9603C20.4473 20.9124 20.4684 20.8548 20.4717 20.7948C20.475 20.7348 20.4602 20.6751 20.4293 20.6236L20.0762 20.0342C20.2163 19.7828 20.3271 19.5163 20.4065 19.2397L21.0725 19.0711C21.1304 19.0564 21.1827 19.0248 21.2225 18.9803C21.2624 18.9358 21.2881 18.8804 21.2964 18.8212C21.3539 18.4047 21.3539 17.9823 21.2964 17.5659V17.5661ZM13.575 7.33959C13.6459 7.59771 13.6143 7.87324 13.4868 8.10861C13.3593 8.34397 13.1458 8.52094 12.8908 8.60252C12.9161 8.07121 12.884 7.43764 12.7543 6.59314C12.9475 6.62772 13.127 6.71611 13.2722 6.84816C13.4173 6.98021 13.5223 7.15055 13.575 7.33959ZM4.42939 8.60097C4.2098 8.52934 4.02039 8.38648 3.89118 8.19502C3.76197 8.00357 3.70035 7.77447 3.71609 7.54403C3.73182 7.31359 3.824 7.09499 3.97803 6.92287C4.13206 6.75075 4.33913 6.63495 4.56641 6.59383C4.43665 7.43773 4.40434 8.0707 4.42939 8.60097ZM4.8271 5.21111C4.77152 5.46602 4.71971 5.72174 4.67169 5.97818C4.4995 5.98619 4.32967 6.02145 4.16853 6.08264V4.58072C4.16975 4.02656 4.31166 3.48179 4.58096 2.99746C4.85025 2.51313 5.2381 2.1051 5.70817 1.81162C6.6102 1.25497 7.66551 1.22854 8.67965 1.73737C9.01807 1.9071 9.64807 2.22292 10.31 2.06823C10.9879 1.90852 11.6541 2.05229 12.186 2.47338C12.7903 2.95183 13.1512 3.73961 13.1512 4.58076V6.08036C12.9904 6.01919 12.8208 5.98436 12.6489 5.97724C12.601 5.72116 12.5493 5.46581 12.4938 5.21128C12.4775 5.13639 12.4333 5.07054 12.3701 5.02717C12.3069 4.9838 12.2295 4.96619 12.1538 4.97792C10.154 5.28729 8.70517 4.89589 7.72485 3.78164C7.69578 3.74925 7.66017 3.72341 7.62037 3.7058C7.58057 3.6882 7.53749 3.67923 7.49398 3.6795C7.4504 3.68023 7.4075 3.69042 7.36824 3.70935C7.32898 3.72828 7.2943 3.75551 7.26659 3.78916C6.58047 4.62304 6.06915 4.79221 5.06592 4.97938C5.00773 4.99022 4.95403 5.01799 4.91155 5.05921C4.86906 5.10043 4.83969 5.15327 4.8271 5.21111ZM5.22202 9.85917C4.99902 8.87949 4.86878 7.93251 5.37362 5.53303C6.20879 5.36764 6.82096 5.16539 7.50811 4.42706C8.57102 5.46754 10.0344 5.85649 11.9639 5.61213C12.4484 7.94918 12.3189 8.888 12.099 9.85921C11.7427 11.4258 10.1633 13.2583 8.65997 13.2758C7.15715 13.2583 5.57832 11.4258 5.22202 9.85917ZM10.3009 13.3508V14.2857C10.3009 14.7207 10.1281 15.1379 9.82047 15.4455C9.51287 15.7531 9.09567 15.9259 8.66066 15.9259C8.22564 15.9259 7.80844 15.7531 7.50084 15.4455C7.19323 15.1379 7.02042 14.7207 7.02042 14.2857V13.3511C7.55826 13.6898 8.11745 13.8722 8.65705 13.8776H8.66306C9.20292 13.8722 9.76254 13.6897 10.3007 13.3508H10.3009ZM4.44524 15.0535C4.59524 14.983 4.74933 14.9105 4.90767 14.8347C5.34844 14.6235 5.85929 14.3693 6.41848 14.0445V14.2857C6.41719 14.5809 6.47422 14.8735 6.58631 15.1467C6.69841 15.4198 6.86334 15.6681 7.07166 15.8774C7.27997 16.0866 7.52757 16.2526 7.80022 16.3659C8.07287 16.4792 8.36521 16.5375 8.66046 16.5375C8.95571 16.5375 9.24805 16.4792 9.52071 16.3659C9.79336 16.2526 10.0409 16.0866 10.2493 15.8774C10.4576 15.6681 10.6225 15.4198 10.7346 15.1467C10.8467 14.8735 10.9037 14.5809 10.9024 14.2857V14.0445C11.6256 14.4645 12.2817 14.7737 12.8724 15.0518C13.0051 15.1142 13.1341 15.175 13.2595 15.2349C13.2059 15.2979 13.1541 15.3622 13.1039 15.428C13.0677 15.4757 13.0465 15.5333 13.0432 15.5932C13.0399 15.653 13.0545 15.7126 13.0853 15.7641L13.4382 16.3544C13.2983 16.6054 13.1876 16.8716 13.1083 17.1479L12.4432 17.3158C12.3851 17.3304 12.3326 17.3619 12.2926 17.4065C12.2526 17.451 12.2268 17.5065 12.2185 17.5659C12.1611 17.9823 12.1611 18.4047 12.2185 18.8212C12.2268 18.8804 12.2525 18.9358 12.2924 18.9803C12.3323 19.0248 12.3845 19.0564 12.4424 19.0711L13.1084 19.2397C13.1875 19.5162 13.298 19.7827 13.4376 20.0341L13.3758 20.1376H0.650446C1.22038 16.57 2.38388 16.0229 4.44524 15.0535ZM20.7229 18.539L20.087 18.6996C20.0334 18.7131 19.9846 18.7411 19.9458 18.7805C19.9071 18.8199 19.88 18.8692 19.8675 18.923C19.7883 19.2605 19.6544 19.5827 19.4712 19.8769C19.4421 19.9238 19.4264 19.9778 19.4259 20.0329C19.4254 20.0881 19.4401 20.1423 19.4684 20.1897L19.8059 20.7543C19.6575 20.9307 19.4941 21.0939 19.3175 21.2421L18.7529 20.9052C18.7055 20.8769 18.6513 20.8622 18.5961 20.8627C18.5409 20.8632 18.487 20.8789 18.4401 20.908C18.1464 21.0912 17.8245 21.2246 17.4873 21.3029C17.4333 21.3153 17.3838 21.3424 17.3442 21.3812C17.3046 21.42 17.2766 21.4689 17.2631 21.5227L17.103 22.1598C16.8731 22.1798 16.642 22.1798 16.4122 22.1598L16.2521 21.5227C16.2385 21.469 16.2105 21.42 16.1709 21.3812C16.1314 21.3424 16.0819 21.3153 16.0279 21.3029C15.6907 21.225 15.3689 21.0916 15.0754 20.9082C15.0286 20.879 14.9745 20.8632 14.9193 20.8627C14.864 20.8622 14.8097 20.8769 14.7622 20.9052L14.1976 21.2421C14.0209 21.0938 13.8574 20.9305 13.7089 20.7539L14.0455 20.1897C14.0738 20.1423 14.0885 20.0881 14.088 20.0329C14.0875 19.9778 14.0718 19.9238 14.0427 19.8769C13.8599 19.5827 13.7265 19.2604 13.6477 18.923C13.6351 18.8692 13.608 18.8199 13.5693 18.7805C13.5305 18.7411 13.4817 18.7131 13.4281 18.6996L12.7922 18.539C12.7823 18.4253 12.7773 18.3097 12.7773 18.1935C12.7773 18.0774 12.7823 17.9621 12.7921 17.8486L13.4291 17.6872C13.4824 17.6736 13.531 17.6456 13.5695 17.6063C13.6081 17.567 13.6351 17.5179 13.6477 17.4643C13.7267 17.1274 13.8605 16.8056 14.0438 16.512C14.0731 16.465 14.0888 16.4108 14.0893 16.3554C14.0898 16.3 14.0749 16.2456 14.0464 16.1981L13.709 15.6346C13.8577 15.4578 14.0213 15.2941 14.1981 15.1455L14.7623 15.4821C14.8097 15.5104 14.8641 15.5251 14.9193 15.5246C14.9746 15.524 15.0286 15.5083 15.0755 15.479C15.3695 15.296 15.6916 15.1627 16.0289 15.0842C16.0827 15.0717 16.132 15.0445 16.1714 15.0058C16.2108 14.9671 16.2388 14.9182 16.2523 14.8646L16.4123 14.2279C16.6422 14.2074 16.8734 14.2074 17.1033 14.2279L17.2633 14.8646C17.2768 14.9182 17.3048 14.9671 17.3442 15.0058C17.3836 15.0445 17.4329 15.0717 17.4867 15.0842C17.8241 15.163 18.1464 15.2965 18.4406 15.4793C18.4875 15.5084 18.5415 15.5241 18.5967 15.5246C18.6518 15.5251 18.7061 15.5104 18.7535 15.4821L19.3176 15.1455C19.4943 15.294 19.6579 15.4575 19.8064 15.6342L19.4692 16.1971C19.4408 16.2445 19.426 16.2988 19.4265 16.354C19.4269 16.4093 19.4426 16.4634 19.4717 16.5103C19.6549 16.8046 19.7887 17.1268 19.8681 17.4642C19.8806 17.5178 19.9076 17.5669 19.9462 17.6062C19.9847 17.6455 20.0333 17.6734 20.0867 17.687L20.7236 17.8485C20.7436 18.0782 20.7434 18.3093 20.7229 18.539Z" fill="black"/>
</svg>
