<svg width="20" height="20" viewBox="0 0 20 20" fill="none" xmlns="http://www.w3.org/2000/svg">
<g clip-path="url(#clip0_2001_83948)">
<path d="M17.0323 2.67383V18.8155C17.0328 18.9436 17.0081 19.0706 16.9594 19.1891C16.9108 19.3076 16.8392 19.4154 16.7488 19.5061C16.6584 19.5969 16.551 19.669 16.4327 19.7181C16.3143 19.7673 16.1875 19.7926 16.0594 19.7926H2.95729C2.69962 19.7926 2.45247 19.6904 2.27007 19.5084C2.08767 19.3263 1.98493 19.0794 1.98438 18.8217V2.67383H17.0323Z" fill="#DBECFF"/>
<path d="M17.0323 2.67357V1.1819C17.0323 1.05414 17.0071 0.927622 16.9582 0.809582C16.9093 0.691542 16.8377 0.584289 16.7473 0.493945C16.657 0.403601 16.5497 0.331937 16.4317 0.283043C16.3137 0.23415 16.1871 0.208984 16.0594 0.208984H2.95729C2.69926 0.208984 2.45179 0.311488 2.26934 0.493945C2.08688 0.676402 1.98438 0.923868 1.98438 1.1819V2.67357H17.0323Z" fill="#619FFF"/>
<path d="M5.62604 0.208984H2.95729C2.69926 0.208984 2.45179 0.311488 2.26934 0.493945C2.08688 0.676402 1.98438 0.923868 1.98438 1.1819V2.67357H5.62604V0.208984Z" fill="#5955A1"/>
<path d="M6.14844 13.1872L6.14844 4.88932C6.14844 4.55565 5.87794 4.28516 5.54427 4.28516H1.23177C0.898098 4.28516 0.627604 4.55565 0.627604 4.88932L0.627604 13.1872C0.627604 13.5209 0.898098 13.7914 1.23177 13.7914H5.54427C5.87794 13.7914 6.14844 13.5209 6.14844 13.1872Z" fill="#619FFF"/>
<path d="M18.7708 4.28516H8.10417C7.77049 4.28516 7.5 4.55565 7.5 4.88932V10.2081C7.5 10.5417 7.77049 10.8122 8.10417 10.8122H18.7708C19.1045 10.8122 19.375 10.5417 19.375 10.2081V4.88932C19.375 4.55565 19.1045 4.28516 18.7708 4.28516Z" fill="#F4FBFF"/>
<path d="M18.2146 10.8154L15.2646 7.86328L12.3125 10.8154H18.2146Z" fill="#5955A1"/>
<path d="M15.7474 10.8152L12.0807 7.14648L8.41406 10.8152H15.7474Z" fill="#777DBA"/>
<path d="M14.0151 6.96185C14.442 6.96185 14.788 6.6158 14.788 6.18893C14.788 5.76206 14.442 5.41602 14.0151 5.41602C13.5882 5.41602 13.2422 5.76206 13.2422 6.18893C13.2422 6.6158 13.5882 6.96185 14.0151 6.96185Z" fill="#FFAB57"/>
<path d="M6.14062 18.0189V15.7585C6.14062 15.4248 5.87013 15.1543 5.53646 15.1543H1.22396C0.890285 15.1543 0.619791 15.4248 0.619791 15.7585V18.0189C0.619791 18.3526 0.890285 18.623 1.22396 18.623H5.53646C5.87013 18.623 6.14062 18.3526 6.14062 18.0189Z" fill="#FFAB57"/>
<path d="M12.5312 14.9212V12.6608C12.5312 12.3271 12.2608 12.0566 11.9271 12.0566H8.14375C7.81008 12.0566 7.53958 12.3271 7.53958 12.6608V14.9212C7.53958 15.2549 7.81008 15.5254 8.14375 15.5254H11.9271C12.2608 15.5254 12.5312 15.2549 12.5312 14.9212Z" fill="#00B496"/>
<path d="M15.2656 18.018V17.4909C15.2656 17.1572 14.9951 16.8867 14.6615 16.8867H8.14896C7.81529 16.8867 7.54479 17.1572 7.54479 17.4909V18.018C7.54479 18.3516 7.81529 18.6221 8.14896 18.6221H14.6615C14.9951 18.6221 15.2656 18.3516 15.2656 18.018Z" fill="#619FFF"/>
<path d="M10.1484 18.018V17.4909C10.1484 17.1572 9.87794 16.8867 9.54427 16.8867H8.14844C7.81477 16.8867 7.54427 17.1572 7.54427 17.4909V18.018C7.54427 18.3516 7.81477 18.6221 8.14844 18.6221H9.54427C9.87794 18.6221 10.1484 18.3516 10.1484 18.018Z" fill="#5955A1"/>
<path d="M13.9078 1.65299H13.9911C14.0464 1.65299 14.0994 1.63105 14.1385 1.59198C14.1775 1.55291 14.1995 1.49991 14.1995 1.44466C14.1995 1.38941 14.1775 1.33642 14.1385 1.29735C14.0994 1.25828 14.0464 1.23633 13.9911 1.23633H13.9078C13.8526 1.23633 13.7996 1.25828 13.7605 1.29735C13.7214 1.33642 13.6995 1.38941 13.6995 1.44466C13.6995 1.49991 13.7214 1.55291 13.7605 1.59198C13.7996 1.63105 13.8526 1.65299 13.9078 1.65299ZM14.8161 1.65299H14.8995C14.9547 1.65299 15.0077 1.63105 15.0468 1.59198C15.0859 1.55291 15.1078 1.49991 15.1078 1.44466C15.1078 1.38941 15.0859 1.33642 15.0468 1.29735C15.0077 1.25828 14.9547 1.23633 14.8995 1.23633H14.8161C14.7609 1.23633 14.7079 1.25828 14.6688 1.29735C14.6298 1.33642 14.6078 1.38941 14.6078 1.44466C14.6078 1.49991 14.6298 1.55291 14.6688 1.59198C14.7079 1.63105 14.7609 1.65299 14.8161 1.65299ZM15.7245 1.65299H15.8078C15.8631 1.65299 15.9161 1.63105 15.9551 1.59198C15.9942 1.55291 16.0161 1.49991 16.0161 1.44466C16.0161 1.38941 15.9942 1.33642 15.9551 1.29735C15.9161 1.25828 15.8631 1.23633 15.8078 1.23633H15.7245C15.6692 1.23633 15.6162 1.25828 15.5772 1.29735C15.5381 1.33642 15.5161 1.38941 15.5161 1.44466C15.5161 1.49991 15.5381 1.55291 15.5772 1.59198C15.6162 1.63105 15.6692 1.65299 15.7245 1.65299ZM1.5599 7.83424H3.77448C3.82973 7.83424 3.88272 7.8123 3.92179 7.77323C3.96086 7.73416 3.98281 7.68116 3.98281 7.62591C3.98281 7.57066 3.96086 7.51767 3.92179 7.4786C3.88272 7.43953 3.82973 7.41758 3.77448 7.41758H1.5599C1.50464 7.41758 1.45165 7.43953 1.41258 7.4786C1.37351 7.51767 1.35156 7.57066 1.35156 7.62591C1.35156 7.68116 1.37351 7.73416 1.41258 7.77323C1.45165 7.8123 1.50464 7.83424 1.5599 7.83424ZM1.5599 9.06966H4.3724C4.42765 9.06966 4.48064 9.04771 4.51971 9.00864C4.55878 8.96957 4.58073 8.91658 4.58073 8.86133C4.58073 8.80607 4.55878 8.75309 4.51971 8.71402C4.48064 8.67494 4.42765 8.65299 4.3724 8.65299H1.5599C1.50464 8.65299 1.45165 8.67494 1.41258 8.71402C1.37351 8.75309 1.35156 8.80607 1.35156 8.86133C1.35156 8.91658 1.37351 8.96957 1.41258 9.00864C1.45165 9.04771 1.50464 9.06966 1.5599 9.06966ZM5.20573 12.7676C5.26098 12.7676 5.31397 12.7456 5.35304 12.7066C5.39211 12.6675 5.41406 12.6145 5.41406 12.5592C5.41406 12.504 5.39211 12.451 5.35304 12.4119C5.31397 12.3729 5.26098 12.3509 5.20573 12.3509H1.5599C1.50464 12.3509 1.45165 12.3729 1.41258 12.4119C1.37351 12.451 1.35156 12.504 1.35156 12.5592C1.35156 12.6145 1.37351 12.6675 1.41258 12.7066C1.45165 12.7456 1.50464 12.7676 1.5599 12.7676H5.20573ZM4.43281 6.56133C4.47185 6.60013 4.52465 6.62191 4.57969 6.62191C4.63473 6.62191 4.68753 6.60013 4.72656 6.56133L5.35156 5.93633C5.37109 5.91696 5.38659 5.89392 5.39716 5.86853C5.40774 5.84314 5.41319 5.81591 5.41319 5.78841C5.41319 5.76091 5.40774 5.73368 5.39716 5.70829C5.38659 5.6829 5.37109 5.65986 5.35156 5.64049L4.72656 5.01549C4.70789 4.99369 4.6849 4.97597 4.65906 4.96347C4.63321 4.95096 4.60506 4.94394 4.57637 4.94283C4.54767 4.94172 4.51906 4.94655 4.49233 4.95703C4.46559 4.9675 4.44131 4.98339 4.42101 5.00369C4.40071 5.024 4.38482 5.04828 4.37435 5.07501C4.36387 5.10175 4.35904 5.13036 4.36015 5.15905C4.36125 5.18774 4.36828 5.21589 4.38079 5.24174C4.39329 5.26759 4.411 5.29057 4.43281 5.30924L4.91198 5.78841L4.43281 6.26758C4.39401 6.30661 4.37223 6.35941 4.37223 6.41445C4.37223 6.46949 4.39401 6.52229 4.43281 6.56133ZM2.18698 6.62175C2.22793 6.62158 2.26793 6.60934 2.30197 6.58657C2.336 6.56379 2.36258 6.53149 2.37836 6.4937C2.39414 6.45591 2.39844 6.41431 2.39071 6.37409C2.38298 6.33387 2.36356 6.29682 2.3349 6.26758L1.85573 5.78841L2.3349 5.30716C2.37307 5.26822 2.39445 5.21586 2.39445 5.16133C2.39445 5.1068 2.37307 5.05444 2.3349 5.01549C2.31553 4.99597 2.29249 4.98047 2.2671 4.96989C2.24171 4.95932 2.21448 4.95387 2.18698 4.95387C2.15948 4.95387 2.13225 4.95932 2.10686 4.96989C2.08147 4.98047 2.05843 4.99597 2.03906 5.01549C1.7099 5.34466 1.84531 5.20716 1.41406 5.64049C1.37589 5.67944 1.35451 5.7318 1.35451 5.78633C1.35451 5.84086 1.37589 5.89322 1.41406 5.93216C2.08073 6.60508 2.08073 6.62175 2.18698 6.62175ZM3.01823 6.37591C3.07288 6.37568 3.12526 6.35398 3.16406 6.3155L3.9224 5.55716C3.94192 5.53779 3.95742 5.51475 3.968 5.48937C3.97857 5.46398 3.98402 5.43675 3.98402 5.40924C3.98402 5.38174 3.97857 5.35451 3.968 5.32912C3.95742 5.30374 3.94192 5.2807 3.9224 5.26133C3.88336 5.22253 3.83056 5.20075 3.77552 5.20075C3.72048 5.20075 3.66768 5.22253 3.62865 5.26133L2.87031 6.01966C2.84093 6.0488 2.82089 6.08603 2.81275 6.1266C2.80461 6.16718 2.80874 6.20925 2.82461 6.24747C2.84048 6.28569 2.86737 6.31831 2.90185 6.34119C2.93633 6.36406 2.97685 6.37615 3.01823 6.37591ZM4.5099 7.83633H4.81198C4.86723 7.83633 4.92022 7.81438 4.95929 7.77531C4.99836 7.73624 5.02031 7.68325 5.02031 7.628C5.02031 7.57274 4.99836 7.51975 4.95929 7.48068C4.92022 7.44161 4.86723 7.41966 4.81198 7.41966H4.5099C4.45464 7.41966 4.40165 7.44161 4.36258 7.48068C4.32351 7.51975 4.30156 7.57274 4.30156 7.628C4.30156 7.68325 4.32351 7.73624 4.36258 7.77531C4.40165 7.81438 4.45464 7.83633 4.5099 7.83633ZM1.5599 10.2092H3.13281C3.18807 10.2092 3.24106 10.1873 3.28013 10.1482C3.3192 10.1092 3.34115 10.0562 3.34115 10.0009C3.34115 9.94566 3.3192 9.89267 3.28013 9.8536C3.24106 9.81453 3.18807 9.79258 3.13281 9.79258H1.5599C1.50464 9.79258 1.45165 9.81453 1.41258 9.8536C1.37351 9.89267 1.35156 9.94566 1.35156 10.0009C1.35156 10.0562 1.37351 10.1092 1.41258 10.1482C1.45165 10.1873 1.50464 10.2092 1.5599 10.2092ZM1.5599 11.4592H4.58073C4.63598 11.4592 4.68897 11.4373 4.72804 11.3982C4.76711 11.3592 4.78906 11.3062 4.78906 11.2509C4.78906 11.1957 4.76711 11.1427 4.72804 11.1036C4.68897 11.0645 4.63598 11.0426 4.58073 11.0426H1.5599C1.50464 11.0426 1.45165 11.0645 1.41258 11.1036C1.37351 11.1427 1.35156 11.1957 1.35156 11.2509C1.35156 11.3062 1.37351 11.3592 1.41258 11.3982C1.45165 11.4373 1.50464 11.4592 1.5599 11.4592Z" fill="#302D3D"/>
<path d="M18.7682 4.08125H17.237V1.18334C17.2375 1.02796 17.2074 0.874006 17.1482 0.730326C17.0891 0.586645 17.0021 0.45607 16.8924 0.346105C16.7826 0.23614 16.6522 0.148954 16.5086 0.0895576C16.365 0.0301614 16.2111 -0.000273635 16.0557 1.85361e-06H2.95365C2.79827 -0.000273635 2.64437 0.0301614 2.50079 0.0895576C2.35722 0.148954 2.2268 0.23614 2.11702 0.346105C2.00725 0.45607 1.9203 0.586645 1.86115 0.730326C1.80201 0.874006 1.77185 1.02796 1.7724 1.18334V4.08125H1.22656C1.01143 4.08125 0.805087 4.16657 0.652774 4.31849C0.50046 4.47041 0.414614 4.67654 0.414063 4.89167V13.1917C0.414612 13.407 0.500392 13.6133 0.652646 13.7656C0.8049 13.9178 1.01124 14.0036 1.22656 14.0042H1.7724V14.95H1.22656C1.11996 14.9497 1.01435 14.9705 0.91579 15.0111C0.817225 15.0517 0.727639 15.1113 0.652164 15.1866C0.576689 15.2619 0.516808 15.3513 0.47595 15.4498C0.435093 15.5483 0.414062 15.6538 0.414063 15.7604V18.0229C0.414612 18.2382 0.500392 18.4446 0.652646 18.5968C0.8049 18.7491 1.01124 18.8349 1.22656 18.8354H1.7724C1.77678 19.1458 1.90316 19.442 2.12421 19.6599C2.34527 19.8779 2.64323 20 2.95365 20H16.0557C16.2106 20.0003 16.364 19.97 16.5071 19.911C16.6503 19.852 16.7804 19.7654 16.8901 19.6561C16.9998 19.5468 17.0869 19.417 17.1464 19.274C17.2059 19.1311 17.2367 18.9778 17.237 18.8229V11.025H18.7682C18.8752 11.0247 18.9811 11.0034 19.0798 10.9622C19.1785 10.921 19.2682 10.8608 19.3436 10.7849C19.4191 10.7091 19.4788 10.6192 19.5195 10.5202C19.5602 10.4213 19.581 10.3153 19.5807 10.2083V4.89167C19.5802 4.67654 19.4943 4.47041 19.342 4.31849C19.1897 4.16657 18.9834 4.08125 18.7682 4.08125ZM16.8203 1.18334V2.46667H5.83073V0.416669H16.0599C16.1602 0.416941 16.2595 0.437003 16.352 0.475705C16.4446 0.514407 16.5286 0.570989 16.5992 0.642208C16.6698 0.713427 16.7257 0.797884 16.7637 0.890741C16.8016 0.983597 16.8209 1.08303 16.8203 1.18334ZM2.18906 1.18334C2.18879 1.08275 2.20836 0.983106 2.24666 0.890102C2.28497 0.797098 2.34124 0.712565 2.41227 0.641346C2.48329 0.570127 2.56767 0.513622 2.66057 0.475068C2.75347 0.436513 2.85306 0.416668 2.95365 0.416669H5.41406V2.4625H2.18906V1.18334ZM1.22656 13.5875C1.12175 13.587 1.02139 13.5451 0.947271 13.471C0.873156 13.3968 0.831277 13.2965 0.830729 13.1917V4.89167C0.830728 4.83979 0.840982 4.78841 0.8609 4.7405C0.880818 4.6926 0.910007 4.6491 0.946791 4.61251C0.983575 4.57592 1.02723 4.54696 1.07524 4.52729C1.12325 4.50763 1.17468 4.49764 1.22656 4.49792H5.53906C5.59095 4.49764 5.64237 4.50763 5.69038 4.52729C5.7384 4.54696 5.78205 4.57592 5.81883 4.61251C5.85562 4.6491 5.88481 4.6926 5.90473 4.7405C5.92464 4.78841 5.9349 4.83979 5.9349 4.89167V13.1917C5.9349 13.2963 5.89348 13.3967 5.8197 13.4708C5.74591 13.545 5.64577 13.587 5.54115 13.5875H1.22656ZM1.22656 18.4188C1.12175 18.4182 1.02139 18.3763 0.947271 18.3022C0.873156 18.2281 0.831277 18.1277 0.830729 18.0229V15.7604C0.830728 15.7085 0.840982 15.6572 0.8609 15.6093C0.880818 15.5613 0.910007 15.5178 0.946791 15.4813C0.983575 15.4447 1.02723 15.4157 1.07524 15.396C1.12325 15.3764 1.17468 15.3664 1.22656 15.3667H5.53906C5.59095 15.3664 5.64237 15.3764 5.69038 15.396C5.7384 15.4157 5.78205 15.4447 5.81883 15.4813C5.85562 15.5178 5.88481 15.5613 5.90473 15.6093C5.92464 15.6572 5.9349 15.7085 5.9349 15.7604V18.0229C5.9349 18.1275 5.89348 18.2279 5.8197 18.3021C5.74591 18.3763 5.64577 18.4182 5.54115 18.4188H1.22656ZM16.8203 18.8188C16.8206 18.9192 16.801 19.0188 16.7627 19.1117C16.7243 19.2046 16.668 19.289 16.597 19.36C16.5259 19.4311 16.4415 19.4874 16.3486 19.5257C16.2558 19.564 16.1562 19.5836 16.0557 19.5833H2.95365C2.75442 19.5834 2.56304 19.5057 2.42024 19.3668C2.27744 19.2279 2.19449 19.0387 2.18906 18.8396H5.54115C5.75627 18.839 5.9624 18.7532 6.11432 18.6009C6.26625 18.4486 6.35156 18.2422 6.35156 18.0271V15.7604C6.35156 15.6538 6.33053 15.5483 6.28967 15.4498C6.24882 15.3513 6.18894 15.2619 6.11346 15.1866C6.03799 15.1113 5.9484 15.0517 5.84983 15.0111C5.75127 14.9705 5.64566 14.9497 5.53906 14.95H2.18906V14.0042H5.54115C5.75627 14.0036 5.9624 13.9178 6.11432 13.7655C6.26625 13.6131 6.35156 13.4068 6.35156 13.1917V4.89167C6.35101 4.67654 6.26516 4.47041 6.11285 4.31849C5.96054 4.16657 5.75419 4.08125 5.53906 4.08125H2.18906V2.88334H16.8203V4.08125H8.10156C7.88643 4.08125 7.68009 4.16657 7.52777 4.31849C7.37546 4.47041 7.28961 4.67654 7.28906 4.89167V10.2083C7.28961 10.4237 7.37539 10.63 7.52765 10.7823C7.6799 10.9345 7.88624 11.0203 8.10156 11.0208H16.8203V18.8188ZM15.2453 10.6083H8.91823L12.0807 7.44375L15.2453 10.6083ZM15.8349 10.6083L14.3266 9.1L15.2661 8.16042C15.912 8.80834 16.8724 9.7625 17.7057 10.6083H15.8349ZM19.1641 10.2083C19.1641 10.3133 19.1224 10.414 19.0481 10.4882C18.9739 10.5625 18.8732 10.6042 18.7682 10.6042H18.3036C16.2474 8.55625 17.9391 10.2479 15.4141 7.71875C15.375 7.67995 15.3222 7.65817 15.2672 7.65817C15.2121 7.65817 15.1593 7.67995 15.1203 7.71875L14.0349 8.80834L12.2307 7.00209C12.1917 6.96328 12.1389 6.9415 12.0839 6.9415C12.0288 6.9415 11.976 6.96328 11.937 7.00209L8.33073 10.6083H8.10156C8.04923 10.6083 7.99741 10.598 7.94911 10.5778C7.90082 10.5577 7.85699 10.5281 7.82018 10.4909C7.78337 10.4537 7.7543 10.4096 7.73466 10.3611C7.71501 10.3126 7.70518 10.2607 7.70573 10.2083V4.89167C7.70573 4.83979 7.71598 4.78841 7.7359 4.7405C7.75582 4.6926 7.78501 4.6491 7.82179 4.61251C7.85858 4.57592 7.90223 4.54696 7.95024 4.52729C7.99825 4.50763 8.04968 4.49764 8.10156 4.49792H18.7682C18.8201 4.49764 18.8715 4.50763 18.9195 4.52729C18.9676 4.54696 19.0112 4.57592 19.048 4.61251C19.0848 4.6491 19.114 4.6926 19.1339 4.7405C19.1538 4.78841 19.1641 4.83979 19.1641 4.89167V10.2083Z" fill="#302D3D"/>
<path d="M14.0151 5.20899C13.8211 5.20899 13.6315 5.26648 13.4702 5.37421C13.3088 5.48194 13.1831 5.63507 13.1087 5.81425C13.0344 5.99343 13.0149 6.19062 13.0526 6.3809C13.0903 6.57119 13.1835 6.74604 13.3205 6.88335C13.4575 7.02066 13.6322 7.11428 13.8224 7.15238C14.0126 7.19047 14.2098 7.17134 14.3892 7.09739C14.5685 7.02344 14.7219 6.898 14.83 6.7369C14.938 6.57581 14.9959 6.3863 14.9964 6.19232C14.9969 6.06321 14.9719 5.93526 14.9228 5.81585C14.8737 5.69643 14.8015 5.5879 14.7103 5.49651C14.6191 5.40512 14.5107 5.33266 14.3914 5.28332C14.2721 5.23397 14.1442 5.20871 14.0151 5.20899ZM14.0151 6.75274C13.9033 6.75273 13.7939 6.71951 13.701 6.65729C13.6081 6.59507 13.5357 6.50664 13.4931 6.40324C13.4505 6.29983 13.4396 6.1861 13.4617 6.07647C13.4838 5.96684 13.538 5.86625 13.6174 5.78746C13.6968 5.70867 13.7977 5.65523 13.9075 5.63391C14.0173 5.6126 14.131 5.62438 14.2341 5.66775C14.3372 5.71112 14.425 5.78414 14.4866 5.87753C14.5481 5.97092 14.5805 6.08048 14.5797 6.19232C14.58 6.26654 14.5655 6.34008 14.5373 6.4087C14.509 6.47732 14.4674 6.53967 14.4149 6.59215C14.3625 6.64464 14.3001 6.68621 14.2315 6.71449C14.1629 6.74276 14.0893 6.75718 14.0151 6.7569V6.75274ZM8.14635 15.7382H11.9318C12.1469 15.7382 12.3532 15.6528 12.5056 15.5009C12.6579 15.349 12.7437 15.1429 12.7443 14.9277V12.6632C12.7437 12.448 12.6579 12.2419 12.5056 12.09C12.3532 11.9381 12.1469 11.8527 11.9318 11.8527H8.14635C7.93142 11.8527 7.72529 11.9381 7.5733 12.0901C7.42132 12.2421 7.33594 12.4482 7.33594 12.6632V14.9277C7.33594 15.1427 7.42132 15.3488 7.5733 15.5008C7.72529 15.6528 7.93142 15.7382 8.14635 15.7382ZM7.7526 12.6632C7.7526 12.5587 7.79409 12.4586 7.86793 12.3847C7.94177 12.3109 8.04193 12.2694 8.14635 12.2694H11.9318C12.0364 12.2694 12.1368 12.3108 12.2109 12.3846C12.2851 12.4584 12.3271 12.5585 12.3276 12.6632V14.9277C12.3271 15.0324 12.2851 15.1325 12.2109 15.2063C12.1368 15.2801 12.0364 15.3215 11.9318 15.3215H8.14635C8.04209 15.3209 7.94226 15.2793 7.86854 15.2056C7.79481 15.1318 7.75315 15.032 7.7526 14.9277V12.6632Z" fill="#302D3D"/>
<path d="M11.151 14.2645C11.151 14.3126 11.1319 14.3587 11.098 14.3927C11.064 14.4267 11.0179 14.4457 10.9698 14.4457C10.9145 14.4457 10.8615 14.4677 10.8225 14.5068C10.7834 14.5458 10.7615 14.5988 10.7615 14.6541C10.7615 15.0457 11.5677 14.8624 11.5677 14.2645V14.002H11.6635C11.7188 14.002 11.7718 13.98 11.8109 13.941C11.8499 13.9019 11.8719 13.8489 11.8719 13.7937C11.8719 13.7384 11.8499 13.6854 11.8109 13.6463C11.7718 13.6073 11.7188 13.5853 11.6635 13.5853H11.5656V13.3332C11.5656 12.7374 10.7594 12.5499 10.7594 12.9437C10.7594 12.9989 10.7813 13.0519 10.8204 13.091C10.8595 13.13 10.9125 13.152 10.9677 13.152C11.0158 13.152 11.0619 13.1711 11.0959 13.2051C11.1299 13.2391 11.149 13.2852 11.149 13.3332L11.151 14.2645ZM8.41354 14.002H8.51146V14.2645C8.51146 14.8624 9.31771 15.0499 9.31771 14.6541C9.31771 14.5988 9.29576 14.5458 9.25669 14.5068C9.21762 14.4677 9.16463 14.4457 9.10938 14.4457C9.0613 14.4457 9.0152 14.4267 8.98121 14.3927C8.94722 14.3587 8.92812 14.3126 8.92812 14.2645V13.3332C8.92812 13.2852 8.94722 13.2391 8.98121 13.2051C9.0152 13.1711 9.0613 13.152 9.10938 13.152C9.16463 13.152 9.21762 13.13 9.25669 13.091C9.29576 13.0519 9.31771 12.9989 9.31771 12.9437C9.31771 12.5541 8.51146 12.7353 8.51146 13.3332V13.5957H8.41354C8.35829 13.5957 8.3053 13.6177 8.26623 13.6568C8.22716 13.6958 8.20521 13.7488 8.20521 13.8041C8.20521 13.8593 8.22716 13.9123 8.26623 13.9514C8.3053 13.9905 8.35829 14.0124 8.41354 14.0124V14.002ZM9.61562 14.427C9.64319 14.4269 9.67046 14.4213 9.69585 14.4106C9.72124 14.3998 9.74425 14.3842 9.76354 14.3645L10.6219 13.5187C10.6413 13.4992 10.6567 13.4762 10.6672 13.4508C10.6777 13.4254 10.6831 13.3982 10.6831 13.3707C10.6831 13.3433 10.6777 13.3161 10.6672 13.2907C10.6567 13.2653 10.6413 13.2423 10.6219 13.2228C10.6025 13.2034 10.5794 13.188 10.554 13.1775C10.5286 13.167 10.5014 13.1616 10.474 13.1616C10.4465 13.1616 10.4193 13.167 10.3939 13.1775C10.3685 13.188 10.3455 13.2034 10.326 13.2228L9.48021 14.0707C9.45149 14.0991 9.43163 14.1352 9.42305 14.1747C9.41447 14.2141 9.41754 14.2552 9.43188 14.293C9.44623 14.3307 9.47123 14.3635 9.50385 14.3873C9.53647 14.4111 9.5753 14.4249 9.61562 14.427ZM1.72396 16.4249H5.04062C5.09588 16.4249 5.14887 16.403 5.18794 16.3639C5.22701 16.3248 5.24896 16.2718 5.24896 16.2166C5.24896 16.1613 5.22701 16.1083 5.18794 16.0693C5.14887 16.0302 5.09588 16.0082 5.04062 16.0082H1.72396C1.6687 16.0082 1.61571 16.0302 1.57664 16.0693C1.53757 16.1083 1.51562 16.1613 1.51562 16.2166C1.51562 16.2718 1.53757 16.3248 1.57664 16.3639C1.61571 16.403 1.6687 16.4249 1.72396 16.4249ZM3.92188 17.6416C3.97713 17.6416 4.03012 17.6196 4.06919 17.5806C4.10826 17.5415 4.13021 17.4885 4.13021 17.4332C4.13021 17.378 4.10826 17.325 4.06919 17.2859C4.03012 17.2469 3.97713 17.2249 3.92188 17.2249H1.72396C1.6687 17.2249 1.61571 17.2469 1.57664 17.2859C1.53757 17.325 1.51562 17.378 1.51562 17.4332C1.51562 17.4885 1.53757 17.5415 1.57664 17.5806C1.61571 17.6196 1.6687 17.6416 1.72396 17.6416H3.92188ZM14.6615 16.6832H8.14687C8.03992 16.6832 7.93403 16.7044 7.83529 16.7455C7.73656 16.7866 7.64694 16.8469 7.5716 16.9228C7.49627 16.9987 7.4367 17.0888 7.39634 17.1879C7.35599 17.2869 7.33563 17.393 7.33646 17.4999V18.0291C7.33646 18.2442 7.42177 18.4506 7.5737 18.6029C7.72562 18.7552 7.93175 18.841 8.14687 18.8416H14.6615C14.8768 18.841 15.0831 18.7553 15.2354 18.603C15.3876 18.4507 15.4734 18.2444 15.474 18.0291V17.4999C15.4745 17.3929 15.4539 17.2868 15.4133 17.1877C15.3727 17.0886 15.313 16.9986 15.2375 16.9227C15.162 16.8468 15.0722 16.7866 14.9734 16.7455C14.8745 16.7044 14.7685 16.6832 14.6615 16.6832ZM8.14687 18.4187C8.04225 18.4181 7.94211 18.3762 7.86832 18.302C7.79454 18.2278 7.75312 18.1275 7.75312 18.0228V17.4999C7.75312 17.3955 7.79461 17.2953 7.86845 17.2215C7.94229 17.1476 8.04245 17.1062 8.14687 17.1062H9.54479C9.59667 17.1059 9.6481 17.1159 9.69611 17.1355C9.74413 17.1552 9.78778 17.1842 9.82456 17.2208C9.86135 17.2573 9.89054 17.3008 9.91045 17.3487C9.93037 17.3967 9.94063 17.448 9.94062 17.4999V18.0291C9.94008 18.1339 9.8982 18.2343 9.82408 18.3084C9.74997 18.3825 9.6496 18.4244 9.54479 18.4249L8.14687 18.4187ZM15.0573 18.0228C15.0567 18.1276 15.0149 18.228 14.9407 18.3021C14.8666 18.3762 14.7663 18.4181 14.6615 18.4187H10.2552C10.3865 18.177 10.3573 18.0207 10.3573 17.4937C10.3574 17.3559 10.3222 17.2203 10.2552 17.0999H14.6615C14.7138 17.0999 14.7656 17.1103 14.8139 17.1304C14.8622 17.1506 14.906 17.1801 14.9428 17.2173C14.9796 17.2545 15.0087 17.2986 15.0284 17.3472C15.048 17.3957 15.0578 17.4476 15.0573 17.4999V18.0228Z" fill="#302D3D"/>
</g>
<defs>
<clipPath id="clip0_2001_83948">
<rect width="20" height="20" fill="white"/>
</clipPath>
</defs>
</svg>
