<svg width="20" height="20" viewBox="0 0 20 20" fill="none" xmlns="http://www.w3.org/2000/svg">
<g clip-path="url(#clip0_2001_154376)">
<path d="M1.31531 0C0.588672 0 0 0.588672 0 1.31531V3.62016H2.63047V1.31531C2.63047 0.588672 2.04148 0 1.31531 0Z" fill="#EDD4C2"/>
<path d="M16.0073 0H1.3125C2.03914 0 2.62781 0.588828 2.62781 1.31531V20H17.3226V1.31531C17.3226 0.588828 16.7333 0 16.0073 0Z" fill="#FFEFE4"/>
<path d="M2.63281 19.2188H17.3276V20H2.63281V19.2188Z" fill="#EDD4C2"/>
<path d="M16.0073 0H1.3125C1.84883 0 2.3098 0.321055 2.51457 0.78125H16.0073C16.7334 0.78125 17.3226 1.37008 17.3226 2.09656V1.31531C17.3226 0.588828 16.7333 0 16.0073 0Z" fill="#FFF7F2"/>
<path d="M20.0029 17.7738H18.2344V5.50586H20.0029V17.7738Z" fill="#FF8354"/>
<path d="M20.0029 18.2291H18.2344V17.7734H20.0029V18.2291Z" fill="#FFEFE4"/>
<path d="M18.2344 18.2285H20.0029V19.1158C20.0029 19.6043 19.607 20.0001 19.1186 20.0001C18.6303 20.0001 18.2344 19.6043 18.2344 19.1158V18.2285Z" fill="#6770E6"/>
<path d="M19.1186 19.2182C18.6303 19.2182 18.2344 18.8224 18.2344 18.334V19.1152C18.2344 19.6037 18.6303 19.9995 19.1186 19.9995C19.607 19.9995 20.0029 19.6037 20.0029 19.1152V18.334C20.0029 18.8224 19.607 19.2182 19.1186 19.2182Z" fill="#5861C7"/>
<path d="M18.2344 5.50467L19.0533 3.21982C19.0753 3.1585 19.162 3.1585 19.1839 3.21982L20.0029 5.50467H18.2344Z" fill="#EDD4C2"/>
<path d="M18.6719 4.27115H19.5561L19.1794 3.21982C19.1574 3.1585 19.0706 3.1585 19.0486 3.21982L18.6719 4.27115Z" fill="#5861C7"/>
<path d="M18.6719 4.27115H19.5561L19.1794 3.21982C19.1574 3.1585 19.0706 3.1585 19.0486 3.21982L18.6719 4.27115Z" fill="#5861C7"/>
<path d="M19.0215 3.61044C19.0542 3.54911 19.1827 3.54911 19.2152 3.61044L19.5495 4.24017L19.1837 3.21985C19.1618 3.15849 19.0751 3.15849 19.0531 3.21985L18.6875 4.23985L19.0215 3.61044Z" fill="#8F95E6"/>
<path d="M14.6408 7.94344H6.87496C6.6766 7.94344 6.51562 7.78262 6.51562 7.58426C6.51562 7.38574 6.6766 7.22488 6.875 7.22488H14.6406C14.8391 7.22488 15 7.38574 15 7.58426C15.0001 7.78262 14.8391 7.94344 14.6408 7.94344ZM14.6408 9.82637H6.87496C6.6766 9.82637 6.51562 9.66555 6.51562 9.46699C6.51562 9.26867 6.6766 9.10785 6.875 9.10785H14.6406C14.8391 9.10785 15 9.26867 15 9.46703C15.0001 9.66555 14.8391 9.82637 14.6408 9.82637ZM14.6408 11.7093H6.87496C6.6766 11.7093 6.51562 11.5485 6.51562 11.35C6.51562 11.1516 6.6766 10.9906 6.875 10.9906H14.6406C14.8391 10.9906 15 11.1516 15 11.35C15.0001 11.5485 14.8391 11.7093 14.6408 11.7093V11.7093ZM14.6408 13.5921H6.87496C6.6766 13.5921 6.51562 13.4313 6.51562 13.2329C6.51562 13.0344 6.6766 12.8735 6.875 12.8735H14.6406C14.8391 12.8735 15 13.0344 15 13.2329C15.0001 13.4313 14.8391 13.5921 14.6408 13.5921ZM5.67195 7.5841C5.67195 7.78262 5.51102 7.94344 5.31262 7.94344C5.1141 7.94344 4.95312 7.78262 4.95312 7.58406C4.95312 7.38551 5.1141 7.22477 5.31262 7.22477C5.51098 7.22477 5.67199 7.38559 5.67199 7.5841H5.67195ZM5.67195 9.46703C5.67195 9.66555 5.51102 9.82652 5.31262 9.82652C5.21728 9.82651 5.12584 9.78864 5.05843 9.72122C4.99101 9.6538 4.95314 9.56237 4.95312 9.46703C4.95312 9.26867 5.1141 9.10766 5.31262 9.10766C5.51098 9.10766 5.67199 9.26867 5.67199 9.46703H5.67195ZM5.67195 11.35C5.67195 11.5485 5.51102 11.7093 5.31262 11.7093C5.1141 11.7093 4.95312 11.5485 4.95312 11.35C4.95312 11.1514 5.1141 10.9906 5.31262 10.9906C5.51098 10.9906 5.67199 11.1514 5.67199 11.35H5.67195ZM5.67195 13.2329C5.67195 13.4313 5.51102 13.5923 5.31262 13.5923C5.1141 13.5923 4.95312 13.4313 4.95312 13.2329C4.95312 13.0344 5.1141 12.8735 5.31262 12.8735C5.51098 12.8735 5.67199 13.0344 5.67199 13.2329H5.67195ZM6.45262 4.99926V2.53953H5.81402C5.73434 2.53953 5.65792 2.50788 5.60157 2.45153C5.54523 2.39519 5.51357 2.31877 5.51357 2.23908C5.51357 2.1594 5.54523 2.08298 5.60157 2.02663C5.65792 1.97029 5.73434 1.93863 5.81402 1.93863H7.72457C7.76403 1.93863 7.8031 1.9464 7.83956 1.96149C7.87602 1.97659 7.90914 1.99872 7.93705 2.02663C7.96495 2.05453 7.98708 2.08765 8.00218 2.12411C8.01728 2.16057 8.02504 2.19964 8.02504 2.2391C8.02505 2.27856 8.01728 2.31764 8.00219 2.35409C7.98709 2.39055 7.96496 2.42367 7.93705 2.45157C7.90915 2.47947 7.87602 2.5016 7.83956 2.51669C7.80311 2.53179 7.76403 2.53955 7.72457 2.53953H7.08602V4.99926C7.08602 5.03871 7.07824 5.07778 7.06314 5.11424C7.04804 5.15069 7.02591 5.18381 6.99801 5.21171C6.97011 5.23961 6.93698 5.26173 6.90053 5.27683C6.86407 5.29193 6.825 5.29969 6.78555 5.29969H6.75305C6.67337 5.29969 6.59695 5.26804 6.54061 5.21169C6.48427 5.15535 6.45262 5.07894 6.45262 4.99926ZM10.8054 4.60984L10.9707 4.8082C10.9949 4.83721 11.013 4.8708 11.0238 4.90695C11.0347 4.94311 11.0382 4.98109 11.034 5.01861C11.0298 5.05613 11.0181 5.09243 10.9995 5.12531C10.981 5.15819 10.956 5.18698 10.926 5.20996C10.8684 5.25426 10.7959 5.27445 10.7237 5.26625C10.6514 5.25805 10.5853 5.22211 10.5391 5.16602L10.4672 5.07891C10.2449 5.27652 9.97754 5.37508 9.66457 5.37508C9.48926 5.37508 9.32586 5.34594 9.17402 5.28797C9.02207 5.23027 8.88988 5.14891 8.77742 5.04383C8.66484 4.93914 8.57617 4.81461 8.51195 4.67059C8.4477 4.52684 8.41566 4.36875 8.41566 4.19648C8.41566 4.00879 8.46187 3.83043 8.55434 3.66121C8.64637 3.49246 8.77562 3.34824 8.94176 3.22957C8.88211 3.14805 8.83359 3.06367 8.79621 2.97578C8.75836 2.88836 8.73957 2.7959 8.73957 2.69883C8.73957 2.58301 8.76098 2.47469 8.80309 2.37262C8.8443 2.27266 8.90582 2.18234 8.98375 2.10738C9.06203 2.03266 9.15445 1.97301 9.2607 1.92902C9.36719 1.88555 9.48469 1.86328 9.61305 1.86328C9.8384 1.86328 10.0191 1.91562 10.155 2.0207C10.1918 2.04892 10.2265 2.0799 10.2586 2.11336C10.3874 2.2475 10.3545 2.46688 10.1901 2.55371L10.1607 2.5693C10.0595 2.62285 9.94 2.59312 9.86129 2.51008C9.78328 2.42816 9.68062 2.40313 9.62203 2.40313C9.53152 2.40313 9.45934 2.42984 9.40609 2.48293C9.35297 2.53648 9.32629 2.60363 9.32629 2.68512C9.32629 2.73516 9.33742 2.78094 9.35926 2.82336C9.38109 2.86578 9.41082 2.91004 9.44852 2.95703L10.4579 4.18719L10.5962 3.96211C10.6143 3.93261 10.6381 3.907 10.6662 3.88678C10.6943 3.86655 10.7262 3.8521 10.7599 3.84426C10.7936 3.83643 10.8286 3.83537 10.8627 3.84114C10.8969 3.84691 10.9295 3.8594 10.9588 3.87789C10.9879 3.89625 11.0131 3.92018 11.033 3.9483C11.0528 3.97642 11.0669 4.00818 11.0745 4.04176C11.0821 4.07534 11.0829 4.11008 11.077 4.14399C11.0711 4.1779 11.0586 4.21031 11.0402 4.23938L10.8054 4.60984ZM9.69285 4.82102C9.86785 4.82102 10.0119 4.76914 10.1246 4.66602L9.27504 3.63789C9.18746 3.70363 9.12031 3.78418 9.07332 3.87969C9.02633 3.97523 9.0025 4.07305 9.0025 4.17313C9.0025 4.2734 9.02156 4.36344 9.05914 4.44293C9.09648 4.52273 9.14746 4.59109 9.21156 4.64723C9.27638 4.70377 9.35128 4.74757 9.43234 4.77633C9.5152 4.80625 9.60207 4.82102 9.69285 4.82102ZM14.3432 4.54074C14.4809 4.67121 14.469 4.89199 14.3211 5.01055C14.2188 5.09275 14.1069 5.16227 13.9879 5.21758C13.7625 5.32227 13.5105 5.37492 13.2322 5.37492C12.9815 5.37492 12.7493 5.32945 12.5351 5.23852C12.3207 5.14805 12.135 5.0243 11.9787 4.86805C11.8222 4.71133 11.6987 4.52609 11.6078 4.31141C11.5168 4.09699 11.4718 3.86629 11.4718 3.6191C11.4718 3.37191 11.5168 3.14121 11.6078 2.92652C11.6988 2.71211 11.8222 2.52688 11.9787 2.37016C12.135 2.21391 12.3207 2.09016 12.5351 1.99969C12.7493 1.90875 12.9816 1.86328 13.2322 1.86328C13.5011 1.86328 13.7384 1.91027 13.9432 2.00426C14.0519 2.05411 14.1547 2.11599 14.2497 2.18875C14.389 2.29539 14.3957 2.50398 14.2698 2.6259L14.243 2.65184C14.1375 2.75391 13.9752 2.7582 13.8583 2.66941C13.808 2.63116 13.7548 2.59701 13.699 2.5673C13.5691 2.49848 13.4152 2.46418 13.2368 2.46418C13.0801 2.46418 12.933 2.49164 12.7955 2.54625C12.6576 2.60133 12.5381 2.67855 12.4363 2.77848C12.3347 2.87906 12.2541 3.0002 12.1946 3.14254C12.135 3.28512 12.1057 3.44363 12.1057 3.6191C12.1057 3.79441 12.1351 3.95297 12.1946 4.09547C12.2541 4.23801 12.3349 4.35898 12.4363 4.4591C12.5381 4.55965 12.6576 4.63672 12.7955 4.6918C12.933 4.74641 13.0801 4.77387 13.2368 4.77387C13.4243 4.77387 13.5913 4.73574 13.7368 4.65883C13.8057 4.6225 13.8707 4.57918 13.9308 4.52957C14.0527 4.42949 14.2288 4.43223 14.3432 4.54074Z" fill="#6770E6"/>
<path d="M7.14688 17.7727H5.2682C5.18465 17.7726 5.10453 17.7394 5.04544 17.6803C4.98636 17.6213 4.95316 17.5411 4.95312 17.4576V15.5788C4.95312 15.4952 4.98632 15.415 5.04541 15.356C5.1045 15.2969 5.18464 15.2637 5.2682 15.2637H7.14703C7.18841 15.2637 7.22939 15.2718 7.26762 15.2876C7.30585 15.3035 7.34059 15.3267 7.36985 15.3559C7.39911 15.3852 7.42232 15.4199 7.43815 15.4582C7.45398 15.4964 7.46212 15.5374 7.46211 15.5788V17.4576C7.46207 17.5412 7.42884 17.6213 7.36972 17.6804C7.31061 17.7395 7.23045 17.7727 7.14688 17.7727Z" fill="#EDD4C2"/>
<path d="M6.06164 17.2277C5.994 17.2277 5.92834 17.2048 5.87531 17.1628L5.50473 16.8697C5.44221 16.8202 5.4019 16.7479 5.39265 16.6687C5.38341 16.5895 5.40599 16.5099 5.45543 16.4474C5.47992 16.4164 5.51026 16.3906 5.54473 16.3713C5.5792 16.3521 5.61713 16.3398 5.65633 16.3353C5.69554 16.3307 5.73527 16.3339 5.77324 16.3447C5.81122 16.3554 5.8467 16.3736 5.87766 16.3981L6.0159 16.5073L6.5873 15.806C6.61225 15.7754 6.64299 15.75 6.67775 15.7313C6.71251 15.7126 6.75063 15.7009 6.78991 15.6969C6.8292 15.6929 6.86889 15.6966 6.90671 15.708C6.94454 15.7193 6.97976 15.738 7.01037 15.7629C7.04098 15.7879 7.06638 15.8186 7.08511 15.8534C7.10384 15.8881 7.11554 15.9262 7.11954 15.9655C7.12355 16.0048 7.11977 16.0445 7.10844 16.0823C7.0971 16.1202 7.07843 16.1554 7.05348 16.186L6.29496 17.1169C6.26676 17.1516 6.23118 17.1795 6.19082 17.1986C6.15045 17.2178 6.10632 17.2277 6.06164 17.2277ZM14.6382 16.8778H8.9909C8.79254 16.8778 8.63152 16.717 8.63152 16.5185C8.63152 16.3201 8.79254 16.1593 8.9909 16.1593H14.6382C14.8365 16.1593 14.9975 16.3201 14.9975 16.5185C14.9975 16.717 14.8365 16.8778 14.6382 16.8778Z" fill="#6770E6"/>
</g>
<defs>
<clipPath id="clip0_2001_154376">
<rect width="20" height="20" fill="white"/>
</clipPath>
</defs>
</svg>
