<svg width="24" height="27" viewBox="0 0 24 27" fill="none" xmlns="http://www.w3.org/2000/svg">
<path d="M15.701 0.935173C14.7287 0.541848 13.7216 0.790263 13.5133 2.52917C13.4438 3.09224 13.6117 3.41242 13.7043 3.50213C13.3628 3.61254 12.6104 4.40471 12.3326 6.69013C11.9853 9.54691 13.4786 11.3479 14.1036 11.8862C14.7287 12.4244 16.0136 13.004 16.274 14.6394C16.5345 16.2748 16.2914 17.4548 15.2496 19.3593C14.2078 21.2639 14.8502 23.9136 17.5762 23.9136C18.7917 24.7417 21.0315 25.5904 22.1427 26.0873C23.2369 26.5765 23.2369 26.0019 23.2366 23.0197L23.2366 22.8786C23.407 18.5095 23.1165 14.8835 22.4967 11.8862C22.2326 10.6087 21.9086 9.44549 21.535 8.38764C20.2849 4.84771 18.5833 3.50213 18.184 3.23301C17.7846 2.9639 16.6734 1.3285 15.701 0.935173Z" fill="#DD9C9F"/>
<path d="M9.86705 0.935173C10.8915 0.686763 11.0477 3.68844 10.3879 5.88278C11.0468 7.07823 11.5049 9.93614 11.6645 12.8177C11.6984 13.4291 11.7188 14.0416 11.7249 14.6394C11.7596 18.0552 10.7873 20.1874 9.29406 21.8435C7.80084 23.4996 5.49155 24.514 4.84912 24.3277C4.53658 24.7831 3.70315 25.2799 3.06072 25.6318C2.41829 25.9838 1.98421 26.6876 1.72376 26.7083C1.46332 26.729 0.907697 24.721 1.01188 19.5456C1.05122 17.5911 1.14505 15.8876 1.30084 14.3703C1.35169 13.8751 1.40914 13.3997 1.47345 12.9419C1.73383 11.0885 2.10669 9.52356 2.60928 8.09782C3.61634 5.24104 5.24847 3.62634 6.53333 2.42566C7.8182 1.22498 8.84262 1.18358 9.86705 0.935173Z" fill="#DD9C9F"/>
<path d="M17.5762 23.9136C18.7917 24.7417 21.0315 25.5904 22.1427 26.0873C23.254 26.5841 23.2366 25.9838 23.2366 22.8786C23.407 18.5095 23.1165 14.8835 22.4967 11.8862M17.5762 23.9136C14.8502 23.9136 14.2078 21.2639 15.2496 19.3593C16.2914 17.4548 16.5345 16.2748 16.274 14.6394C16.0136 13.004 14.7287 12.4244 14.1036 11.8862C13.4786 11.3479 11.9853 9.54691 12.3326 6.69013C12.6104 4.40471 13.3628 3.61254 13.7043 3.50213M17.5762 23.9136C17.9872 23.5686 19.2223 22.2451 20.8752 19.7113C22.9414 16.544 22.7504 15.6331 22.4967 11.8862M13.7043 3.50213C13.6117 3.41242 13.4438 3.09224 13.5133 2.52917C13.7216 0.790263 14.7287 0.541848 15.701 0.935173C16.6734 1.3285 17.7846 2.9639 18.184 3.23301C18.5833 3.50213 20.2849 4.84771 21.535 8.38764C21.9086 9.44549 22.2326 10.6087 22.4967 11.8862M13.7043 3.50213C13.8571 3.46901 14.3236 2.83969 14.5377 2.52917M10.3879 5.88278C11.0477 3.68844 10.8915 0.686763 9.86704 0.935173C8.84262 1.18358 7.8182 1.22498 6.53333 2.42566C5.24847 3.62634 3.61634 5.24104 2.60928 8.09782C2.10669 9.52356 1.73383 11.0885 1.47345 12.9419M10.3879 5.88278C9.97122 5.01333 9.62396 4.93052 9.32879 3.85405M10.3879 5.88278C11.0468 7.07823 11.5049 9.93614 11.6645 12.8177M4.84912 24.3277C4.53658 24.7831 3.70315 25.2799 3.06072 25.6318C2.41829 25.9838 1.98421 26.6876 1.72376 26.7083C1.46332 26.729 0.907697 24.721 1.01188 19.5456C1.05122 17.5911 1.14505 15.8876 1.30084 14.3703M4.84912 24.3277C5.49155 24.514 7.80084 23.4996 9.29406 21.8435C10.7873 20.1874 11.7596 18.0552 11.7249 14.6394C11.7188 14.0416 11.6984 13.4291 11.6645 12.8177M4.84912 24.3277C4.05041 23.6445 1.85024 17.7032 1.30084 14.3703M1.30084 14.3703C1.35169 13.8751 1.40914 13.3997 1.47345 12.9419M1.47345 12.9419C2.99127 15.1984 6.65488 14.1426 7.85293 13.7286C9.05098 13.3146 10.8228 12.9005 11.6645 12.8177" stroke="black" stroke-width="0.354729" stroke-linecap="round" stroke-linejoin="round"/>
</svg>
