<svg width="32" height="31" viewBox="0 0 32 31" fill="none" xmlns="http://www.w3.org/2000/svg">
<path d="M26.7264 14.8073C30.1787 15.598 29.8608 20.1342 30.1333 20.8C30.4059 21.4659 31.3598 24.4622 31.1327 26.002C30.9056 27.5418 30.951 28.2909 30.1333 28.8319C29.3157 29.3729 28.1346 29.9139 27.317 29.9971C26.4993 30.0804 25.8633 30.2052 25.4091 30.1636C24.9548 30.122 22.8653 29.4561 22.1839 29.2897C21.5025 29.1232 19.3675 28.8735 17.5959 28.166C15.8244 27.4586 14.0982 27.084 13.008 26.543C12.1358 26.1102 11.5241 25.2807 11.3273 24.92M26.7264 14.8073C26.729 14.9322 26.4993 15.0986 26.3176 15.2234C26.1588 15.3325 26 15.3145 25.7503 15.4471M26.7264 14.8073C26.7264 13.5131 25.892 12.6305 25.1673 12.0606M11.3273 24.92C11.1455 24.8784 10.7458 24.7619 10.6004 24.6287C10.4187 24.4622 10.1008 24.0044 9.82822 23.7548C9.55566 23.5051 8.32918 22.9224 7.51152 21.1746C6.69387 19.4267 6.33047 18.9273 6.42132 17.9701C6.47921 17.3602 6.72152 16.6996 6.96024 16.1391M11.3273 24.92C11.5998 24.9957 11.6452 24.6703 11.5544 24.3374C11.4635 24.0044 11.3273 23.5883 11.1001 23.2554C10.938 23.0178 10.9841 22.3987 11.0899 22.0485M11.191 16.0558C11.4635 16.0142 12.0086 16.4303 12.0086 16.7633C12.0086 16.9108 12.0879 16.9566 12.1903 17.0038M11.191 16.0558C11.1183 16.2223 10.767 16.5413 10.6004 16.68M11.191 16.0558C11.2737 15.9041 11.1051 15.6756 10.8276 15.5197M11.5544 21.1746C11.9178 20.9665 12.2357 20.5919 12.4174 20.0925C12.5628 19.693 12.3569 19.5377 12.2357 19.5099C12.2963 19.5654 12.472 19.5765 12.69 19.177C12.9626 18.6776 12.7354 18.3031 12.5083 18.3031C12.2812 18.3031 12.3266 18.0534 12.5083 17.8869C12.69 17.7204 12.5991 17.3043 12.4174 17.1378C12.3431 17.0697 12.2612 17.0364 12.1903 17.0038M11.5544 21.1746C11.6906 20.8416 11.4181 20.7584 10.9638 20.8416M11.5544 21.1746C11.4635 21.4659 11.4181 21.7572 11.2364 21.7988C11.1844 21.8107 11.1323 21.908 11.0899 22.0485M12.1903 17.0038C12.0086 16.9112 11.8118 17.0546 11.7361 17.1378M11.0899 22.0485C10.989 21.882 10.8427 21.7572 10.7821 21.7156M21.8205 12.8513C21.6651 12.8513 21.5429 12.8175 21.4571 12.7604M21.4571 12.7604C21.242 12.6174 21.2557 12.3283 21.5479 12.0606C21.1391 11.6861 21.3208 11.1451 21.9568 10.9786C22.5927 10.8122 22.9107 11.2283 23.3195 11.3532C23.7283 11.478 24.0009 11.2283 24.7731 11.7693C24.8963 11.8556 25.0298 11.9525 25.1673 12.0606M21.4571 12.7604C21.021 13.2326 21.0634 13.6836 21.1391 13.8501C21.124 13.9749 21.13 14.2413 21.2754 14.3079C21.13 14.5409 21.4268 14.7101 21.5934 14.7656M21.5934 14.7656C21.6236 14.7101 21.7206 14.5825 21.8659 14.5159M21.5934 14.7656C21.5337 14.8932 21.5263 15.0448 21.5597 15.1818M22.0476 15.3066C22.0476 15.3955 22.0732 15.4796 22.1152 15.5563M22.1152 15.5563C22.0927 15.5841 22.0113 15.6229 21.8659 15.5563C21.7127 15.5096 21.6026 15.3576 21.5597 15.1818M22.1152 15.5563C22.1934 15.6992 22.3288 15.8161 22.4625 15.8893M23.0015 14.3079C22.9014 14.4913 22.881 14.686 22.9177 14.8548M23.5012 15.3066C23.9555 15.2234 23.6829 14.9322 23.7283 14.8073M23.5012 15.3066C23.2138 15.3593 22.981 15.1455 22.9177 14.8548M23.5012 15.3066C23.548 15.4066 23.6578 15.4438 23.7846 15.4471M22.9177 14.8548C23.1301 14.8168 23.3952 14.4743 23.5012 14.3079M23.7846 15.4471C23.9534 15.4514 24.1524 15.3958 24.2735 15.3483C24.3794 15.4315 24.6369 15.5813 24.8186 15.5147C25.0457 15.4315 25.3182 15.7228 25.6362 15.5147C25.6763 15.4885 25.7142 15.4662 25.7503 15.4471M23.7846 15.4471C23.8113 15.5251 23.8919 15.7145 24.0009 15.8477C24.1372 16.0141 23.7283 16.2222 23.5921 16.0557C23.5167 16.0764 23.3837 16.0971 23.2287 16.0922M23.2287 16.0922C23.0722 16.0872 22.8933 16.0561 22.729 15.9725C22.6561 15.9725 22.5597 15.9425 22.4625 15.8893M23.2287 16.0922C23.3649 16.3887 23.8192 16.347 24.0009 16.4303C24.1826 16.5135 24.228 16.68 24.6369 16.4303C25.0457 16.1806 25.182 15.7228 25.4091 15.7228C25.6362 15.7228 25.8189 15.5043 25.7503 15.4471M22.4625 15.8893C23.0924 16.6384 23.5683 17.8868 23.7846 18.0533C24.0009 18.2198 24.9548 18.5943 25.2728 18.5527C25.5908 18.5111 25.9088 18.5527 26.0905 18.4695C25.9088 18.536 25.4091 18.6359 25.182 18.6775C25.5756 18.8301 26.4357 19.1769 26.7264 19.3434C27.0171 19.5099 27.4532 19.607 27.6349 19.6347L26.9081 19.5099C26.999 19.6902 27.2534 20.0842 27.5441 20.2173C27.9075 20.3838 28.4072 20.9248 28.5434 21.2993C28.18 20.6751 27.4532 20.3422 27.0444 20.3838C27.2624 20.75 27.4381 21.0358 27.4986 21.1329C27.2867 20.8693 26.8355 20.3006 26.7264 20.1341C26.5901 19.926 26.2722 19.5515 26.0905 19.4682C25.9088 19.385 23.9447 18.5111 23.8646 18.6359C23.7846 18.7608 24.0463 19.1353 24.0009 19.4682C23.9555 19.8012 23.9555 20.0509 24.0463 20.2589C24.1372 20.467 24.4552 20.9664 24.5914 21.341C24.7277 21.7155 24.6369 22.0484 24.9548 22.1733C25.2728 22.2981 25.7725 22.8808 26.1359 23.0888C26.4266 23.2553 27.1352 23.4634 27.4532 23.5466L26.8627 23.4634C26.9081 23.6021 27.0717 23.9295 27.3624 24.1292C26.999 23.8296 26.7264 23.5605 26.6356 23.4634L26.0905 23.2969C26.2116 23.5744 26.4902 24.1459 26.6356 24.2125C26.4084 24.0876 25.9996 23.3385 25.8633 23.2553C25.7271 23.1721 24.9094 22.423 24.7731 22.5062C24.6369 22.5894 24.7277 23.1721 24.6823 23.3801C24.6369 23.5882 24.864 24.3373 24.864 24.9616C24.864 25.5858 25.0003 26.2517 25.1365 26.5013C25.2728 26.751 25.4091 27.3753 25.6362 27.5001C25.8633 27.625 26.2267 27.5001 26.3176 27.084C26.2267 27.3753 26.1813 27.5001 26.4084 27.5001C26.5901 27.5001 26.9687 27.4724 27.1352 27.4585L25.7271 27.6666C25.7805 27.7584 25.8981 27.8987 26.0845 28.0411M27.1352 28.4989C26.668 28.4059 26.3209 28.2218 26.0845 28.0411M26.0845 28.0411C26.155 28.223 26.0296 28.427 26.2722 28.6851M26.7264 28.9983C26.5043 28.8853 26.3626 28.7814 26.2722 28.6851M26.2722 28.6851C26.1395 28.6755 26.0714 28.7396 26.0574 28.8319M26.1813 29.1648C26.0881 29.058 26.0427 28.9292 26.0574 28.8319M26.0574 28.8319C25.9088 28.4157 25.6362 27.9163 25.2728 27.5417C24.9094 27.1672 24.9094 26.5846 24.6823 26.5013C24.4552 26.4181 24.7277 27.1672 24.864 27.4169C25.0003 27.6666 25.2728 28.1244 25.3182 28.3741C25.3546 28.5738 25.6362 29.1509 25.7725 29.4145C25.6211 29.1093 25.2819 28.4739 25.1365 28.3741C25.0785 28.3342 25.0716 28.3682 25.0911 28.4359M25.2728 28.8319C25.2092 28.7153 25.1204 28.5376 25.0911 28.4359M25.0911 28.4359C24.7731 27.8331 24.4552 27.1672 24.3189 27.1256C24.1826 27.084 23.8646 27.7914 23.8646 28.0828C23.8646 28.3741 24.1372 28.7902 24.0918 29.0815C24.0554 29.3146 23.9555 29.4006 23.9101 29.4145C23.9252 29.2619 23.9464 28.9234 23.9101 28.7902C23.8646 28.6238 23.6375 28.6238 23.5921 28.4989C23.5466 28.3741 23.6829 28.0411 23.5466 28.0411C23.4104 28.0411 22.9561 28.4157 22.6836 28.3325C22.411 28.2492 22.3202 28.0828 21.0937 28.0411C22.1839 27.9579 22.5473 28.1244 22.8653 28.0828C23.1832 28.0411 23.7283 27.5417 23.8192 27.3753C23.9101 27.2088 24.3643 26.5846 24.3189 25.5858C24.2735 24.587 23.8646 24.3789 23.9101 23.505C23.9555 22.6311 23.9101 21.8404 23.5466 21.2577C23.3484 20.9399 23.2938 20.5525 23.2935 20.2589M23.3195 19.926C23.3051 20.0055 23.2934 20.122 23.2935 20.2589M23.2935 20.2589C22.8653 20.4254 22.3202 21.008 22.2293 21.1745C22.1385 21.341 21.8205 22.4646 21.6842 22.6311C21.5479 22.7975 21.8205 23.4218 21.7751 23.6298C21.741 23.7859 21.5281 23.9888 21.4237 24.3789M21.3662 24.8367C21.3662 24.6598 21.3889 24.509 21.4237 24.3789M21.4237 24.3789C21.5934 23.6715 21.4117 23.1721 21.3662 23.0888C21.3384 23.0378 21.3669 22.9019 21.3971 22.7975M21.4237 22.7143C21.4157 22.7369 21.4064 22.7658 21.3971 22.7975M21.3971 22.7975C21.1391 23.0056 20.6849 23.3385 20.6394 23.505C20.632 23.5322 20.6161 23.5628 20.594 23.5956M20.0035 24.587C19.9883 24.4899 19.9853 24.2624 20.0943 24.1292C20.2083 23.99 20.4812 23.7634 20.594 23.5956M20.594 23.5956C19.8906 23.8949 19.3983 24.2267 19.3141 24.587M19.3221 24.8367C19.2969 24.752 19.295 24.6688 19.3141 24.587M19.3141 24.587C19.6855 23.7963 20.2306 23.6298 20.4123 23.4218C20.594 23.2137 21.127 22.6727 21.2754 22.5894C21.4237 22.5062 21.8659 21.5074 21.7751 21.4242C21.6842 21.341 21.2754 21.4242 21.0937 21.5074C20.912 21.5907 20.7757 22.0901 20.594 22.2565C20.4427 22.3952 20.2283 22.3317 20.0035 22.6913M19.8672 22.964C19.9128 22.8527 19.9583 22.7634 20.0035 22.6913M20.0035 22.6913C20.2306 22.1733 20.4577 22.1733 20.5032 22.0068C20.5395 21.8736 20.7606 21.5629 20.8666 21.4242C20.8351 21.3809 20.7602 21.3174 20.6394 21.2711M20.1852 21.2161C20.3771 21.2001 20.5279 21.2283 20.6394 21.2711M20.6394 21.2711C20.5015 21.166 20.3419 21.1107 20.1852 21.0865M19.5492 21.1329C19.6808 21.0898 19.9289 21.0468 20.1852 21.0865M20.1852 21.0865C20.8666 21.2711 21.0192 21.2993 21.3971 21.1745C21.7751 21.0497 21.8659 20.9664 22.0022 20.6751C22.1385 20.3838 22.729 20.0093 22.7744 19.8428C22.8198 19.6763 22.8653 18.5943 22.5473 18.0949C22.2293 17.5955 21.5934 16.3315 20.8211 15.8893C20.3242 15.6047 20.0718 15.2039 19.9308 14.9321M18.9133 14.4327C19.1707 14.4743 19.7037 14.5742 19.7763 14.6408C19.7987 14.6612 19.8265 14.7203 19.8672 14.8044M19.9308 14.9321C20.8211 14.9321 21.1626 14.9737 21.5597 15.1818M19.9308 14.9321C19.9065 14.8853 19.8856 14.8423 19.8672 14.8044M12.5083 24.92C12.0086 24.2541 12.0995 23.8379 12.0086 23.6298C11.9178 23.4218 11.5998 22.5478 12.0086 22.1317C12.3357 21.7988 12.478 20.7722 12.5083 20.3006C12.7354 20.4254 13.226 20.7085 13.3714 20.8416C13.5531 21.008 13.0988 21.5491 13.0988 21.7988C13.0988 22.0134 13.1324 22.4432 13.4302 22.7975M14.0073 23.9212C13.6894 23.5882 14.0528 23.3385 13.5985 22.964C13.5347 22.9114 13.4789 22.8554 13.4302 22.7975M13.4302 22.7975C13.2351 22.1317 13.1443 21.4658 13.6894 21.4658C13.722 21.4658 13.7522 21.4692 13.7802 21.4757M15.2792 23.3385C15.2234 23.1084 15.0313 22.6522 14.6887 22.5299M14.6887 22.5299C14.6595 22.5194 14.6292 22.5114 14.5979 22.5062C14.1281 22.428 14.2204 21.5773 13.7802 21.4757M14.6887 22.5299C14.9431 22.5442 15.1278 22.6033 15.1884 22.6311M13.7802 21.4757C13.62 21.2835 13.5304 20.7754 13.9165 20.8007M15.0975 21.2993C15.0673 21.3132 14.9613 21.2993 14.7796 21.1329C14.5524 20.9248 14.6887 21.0497 14.0982 20.8416C14.0284 20.8171 13.9682 20.8041 13.9165 20.8007M13.9165 20.8007C13.6439 20.6335 13.4622 20.4254 13.0988 20.3006C12.8081 20.2007 12.8566 19.5653 12.9171 19.2602C12.9777 18.955 13.2169 18.2863 13.6894 18.0533C14.1618 17.8202 14.401 17.5123 14.4616 17.3874C14.5827 17.5539 14.9704 17.8869 15.5518 17.8869C16.1332 17.8869 16.5209 17.6094 16.642 17.4707C16.9297 17.5817 17.5142 17.8868 17.5505 18.2198C17.5693 18.3923 17.5804 18.529 17.5739 18.6359M17.0508 19.5515C17.3688 19.3018 17.2325 19.0105 17.4142 18.9272C17.5206 18.8785 17.5647 18.787 17.5739 18.6359M17.5739 18.6359C17.7776 19.0105 18.3682 19.3434 18.459 19.385M18.459 19.385C18.5499 19.4266 18.777 19.7179 18.8224 19.8844M18.459 19.385C18.5119 19.3608 18.5737 19.3435 18.6407 19.3318M19.5492 19.385C19.351 19.3396 18.9421 19.2794 18.6407 19.3318M18.6407 19.3318C18.2773 19.2185 17.8685 18.8024 17.8685 18.6775C17.8685 18.5527 17.9593 17.9701 17.5051 17.7204C18.1865 17.8452 18.5953 17.5539 18.8678 17.7204C19.104 17.8646 19.8514 18.165 20.4015 18.0533M20.6394 17.9701C20.5665 18.009 20.4863 18.0361 20.4015 18.0533M20.4015 18.0533C19.4584 17.8869 19.1858 17.6788 19.0041 17.5539C19.7763 17.2626 20.5032 17.0545 20.8211 17.0961C20.8999 17.1064 20.9758 17.1218 21.0483 17.1379M21.5934 17.1794C21.4566 17.242 21.2685 17.1868 21.0483 17.1379M21.0483 17.1379C20.5486 17.0129 20.1307 17.0129 19.9308 17.0961M19.9308 17.0961C20.2306 16.7216 20.4577 16.1806 21.3208 16.5967M19.9308 17.0961C19.4584 17.2626 19.1858 17.2626 19.095 17.1794C19.0041 17.0961 18.8224 16.8881 18.6407 16.8881C18.506 16.8881 18.7208 16.4937 18.8224 16.2578M18.459 15.806C18.7316 15.7644 18.8224 16.0141 18.8678 16.0922C18.8796 16.1124 18.8579 16.1755 18.8224 16.2578M18.8224 16.2578C18.5783 16.6138 18.6554 16.8927 18.2319 16.8714M17.6868 16.7632C17.9296 16.8309 18.1037 16.8649 18.2319 16.8714M18.2319 16.8714C18.8224 17.0961 19.0041 17.221 18.8224 17.3874C18.6407 17.5539 18.2319 17.4707 17.9593 17.4707C17.6868 17.4707 17.1871 17.5955 16.7783 17.3042C16.5966 16.5967 16.642 16.139 16.7783 15.8893C16.9146 15.6396 17.4142 14.6765 17.6868 14.7656C17.8061 14.8047 17.8906 14.8175 17.9593 14.8301M18.5499 15.0569C18.4742 15.0569 18.2955 15.032 18.1865 14.9321C18.1098 14.8619 18.0476 14.8462 17.9593 14.8301M17.9593 14.8301C17.8403 14.7374 17.8599 14.5035 18.1392 14.4457M18.459 14.4457C18.4439 14.4414 18.3863 14.4327 18.2773 14.4327C18.2256 14.4327 18.1796 14.4374 18.1392 14.4457M18.1392 14.4457C18.2835 14.3075 18.3017 14.1729 18.2864 14.0582M18.4136 13.1842C18.353 13.3507 18.2319 13.7086 18.2319 13.8085C18.2319 13.8676 18.2727 13.9548 18.2864 14.0582M18.2864 14.0582C18.1392 14.3079 17.7776 14.5159 17.5505 14.5992C17.3688 14.6658 17.3234 14.7379 17.3234 14.7656M17.3234 14.7656C17.3688 14.6269 17.4233 14.3328 17.278 14.2662C17.1326 14.1997 17.066 13.9888 17.0508 13.8917M17.3234 14.7656C17.0327 15.0986 16.8086 15.4315 16.7329 15.5563C16.7444 15.4401 16.7542 15.216 16.726 15.0569M16.3695 14.6408C16.3695 14.7656 16.5966 14.7656 16.6874 14.9321C16.7047 14.9638 16.7172 15.0072 16.726 15.0569M16.1423 14.9321C16.2229 15.0059 16.2996 15.069 16.3695 15.1174M16.726 15.0569C16.721 15.2745 16.5753 15.26 16.3695 15.1174M16.3695 15.1174C16.5512 15.3899 16.6874 15.6709 16.5057 16.0922C16.45 15.9933 16.3017 15.9186 16.1877 15.8766M16.0969 15.8477C16.1216 15.8541 16.1531 15.8639 16.1877 15.8766M16.1877 15.8766C16.4603 16.0557 16.5057 16.1806 16.5057 16.6384C16.5057 17.0961 16.5966 17.221 16.324 17.3874C16.0515 17.5539 15.3701 17.8452 14.5979 17.3042C14.507 16.9713 14.3707 16.68 14.7341 16.0141C15.0975 15.3483 15.4609 14.8073 15.5064 14.4743C15.5518 14.1414 15.5972 12.9761 14.7341 12.6432C14.3707 12.5184 14.1414 12.8514 13.7326 12.685M15.5136 14.4135C14.0145 13.706 13.5531 12.56 13.4622 11.6444C13.4239 11.2586 13.503 10.7324 13.7348 10.2712M15.7789 9.31408C14.754 9.16961 14.053 9.6382 13.7348 10.2712M13.7348 10.2712C15.329 10.2296 16.6874 8.44004 17.1417 7.60772C17.3202 7.2807 17.4986 6.97938 17.7322 6.6659M19.4129 4.98591C19.4129 5.11076 19.3675 5.23561 19.3221 5.31884M19.4129 4.98591C19.4493 4.65298 19.7309 3.76518 19.8672 3.36289M19.4129 4.98591C18.5856 5.66807 18.0931 6.18151 17.7322 6.6659M19.8672 3.36289C19.9126 3.23804 20.3669 3.19642 20.594 3.36289M19.8672 3.36289C19.8672 3.48783 20.6849 3.48764 20.594 3.36289M20.594 3.36289C20.629 3.39507 20.4478 4.07108 20.3215 4.43576M20.2306 4.65308C20.2514 4.62454 20.284 4.54382 20.3215 4.43576M20.3215 4.43576C20.7303 3.94561 21.1391 3.48783 21.4571 3.61268C21.7751 3.73753 21.7296 4.27854 21.9568 4.56985C22.1569 4.82648 22.5685 5.2769 22.5705 5.69348M19.8672 14.8044C19.8521 14.2366 19.7673 12.9763 19.5492 12.4769C19.2767 11.8527 18.9587 10.6874 19.0041 10.2296C19.0495 9.77185 19.6401 9.23084 19.7763 9.06438C19.9126 8.89792 21.0028 7.5662 21.5025 7.19166C22.0022 6.81712 22.411 6.31772 22.5473 5.85995C22.5635 5.80545 22.5707 5.74978 22.5705 5.69348M6.96024 16.1391C7.09617 15.8199 7.23093 15.5332 7.32981 15.3067C7.60237 14.6825 7.42067 13.7253 8.05662 13.7253C8.69257 13.7253 9.2831 14.6825 9.23768 14.8905C9.38304 14.9571 9.44966 15.057 9.4648 15.0986C9.79187 15.0653 10.0856 15.2512 10.1916 15.3483C10.4234 15.3483 10.6482 15.4189 10.8276 15.5197M6.96024 16.1391C6.42131 14.6409 6.01248 14.2249 6.01248 12.9347C6.01248 12.1168 6.41404 10.7974 6.9279 9.81372M10.8276 15.5197C9.78278 14.817 9.4648 12.685 9.6465 12.3104C9.74128 12.1151 9.59996 11.7934 9.40505 11.4781M9.40505 11.4781C9.22627 11.1889 9.00242 10.9051 8.87427 10.729C8.60172 10.3545 8.738 8.10721 7.87492 8.6066C7.55893 8.78944 7.22468 9.24558 6.9279 9.81372M9.40505 11.4781C9.69205 10.8311 10.2394 9.84271 10.2663 9.39756M12.7354 1.82345C12.751 1.79968 12.76 1.77156 12.7636 1.74021M12.7636 1.74021C12.7916 1.49717 12.4927 1.06 12.372 0.949417C12.2357 0.824569 11.7361 1.1575 11.7361 1.28235C11.7361 1.32396 11.7906 1.46546 12.0086 1.69851C12.2812 1.98982 11.7361 2.40598 11.7361 2.32275C11.7361 2.23951 11.5544 1.94804 11.4635 1.86481C11.3727 1.78158 10.9184 2.07289 11.0093 2.15612C11.4635 2.78036 11.0547 3.32137 10.6913 4.73631C10.3279 6.15126 11.0547 7.31651 11.2818 7.8159C11.0547 7.77428 10.237 6.23449 9.37395 4.32015C9.01055 4.15369 7.78407 4.90278 7.87492 5.15247C8.64715 7.06681 10.0553 8.93953 10.237 9.23084C10.2618 9.27056 10.2705 9.32729 10.2663 9.39756M12.7636 1.74021C13.6439 1.36567 14.5979 1.24082 14.825 1.32405C15.0521 1.40729 15.1884 2.36445 15.0067 2.4893C14.6433 2.5226 14.401 2.50317 14.3253 2.4893C14.4616 2.54479 14.7432 2.68906 14.7796 2.82223C14.825 2.98869 14.6433 3.07193 14.5524 3.07193C14.4616 3.07193 14.0982 2.739 13.8256 2.82223C13.5531 2.90546 12.7809 3.28001 12.5537 3.73778C12.3266 4.19556 11.7925 5.81858 12.7636 6.69252C14.6887 5.8602 16.3695 6.13988 17.7322 6.6659M10.2663 9.39756C7.73864 7.64969 5.8762 6.94221 5.46738 6.6509C5.05855 6.35959 4.4226 5.73535 4.05919 5.73535C3.69579 5.73535 2.96899 6.48444 2.96899 6.6509C2.96899 6.78407 4.30146 7.56645 4.9677 7.941C4.48316 7.87164 3.31422 7.85777 2.51473 8.35716C2.19676 8.10746 2.06048 8.06585 1.83335 8.31554C1.69708 8.44039 2.01505 8.7317 1.87878 8.81493C1.7425 8.89817 1.60621 8.52362 1.42451 8.44039C1.24281 8.35716 0.924835 8.56524 0.924835 8.7317C0.924835 8.89817 1.19739 8.93978 1.06111 9.27271C0.924835 9.60564 0.833984 9.64725 0.833984 9.81372C0.833984 9.98018 1.60621 10.7293 2.10589 10.5628C2.24217 10.5212 2.06047 10.1466 2.69642 9.73049C3.33238 9.31433 5.02501 8.9814 6.9279 9.81372M25.1673 12.0606C25.6362 12.0606 24.7277 10.8125 24.5006 10.438C24.2734 10.0634 23.1378 8.9814 23.1832 8.7317C23.2287 8.48201 23.3649 8.19069 23.8192 8.35716C24.2734 8.52362 24.4551 8.48201 24.5914 8.31554C24.6608 8.23085 24.7301 8.12461 24.7456 8.02423M24.5914 7.77453C24.7253 7.83586 24.7605 7.92732 24.7456 8.02423M24.7456 8.02423C25.2274 8.23231 25.3182 8.10746 25.4999 8.02423C25.6816 7.941 25.8179 7.48322 25.6816 7.27514C25.5842 7.12636 25.0687 6.93503 24.5006 6.80764M23.8192 6.69252C24.0393 6.71624 24.2741 6.75686 24.5006 6.80764M24.5006 6.80764C25.3636 6.40121 25.2728 6.31797 25.3182 6.19313C25.3636 6.06828 24.7731 5.40242 24.546 5.27757C24.3643 5.1777 23.7658 5.51323 23.4781 5.69348M23.0015 6.60929C23.4104 6.02666 23.7283 5.06949 23.6829 4.94465C23.6375 4.8198 23.0924 4.65333 22.9107 4.73657C22.7653 4.80315 22.6233 5.40225 22.5705 5.69348M21.5479 4.07046C21.6842 4.61147 21.8205 4.6947 21.9568 4.86116C22.093 5.02763 22.4564 5.4854 22.411 5.69348C22.3656 5.90156 21.8205 5.44379 21.5479 5.06924C21.2754 4.6947 21.12 4.00475 21.3208 3.82076C21.4117 3.73753 21.5328 3.94561 21.5479 4.07046ZM8.01119 10.8539C7.55694 10.0215 7.73864 9.02276 7.96577 8.8563C8.1929 8.68984 8.28375 8.89792 8.3746 9.18923C8.46545 9.48054 8.49985 10.4591 8.69257 10.8123C8.9197 11.2284 9.4648 11.7278 9.4648 12.1023C9.4648 12.4769 9.00585 12.6785 8.738 12.3104C8.46545 11.9359 8.51087 11.7278 8.01119 10.8539Z" stroke="black" stroke-width="0.616667" stroke-linecap="round" stroke-linejoin="round"/>
</svg>
