<svg width="16" height="18" viewBox="0 0 16 18" fill="none" xmlns="http://www.w3.org/2000/svg">
<path d="M10.1138 0.262C9.47807 0.00482585 8.81961 0.167252 8.68338 1.30423C8.63797 1.67239 8.74772 1.88174 8.80826 1.9404C8.58499 2.01258 8.09303 2.53054 7.91139 4.02486C7.68433 5.89275 8.66067 7.07034 9.06937 7.42226C9.47807 7.77419 10.3182 8.15318 10.4885 9.22248C10.6588 10.2918 10.4998 11.0633 9.81866 12.3086C9.13749 13.5538 9.55754 15.2864 11.3399 15.2864C12.1346 15.8278 13.5991 16.3827 14.3257 16.7076C15.0523 17.0325 15.0409 16.6399 15.0409 14.6096C15.1524 11.7529 14.9624 9.38204 14.5572 7.42226C14.3845 6.58701 14.1726 5.82644 13.9284 5.13477C13.111 2.8202 11.9984 1.9404 11.7373 1.76443C11.4762 1.58847 10.7496 0.519174 10.1138 0.262Z" fill="#DD9C9F"/>
<path d="M6.2993 0.262C6.96911 0.0995782 7.07129 2.06221 6.63988 3.49697C7.0707 4.27862 7.37018 6.14725 7.47456 8.03136C7.49671 8.43112 7.51007 8.83157 7.51405 9.22248C7.53675 11.4558 6.901 12.85 5.92466 13.9328C4.94832 15.0157 3.4384 15.6789 3.01835 15.5571C2.814 15.8549 2.26906 16.1797 1.84901 16.4098C1.42896 16.6399 1.14514 17.1001 0.974844 17.1137C0.804552 17.1272 0.441263 15.8143 0.50938 12.4304C0.535105 11.1524 0.596453 10.0386 0.698316 9.04652C0.731564 8.72272 0.769128 8.41189 0.811179 8.11257C0.981428 6.90072 1.22522 5.87748 1.55384 4.94527C2.2123 3.07738 3.27946 2.02161 4.11957 1.23655C4.95967 0.451493 5.62949 0.424422 6.2993 0.262Z" fill="#DD9C9F"/>
<path d="M11.3399 15.2864C12.1346 15.8278 13.5991 16.3827 14.3257 16.7076C15.0523 17.0325 15.0409 16.6399 15.0409 14.6096C15.1524 11.7529 14.9624 9.38204 14.5572 7.42226M11.3399 15.2864C9.55754 15.2864 9.13749 13.5538 9.81866 12.3086C10.4998 11.0633 10.6588 10.2918 10.4885 9.22248C10.3182 8.15318 9.47807 7.77419 9.06937 7.42226C8.66067 7.07034 7.68433 5.89275 7.91139 4.02486C8.09303 2.53054 8.58499 2.01258 8.80826 1.9404M11.3399 15.2864C11.6086 15.0608 12.4162 14.1954 13.497 12.5387C14.8479 10.4677 14.7231 9.87218 14.5572 7.42226M8.80826 1.9404C8.74772 1.88174 8.63797 1.67239 8.68338 1.30423C8.81961 0.167252 9.47807 0.00482584 10.1138 0.262C10.7496 0.519174 11.4762 1.58847 11.7373 1.76443C11.9984 1.9404 13.111 2.8202 13.9284 5.13477C14.1726 5.82644 14.3845 6.58701 14.5572 7.42226M8.80826 1.9404C8.90817 1.91874 9.21318 1.50726 9.3532 1.30423M6.63988 3.49697C7.07129 2.06221 6.96911 0.0995782 6.2993 0.262C5.62949 0.424422 4.95967 0.451493 4.11956 1.23655C3.27946 2.02161 2.2123 3.07738 1.55384 4.94527C1.22522 5.87748 0.981428 6.90072 0.811179 8.11257M6.63988 3.49697C6.36742 2.92848 6.14036 2.87434 5.94736 2.1705M6.63988 3.49697C7.0707 4.27862 7.37018 6.14725 7.47456 8.03136M3.01835 15.5571C2.814 15.8549 2.26906 16.1797 1.84901 16.4098C1.42896 16.6399 1.14514 17.1001 0.974844 17.1137C0.804552 17.1272 0.441263 15.8143 0.50938 12.4304C0.535105 11.1524 0.596453 10.0386 0.698316 9.04652M3.01835 15.5571C3.4384 15.6789 4.94832 15.0157 5.92466 13.9328C6.901 12.85 7.53675 11.4558 7.51405 9.22248C7.51007 8.83157 7.49671 8.43112 7.47456 8.03136M3.01835 15.5571C2.49612 15.1104 1.05754 11.2257 0.698316 9.04652M0.698316 9.04652C0.731564 8.72272 0.769128 8.41189 0.811179 8.11257M0.811179 8.11257C1.8036 9.58794 4.19903 8.89763 4.98238 8.62692C5.76572 8.35621 6.9242 8.0855 7.47456 8.03136" stroke="black" stroke-width="0.231938" stroke-linecap="round" stroke-linejoin="round"/>
</svg>
