<svg width="25" height="25" viewBox="0 0 25 25" fill="none" xmlns="http://www.w3.org/2000/svg">
<g clip-path="url(#clip0_4405_114885)">
<path d="M16.442 13.0735C15.5106 12.1422 13.9892 12.1422 13.0579 13.0735C12.1265 14.0048 12.1265 15.5263 13.0579 16.4576L15.053 18.4527L18.4371 15.0686L16.442 13.0735Z" fill="white"/>
<path d="M22.322 22.3338C23.2534 21.4024 23.2534 19.881 22.322 18.9497L19.4036 16.0312L16.0195 19.4153L18.938 22.3338C19.8733 23.2611 21.3907 23.2611 22.322 22.3338Z" fill="white"/>
<path d="M12.106 12.1294C13.3545 10.8809 15.2693 10.7043 16.7145 11.5875V1.9651C16.7145 1.63997 16.4495 1.375 16.1244 1.375H5.94809V5.29703C5.94809 5.67035 5.64704 5.97543 5.26968 5.97543H1.34766V22.2736C1.34766 22.5988 1.61262 22.8637 1.93776 22.8637H16.1164C16.4415 22.8637 16.7065 22.5988 16.7065 22.2736V22.0328L12.1021 17.4283C10.6489 15.9671 10.6489 13.5866 12.106 12.1294Z" fill="white"/>
<path d="M23.2832 17.9842L18.0685 12.7736V1.94698C18.0685 0.871154 17.1934 0 16.1215 0H5.80474C5.29089 0 4.78908 0.204733 4.4278 0.570048L0.570048 4.4278C0.204733 4.78908 0 5.29089 0 5.80474V22.2555C0 23.3313 0.875129 24.2024 1.94698 24.2024H16.1215C16.8763 24.2024 17.5226 23.7769 17.8477 23.1507L17.9762 23.2792C19.4334 24.7364 21.8139 24.7364 23.2751 23.2792C24.7403 21.8179 24.7403 19.4414 23.2832 17.9842ZM13.0707 16.4467C12.1393 15.5154 12.1393 13.994 13.0707 13.0627C14.002 12.1313 15.5234 12.1313 16.4548 13.0627L18.4499 15.0578L15.0658 18.4499L13.0707 16.4467ZM4.60043 2.31229V4.60447H2.31223L4.60043 2.31229ZM16.7157 22.2555C16.7157 22.5806 16.4507 22.8456 16.1256 22.8456H1.94698C1.62184 22.8456 1.35687 22.5806 1.35687 22.2555V5.95731H5.2789C5.65223 5.95731 5.95731 5.65626 5.95731 5.2789V1.35284H16.1215C16.4467 1.35284 16.7116 1.6178 16.7116 1.94294V11.5653C15.2665 10.6822 13.3517 10.8588 12.1032 12.1072C10.646 13.5645 10.646 15.9449 12.1032 17.4061L16.7116 22.0146V22.2594H16.7157V22.2555ZM22.3237 22.3237C21.3924 23.255 19.8709 23.255 18.9396 22.3237L16.0212 19.4053L19.4053 16.0212L22.3237 18.9396C23.251 19.8709 23.251 21.3924 22.3237 22.3237Z" fill="#194F82"/>
<path d="M3.38743 21.4861H14.6837C15.0571 21.4861 15.3622 21.185 15.3622 20.8077V20.6512L12.1105 17.3995C10.6533 15.9423 10.6533 13.5618 12.1105 12.1007C12.9937 11.2175 14.214 10.8723 15.3622 11.061V3.38153C15.3622 3.00821 15.0611 2.70312 14.6837 2.70312H6.39819C6.23357 2.70312 6.07702 2.76733 5.95662 2.87172V5.27231C5.95662 5.64564 5.65557 5.95072 5.27821 5.95072H2.87762C2.77323 6.07516 2.70902 6.22773 2.70902 6.39229V20.8077C2.70499 21.181 3.01404 21.4861 3.38743 21.4861Z" fill="#56ACE0"/>
<path d="M2.3125 4.60845H4.6007V2.32031L2.3125 4.60845Z" fill="#FFC10D"/>
<path d="M13.5315 5.09119H8.68622C8.31289 5.09119 8.00781 4.79014 8.00781 4.41278C8.00781 4.03946 8.30886 3.73438 8.68622 3.73438H13.5315C13.9048 3.73438 14.2099 4.03542 14.2099 4.41278C14.2099 4.79014 13.9089 5.09119 13.5315 5.09119Z" fill="#194F82"/>
<path d="M13.5296 8.93494H4.5495C4.17617 8.93494 3.87109 8.63389 3.87109 8.25653C3.87109 7.87917 4.17214 7.57812 4.5495 7.57812H13.5336C13.9069 7.57812 14.212 7.87917 14.212 8.25653C14.212 8.63389 13.9069 8.93494 13.5296 8.93494Z" fill="#194F82"/>
<path d="M9.65571 12.7787H4.5495C4.17617 12.7787 3.87109 12.4776 3.87109 12.1003C3.87109 11.7229 4.17214 11.4219 4.5495 11.4219H9.65571C10.029 11.4219 10.3341 11.7229 10.3341 12.1003C10.3301 12.4776 10.029 12.7787 9.65571 12.7787Z" fill="#194F82"/>
<path d="M9.23022 16.6303H4.5495C4.17617 16.6303 3.87109 16.3291 3.87109 15.9518C3.87109 15.5745 4.17214 15.2734 4.5495 15.2734H9.2342C9.60752 15.2734 9.9126 15.5745 9.9126 15.9518C9.9126 16.3291 9.60752 16.6303 9.23022 16.6303Z" fill="#194F82"/>
<path d="M11.2574 20.474H4.5495C4.17617 20.474 3.87109 20.173 3.87109 19.7956C3.87109 19.4182 4.17214 19.1172 4.5495 19.1172H11.2574C11.6308 19.1172 11.9358 19.4182 11.9358 19.7956C11.9358 20.173 11.6308 20.474 11.2574 20.474Z" fill="#194F82"/>
<path d="M19.9023 21.3657L17.9434 19.4068L19.4126 17.9375L21.3716 19.8965C21.5643 20.037 21.9416 20.7756 21.3716 21.3657C21.1066 21.6467 20.4001 21.8996 19.9023 21.3657Z" fill="#FFC10D"/>
<path d="M15.4897 14.0445L16.5254 15.0802L15.0562 16.5495L14.0245 15.5138C13.8318 15.3732 13.4544 14.6346 14.0245 14.0445C14.2934 13.7715 14.9919 13.5106 15.4897 14.0445Z" fill="#56ACE0"/>
</g>
<defs>
<clipPath id="clip0_4405_114885">
<rect width="24.375" height="24.375" fill="white"/>
</clipPath>
</defs>
</svg>
